<svg width="1736" height="270" viewBox="0 0 1736 270" fill="none" xmlns="http://www.w3.org/2000/svg">
<g clip-path="url(#clip0_893_8177)">
<mask id="mask0_893_8177" style="mask-type:luminance" maskUnits="userSpaceOnUse" x="-2" y="14" width="1823" height="256">
<path d="M1820.68 14.9746H-1.09473V270H1820.68V14.9746Z" fill="white"/>
</mask>
<g mask="url(#mask0_893_8177)">
<path d="M1736.88 77.9101C1736.88 95.5884 1739.19 90.9363 1723.8 90.9363C1708.41 90.9363 1691.39 96.9841 1695.94 79.7709C1695.94 74.8893 1708.41 70.9319 1723.8 70.9319C1737.51 70.9319 1736.88 69.0712 1736.88 77.9101Z" fill="#ECF0F1"/>
<path d="M1707.45 77.2374C1707.45 95.8209 1647.53 98.3501 1597.25 98.3501C1546.98 98.3501 1503.03 116.824 1506.22 64.7017C1506.22 46.1182 1546.98 27.0947 1597.25 27.0947C1659.54 27.0948 1707.45 58.6539 1707.45 77.2374Z" fill="#ECF0F1"/>
<path d="M1573.12 67.6757C1580.16 107.219 1542.41 88.4701 1511.34 92.1714C1480.26 95.8726 1448.79 90.3777 1446.9 79.7718C1445.01 69.166 1473.43 57.4654 1504.5 53.7641C1535.58 50.0629 1571.24 57.0698 1573.12 67.6757Z" fill="#ECF0F1"/>
<path d="M1454.85 76.0495C1470.21 107.219 1435 89.0755 1410.5 89.0755C1386.01 89.0755 1364.45 102.567 1366.15 76.0495C1366.15 70.1401 1386.01 65.3496 1410.5 65.3496C1435 65.3496 1454.85 70.1401 1454.85 76.0495Z" fill="#ECF0F1"/>
<path d="M1383.78 80.2366C1383.78 93.8539 1333.23 96.9843 1299.63 96.9843C1266.03 96.9843 1222.3 93.8539 1222.3 80.2366C1222.3 66.6193 1266.03 43.0195 1299.63 43.0195C1344.55 43.0195 1383.78 66.6193 1383.78 80.2366Z" fill="#ECF0F1"/>
<ellipse cx="58.9908" cy="21.4766" rx="58.9908" ry="21.4766" transform="matrix(0.995093 -0.0989431 0.146918 0.989149 1116.67 75.0645)" fill="#ECF0F1"/>
<ellipse cx="1083.57" cy="87.2145" rx="47.1928" ry="6.9782" fill="#ECF0F1"/>
<path d="M1055.71 90.9354C1055.71 103.525 1022.88 107.218 985.201 107.218C947.519 107.218 916.971 97.012 916.971 84.4224C916.971 71.8328 947.519 61.627 985.201 61.627C1022.88 61.627 1055.71 78.3458 1055.71 90.9354Z" fill="#ECF0F1"/>
<path d="M944.265 82.0967C944.265 102.137 910.408 118.383 868.643 118.383C826.878 118.383 789.041 102.137 789.041 82.0967C789.041 62.0562 829.152 43.9492 870.917 43.9492C912.682 43.9492 944.265 62.0562 944.265 82.0967Z" fill="#ECF0F1"/>
<path d="M816.896 100.24C816.896 115.399 791.44 127.688 760.038 127.688C728.635 127.688 703.179 115.399 703.179 100.24C703.179 78.3753 728.635 71.8623 760.038 71.8623C791.44 71.8623 816.896 74.6536 816.896 100.24Z" fill="#ECF0F1"/>
<path d="M409.222 89.5398C405.81 99.3092 365.13 123.965 323.365 123.965C281.6 123.965 248.312 100.24 248.312 89.0745C239.215 51.3922 274.467 14.176 323.934 16.0366C375.106 13.71 409.222 49.7156 409.222 89.5398Z" fill="#ECF0F1"/>
<path d="M520.663 105.358C520.663 116.988 472.022 123.501 430.257 123.501C388.492 123.501 363.164 129.084 359.752 104.893C359.753 69.5366 385.908 29.9943 435.375 31.8549C486.547 29.5283 520.663 65.5339 520.663 105.358Z" fill="#ECF0F1"/>
<path d="M628.693 126.757C627.401 133.735 595.691 126.292 553.638 126.292C511.586 126.292 472.899 126.757 466.675 126.292C466.675 78.3751 493.01 51.3936 542.818 53.2542C594.342 50.9276 637.221 80.7008 628.693 126.757Z" fill="#ECF0F1"/>
<path d="M784.203 110.234C783.087 119.958 729.595 110.234 677.476 110.234C625.358 110.234 572.868 118.798 572.868 110.234C567.922 46.8995 605.507 12.7532 667.237 15.1748C731.095 12.1467 791.271 48.639 784.203 110.234Z" fill="#ECF0F1"/>
<path d="M223.881 96.629C223.881 121.999 191.979 121.999 136.806 121.999C81.6319 121.999 24.0796 113.726 24.0796 96.629C24.0796 51.5465 68.8068 15 123.981 15C179.154 15 229.956 53.6083 223.881 96.629Z" fill="#ECF0F1"/>
<path d="M109.452 99.8942C109.452 123.777 64.1203 123.777 8.20103 123.777C-2.97499 123.777 0.516213 127.047 0.516213 92.5004C0.516213 57.9534 -2.97315 36.7715 8.20103 37.3413C64.011 40.187 109.452 65.3472 109.452 99.8942Z" fill="#ECF0F1"/>
<path d="M338.206 98.8103C338.206 134.628 291.408 122.982 233.68 122.982C175.951 122.982 129.153 134.628 129.153 98.8103C129.153 62.9928 175.951 33.957 233.68 33.957C305.767 29.8302 338.206 62.9928 338.206 98.8103Z" fill="#ECF0F1"/>
<rect y="88.7246" width="1737" height="181.276" fill="#ECF0F1"/>
</g>
</g>
<defs>
<clipPath id="clip0_893_8177">
<rect width="1736" height="270" fill="white"/>
</clipPath>
</defs>
</svg>
