<svg width="686" height="642" viewBox="0 0 686 642" fill="none" xmlns="http://www.w3.org/2000/svg">
<path d="M386.069 246.751L257.485 252.116C256.308 268.931 257.13 277.109 262.179 294.906L381.184 292.073C388.371 266.904 390.231 255.833 386.069 246.751Z" fill="#B3810B"/>
<path d="M347.436 226.922L294.708 229.585L283.049 236.634C268.379 241.577 261.111 244.63 257.485 252.115L386.297 246.727C378.281 239.004 369.529 235.272 347.436 226.922Z" fill="#B3810B"/>
<path d="M330.563 217.615H311.024L290.154 232.588L351.877 228.946L330.563 217.615Z" fill="#B3810B"/>
<path d="M332.34 213.164H307.473V226.113L339.889 223.685L332.34 213.164Z" fill="#B3810B"/>
<path d="M333.225 190.503L307.47 199.81V220.448L333.225 218.02V190.503Z" fill="#DEBBA6"/>
<path d="M348.325 130.613L260.848 142.753C265.48 160.741 265.066 169.097 281.274 193.74C286.775 199.237 291.91 201.506 306.585 203.452C329.626 201.581 339.759 199.439 350.102 180.387L348.325 130.613Z" fill="#DEBBA6"/>
<path d="M332.285 111.961C311.927 100.717 299.466 100.99 274.773 114.392C265.488 125.673 261.995 131.304 260.849 143.158C260.849 143.158 343.967 141.132 347.562 135.054C351.156 128.977 341.406 119.546 332.285 111.961Z" fill="#DEBBA6"/>
<rect width="7.99287" height="3.23729" transform="matrix(-1 0 0 1 305.695 165.414)" fill="#DEBBA6"/>
<path d="M303.919 174.317C303.475 174.722 303.383 175.531 304.364 175.531C305.344 175.531 309.248 173.55 309.248 173.103C309.248 172.656 308.453 172.698 307.472 172.698C306.491 172.698 303.919 173.87 303.919 174.317Z" fill="#472801" fill-opacity="0.59"/>
<path d="M312.357 170.27L307.473 168.247C308.612 168.872 309.229 169.25 310.137 170.27C310.628 171.169 310.527 171.588 310.137 172.294L312.357 171.08V170.27Z" fill="#472801" fill-opacity="0.59"/>
<path d="M295.926 169.057L294.15 169.461L291.929 173.103L292.373 173.913C293.243 172.028 293.989 170.727 295.926 169.057Z" fill="#472801" fill-opacity="0.59"/>
<path d="M296.372 175.935C296.372 176.159 297.413 175.935 298.148 175.935C298.884 175.935 299.48 176.159 299.48 175.935C299.48 175.712 298.44 175.126 297.704 175.126C296.969 175.126 296.372 175.712 296.372 175.935Z" fill="#472801" fill-opacity="0.59"/>
<path d="M285.716 98.2402C253.807 108.656 240.228 120.258 229.765 145.181C278.431 183.597 273.354 188.664 265.289 209.927C277.785 215.787 289.334 216.324 307.918 206.285L307.474 203.047C297.567 201.1 292.574 199.461 285.716 194.55C270.652 175.394 264.766 164.293 260.849 143.562C267.988 130.088 270.588 127.302 291.677 116.117L285.716 98.2402Z" fill="#472801"/>
<path d="M356.487 104.008C330.48 89.942 314.682 89.6739 284.996 97.9383L291.676 116.118L320.519 123.028C326.328 124.544 329.697 125.48 348.05 133.144C349.085 162.719 349.23 171.204 346.717 178.466L345.129 186.578L332.637 198.427C339.325 201.684 345.135 201.675 356.487 197.89C380.463 163.709 372.982 142.419 356.487 104.008Z" fill="#472801"/>
<path d="M287.503 110.299C276.337 107.97 267.777 109.626 245.31 121.712C229.801 131.042 220.388 142.275 222.219 145.992C224.051 149.709 226.947 152.035 240.869 157.322C253.335 162.056 258.074 168.37 258.929 169.639C259.03 169.788 259.161 169.91 259.324 169.993L272.405 176.664" stroke="#844C01" stroke-linecap="round"/>
<path d="M282.322 113.308C258.38 122.956 252.848 128.708 248.574 139.206" stroke="#844C01" stroke-width="2" stroke-linecap="round"/>
<path d="M267.119 178.982C271.459 200.248 268.824 206.132 252.91 203.262" stroke="#844C01" stroke-linecap="round"/>
<path d="M284.004 195.962C283.932 206.001 281.744 209.693 273.347 212.148" stroke="#844C01" stroke-linecap="round"/>
<path d="M286.605 196.142C287.458 200.882 286.712 203.565 284.829 208.309" stroke="#844C01" stroke-linecap="round"/>
<path d="M258.188 168.698C278.472 190.064 280.277 199.792 263.516 212.402" stroke="#844C01" stroke-linecap="round"/>
<path d="M360.318 169.428C361.454 181.527 360.407 187.509 357.654 197.754" stroke="#844C01"/>
<path d="M359.439 169.378C359.276 180.23 357.519 186.003 353.223 196.086" stroke="#844C01" stroke-linecap="round"/>
<path d="M353.634 196.574C347.387 194.798 342.881 195.34 334.096 197.383" stroke="#844C01"/>
<path d="M342.508 195.54L346.06 189.065" stroke="#844C01" stroke-linecap="round"/>
<path d="M325.807 111.472L335.007 116.046C344.305 123.899 348.595 128.676 354.226 138.179" stroke="#844C01"/>
<path d="M333.74 118.687C339.567 121.845 342.81 123.792 347.884 132.232C349.295 137.195 349.643 139.272 349.726 142.157" stroke="#844C01"/>
<path d="M310.787 104.246C323.297 105.528 329.413 107.465 338.115 113.618C344.973 118.968 347.839 122.042 350.751 127.716" stroke="#844C01" stroke-linecap="round"/>
<path d="M293.35 107.541C311.201 101.712 321.367 98.147 335.09 100.257" stroke="#844C01" stroke-linecap="round"/>
<path d="M290.895 107.448C294.697 102.601 297.678 100.088 305.104 96.1177" stroke="#844C01" stroke-linecap="round"/>
<path d="M289.878 108.386C287.186 105.306 285.192 104.782 280.997 105.148" stroke="#844C01"/>
<path d="M336.4 97.6348C362.581 102.867 372.011 108.964 361.267 136.482" stroke="#844C01" stroke-linecap="round"/>
<path d="M358.536 139.111C352.742 141.657 350.38 143.94 348.323 150.037V171.484C354.609 174.121 358.027 174.011 364.309 171.484C364.484 162.131 366.284 157.879 371.857 151.656C370.638 143.899 368.192 140.823 358.536 139.111Z" fill="#DEBBA6"/>
<path d="M364.006 144.884C360.175 146.524 358.452 147.534 356.759 149.632C354.823 151.435 354.63 152.2 354.569 153.386C354.548 153.801 354.833 154.182 355.259 154.333C357.485 155.121 358.483 155.613 360.775 155.402C361.279 155.356 361.774 155.616 361.909 156.062C362.457 157.885 362.097 158.962 360.756 160.558" stroke="#472801" stroke-width="2" stroke-linecap="round"/>
<line y1="-0.5" x2="6.23489" y2="-0.5" transform="matrix(0.85464 0.519221 0.590431 -0.807088 358.092 149.229)" stroke="#472801"/>
<path d="M350.592 154.265C354.988 158.728 357.792 160.701 362.978 162.986C380.291 176.673 381.965 184.745 375.459 199.587" stroke="#844C01" stroke-linecap="round"/>
<g filter="url(#filter0_f_263_1191)">
<path d="M315.062 169.286C315.306 172.794 321.337 175.232 328.533 174.733C335.728 174.233 344.411 167.722 344.168 164.214C343.924 160.707 334.847 161.531 327.651 162.031C320.455 162.53 314.819 165.779 315.062 169.286Z" fill="#D78484" fill-opacity="0.48"/>
</g>
<g filter="url(#filter1_f_263_1191)">
<path d="M286.01 174.1C286.728 176.708 281.982 180.288 275.409 182.097C269.677 183.231 267.998 179.718 265.668 177.709C264.95 175.101 266.238 174.461 272.81 172.653C279.382 170.844 285.292 171.492 286.01 174.1Z" fill="#D78484" fill-opacity="0.48"/>
</g>
<path d="M317.549 181.876C310.728 190.915 306.023 190.84 297.123 187.541" stroke="#883434" stroke-width="2" stroke-linecap="round"/>
<ellipse cx="1.95911" cy="4.89778" rx="1.95911" ry="4.89778" transform="matrix(-0.97354 0.228518 0.228518 0.97354 322.438 147.907)" fill="#1E160D"/>
<ellipse cx="1.46934" cy="4.40801" rx="1.46934" ry="4.40801" transform="matrix(-0.978813 0.204756 0.204756 0.978813 281.531 156.834)" fill="#1E160D"/>
<path d="M323.562 141.86C321.321 140.273 318.718 140.713 312.786 142.84" stroke="#6C4920" stroke-width="2" stroke-linecap="round"/>
<path d="M271.563 152.786C272.724 150.22 275.224 149.368 281.486 148.473" stroke="#6C4920" stroke-width="2" stroke-linecap="round"/>
<path d="M288.997 207.671C284.648 208.917 280.557 210.73 275.481 213.202C282.597 217.356 287.918 219.746 302.698 223.485L337.154 221.818C338.17 220.2 338.449 219.099 338.291 218.149C338.125 217.149 337.461 216.199 336.303 214.909C330.502 211.728 325.908 209.615 321.173 208.179C316.425 206.74 311.514 205.976 305.076 205.518C298.451 205.669 293.571 206.359 288.997 207.671Z" fill="#844C01" stroke="#1E160D"/>
<path d="M338.293 217.284L319.679 214.467C311.832 216.452 306.131 216.729 295.889 217.169" stroke="#1E160D"/>
<path d="M274.797 223.282C286.222 225.009 292.934 224.784 303.866 223.51C296.627 220.753 292.501 218.425 286.569 213.873L286.548 213.857L286.529 213.839C278.975 206.675 274.497 203.238 265.587 198.74L265.577 198.735L265.568 198.729C263.154 197.372 261.287 196.666 259.427 196.408C257.621 196.157 255.784 196.323 253.406 196.78C252.599 198.303 252.211 199.608 252.105 201.044C251.995 202.526 252.184 204.17 252.565 206.379C260.562 214.399 265.555 217.956 274.797 223.282Z" fill="#844C01" stroke="#1E160D"/>
<path d="M251.559 201.48C255.127 201.886 262.365 207.874 273.109 216.174" stroke="#1E160D"/>
<path d="M247.247 216.354L265.425 217.717L248.338 201.554C237.857 192.929 232.159 188.226 222.881 180.502L222.724 180.372L222.703 180.169C221.825 171.671 219.302 166.777 214.014 157.943C183.062 137.579 163.318 130.646 126.264 123.043L134.783 137.119L134.835 137.204L134.85 137.302L138.442 160.735C155.718 173.253 166.842 178.139 187.614 185.524L187.693 185.552L187.758 185.604L216.11 208.09C228.413 213.162 235.223 215.006 247.247 216.354Z" fill="#844C01" stroke="#1E160D"/>
<path d="M233.024 200.541C224.553 200.356 221.284 198.878 216.121 195.574C207.082 187.353 202.386 181.784 194.082 170.104C186.313 163.831 180.565 163.663 170.332 163.318" stroke="#1E160D"/>
<path d="M63.6027 299.168L63.6206 299.183L63.637 299.199C72.0699 307.369 85.262 314.329 102.097 320.146C118.923 325.961 139.348 330.62 162.207 334.21C207.925 341.392 263.334 344.294 319.077 343.644C374.818 342.994 430.877 338.792 477.89 331.771C524.93 324.747 562.833 314.911 582.327 303.033C592.105 297.076 599.115 291.875 603.905 287.339C608.701 282.797 611.234 278.957 612.124 275.727C613.005 272.533 612.289 269.902 610.483 267.691C608.656 265.454 605.693 263.628 602.063 262.15C594.807 259.195 585.092 257.708 577.158 256.963C573.197 256.591 569.693 256.405 567.179 256.312C565.922 256.265 564.913 256.242 564.219 256.231C563.872 256.225 563.604 256.222 563.422 256.22C563.332 256.22 563.263 256.219 563.217 256.219L563.165 256.219L563.163 256.219L563.159 256.219L563.104 256.222L562.884 256.236L562.014 256.287C561.245 256.332 560.104 256.399 558.614 256.485C555.633 256.657 551.254 256.906 545.661 257.215C534.477 257.832 518.439 258.686 499.024 259.635C460.195 261.533 407.858 263.811 353.832 265.33C299.807 266.849 244.085 267.608 198.487 266.469C175.689 265.9 155.414 264.855 139.144 263.192C122.896 261.532 110.577 259.249 103.737 256.175C90.2695 250.122 77.6049 247.084 67.0482 246.607C56.4744 246.13 48.0872 248.224 43.0934 252.349C40.6053 254.403 38.9564 256.963 38.2825 259.978C37.6076 262.998 37.9025 266.513 39.3687 270.483C42.3062 278.438 49.9191 288.148 63.6027 299.168Z" fill="#742D5B" stroke="#230545"/>
<path d="M533.782 454.417L533.72 454.437L533.654 454.439L533.634 453.94C533.654 454.439 533.653 454.439 533.65 454.44L533.638 454.44L533.591 454.442L533.403 454.449L532.659 454.479C532.002 454.505 531.026 454.543 529.751 454.591C527.202 454.689 523.455 454.829 518.668 455.001C509.093 455.343 495.354 455.811 478.697 456.309C445.382 457.306 400.391 458.425 353.692 458.919C306.994 459.412 258.581 459.279 218.423 457.769C198.345 457.014 180.323 455.915 165.609 454.377C150.909 452.84 139.465 450.862 132.568 448.333C118.941 443.336 108.555 442.073 101.554 443.165C98.0563 443.711 95.4335 444.839 93.6666 446.352C91.9092 447.857 90.9793 449.757 90.8725 451.912C90.657 456.258 93.7981 461.795 100.759 467.2C107.695 472.586 118.332 477.763 132.861 481.396C161.972 488.675 232.093 498.846 309.974 502.109C387.864 505.373 473.432 501.723 533.474 481.407L533.501 481.398L533.529 481.392C550.504 477.755 562.861 472.987 570.877 468.202C574.885 465.81 577.789 463.424 579.642 461.19C581.501 458.95 582.264 456.914 582.109 455.2C581.957 453.51 580.901 452.004 578.821 450.831C576.731 449.652 573.645 448.836 569.561 448.554C561.398 447.991 549.392 449.568 533.782 454.417Z" fill="#742D5B" stroke="#230545"/>
<path d="M549.829 453.842C549.829 453.842 170.194 465.991 127.675 455.664C85.156 445.338 89.4079 455.664 129.497 472.065C169.587 488.465 514.599 484.213 549.829 469.027C585.058 453.842 549.829 453.842 549.829 453.842Z" fill="#823A69"/>
<path d="M514.553 466.435C514.553 466.435 218.867 478.329 185.75 468.219C152.633 458.108 122.817 471.457 187.169 484.276C251.521 497.095 445.261 501.474 514.553 481.303C583.845 461.131 514.553 466.435 514.553 466.435Z" fill="#823A69"/>
<path d="M534.036 283.158C432.597 329.321 158.652 300.166 80.2969 269.188C1.94183 238.21 47.4957 301.988 119.172 327.5C190.847 353.012 436.495 348.252 534.037 320.211C631.579 292.171 635.476 236.995 534.036 283.158Z" fill="#823A69"/>
<path d="M523.86 467.379L559.362 292.008L546.498 290.43L513.995 466.169L523.86 467.379Z" fill="#923258" stroke="#230545"/>
<path d="M499.612 475.359L526.53 315.365L514.256 313.86L486.14 473.707L499.612 475.359Z" fill="#923258" stroke="#230545"/>
<path d="M146.337 463.504L120.342 292.946L133.268 292.031L156.252 462.802L146.337 463.504Z" fill="#923258" stroke="#230545"/>
<path d="M170.114 472.332L151.858 316.989L164.193 316.116L183.653 471.373L170.114 472.332Z" fill="#923258" stroke="#230545"/>
<line y1="-0.5" x2="251.81" y2="-0.5" transform="matrix(-0.685064 0.728483 0.728483 0.685064 547.398 289.232)" stroke="#230545"/>
<line y1="-0.5" x2="193.28" y2="-0.5" transform="matrix(-0.710242 0.703957 0.703957 0.710242 514.598 314.744)" stroke="#230545"/>
<path d="M515.566 467.824L398.051 351.72" stroke="#230545"/>
<path d="M486.515 473.526L398.576 376.113" stroke="#230545"/>
<line y1="-0.5" x2="233.557" y2="-0.5" transform="matrix(0.618969 0.785415 0.785415 -0.61897 131.926 290.447)" stroke="#230545"/>
<line y1="-0.5" x2="188.69" y2="-0.5" transform="matrix(0.650261 0.759711 0.759711 -0.650261 162.297 315.959)" stroke="#230545"/>
<line y1="-0.5" x2="150.389" y2="-0.5" transform="matrix(-0.686624 0.727013 0.727013 0.686624 259.484 353.619)" stroke="#230545"/>
<line y1="-0.5" x2="117.939" y2="-0.5" transform="matrix(-0.659234 0.751938 0.751938 0.659234 261.914 382.774)" stroke="#230545"/>
<path d="M403.785 336.193C403.787 293.837 253.516 306.539 251.932 336.193C250.347 365.848 281.676 464.963 281.676 464.963C314.16 498.397 333.94 497.021 371.692 464.963C371.692 464.963 403.783 378.55 403.785 336.193Z" fill="#AF3856"/>
<path d="M389.471 410.108C364.616 420.315 349.821 424.916 320.225 428.938C296.58 425.296 285.155 420.293 265.558 410.108C270.518 432.812 273.635 445.485 284.388 467.205C314.748 500.16 333.97 496.438 370.641 467.205C381.605 444.953 385.155 432.451 389.471 410.108Z" fill="#923258"/>
<path d="M252.93 324.332C252.93 364.936 286.458 397.882 327.856 397.882C369.255 397.882 402.783 364.936 402.783 324.332C402.783 283.728 369.255 250.781 327.856 250.781C286.458 250.781 252.93 283.728 252.93 324.332Z" fill="#F7E6C7" stroke="#230545" stroke-width="2"/>
<path d="M274.349 321.791C274.349 348.139 297.908 369.58 327.076 369.58C356.243 369.58 379.803 348.139 379.803 321.791C379.803 295.443 356.243 274.003 327.076 274.003C297.908 274.003 274.349 295.443 274.349 321.791Z" fill="#B6D3D9" stroke="#230545"/>
<line y1="-0.5" x2="97.0529" y2="-0.5" transform="matrix(-0.41939 0.907806 0.879484 0.475929 347.43 276.891)" stroke="#230545"/>
<line y1="-0.5" x2="96.7982" y2="-0.5" transform="matrix(0.455594 0.890188 0.857684 -0.514178 305.025 277.858)" stroke="#230545"/>
<line y1="-0.5" x2="100.285" y2="-0.5" transform="matrix(0.780527 0.625122 0.564416 -0.825491 287.938 288.751)" stroke="#230545"/>
<line y1="-0.5" x2="103.795" y2="-0.5" transform="matrix(0.96529 0.261182 0.225065 -0.974344 276.98 307.389)" stroke="#230545"/>
<line y1="-0.5" x2="104.883" y2="-0.5" transform="matrix(0.970197 -0.242316 -0.208535 -0.978015 275.414 334.499)" stroke="#230545"/>
<line y1="-0.5" x2="102.423" y2="-0.5" transform="matrix(0.757157 -0.653233 -0.593038 -0.805174 288.664 355.658)" stroke="#230545"/>
<line y1="-0.5" x2="96.691" y2="-0.5" transform="matrix(-0.0485723 -0.99882 -0.998382 0.0568706 327.076 370.078)" stroke="#230545"/>
<path d="M421.435 264.819C431.597 253.867 437.717 245.213 440.545 238.905C441.961 235.747 442.531 233.222 442.407 231.312C442.285 229.431 441.494 228.157 440.146 227.404C438.763 226.631 436.723 226.368 434.047 226.707C431.381 227.044 428.142 227.972 424.412 229.512C416.955 232.591 407.6 238.089 397.055 246.073C364.429 270.775 355.887 280.636 341.928 296.751C337.946 301.348 333.523 306.453 327.975 312.558C329.24 313.063 330.09 313.869 330.666 314.803C331.338 315.894 331.626 317.138 331.811 318.21C331.858 318.48 331.899 318.742 331.937 318.989L331.939 319.001C331.976 319.245 332.012 319.473 332.049 319.685C332.126 320.126 332.204 320.458 332.306 320.69C332.406 320.921 332.489 320.963 332.527 320.974C332.583 320.991 332.75 321.005 333.124 320.815C333.367 320.691 333.767 320.541 334.281 320.361C334.779 320.187 335.413 319.977 336.168 319.726L336.28 319.688C337.892 319.152 340.054 318.432 342.682 317.479C347.937 315.572 355.055 312.732 363.338 308.577C379.905 300.267 401.133 286.699 421.435 264.819Z" fill="#34578D" stroke="#230545"/>
<path d="M231.165 374.219C221.003 385.171 214.883 393.825 212.054 400.133C210.639 403.291 210.068 405.816 210.192 407.726C210.314 409.607 211.105 410.881 212.454 411.634C213.837 412.407 215.877 412.67 218.553 412.331C221.218 411.994 224.458 411.066 228.187 409.526C235.645 406.447 245 400.949 255.545 392.965C288.171 368.263 296.713 358.402 310.672 342.287C314.654 337.69 319.076 332.585 324.625 326.481C323.359 325.976 322.51 325.169 321.934 324.235C321.261 323.144 320.974 321.9 320.788 320.828C320.742 320.558 320.701 320.296 320.663 320.049L320.661 320.037C320.623 319.793 320.588 319.565 320.551 319.353C320.474 318.912 320.395 318.58 320.294 318.348C320.194 318.117 320.111 318.075 320.073 318.064C320.017 318.047 319.85 318.033 319.476 318.223C319.233 318.347 318.832 318.497 318.319 318.677C317.821 318.851 317.187 319.061 316.432 319.312L316.319 319.35C314.707 319.886 312.545 320.606 309.918 321.56C304.663 323.466 297.545 326.306 289.262 330.461C272.695 338.771 251.467 352.339 231.165 374.219Z" fill="#34578D" stroke="#230545"/>
<path d="M441.709 230.313C435.634 220.594 431.991 234.565 431.991 234.565C401.374 275.579 376.296 289.292 334.803 315.958L336.018 319.603C388.256 308.062 447.783 240.032 441.709 230.313Z" fill="#4C6DA2"/>
<path d="M210.005 409.476C213.977 419.778 219.796 405.396 219.796 405.396C251.129 364.927 276.444 351.657 318.4 325.724L318.4 319.602C255.234 338.433 206.032 399.174 210.005 409.476Z" fill="#4C6DA2"/>
<path d="M316.617 320.097C316.617 325.941 320.986 330.61 326.293 330.61C331.6 330.61 335.969 325.941 335.969 320.097C335.969 314.253 331.6 309.584 326.293 309.584C320.986 309.584 316.617 314.253 316.617 320.097Z" fill="#34578D" stroke="#230545"/>
<path d="M370.911 454.604L365.431 463.075L392.045 532.543V518.141L370.911 454.604Z" fill="#AF3856"/>
<path d="M312.206 480.866H302.813L320.816 531.696H327.078L312.206 480.866Z" fill="#AF3856"/>
<path d="M280.894 458.84L286.373 467.311L259.76 536.779V522.377L280.894 458.84Z" fill="#AF3856"/>
<path d="M340.384 479.171H347.428L328.642 531.695H321.598L340.384 479.171Z" fill="#AF3856"/>
<rect width="131.502" height="8.47165" transform="matrix(-1 0 0 1 391.262 531.696)" fill="#AF3856"/>
<path d="M419.614 516.062C413.352 500.814 397.697 500.814 391.435 516.062C391.435 516.062 388.304 543.171 391.435 555.032C394.567 566.893 416.484 565.198 419.614 555.032C422.745 544.865 419.614 516.062 419.614 516.062Z" fill="#230545"/>
<path d="M391.26 517.333C391.531 516.486 396.852 508.25 406.132 508.015C414.346 508.015 417.091 516.486 419.439 516.486C420.448 513.976 416.196 504.626 406.132 504.626C394.936 503.65 391.26 516.865 391.26 517.333Z" fill="#FFFEFE"/>
<path d="M410.047 508.015H408.481L409.264 541.901L410.047 508.015Z" fill="#FFFEFE"/>
<path d="M403.785 508.015H402.22L403.002 541.901L403.785 508.015Z" fill="#FFFEFE"/>
<path d="M259.933 517.758C253.671 502.51 238.016 502.51 231.754 517.758C231.754 517.758 228.623 544.867 231.754 556.728C234.885 568.589 256.802 566.895 259.933 556.728C263.063 546.562 259.933 517.758 259.933 517.758Z" fill="#230545"/>
<path d="M231.579 519.029C231.85 518.182 238.237 509.71 246.451 509.71C254.665 509.71 257.41 518.182 259.758 518.182C258.975 515.64 254.665 506.321 246.451 506.321C235.186 504.865 231.579 518.561 231.579 519.029Z" fill="#FFFEFE"/>
<path d="M250.365 509.71H248.8L249.582 543.597L250.365 509.71Z" fill="#FFFEFE"/>
<path d="M244.104 509.71H242.538L243.321 543.597L244.104 509.71Z" fill="#FFFEFE"/>
<defs>
<filter id="filter0_f_263_1191" x="311.055" y="157.573" width="37.1172" height="21.2246" filterUnits="userSpaceOnUse" color-interpolation-filters="sRGB">
<feFlood flood-opacity="0" result="BackgroundImageFix"/>
<feBlend mode="normal" in="SourceGraphic" in2="BackgroundImageFix" result="shape"/>
<feGaussianBlur stdDeviation="2" result="effect1_foregroundBlur_263_1191"/>
</filter>
<filter id="filter1_f_263_1191" x="261.49" y="167.628" width="28.5918" height="18.6895" filterUnits="userSpaceOnUse" color-interpolation-filters="sRGB">
<feFlood flood-opacity="0" result="BackgroundImageFix"/>
<feBlend mode="normal" in="SourceGraphic" in2="BackgroundImageFix" result="shape"/>
<feGaussianBlur stdDeviation="2" result="effect1_foregroundBlur_263_1191"/>
</filter>
</defs>
</svg>
