<svg width="1586" height="922" viewBox="0 0 1586 922" fill="none" xmlns="http://www.w3.org/2000/svg">
<g clip-path="url(#clip0_249_758)">
<mask id="mask0_249_758" style="mask-type:luminance" maskUnits="userSpaceOnUse" x="-1" y="-1" width="1665" height="924">
<path d="M1663.36 -0.0869141H-1V922.086H1663.36V-0.0869141Z" fill="white"/>
</mask>
<g mask="url(#mask0_249_758)">
<path d="M1585.89 650.614C1585.89 669.614 1588 664.614 1573.94 664.614C1559.88 664.614 1544.33 671.114 1548.48 652.614C1548.48 647.367 1559.88 643.114 1573.94 643.114C1586.47 643.114 1585.89 641.114 1585.89 650.614Z" fill="#B6D3D9"/>
<path d="M1558.87 652.114C1558.87 666.198 1519.89 668.114 1487.18 668.114C1454.48 668.114 1425.89 682.114 1427.96 642.614C1427.96 628.531 1454.48 614.114 1487.18 614.114C1527.7 614.114 1558.87 638.031 1558.87 652.114Z" fill="#B6D3D9"/>
<path d="M1436.27 639.614C1442.7 682.114 1408.21 661.963 1379.82 665.941C1351.43 669.919 1322.67 664.013 1320.95 652.614C1319.23 641.215 1345.19 628.64 1373.58 624.662C1401.97 620.684 1434.55 628.215 1436.27 639.614Z" fill="#B6D3D9"/>
<path d="M1328.22 648.614C1342.24 682.114 1310.08 662.614 1287.7 662.614C1265.32 662.614 1245.62 677.114 1247.18 648.614C1247.18 642.263 1265.32 637.114 1287.7 637.114C1310.08 637.114 1328.22 642.263 1328.22 648.614Z" fill="#B6D3D9"/>
<path d="M1263.28 653.114C1263.28 667.75 1217.1 671.114 1186.4 671.114C1155.7 671.114 1115.75 667.75 1115.75 653.114C1115.75 638.479 1155.7 613.114 1186.4 613.114C1227.44 613.114 1263.28 638.479 1263.28 653.114Z" fill="#B6D3D9"/>
<ellipse cx="53.9977" cy="23.0133" rx="53.9977" ry="23.0133" transform="matrix(0.993229 -0.116175 0.125267 0.992123 1019.24 647.556)" fill="#B6D3D9"/>
<ellipse cx="988.996" cy="660.614" rx="43.1175" ry="7.5" fill="#B6D3D9"/>
<path d="M963.54 664.614C963.54 678.145 933.552 682.114 899.124 682.114C864.695 682.114 836.785 671.145 836.785 657.614C836.785 644.083 864.695 633.114 899.124 633.114C933.552 633.114 963.54 651.083 963.54 664.614Z" fill="#B6D3D9"/>
<path d="M861.722 655.114C861.722 676.653 830.789 694.114 792.631 694.114C754.472 694.114 719.902 676.653 719.902 655.114C719.902 633.575 756.55 614.114 794.709 614.114C832.867 614.114 861.722 633.575 861.722 655.114Z" fill="#B6D3D9"/>
<path d="M745.353 674.614C745.353 690.907 722.094 704.114 693.404 704.114C664.713 704.114 641.455 690.907 641.455 674.614C641.455 651.114 664.713 644.114 693.404 644.114C722.094 644.114 745.353 647.114 745.353 674.614Z" fill="#B6D3D9"/>
<path d="M372.882 663.114C369.764 673.614 332.597 700.114 294.439 700.114C256.28 700.114 225.867 674.614 225.867 662.614C217.556 622.114 249.763 582.115 294.958 584.115C341.712 581.614 372.882 620.312 372.882 663.114Z" fill="#B6D3D9"/>
<path d="M474.7 680.114C474.7 692.614 430.26 699.614 392.102 699.614C353.943 699.614 330.802 705.614 327.686 679.614C327.686 641.614 351.582 599.115 396.777 601.115C443.531 598.614 474.7 637.312 474.7 680.114Z" fill="#B6D3D9"/>
<path d="M573.401 703.115C572.221 710.614 543.249 702.615 504.828 702.615C466.407 702.615 431.061 703.115 425.375 702.615C425.374 651.115 449.436 622.116 494.942 624.115C542.017 621.615 581.193 653.614 573.401 703.115Z" fill="#B6D3D9"/>
<path d="M677.305 686.229C676.485 694.614 637.169 686.229 598.863 686.229C560.557 686.229 521.978 693.614 521.978 686.229C518.342 631.614 545.967 602.169 591.337 604.257C638.271 601.646 682.5 633.114 677.305 686.229Z" fill="#B6D3D9"/>
<path d="M174.956 675.115C174.956 698.114 150.404 698.114 107.942 698.114C65.48 698.114 21.1875 690.614 21.1875 675.115C21.1875 634.246 55.6097 601.115 98.0716 601.115C140.534 601.115 179.631 636.115 174.956 675.115Z" fill="#B6D3D9"/>
<path d="M80.4112 679.115C80.4112 700.114 46.6868 700.114 5.08554 700.114C-3.22887 700.114 -0.631587 702.99 -0.631587 672.614C-0.631587 642.239 -3.22751 623.614 5.08554 624.115C46.6055 626.617 80.4112 648.74 80.4112 679.115Z" fill="#B6D3D9"/>
<path d="M267.427 679.115C267.427 709.491 233.702 699.614 192.101 699.614C150.5 699.614 116.775 709.491 116.775 679.115C116.775 648.739 150.5 624.115 192.101 624.115C244.05 620.615 267.427 648.739 267.427 679.115Z" fill="#B6D3D9"/>
<rect x="-0.632812" y="662.114" width="1586.51" height="44" fill="#B6D3D9"/>
</g>
</g>
<defs>
<clipPath id="clip0_249_758">
<rect width="1586" height="922" fill="white"/>
</clipPath>
</defs>
</svg>
