<svg width="1773" height="193" viewBox="0 0 1773 193" fill="none" xmlns="http://www.w3.org/2000/svg">
<g clip-path="url(#clip0_933_8177)">
<path d="M533.137 175.424L505.9 137.68L521.492 126.429C524.318 124.389 527.124 123.139 529.912 122.679C532.703 122.197 535.341 122.498 537.824 123.583C540.299 124.656 542.467 126.483 544.329 129.063C546.217 131.68 547.251 134.316 547.429 136.972C547.599 139.615 546.979 142.173 545.569 144.648C544.151 147.11 542.004 149.378 539.129 151.453L529.269 158.568L524.083 151.381L532.247 145.489C533.623 144.496 534.644 143.489 535.308 142.468C535.976 141.425 536.283 140.362 536.23 139.279C536.169 138.184 535.717 137.053 534.874 135.886C534.032 134.719 533.097 133.927 532.068 133.511C531.03 133.083 529.907 133.015 528.698 133.308C527.481 133.589 526.19 134.221 524.826 135.205L520.329 138.45L542.26 168.841L533.137 175.424ZM541.939 142.84L563.786 153.307L553.834 160.489L532.171 149.888L541.939 142.84Z" fill="#FDA758"/>
<path d="M579.659 144.196C576.558 146.126 573.503 147.18 570.491 147.359C567.484 147.517 564.667 146.834 562.041 145.31C559.42 143.765 557.128 141.417 555.167 138.265C553.261 135.204 552.2 132.152 551.984 129.11C551.76 126.055 552.352 123.206 553.759 120.563C555.158 117.908 557.349 115.651 560.334 113.794C562.443 112.481 564.577 111.608 566.735 111.175C568.892 110.742 571.008 110.772 573.082 111.266C575.156 111.76 577.136 112.732 579.02 114.182C580.897 115.62 582.591 117.554 584.105 119.986L585.57 122.34L559.811 138.373L556.4 132.893L573.38 122.324C572.743 121.329 571.948 120.583 570.997 120.087C570.045 119.59 569.028 119.376 567.946 119.443C566.868 119.489 565.808 119.836 564.766 120.485C563.711 121.141 562.914 121.968 562.374 122.964C561.826 123.948 561.56 124.997 561.576 126.111C561.583 127.213 561.89 128.28 562.497 129.312L565.968 134.888C566.721 136.098 567.619 137.011 568.664 137.628C569.7 138.232 570.812 138.513 571.999 138.47C573.186 138.427 574.384 138.029 575.593 137.277C576.429 136.756 577.116 136.168 577.653 135.512C578.191 134.856 578.564 134.151 578.773 133.397C578.981 132.642 579.004 131.861 578.84 131.053L587.659 125.911C588.508 128.078 588.77 130.262 588.444 132.463C588.124 134.644 587.228 136.745 585.756 138.768C584.277 140.777 582.244 142.587 579.659 144.196Z" fill="#FDA758"/>
<path d="M612.301 96.8052L603.466 101.918C603.025 101.33 602.465 100.902 601.785 100.634C601.097 100.352 600.344 100.253 599.527 100.335C598.715 100.397 597.877 100.663 597.012 101.133C595.88 101.748 595.038 102.499 594.485 103.386C593.946 104.265 593.893 105.087 594.326 105.852C594.638 106.459 595.16 106.847 595.891 107.019C596.636 107.183 597.726 107.048 599.162 106.612L605.681 104.517C609.061 103.439 611.865 103.173 614.094 103.72C616.337 104.26 618.072 105.645 619.301 107.874C620.431 109.985 620.801 112.155 620.409 114.386C620.031 116.609 619.012 118.732 617.353 120.755C615.686 122.765 613.482 124.515 610.739 126.006C606.36 128.386 602.417 129.366 598.911 128.944C595.411 128.501 592.656 126.86 590.647 124.02L600.161 118.538C600.982 119.54 601.997 120.092 603.208 120.192C604.418 120.293 605.715 119.968 607.1 119.215C608.351 118.535 609.243 117.748 609.775 116.855C610.307 115.963 610.37 115.126 609.963 114.347C609.574 113.662 608.967 113.276 608.144 113.189C607.313 113.089 606.194 113.266 604.786 113.721L598.881 115.612C595.502 116.724 592.652 116.937 590.33 116.251C588 115.551 586.206 114.026 584.945 111.676C583.818 109.633 583.412 107.586 583.728 105.534C584.037 103.469 585 101.497 586.617 99.6179C588.234 97.7387 590.427 96.0465 593.196 94.5414C597.349 92.2837 601.098 91.3755 604.442 91.8168C607.779 92.2448 610.398 93.9076 612.301 96.8052Z" fill="#FDA758"/>
<path d="M632.749 74.9253L636.317 82.2881L616.499 91.8918L612.931 84.5289L632.749 74.9253ZM613.436 74.9905L623.437 70.1441L637.52 99.207C637.818 99.8206 638.154 100.272 638.53 100.561C638.913 100.83 639.335 100.954 639.796 100.933C640.25 100.898 640.744 100.751 641.275 100.494C641.657 100.309 642.043 100.08 642.432 99.8067C642.829 99.5135 643.123 99.2867 643.315 99.1265L648.327 105.613C647.916 105.98 647.324 106.478 646.55 107.105C645.79 107.726 644.824 108.354 643.65 108.99C641.358 110.236 639.214 110.938 637.22 111.096C635.233 111.234 633.456 110.816 631.889 109.841C630.336 108.859 629.058 107.298 628.054 105.158L613.436 74.9905Z" fill="#FDA758"/>
<path d="M667.305 98.4065C663.937 99.8583 660.747 100.417 657.732 100.084C654.725 99.7303 652.034 98.5972 649.658 96.6846C647.29 94.752 645.398 92.144 643.983 88.8604C642.561 85.563 641.963 82.397 642.189 79.3625C642.423 76.3081 643.447 73.5733 645.26 71.1581C647.081 68.7229 649.675 66.7794 653.042 65.3277C656.409 63.8759 659.596 63.3268 662.603 63.6803C665.617 64.0138 668.309 65.1469 670.677 67.0795C673.052 68.9921 674.951 71.5972 676.373 74.8947C677.789 78.1782 678.379 81.3472 678.145 84.4016C677.919 87.436 676.896 90.1709 675.075 92.606C673.262 95.0213 670.672 96.9548 667.305 98.4065ZM664.047 90.6785C665.271 90.1506 666.146 89.328 666.67 88.2108C667.195 87.0935 667.392 85.7711 667.261 84.2434C667.145 82.7098 666.708 81.0664 665.952 79.3133C665.185 77.5324 664.283 76.0731 663.248 74.9354C662.227 73.7917 661.13 73.0272 659.957 72.6418C658.785 72.2564 657.586 72.3277 656.362 72.8556C655.096 73.4015 654.186 74.2391 653.634 75.3684C653.095 76.4916 652.884 77.8201 653.001 79.3537C653.132 80.8814 653.581 82.5356 654.349 84.3165C655.105 86.0696 655.993 87.518 657.014 88.6617C658.049 89.7994 659.16 90.558 660.347 90.9373C661.547 91.3107 662.781 91.2244 664.047 90.6785Z" fill="#FDA758"/>
<path d="M686.955 89.4039L674.488 56.7966L684.572 52.9415L686.844 58.8855L687.184 58.7557C686.956 56.3772 687.314 54.4074 688.258 52.8461C689.197 51.2706 690.558 50.142 692.341 49.4603C692.822 49.2763 693.331 49.1223 693.868 48.9983C694.399 48.8601 694.908 48.7708 695.395 48.7305L698.845 57.7527C698.285 57.7722 697.582 57.8867 696.738 58.096C695.907 58.2999 695.181 58.5209 694.558 58.759C693.327 59.2297 692.321 59.9305 691.541 60.8612C690.771 61.7723 690.289 62.8243 690.096 64.0173C689.912 65.1907 690.069 66.4284 690.567 67.7304L697.335 85.4351L686.955 89.4039Z" fill="#FDA758"/>
<path d="M727.269 75.3272C723.809 76.4938 720.593 76.8187 717.62 76.3019C714.657 75.7659 712.073 74.4547 709.866 72.3685C707.669 70.2631 705.978 67.4516 704.792 63.934C703.64 60.5169 703.308 57.3031 703.796 54.2924C704.279 51.2674 705.508 48.6303 707.484 46.3812C709.455 44.1177 712.106 42.4244 715.437 41.3013C717.792 40.5075 720.069 40.1475 722.268 40.2213C724.468 40.2952 726.52 40.8104 728.426 41.7669C730.331 42.7234 732.035 44.1238 733.536 45.9681C735.032 47.7981 736.238 50.0698 737.153 52.7834L738.039 55.4108L709.288 65.1044L707.226 58.9881L726.178 52.5983C725.786 51.4833 725.184 50.575 724.371 49.8735C723.559 49.1719 722.619 48.7296 721.55 48.5464C720.49 48.344 719.379 48.4389 718.216 48.831C717.038 49.2279 716.073 49.8493 715.319 50.6952C714.56 51.5267 714.06 52.4867 713.819 53.5752C713.574 54.6493 713.628 55.7583 713.982 56.9022L716.08 63.1262C716.535 64.4758 717.2 65.5707 718.075 66.411C718.945 67.2369 719.963 67.7652 721.128 67.996C722.293 68.2267 723.55 68.1146 724.9 67.6596C725.833 67.3449 726.637 66.9301 727.31 66.4151C727.984 65.9001 728.509 65.2994 728.885 64.6129C729.261 63.9265 729.463 63.1712 729.488 62.347L739.253 59.3667C739.581 61.6702 739.335 63.8559 738.513 65.9238C737.701 67.9725 736.347 69.8123 734.45 71.4431C732.549 73.0595 730.155 74.3542 727.269 75.3272Z" fill="#FDA758"/>
<path d="M790.937 63.8734L773.745 64.5237L771.985 18.0115L789.155 17.3621C793.894 17.1828 798.009 17.9596 801.502 19.6925C805.008 21.4096 807.759 23.9742 809.753 27.3861C811.746 30.7829 812.834 34.8962 813.017 39.7261C813.2 44.5711 812.427 48.77 810.696 52.3228C808.981 55.875 806.44 58.6473 803.073 60.6396C799.706 62.6168 795.661 63.6947 790.937 63.8734ZM784.624 54.5144L790.143 54.3057C792.747 54.2072 794.933 53.6848 796.702 52.7384C798.485 51.7764 799.801 50.2786 800.649 48.2451C801.511 46.1959 801.879 43.4983 801.752 40.1522C801.626 36.8061 801.056 34.1591 800.042 32.2112C799.028 30.2481 797.588 28.8621 795.723 28.0533C793.872 27.2287 791.614 26.8668 788.95 26.9676L783.59 27.1703L784.624 54.5144Z" fill="#AAABEA"/>
<path d="M835.321 63.8046C831.669 63.7775 828.523 63.0345 825.882 61.5754C823.257 60.1013 821.242 58.0182 819.838 55.3258C818.449 52.6185 817.768 49.4088 817.795 45.6968C817.822 42.0908 818.558 38.9447 820.002 36.2584C821.446 33.5569 823.469 31.4658 826.071 29.985C828.673 28.4892 831.732 27.7543 835.247 27.7804C837.732 27.7988 840.002 28.202 842.056 28.99C844.111 29.778 845.883 30.9351 847.372 32.4614C848.86 33.9876 850.013 35.8674 850.83 38.1008C851.647 40.3191 852.045 42.86 852.023 45.7235L852.003 48.4962L821.663 48.271L821.711 41.8166L841.71 41.9651C841.704 40.7832 841.431 39.7281 840.893 38.7998C840.354 37.8716 839.61 37.1463 838.659 36.6241C837.723 36.0868 836.642 35.8137 835.415 35.8045C834.172 35.7953 833.057 36.0674 832.068 36.6206C831.079 37.1588 830.293 37.903 829.71 38.8532C829.127 39.7883 828.817 40.8542 828.777 42.0509L828.729 48.6189C828.718 50.0431 828.989 51.2952 829.542 52.3751C830.094 53.4398 830.884 54.2714 831.91 54.87C832.935 55.4685 834.161 55.7731 835.585 55.7836C836.57 55.7909 837.464 55.6612 838.269 55.3945C839.075 55.1277 839.767 54.7313 840.347 54.2053C840.926 53.6793 841.363 53.031 841.656 52.2604L851.859 52.6316C851.417 54.9163 850.471 56.9017 849.019 58.588C847.582 60.2592 845.701 61.5558 843.376 62.478C841.051 63.385 838.366 63.8272 835.321 63.8046Z" fill="#AFB3EB"/>
<path d="M888.485 40.2974L878.277 40.2043C878.197 39.4737 877.933 38.8199 877.483 38.2428C877.035 37.6506 876.437 37.1819 875.692 36.8368C874.962 36.4771 874.105 36.2796 873.12 36.2443C871.833 36.1982 870.726 36.4162 869.799 36.8985C868.888 37.3813 868.424 38.062 868.407 38.9408C868.368 39.6217 868.619 40.222 869.161 40.7417C869.719 41.262 870.727 41.6999 872.184 42.0554L878.862 43.5683C882.32 44.3594 884.87 45.5576 886.511 47.1628C888.166 48.7686 888.956 50.8437 888.88 53.3881C888.779 55.7799 887.993 57.8364 886.521 59.5575C885.065 61.2792 883.107 62.5887 880.649 63.4861C878.192 64.3683 875.404 64.7535 872.284 64.6417C867.303 64.4631 863.41 63.3002 860.606 61.1529C857.818 58.991 856.282 56.1766 855.997 52.7096L866.977 52.8303C867.174 54.1109 867.767 55.1025 868.758 55.8051C869.748 56.5077 871.031 56.8872 872.606 56.9437C874.029 56.9947 875.197 56.7713 876.109 56.2733C877.022 55.7754 877.501 55.0876 877.548 54.2099C877.561 53.422 877.235 52.7811 876.571 52.2873C875.907 51.7783 874.853 51.3615 873.409 51.0369L867.363 49.6603C863.888 48.899 861.326 47.6321 859.676 45.8597C858.027 44.0722 857.258 41.8463 857.369 39.1819C857.437 36.8495 858.129 34.8806 859.445 33.2752C860.762 31.6547 862.594 30.4468 864.942 29.6516C867.29 28.8565 870.039 28.5153 873.189 28.6282C877.913 28.7976 881.602 29.9229 884.257 32.0042C886.912 34.0703 888.321 36.8347 888.485 40.2974Z" fill="#AFB3EB"/>
<path d="M893.174 64.0314L893.446 29.1234L904.559 29.2101L904.287 64.1181L893.174 64.0314ZM899.046 25.0988C897.485 25.0866 896.148 24.561 895.035 23.522C893.922 22.4678 893.372 21.2059 893.383 19.7363C893.394 18.2818 893.965 17.0438 895.094 16.0222C896.223 14.9855 897.568 14.4733 899.129 14.4855C900.704 14.4977 902.041 15.0309 903.139 16.085C904.252 17.124 904.803 18.3707 904.792 19.8252C904.78 21.2949 904.21 22.548 903.081 23.5847C901.966 24.6064 900.622 25.1111 899.046 25.0988Z" fill="#AFB3EB"/>
<path d="M924.271 76.874C920.959 76.6739 918.151 76.0413 915.847 74.9762C913.544 73.9111 911.767 72.5363 910.518 70.8518C909.269 69.1674 908.57 67.3036 908.42 65.2605L918.959 65.3053C919.113 66.028 919.438 66.67 919.936 67.2313C920.448 67.7936 921.127 68.2444 921.971 68.5838C922.831 68.9242 923.851 69.13 925.031 69.2013C926.891 69.3137 928.453 68.9527 929.718 68.1184C930.997 67.3001 931.704 65.7717 931.839 63.5334L932.209 57.4082L931.824 57.3849C931.32 58.4322 930.597 59.3524 929.653 60.1454C928.71 60.9384 927.558 61.5367 926.198 61.9403C924.853 62.3447 923.326 62.4954 921.617 62.3921C919.076 62.2386 916.783 61.508 914.737 60.2005C912.706 58.8787 911.132 56.9317 910.012 54.3594C908.908 51.773 908.476 48.5062 908.714 44.5588C908.96 40.4905 909.813 37.1798 911.272 34.6268C912.733 32.0587 914.553 30.203 916.732 29.0596C918.926 27.9171 921.24 27.4194 923.675 27.5665C925.505 27.6771 927.052 28.0892 928.314 28.803C929.592 29.5026 930.625 30.3695 931.413 31.4037C932.2 32.4379 932.781 33.4976 933.156 34.5828L933.473 34.602L933.834 28.6356L944.882 29.3031L942.768 64.2848C942.59 67.2339 941.699 69.6771 940.094 71.6141C938.49 73.5512 936.325 74.9611 933.6 75.8438C930.874 76.7417 927.765 77.0851 924.271 76.874ZM925.961 54.5489C927.307 54.6302 928.478 54.3443 929.474 53.691C930.47 53.0378 931.265 52.0612 931.86 50.7614C932.454 49.4615 932.808 47.8815 932.92 46.0212C933.034 44.1308 932.876 42.4894 932.444 41.0972C932.028 39.6907 931.358 38.5877 930.435 37.7882C929.527 36.9896 928.4 36.5496 927.054 36.4683C925.678 36.3851 924.49 36.6928 923.492 37.3915C922.493 38.0901 921.703 39.1125 921.121 40.4586C920.554 41.7905 920.215 43.3866 920.103 45.2469C919.99 47.1071 920.143 48.7177 920.562 50.0788C920.981 51.4399 921.637 52.5041 922.532 53.2716C923.442 54.04 924.585 54.4658 925.961 54.5489Z" fill="#AFB3EB"/>
<path d="M963.845 45.046L961.723 64.8417L950.673 63.657L954.394 28.9468L964.902 30.0734L964.219 36.4459L964.603 36.4871C965.599 34.4453 967.088 32.9211 969.07 31.9146C971.054 30.8929 973.327 30.5194 975.888 30.794C978.328 31.0556 980.386 31.8324 982.061 33.1244C983.753 34.4029 984.99 36.0747 985.775 38.1398C986.576 40.1914 986.829 42.5195 986.535 45.1242L984.163 67.2474L973.113 66.0627L975.252 46.1089C975.474 44.1822 975.145 42.6232 974.267 41.4319C973.404 40.2422 972.099 39.5537 970.352 39.3663C969.192 39.242 968.14 39.3882 967.196 39.8052C966.269 40.2086 965.514 40.8515 964.932 41.7339C964.365 42.6179 964.003 43.7219 963.845 45.046Z" fill="#AAABEA"/>
<path d="M1013.34 77.9413L1025.2 32.9328L1043.79 37.833C1047.16 38.7211 1049.9 40.1469 1052 42.1103C1054.12 44.063 1055.53 46.3871 1056.25 49.0827C1056.97 51.7637 1056.92 54.6498 1056.1 57.7412C1055.29 60.8473 1053.89 63.3855 1051.91 65.356C1049.95 67.3156 1047.55 68.6026 1044.71 69.217C1041.87 69.8313 1038.73 69.6848 1035.29 68.7773L1023.81 65.7539L1026.07 57.1829L1035.52 59.6735C1037.16 60.106 1038.61 60.1813 1039.86 59.8995C1041.12 59.6216 1042.18 59.0451 1043.02 58.1702C1043.86 57.2805 1044.47 56.1471 1044.83 54.7699C1045.2 53.378 1045.23 52.1013 1044.92 50.9398C1044.62 49.7636 1043.99 48.7504 1043.02 47.9002C1042.05 47.05 1040.76 46.4106 1039.13 45.982L1033.77 44.5687L1024.22 80.8084L1013.34 77.9413Z" fill="#AAABEA"/>
<path d="M1054.44 85.972L1064.52 52.5505L1074.86 55.6684L1073.02 61.7609L1073.37 61.8659C1074.64 59.8448 1076.13 58.5054 1077.83 57.8477C1079.54 57.1755 1081.31 57.115 1083.13 57.6664C1083.63 57.8152 1084.12 58.0046 1084.62 58.2347C1085.13 58.4502 1085.59 58.6911 1086 58.9573L1083.21 68.2048C1082.75 67.8776 1082.13 67.5385 1081.33 67.1875C1080.55 66.8409 1079.84 66.5713 1079.2 66.3788C1077.94 65.9981 1076.71 65.9374 1075.53 66.1968C1074.36 66.4461 1073.34 66.9837 1072.45 67.8095C1071.59 68.6253 1070.96 69.7004 1070.56 71.035L1065.08 89.1817L1054.44 85.972Z" fill="#AAABEA"/>
<path d="M1096.7 100.322C1093.32 98.8972 1090.71 96.9816 1088.86 94.5751C1087.04 92.1605 1085.99 89.434 1085.73 86.3955C1085.48 83.349 1086.06 80.1783 1087.45 76.8835C1088.84 73.5748 1090.71 70.9516 1093.06 69.0141C1095.42 67.0685 1098.11 65.9138 1101.1 65.5502C1104.12 65.1784 1107.32 65.7049 1110.7 67.1296C1114.08 68.5543 1116.68 70.474 1118.51 72.8885C1120.35 75.295 1121.4 78.0216 1121.64 81.0681C1121.91 84.1065 1121.34 87.2801 1119.95 90.5889C1118.56 93.8837 1116.68 96.5039 1114.31 98.4495C1111.97 100.387 1109.28 101.542 1106.27 101.913C1103.27 102.277 1100.08 101.747 1096.7 100.322ZM1100.02 92.621C1101.25 93.139 1102.45 93.2007 1103.62 92.8059C1104.79 92.4111 1105.88 91.6378 1106.89 90.4859C1107.92 89.34 1108.8 87.8874 1109.54 86.1284C1110.3 84.3413 1110.73 82.6806 1110.83 81.146C1110.95 79.6174 1110.74 78.2966 1110.21 77.1836C1109.67 76.0705 1108.79 75.255 1107.56 74.7369C1106.29 74.2012 1105.06 74.1248 1103.86 74.5078C1102.68 74.8967 1101.57 75.6642 1100.55 76.8101C1099.54 77.962 1098.65 79.4314 1097.9 81.2184C1097.16 82.9775 1096.73 84.6214 1096.61 86.15C1096.51 87.6846 1096.73 89.0113 1097.27 90.1302C1097.84 91.255 1098.75 92.0852 1100.02 92.621Z" fill="#AFB3EB"/>
<path d="M1134.09 114.185C1130.75 112.622 1128.22 110.595 1126.47 108.104C1124.74 105.619 1123.81 102.857 1123.68 99.8168C1123.56 96.763 1124.25 93.6243 1125.76 90.4005C1127.28 87.163 1129.25 84.6225 1131.67 82.7789C1134.11 80.9281 1136.84 79.8732 1139.86 79.6143C1142.89 79.3618 1146.06 80.0107 1149.36 81.561C1152.28 82.9312 1154.58 84.6527 1156.25 86.7254C1157.94 88.8045 1158.94 91.0974 1159.25 93.6042C1159.59 96.1037 1159.18 98.6659 1158.03 101.291L1148.63 96.881C1149.2 95.1722 1149.24 93.646 1148.77 92.3023C1148.31 90.9651 1147.36 89.9587 1145.92 89.2833C1144.75 88.7365 1143.57 88.5865 1142.39 88.8332C1141.21 89.0663 1140.07 89.7049 1138.98 90.7491C1137.91 91.786 1136.93 93.2373 1136.06 95.103C1135.18 96.9686 1134.68 98.6588 1134.56 100.173C1134.45 101.681 1134.69 102.97 1135.26 104.04C1135.83 105.096 1136.7 105.898 1137.87 106.445C1138.8 106.882 1139.72 107.069 1140.62 107.006C1141.53 106.949 1142.4 106.646 1143.23 106.096C1144.06 105.533 1144.8 104.725 1145.44 103.672L1154.85 108.081C1153.53 110.643 1151.81 112.614 1149.69 113.996C1147.58 115.384 1145.19 116.112 1142.52 116.18C1139.86 116.24 1137.05 115.575 1134.09 114.185Z" fill="#AAABEA"/>
<path d="M1169.45 132.333C1166.2 130.668 1163.72 128.59 1162.02 126.1C1160.33 123.603 1159.47 120.836 1159.43 117.8C1159.4 114.757 1160.24 111.584 1161.93 108.281C1163.57 105.071 1165.64 102.591 1168.14 100.841C1170.65 99.0765 1173.39 98.1177 1176.38 97.9643C1179.38 97.7974 1182.44 98.5155 1185.57 100.119C1187.78 101.252 1189.63 102.632 1191.11 104.259C1192.59 105.887 1193.65 107.717 1194.3 109.749C1194.94 111.782 1195.13 113.979 1194.85 116.341C1194.59 118.69 1193.8 121.139 1192.49 123.687L1191.23 126.155L1164.23 112.318L1167.17 106.574L1184.97 115.695C1185.49 114.636 1185.73 113.571 1185.66 112.5C1185.6 111.428 1185.26 110.446 1184.64 109.552C1184.05 108.652 1183.21 107.922 1182.11 107.362C1181.01 106.796 1179.89 106.537 1178.76 106.587C1177.63 106.623 1176.6 106.935 1175.65 107.522C1174.71 108.095 1173.95 108.908 1173.38 109.959L1170.38 115.805C1169.73 117.072 1169.41 118.312 1169.42 119.525C1169.44 120.725 1169.77 121.823 1170.41 122.818C1171.06 123.814 1172.02 124.637 1173.29 125.286C1174.16 125.735 1175.02 126.022 1175.86 126.145C1176.7 126.269 1177.5 126.226 1178.25 126.016C1179 125.807 1179.69 125.424 1180.29 124.868L1189.24 129.784C1187.82 131.627 1186.08 132.975 1184.03 133.829C1181.99 134.676 1179.73 134.989 1177.24 134.768C1174.75 134.533 1172.16 133.722 1169.45 132.333Z" fill="#AFB3EB"/>
<path d="M1227.28 136.888L1218.15 132.332C1218.4 131.64 1218.45 130.936 1218.3 130.22C1218.15 129.492 1217.82 128.809 1217.3 128.172C1216.8 127.528 1216.12 126.975 1215.25 126.512C1214.11 125.907 1213.02 125.618 1211.98 125.645C1210.95 125.68 1210.23 126.088 1209.83 126.871C1209.5 127.466 1209.46 128.115 1209.72 128.82C1209.99 129.532 1210.71 130.367 1211.86 131.326L1217.2 135.611C1219.96 137.838 1221.73 140.032 1222.5 142.194C1223.29 144.363 1223.09 146.574 1221.9 148.828C1220.76 150.934 1219.16 152.438 1217.08 153.34C1215.02 154.25 1212.68 154.569 1210.08 154.299C1207.48 154.015 1204.81 153.139 1202.05 151.672C1197.65 149.329 1194.67 146.578 1193.09 143.419C1191.53 140.254 1191.38 137.051 1192.64 133.81L1202.46 138.729C1202.07 139.967 1202.17 141.118 1202.76 142.184C1203.34 143.249 1204.33 144.152 1205.72 144.893C1206.97 145.563 1208.12 145.874 1209.16 145.826C1210.2 145.778 1210.93 145.37 1211.36 144.601C1211.71 143.899 1211.7 143.18 1211.32 142.445C1210.95 141.696 1210.18 140.86 1209.03 139.936L1204.2 136.049C1201.41 133.842 1199.66 131.581 1198.95 129.265C1198.25 126.935 1198.54 124.597 1199.8 122.251C1200.89 120.184 1202.37 118.718 1204.26 117.851C1206.15 116.971 1208.33 116.689 1210.79 117.003C1213.25 117.317 1215.87 118.215 1218.65 119.696C1222.82 121.919 1225.64 124.547 1227.12 127.581C1228.6 130.601 1228.65 133.704 1227.28 136.888Z" fill="#AFB3EB"/>
<path d="M1261.3 156.861L1252.15 152.322C1252.4 151.63 1252.45 150.926 1252.29 150.211C1252.15 149.482 1251.82 148.8 1251.3 148.164C1250.8 147.522 1250.11 146.97 1249.24 146.509C1248.1 145.906 1247.01 145.619 1245.97 145.648C1244.94 145.684 1244.22 146.094 1243.82 146.878C1243.49 147.473 1243.45 148.123 1243.72 148.827C1243.99 149.539 1244.71 150.373 1245.86 151.329L1251.21 155.604C1253.98 157.825 1255.75 160.016 1256.52 162.176C1257.31 164.344 1257.12 166.556 1255.94 168.812C1254.8 170.92 1253.2 172.427 1251.12 173.333C1249.06 174.246 1246.73 174.57 1244.13 174.305C1241.53 174.026 1238.85 173.156 1236.1 171.694C1231.69 169.359 1228.7 166.614 1227.11 163.459C1225.55 160.297 1225.39 157.094 1226.65 153.85L1236.47 158.751C1236.09 159.989 1236.19 161.14 1236.78 162.205C1237.36 163.269 1238.35 164.17 1239.74 164.908C1241 165.575 1242.15 165.884 1243.19 165.834C1244.23 165.784 1244.96 165.375 1245.38 164.605C1245.74 163.902 1245.73 163.183 1245.34 162.449C1244.97 161.701 1244.2 160.866 1243.04 159.944L1238.21 156.067C1235.41 153.866 1233.66 151.608 1232.95 149.293C1232.24 146.965 1232.52 144.626 1233.79 142.277C1234.87 140.209 1236.35 138.739 1238.23 137.869C1240.12 136.986 1242.3 136.699 1244.76 137.008C1247.22 137.317 1249.84 138.21 1252.63 139.686C1256.8 141.9 1259.63 144.523 1261.11 147.554C1262.6 150.572 1262.66 153.674 1261.3 156.861Z" fill="#AFB3EB"/>
</g>
<defs>
<clipPath id="clip0_933_8177">
<rect width="1773" height="193" fill="white" transform="matrix(-1 0 0 1 1773 0)"/>
</clipPath>
</defs>
</svg>
