<svg width="1440" height="1024" viewBox="0 0 1440 1024" fill="none" xmlns="http://www.w3.org/2000/svg">
<g clip-path="url(#clip0_343_400)">
<rect width="1440" height="1024" fill="#232221"/>
<path d="M1177.35 368.187C1094.62 328.825 1035.31 313.119 954.368 299.365C950.955 298.785 947.995 301.788 948.633 305.193C965.645 396.008 993.601 460.017 1034.38 521.77C1035.49 523.448 1037.52 524.293 1039.49 523.904C1080.63 515.77 1112.94 499.223 1136.4 474.118C1159.87 449.014 1174.41 415.431 1180.16 373.356C1180.45 371.214 1179.29 369.111 1177.35 368.187Z" fill="#E08717" stroke="#4A310C" stroke-width="2" stroke-linejoin="round"/>
<ellipse cx="19.5" cy="18.5" rx="19.5" ry="18.5" transform="matrix(0.963872 -0.266365 -0.266365 -0.963872 1016.23 408.21)" fill="#942828"/>
<ellipse cx="19.5" cy="18.5" rx="19.5" ry="18.5" transform="matrix(0.963872 -0.266365 -0.266365 -0.963872 1085.86 389.052)" fill="#942828"/>
<ellipse cx="19.5" cy="18.5" rx="19.5" ry="18.5" transform="matrix(0.963872 -0.266365 -0.266365 -0.963872 1049.04 489.403)" fill="#942828"/>
<ellipse cx="1104.72" cy="422.026" rx="19.5" ry="18.5" transform="rotate(-15.4481 1104.72 422.026)" fill="#942828"/>
<ellipse cx="980.975" cy="331.323" rx="19.5" ry="18.5" transform="rotate(-15.4481 980.975 331.323)" fill="#942828"/>
<path d="M982.472 367.356C987.39 355.539 999.622 356.018 1005.45 368.256L982.472 367.356Z" fill="#AB7A4E"/>
<path d="M989.506 366.63L996.5 366.905L995.952 380.894C992.953 382.458 991.419 382.414 988.958 380.62L989.506 366.63Z" fill="#AB7A4E"/>
<path d="M1138.8 367.238C1158.26 362.85 1168.67 378.84 1158.36 397.279L1138.8 367.238Z" fill="#AB7A4E"/>
<path d="M1146.06 375.531L1152.01 384.674L1133.73 396.577C1129.04 394.171 1127.71 392.18 1127.77 387.434L1146.06 375.531Z" fill="#AB7A4E"/>
<path d="M1048.29 430.977C1040.14 419.12 1048.07 407.872 1063.17 409.844L1048.29 430.977Z" fill="#AB7A4E"/>
<path d="M1051.9 423.897L1056.43 417.465L1069.29 426.527C1068.94 430.312 1067.96 431.732 1064.76 432.958L1051.9 423.897Z" fill="#AB7A4E"/>
<ellipse cx="1060.72" cy="351.927" rx="4.5" ry="7.5" transform="rotate(-15.4481 1060.72 351.927)" fill="#588223"/>
<ellipse cx="1023.87" cy="437.741" rx="4.5" ry="7.5" transform="rotate(-34.0016 1023.87 437.741)" fill="#588223"/>
<ellipse cx="1106.28" cy="457.549" rx="4.5" ry="7.5" transform="rotate(5.67271 1106.28 457.549)" fill="#588223"/>
<ellipse cx="1026.15" cy="333.364" rx="4.5" ry="7.5" transform="rotate(-33.0925 1026.15 333.364)" fill="#588223"/>
<path d="M1094 570.443C1126.45 525.062 1151.31 501.211 1221.5 472.943L1441 608.443V936.443H1323.5L1094 570.443Z" fill="#573353"/>
<path d="M1064 516.944L1165.5 441.444L1195.5 477.944L1210.5 484.5C1180.85 540.494 1122.5 569.056 1110.5 564.5C1098.5 559.944 1064 516.944 1064 516.944Z" fill="#8B432A"/>
<path d="M1136.5 448.444L1165.5 441.444L1064 516.944C1084.99 501.732 1095.74 494.82 1136.5 448.444Z" fill="#8B432A"/>
<path d="M1116.1 393.552C1116.1 376.552 1132.6 373.052 1141.6 390.552C1150.6 408.052 1165.6 441.552 1165.6 441.552L1135.6 449.552C1135.6 449.552 1116.1 410.552 1116.1 393.552Z" fill="#8B432A"/>
<line x1="1127.49" y1="471.086" x2="1124.49" y2="488.086" stroke="#BF5C38"/>
<path d="M1094 570.443C1141.9 559.624 1169.55 541.999 1221.5 472.943L1441 608.443V1029H1342L1094 570.443Z" fill="#74A3D7"/>
<path d="M1112 567L1385.5 1026" stroke="#57455E" stroke-width="4"/>
<path d="M1134.5 556.5L1442.5 1026" stroke="#57455E" stroke-width="4"/>
<path d="M1156.5 544L1449.5 931" stroke="#57455E" stroke-width="4"/>
<path d="M1172 529.5L1442.5 818.5" stroke="#57455E" stroke-width="4"/>
<path d="M1185.5 515.999L1444.5 757.5" stroke="#57455E" stroke-width="4"/>
<path d="M1197.5 502.001L1442 708.002M1209 486.5L1458.5 670.5" stroke="#57455E" stroke-width="4"/>
<path d="M825.5 719.5C796 691.5 686.5 709.5 668 728L627.283 1054.87H724L879.283 1048.87L825.5 719.5Z" fill="#32378F"/>
<path d="M826.5 718C814.5 732 690 750.556 666.5 726.499L627 1053H745H882L826.5 718Z" fill="#868AE0"/>
<path d="M664.502 761.5C732.133 776.846 770.19 773.562 831.002 752" stroke="#B6B6ED" stroke-width="4"/>
<path d="M663.002 779C730.633 794.345 772.69 791.562 833.502 770" stroke="#B6B6ED" stroke-width="4"/>
<path d="M639.018 545.498L891.518 632.998L872.518 693.998L624.518 609.498L639.018 545.498Z" fill="#923258"/>
<path d="M612.018 490.229C628.814 491.873 638.083 495.581 654.518 505.729C654.518 542.498 641.018 624.768 597.518 675.498C575.791 677.324 565.704 674.512 555.018 661.998C556.099 561.205 594.018 502.729 612.018 490.229Z" fill="#923258"/>
<path d="M947.663 598.407C934.071 588.403 924.699 584.965 905.692 581.527C888.018 598.407 847.018 695.498 847.018 749.498C861.957 765.379 880.204 767.662 896.517 765.498C926.518 717.498 956.649 656.04 947.663 598.407Z" fill="#923258"/>
<path d="M570.517 497.498C580.163 498.03 585.336 499.56 594.017 503.998C570.459 543.106 560.331 572.935 549.017 643.498C537.929 644.462 533.289 642.546 526.017 637.498C520.253 631.531 520.219 627.65 521.517 620.498C529.61 572.607 537.862 548.856 555.017 508.498C558.967 500.926 562.487 498.648 570.517 497.498Z" fill="#923258"/>
<path d="M532.018 546.998C539.519 548.998 538.099 551.04 539.018 549.498L529.518 582.498L522.018 578.498C520.348 564.448 524.518 544.998 532.018 546.998Z" fill="#923258"/>
<path d="M976.231 625.88C968.124 620.626 963.043 618.813 953.414 617.284C949.402 662.762 940.007 692.829 907.566 756.507C915.957 763.82 920.834 765.006 929.684 765.213C937.858 763.789 940.172 760.673 943.338 754.13C965.02 710.669 972.35 686.616 982.271 643.901C983.542 635.455 982.041 631.54 976.231 625.88Z" fill="#923258"/>
<path d="M978.168 688.559C970.93 685.755 970.873 688.241 971.039 686.454L959.268 718.714L967.685 719.902C977.313 709.534 985.406 691.363 978.168 688.559Z" fill="#923258"/>
<path d="M810.5 671.5L695.5 681.5L695.5 703L688.5 736.5C724 742.5 803.5 735 810.5 726.5C817.5 718 810.5 671.5 810.5 671.5Z" fill="#E79D68"/>
<path d="M719.002 640.5L691.001 649L695.5 683L700 683L810.001 672L719.002 640.5Z" fill="#E79D68"/>
<line y1="-0.5" x2="17.2627" y2="-0.5" transform="matrix(0.173785 0.984784 0.984784 -0.173785 743.002 655)" stroke="#D17941"/>
<path d="M696.264 594.277C684.23 582.27 670.098 591.479 676.131 610.21C682.163 628.942 695.285 663.221 695.285 663.221L722.137 647.633C722.137 647.633 708.299 606.283 696.264 594.277Z" fill="#E79D68"/>
<path d="M707.465 589.555C707.465 589.555 708.241 582.229 716.865 570.741C725.489 559.254 739.713 565.628 739.133 577.335C738.552 589.043 734.698 588.529 727.307 597.802C719.915 607.075 706.523 601.588 707.465 589.555Z" fill="#F39860"/>
<path d="M733.002 598C732.464 594.605 734.057 592.198 738.002 581.5C741.946 570.801 754.347 566.039 758.503 577C762.659 587.96 761.503 584.5 754.51 600.173C747.516 615.846 732.002 611 733.002 598Z" fill="#F39860"/>
<path d="M714.792 582.648C711.627 585.444 709.748 587.93 709.2 591.842C709.132 592.329 709.163 592.827 709.289 593.303C709.788 595.174 710.561 596.609 711.847 597.806C713.12 598.992 714.864 599.915 717.25 600.828C718.785 601.415 720.523 601.046 721.696 599.899C723.761 597.88 725.421 595.887 726.41 593.602C727.405 591.303 727.704 588.746 727.109 585.626C726.977 584.933 726.652 584.286 726.183 583.764C724.291 581.656 722.673 580.69 720.973 580.555C719.306 580.423 717.668 581.106 715.799 581.987C715.436 582.158 715.095 582.38 714.792 582.648Z" fill="#F39860" stroke="#D07A3F"/>
<path d="M739.369 592.244C736.408 594.865 734.64 597.204 734.118 600.87C734.048 601.358 734.078 601.857 734.206 602.333C734.675 604.073 735.399 605.413 736.595 606.535C737.778 607.645 739.394 608.511 741.592 609.36C743.126 609.953 744.867 609.583 746.037 608.432C747.949 606.551 749.487 604.686 750.405 602.548C751.327 600.398 751.606 598.007 751.061 595.101C750.931 594.407 750.606 593.759 750.135 593.237C748.363 591.274 746.84 590.369 745.237 590.243C743.666 590.12 742.125 590.76 740.377 591.583C740.014 591.754 739.672 591.976 739.369 592.244Z" fill="#F39860" stroke="#D07A3F"/>
<path d="M756.35 602.818C755.812 599.423 757.405 597.016 761.349 586.318C765.294 575.62 777.694 570.857 781.851 581.818C786.007 592.778 784.851 589.318 777.857 604.991C770.864 620.664 755.35 615.818 756.35 602.818Z" fill="#F39860"/>
<path d="M762.393 599.713C760.114 601.744 758.723 603.59 758.284 606.43C758.208 606.921 758.238 607.423 758.373 607.902C758.74 609.198 759.295 610.222 760.186 611.086C761.067 611.941 762.249 612.61 763.822 613.251C765.352 613.875 767.109 613.5 768.265 612.327C769.667 610.905 770.795 609.471 771.472 607.831C772.153 606.179 772.363 604.352 771.983 602.164C771.861 601.463 771.535 600.813 771.055 600.293C769.687 598.815 768.485 598.116 767.207 598.02C765.961 597.927 764.744 598.422 763.402 599.05C763.038 599.22 762.696 599.443 762.393 599.713Z" fill="#F39860" stroke="#D07A3F"/>
<path d="M778.35 609.818C777.812 606.423 779.405 604.016 783.349 593.318C787.294 582.62 799.694 577.857 803.851 588.818C808.007 599.778 806.851 596.318 799.857 611.991C792.864 627.664 777.35 622.818 778.35 609.818Z" fill="#F39860"/>
<path d="M784.916 608.992C783.165 610.567 782.068 612.028 781.694 614.227C781.61 614.721 781.64 615.231 781.785 615.712C782.071 616.664 782.492 617.436 783.143 618.095C783.788 618.748 784.634 619.265 785.729 619.746C787.251 620.415 789.035 620.029 790.169 618.827C791.178 617.757 791.989 616.661 792.48 615.409C792.973 614.149 793.13 612.762 792.876 611.132C792.765 610.423 792.436 609.765 791.942 609.25C790.886 608.146 789.933 607.609 788.911 607.538C787.919 607.468 786.956 607.849 785.927 608.327C785.561 608.497 785.219 608.72 784.916 608.992Z" fill="#F39860" stroke="#D07A3F"/>
<path d="M350.591 963.017C373.574 929.461 484.416 924.135 506.379 938.351L614.634 1249.45L520.061 1269.71L366.964 1296.35L350.591 963.017Z" fill="#0F1F47"/>
<path d="M320 854.5C342.503 862.846 396.032 902.571 411.501 905C428.542 902.481 429.183 902.542 437.001 896.401L443.499 879L477.205 896.401L481.512 917.725L495.131 949.387C464.689 969.553 383.935 978.396 372.724 966.721C361.512 955.046 320 854.5 320 854.5Z" fill="#D7835E"/>
<path d="M461.999 824C471.253 809.74 486.977 815.421 485 835C483.023 854.579 477.001 897.5 477.001 897.5L442.502 885.5C442.502 885.5 452.745 838.261 461.999 824Z" fill="#D7835E"/>
<path d="M350 963C364.665 974.177 488.558 966.944 506.5 938.5L614.518 1247.56L499.133 1272.27L365.17 1300.95L350 963Z" fill="#FDA758"/>
<path d="M517.5 969.5C454.581 998.666 411.002 1000 352 996" stroke="#FFDEB7" stroke-width="4"/>
<path d="M486.818 730.469L433.52 916.323C432.99 918.173 431.531 919.611 429.674 920.115L412.084 924.889C411.358 925.086 410.591 925.132 409.85 925.019C388.226 921.724 373.64 915.244 355.999 907.407C350.05 904.764 343.753 901.967 336.721 899.085C336.318 898.92 335.932 898.707 335.58 898.454L331.549 895.554C329.649 894.188 328.823 891.769 329.488 889.526L383.616 707.003C384.359 704.498 386.761 702.862 389.363 703.087L470.621 710.114C472.031 710.236 473.34 710.897 474.275 711.96L478.822 717.125L478.831 717.135L485.754 725.428C486.922 726.828 487.321 728.716 486.818 730.469Z" fill="#706D80" stroke="#171518"/>
<path d="M474.925 718.531L421.481 902.098C421.265 902.842 420.893 903.533 420.39 904.124L413.944 911.702C412.795 913.052 411.069 913.769 409.318 913.587C382.674 910.816 362.366 900.889 339.638 889.769C338.077 889.005 336.967 887.548 336.646 885.84L334.587 874.867C334.426 874.012 334.471 873.131 334.717 872.297L383.564 706.656C384.301 704.159 386.688 702.52 389.283 702.73L469.286 709.202C471.459 709.378 473.324 710.821 474.038 712.881L474.84 715.19C475.214 716.268 475.244 717.436 474.925 718.531Z" fill="#56597A" stroke="#171518"/>
<g filter="url(#filter0_f_343_400)">
<path d="M350.472 687.35L470.026 695.768L405.553 894.832L291.061 862.694L350.472 687.35Z" fill="#F5D49D" fill-opacity="0.5"/>
</g>
<path d="M336.234 864.996L380.711 718.348L472.05 726.13L423.868 892.536L336.234 864.996Z" fill="#F5D49D" stroke="black"/>
<path d="M385.179 889.351C385.309 890.809 384.644 892.238 383.386 893.369C382.129 894.5 380.301 895.308 378.198 895.496C376.095 895.684 374.153 895.212 372.715 894.322C371.277 893.431 370.369 892.143 370.239 890.685C370.108 889.227 370.774 887.798 372.032 886.667C373.289 885.536 375.117 884.727 377.22 884.54C379.323 884.352 381.265 884.824 382.703 885.714C384.141 886.604 385.049 887.893 385.179 889.351Z" fill="#626B8E" stroke="#171518"/>
<path d="M422.684 715.221L416.802 705.3L450.197 707.923L435.949 716.628L422.684 715.221Z" fill="#978C88" stroke="black"/>
<path d="M344 792.389C344 792.389 344.501 775.889 346.501 773.889C348.501 771.889 356.5 773.889 356.5 773.889L363 776.389C363 776.389 367.001 778.389 370.501 780.889C374.001 783.389 374.501 789.889 367.501 792.389C360.501 794.889 358 792.389 358 792.389L357 794.5L344 792.389Z" fill="#D7835E"/>
<path d="M359.697 786.498C361.666 789.044 363.451 790.621 366.224 791.195C366.729 791.299 367.245 791.271 367.731 791.162C368.861 790.908 369.806 790.645 370.615 790.066C371.438 789.476 372.067 788.6 372.667 787.229C373.442 785.456 372.86 783.436 371.413 782.379C368.972 780.598 367.525 780.27 365.28 779.761C364.965 779.69 364.635 779.615 364.284 779.532C362.892 779.203 361.376 779.547 360.228 780.541C359.731 780.971 359.33 781.331 359.04 781.663C358.744 782.002 358.528 782.351 358.446 782.767C358.365 783.177 358.429 783.583 358.556 784.01C358.683 784.433 358.89 784.934 359.145 785.543C359.287 785.882 359.471 786.207 359.697 786.498Z" fill="#D7835E" stroke="#AB5B4A"/>
<path d="M355.601 820.824C355.601 820.824 348.322 819.689 337.271 810.513C326.22 801.336 333.284 787.442 344.949 788.595C356.614 789.749 355.911 793.573 364.811 801.41C373.71 809.247 367.574 822.355 355.601 820.824Z" fill="#D7835E"/>
<path d="M350.748 812.455C352.799 816.147 354.823 818.517 358.525 819.893C358.986 820.064 359.479 820.142 359.97 820.12C361.905 820.036 363.473 819.589 364.919 818.591C366.35 817.602 367.627 816.097 369.031 813.964C369.931 812.597 369.973 810.792 369.001 809.433C365.776 804.925 362.253 803.914 357.648 802.659C357.266 802.555 356.859 802.494 356.442 802.512C353.631 802.632 351.824 803.679 350.871 805.36C349.939 807.003 349.892 809.139 350.324 811.315C350.404 811.72 350.553 812.104 350.748 812.455Z" fill="#D7835E" stroke="#AB5B4A"/>
<path d="M336.529 864.422C336.529 864.422 329.319 862.907 318.764 853.164C308.209 843.421 315.992 829.916 327.58 831.679C339.169 833.443 338.267 837.225 346.743 845.517C355.22 853.81 348.405 866.578 336.529 864.422Z" fill="#D7835E"/>
<path d="M329.92 854.624C331.667 858.469 333.494 860.994 337.074 862.663C337.519 862.871 338.005 862.988 338.496 863.006C340.432 863.077 342.03 862.758 343.551 861.879C345.058 861.009 346.452 859.612 348.022 857.598C349.034 856.302 349.19 854.532 348.436 853.074C347.111 850.51 345.691 848.338 343.796 846.723C341.889 845.099 339.531 844.064 336.375 843.719C335.673 843.643 334.959 843.764 334.322 844.059C331.753 845.251 330.355 846.516 329.729 848.102C329.115 849.656 329.288 851.423 329.583 853.468C329.64 853.865 329.753 854.256 329.92 854.624Z" fill="#D7835E" stroke="#AB5B4A"/>
<path d="M337.138 842.06C337.138 842.06 330.583 838.699 322.97 826.518C315.357 814.337 326.424 803.361 337.138 808.117C347.852 812.873 345.984 816.283 351.975 826.517C357.965 836.752 348.025 847.271 337.138 842.06Z" fill="#D7835E"/>
<path d="M333.345 830.867C334.017 835.036 335.113 837.954 338.126 840.507C338.501 840.825 338.939 841.066 339.408 841.213C341.257 841.792 342.882 841.906 344.582 841.459C346.264 841.017 347.977 840.036 350.023 838.508C351.34 837.524 351.957 835.858 351.615 834.254C351.013 831.43 350.216 828.961 348.813 826.903C347.402 824.834 345.401 823.214 342.446 822.049C341.79 821.791 341.07 821.719 340.377 821.836C337.584 822.308 335.903 823.16 334.88 824.525C333.878 825.863 333.579 827.612 333.325 829.663C333.276 830.061 333.281 830.468 333.345 830.867Z" fill="#D7835E" stroke="#AB5B4A"/>
<path d="M1007.31 948.102C1030.3 914.546 1141.14 909.22 1163.1 923.437L1271.36 1234.54L1176.78 1254.79L1023.69 1281.44L1007.31 948.102Z" fill="#56597A"/>
<path d="M1041.42 913.582L1040.61 913.053L1040.65 914.019L1041.15 914C1040.65 914.019 1040.65 914.019 1040.65 914.019L1040.65 914.02L1040.65 914.025L1040.65 914.045L1040.65 914.123L1040.66 914.43C1040.67 914.698 1040.68 915.093 1040.7 915.598C1040.74 916.608 1040.78 918.058 1040.84 919.817C1040.94 923.337 1041.07 928.095 1041.15 933.05C1041.24 938.006 1041.28 943.156 1041.22 947.46C1041.15 951.787 1040.98 955.201 1040.66 956.725C1040.53 957.331 1040.76 957.867 1041.19 958.294C1041.61 958.708 1042.24 959.053 1043 959.347C1044.53 959.937 1046.79 960.383 1049.59 960.673C1055.2 961.253 1063.1 961.215 1071.99 960.348C1089.74 958.617 1111.53 953.565 1126.85 943.416L1127.12 943.235L1127.07 942.911C1125.66 935.087 1125.28 929.012 1125.97 922.951C1126.65 916.889 1128.42 910.815 1131.35 902.995L1140.96 880.194L1140.98 880.142L1140.99 880.087C1143.55 865.518 1143.63 854.914 1141.81 845.077C1140 835.25 1136.29 826.216 1131.34 814.801L1131.2 814.487L1130.86 814.501L1092.98 816.001L1092.73 816.01L1092.59 816.216C1090.33 819.481 1081.17 833.155 1075.71 850.727C1070.25 868.294 1068.46 889.848 1081.08 908.778C1082.22 910.477 1082.3 912.851 1081.26 915.203C1080.21 917.549 1078.05 919.838 1074.75 921.293C1068.18 924.197 1057.02 923.784 1041.42 913.582Z" fill="#EE9275" stroke="#844C01"/>
<path d="M1006.72 948.085C1021.39 959.263 1145.28 952.029 1163.22 923.585L1271.24 1232.65L1155.86 1257.35L1021.89 1286.04L1006.72 948.085Z" fill="#FF8A91"/>
<path d="M1174.22 954.585C1111.3 983.752 1067.72 985.085 1008.72 981.085" stroke="#FFACB1" stroke-width="4"/>
<path d="M1016 817C1040.09 867.919 1074 859 1074 859C1074 859 1073.55 893.472 1083.5 912.5C1077.96 925.512 1069.9 928.408 1042 916.5C1022.36 906.815 1021.08 871.446 1016 817Z" fill="#EE9275"/>
<path d="M1016.45 811.767C1018.28 804.593 1020.05 799.513 1022.57 796.397C1023.82 794.853 1025.25 793.801 1026.97 793.215C1028.7 792.626 1030.74 792.494 1033.24 792.848C1035.03 793.101 1036.47 794.463 1037.07 796.235L1053.77 845.394C1053.95 845.944 1054.21 846.473 1054.55 846.955C1056.59 849.862 1058.65 852.128 1062.14 854.389C1064.2 855.723 1065.29 858.063 1065.26 860.117C1065.24 861.139 1064.95 862.064 1064.39 862.759C1063.84 863.447 1062.99 863.946 1061.8 864.08C1058.49 864.454 1054.92 864.03 1050.29 862.43C1049.61 862.198 1048.99 861.81 1048.46 861.317C1031.96 845.873 1024.81 835.369 1016.67 815.091C1016.25 814.037 1016.17 812.868 1016.45 811.767Z" fill="#EE9275" stroke="#844C01" stroke-linejoin="round"/>
<path d="M1065.51 833.099L1065.53 833.22L1065.61 833.316L1076.5 846.678C1076.5 849.805 1076.37 852.359 1076.05 854.403C1075.72 856.49 1075.19 858.001 1074.44 859.044C1073.7 860.067 1072.72 860.67 1071.39 860.908C1070.06 861.144 1068.38 861.019 1066.24 860.542L1053.41 848.703C1044.34 828.286 1040.31 816.839 1037.51 796.541C1039.71 789.369 1042.48 785.222 1045.59 782.629C1048.6 780.128 1051.97 779.031 1055.64 778.105C1058.49 789.276 1059.92 797.816 1061.14 806.111C1061.37 807.701 1061.6 809.282 1061.83 810.872C1062.81 817.694 1063.81 824.667 1065.51 833.099Z" fill="#EE9275" stroke="#844C01"/>
<path d="M1065.93 835.221C1060.17 821.472 1057.67 809.995 1055.51 778.613C1058.9 772.52 1061.59 768.699 1064.32 766.481C1066.94 764.351 1069.62 763.68 1073.1 763.965L1079.01 788.591C1079.97 795.795 1081.29 800.903 1083.37 805.318C1085.4 809.652 1088.14 813.29 1091.9 817.572C1082.76 834.958 1080.13 840.104 1076.87 846.641L1065.93 835.221Z" fill="#EE9275" stroke="#844C01"/>
<path d="M1111.5 764.559L1111.51 764.647L1111.55 764.726C1112.77 767.118 1113.93 769.395 1115.05 771.584C1124.05 789.151 1130.14 801.05 1133.89 820.956L1092.26 818.017C1081.79 804.359 1079.17 792.466 1073.41 766.293C1073.28 765.713 1073.15 765.126 1073.02 764.532C1080.42 743.569 1086.02 733.922 1098.85 720.862C1101.91 718.129 1105.89 718.89 1109.27 720.483C1110.94 721.272 1112.42 722.245 1113.48 723.024C1114.01 723.413 1114.43 723.751 1114.72 723.992C1114.81 724.062 1114.88 724.124 1114.94 724.176C1110.41 742.503 1109.9 751.19 1111.5 764.559Z" fill="#EE9275" stroke="#844C01"/>
<path d="M1074.83 760.245C1065.6 753.313 1061.52 749.353 1058.46 742.311C1056.32 736.679 1055.09 732.367 1054.64 729.036C1054.19 725.703 1054.52 723.406 1055.41 721.763C1056.31 720.13 1057.81 719.061 1059.87 718.273C1061.92 717.493 1064.48 717.008 1067.46 716.514C1073.39 718.598 1077.52 720.522 1080.85 722.915C1084.14 725.271 1086.68 728.1 1089.42 732.037L1074.83 760.245Z" fill="#EE9275" stroke="#844C01"/>
<path d="M1085.94 710.022C1072.08 702.335 1065.88 697.502 1062 686.5C1059.35 660.281 1085.94 657 1089.5 676.5C1093.06 695.999 1085.94 710.022 1085.94 710.022Z" fill="#BA6D74"/>
<path d="M1085.83 709.815C1101.13 705.682 1108.31 702.477 1114.72 692.728C1123.59 667.913 1098.56 658.344 1090.42 676.42C1082.29 694.496 1085.83 709.815 1085.83 709.815Z" fill="#BA6D74"/>
<path d="M1092.18 814.909L1132.68 819.409L1135.5 826L1092.18 826.909V814.909Z" fill="#EE9275"/>
<path d="M351.365 599.729C335.716 544.426 324.694 510.833 245.751 478.864L-1.58009 570.021L-1.58007 942.021L55.9199 942.021L351.365 599.729Z" fill="#FF8A91"/>
<path d="M351.419 600.521C351.628 600.946 281.892 557.859 244.42 479.355L-2.10851 570.521L-9.08008 1041.52L42.9199 1041.52C42.9199 1041.52 351.209 600.096 351.419 600.521Z" fill="#FFA9AF"/>
<path d="M304.5 670C244.113 628.627 192.305 565.632 162.564 510.626" stroke="#2A557B" stroke-width="4"/>
<path d="M306.924 614.522C306.924 618.636 303.371 622.022 298.924 622.022C294.477 622.022 290.924 618.636 290.924 614.522C290.924 610.408 294.477 607.022 298.924 607.022C303.371 607.022 306.924 610.408 306.924 614.522Z" stroke="#2A557B"/>
<path d="M183.424 600.522L173.424 668.522" stroke="#584963" stroke-width="20" stroke-linecap="round"/>
<path d="M107.008 735.879L170.503 762.191" stroke="#584963" stroke-width="20" stroke-linecap="round"/>
<path d="M21.1484 661.318L89.2689 652.174" stroke="#584963" stroke-width="20" stroke-linecap="round"/>
<path d="M61.8223 834.806L55.6894 903.264" stroke="#584963" stroke-width="20" stroke-linecap="round"/>
<path d="M433.211 302.38C461.158 313.96 476.876 320.209 505.885 326.884L499.37 350.838L422.766 327.582L433.211 302.38Z" fill="url(#paint0_linear_343_400)"/>
<path d="M441.626 268.788C445.929 265.512 492.079 278.149 522.94 295.255L511.498 328.536C478.84 323.248 460.88 316.661 429.124 301.133C429.124 301.133 437.322 272.063 441.626 268.788Z" fill="#56597A"/>
<path d="M441.626 268.788C474.571 283.716 492.287 289.188 522.94 295.255L511.499 328.536C478.84 323.248 460.88 316.661 429.124 301.133C433.085 282.63 436.033 276.841 441.626 268.788Z" fill="#41456E"/>
<path d="M481.954 279.229C480.043 277.856 479.942 275.048 481.749 273.54L484.133 271.551C484.913 270.9 485.846 270.456 486.844 270.27C502.564 267.342 512.222 267.402 528.052 272.411C529.729 272.942 531.327 273.728 532.785 274.713C549.994 286.338 557.497 293.851 563.332 308.255C569.092 328.313 569.737 343.102 563.599 360.84C562.673 363.518 559.059 363.678 557.764 361.158V361.158C557.305 360.267 557.277 359.213 557.665 358.289C565.133 340.537 564.416 329.402 558.881 310.395C558.527 309.179 558.05 307.997 557.447 306.883C551.829 296.502 546.181 289.999 533.801 280.056C531.869 278.504 529.642 277.348 527.259 276.668C511.56 272.189 503.394 271.811 492.95 275.233C492.087 275.516 491.269 275.923 490.507 276.416L486.015 279.327C484.77 280.134 483.159 280.095 481.954 279.229V279.229Z" fill="#DC6C99"/>
<path d="M489.721 276.796C493.581 274.44 496.411 273.919 501.51 273.052C510.01 273.514 514.664 274.474 522.439 279.255C535.757 289.534 535.498 297.601 536.978 311.409C540.449 329.093 542.458 338.963 550.613 353.138L557.507 359.219L561.25 362.992C555.603 365.076 552.382 364.866 546.341 356.913C539.486 348.795 536.317 336.71 530.989 311.784C529.448 297.457 527.435 290.399 517.667 283.061C507.28 278.42 501.014 277.608 489.721 276.796Z" fill="#F087B1"/>
<path d="M388.85 349.372C414.511 295.161 526.081 340.774 512.552 388.714C500.415 431.723 429.722 631.525 415.309 672.17C413.778 676.489 409.532 679.098 404.974 678.631C359.6 673.981 333.691 667.807 297.214 642.549C297.214 642.549 363.189 403.583 388.85 349.372Z" fill="url(#paint1_linear_343_400)"/>
<path d="M385.321 361.617C411.292 311.767 523.722 355.364 509.927 399.399C497.565 438.861 429.41 632.154 415.388 671.872C413.877 676.154 409.699 678.765 405.179 678.344C359.471 674.084 331.165 666.319 294.758 643.33C294.758 643.33 359.35 411.466 385.321 361.617Z" fill="#B6C8E8"/>
<path d="M406.711 359.219C419.061 348.425 419.686 358.406 419.686 358.406C402.878 388.488 384.735 440.251 381.461 443.963C378.187 447.675 377.53 437.196 377.53 437.196C381.833 401.251 394.362 370.012 406.711 359.219Z" fill="#D4E0F7"/>
<path d="M336.501 536.5C336.501 536.5 339.685 514.652 341.919 498.023L310.888 462.104L278.391 489.505L261.419 504.021C261.334 520.198 311.312 577.143 315.5 572.5C319.688 567.857 336.501 536.5 336.501 536.5Z" fill="#855138"/>
<path d="M368.817 421.006C372.191 404.344 356.714 397.639 344.42 413.005C332.126 428.371 310.774 462.191 310.774 462.191L341.42 499.523C341.42 499.523 365.443 437.668 368.817 421.006Z" fill="#855138"/>
<path d="M354.165 423.532C355.479 422.312 357.499 419.958 359.306 417.515C360.212 416.29 361.071 415.035 361.767 413.879C362.458 412.73 363.004 411.651 363.264 410.785C363.417 410.278 363.398 409.739 363.23 409.248C362.791 407.964 361.942 407.294 360.814 406.825C360.263 406.597 359.637 406.412 358.959 406.225C358.786 406.177 358.609 406.129 358.428 406.08C357.892 405.935 357.322 405.78 356.707 405.593C355.548 405.241 354.241 405.278 353.158 405.976C351.333 407.153 348.758 409.109 346.539 411.309C345.429 412.41 344.398 413.581 343.594 414.754C342.793 415.922 342.195 417.122 341.986 418.277C341.815 419.224 342.221 420.116 342.828 420.743C344.275 422.236 346.086 423.327 347.898 423.932C349.703 424.536 351.553 424.671 353.064 424.192C353.493 424.057 353.859 423.816 354.165 423.532Z" fill="#855138" stroke="#643B2F"/>
<path d="M505.92 412.022C505.92 412.022 504.11 412.022 516.064 409.217C528.019 406.412 531.392 427.187 524.267 430.974C517.143 434.761 500.328 438.81 500.328 438.81L494.42 438.81L505.92 412.022Z" fill="#855138"/>
<path d="M470.571 443.39C470.571 443.39 480.695 439.051 495.359 438.196C510.023 437.34 512.592 451.706 503.068 458.989C493.544 466.271 489.357 463.981 477.236 464.336C465.115 464.691 460.554 450.606 470.571 443.39Z" fill="#855138"/>
<path d="M464.835 470.564C464.835 470.564 474.959 466.225 489.623 465.37C504.286 464.514 507.581 477.262 498.058 484.545C488.534 491.828 483.621 491.155 471.5 491.51C459.379 491.864 454.818 477.78 464.835 470.564Z" fill="#855138"/>
<path d="M458.88 493.306C458.88 493.306 467.02 489.88 478.818 489.224C490.616 488.569 492.307 504.449 485.955 506.608C479.604 508.767 474.029 509.671 464.276 509.933C454.524 510.195 450.831 499.014 458.88 493.306Z" fill="#855138"/>
<path d="M470.66 451.652C470.565 450.066 471.172 448.445 472.528 447.617C474.831 446.21 477.473 446.186 482.027 447.128C482.647 447.256 483.245 447.492 483.783 447.825C490.11 451.735 490.886 454.448 486.199 459.298C485.577 459.941 484.79 460.402 483.941 460.683C481.074 461.633 479.011 462.268 476.266 461.766C475.09 461.55 474.078 460.819 473.403 459.832C471.538 457.102 470.85 454.84 470.66 451.652Z" fill="#855138" stroke="#653129" stroke-linejoin="round"/>
<path d="M472.167 469.745C467.995 470.401 465.073 471.486 462.508 474.489C462.189 474.863 461.946 475.3 461.798 475.769C461.212 477.615 461.092 479.24 461.532 480.941C461.968 482.625 462.942 484.342 464.462 486.394C465.441 487.715 467.105 488.338 468.711 488.002C471.537 487.41 474.009 486.623 476.071 485.228C478.146 483.825 479.774 481.83 480.95 478.88C481.211 478.224 481.285 477.504 481.171 476.811C480.709 474.017 479.864 472.332 478.503 471.304C477.169 470.297 475.421 469.991 473.371 469.729C472.973 469.678 472.566 469.682 472.167 469.745Z" fill="#855138" stroke="#653129"/>
<path d="M465.502 494.585C462.755 495.046 460.766 495.808 459.021 497.806C458.697 498.177 458.457 498.615 458.318 499.087C457.971 500.265 457.892 501.331 458.138 502.435C458.381 503.528 458.933 504.622 459.785 505.87C460.73 507.254 462.445 507.897 464.067 507.502C465.808 507.08 467.353 506.507 468.661 505.556C469.978 504.6 471.026 503.281 471.807 501.411C472.077 500.763 472.151 500.049 472.028 499.362C471.699 497.537 471.115 496.385 470.171 495.666C469.25 494.965 468.064 494.741 466.728 494.565C466.323 494.512 465.909 494.516 465.502 494.585Z" fill="#855138" stroke="#653129"/>
<path d="M379.474 217.518L360.513 175.01L378.072 167.177C381.255 165.758 384.258 165.107 387.081 165.224C389.912 165.322 392.432 166.156 394.642 167.725C396.845 169.28 398.595 171.511 399.891 174.417C401.206 177.364 401.68 180.156 401.313 182.792C400.939 185.414 399.81 187.792 397.925 189.927C396.034 192.048 393.47 193.83 390.232 195.275L379.128 200.228L375.517 192.133L384.712 188.031C386.261 187.34 387.466 186.562 388.325 185.698C389.191 184.814 389.709 183.836 389.878 182.765C390.041 181.681 389.83 180.481 389.243 179.166C388.657 177.852 387.903 176.886 386.98 176.269C386.052 175.638 384.966 175.342 383.723 175.382C382.474 175.409 381.082 175.764 379.546 176.45L374.481 178.709L389.748 212.935L379.474 217.518ZM394.74 187.416L413.991 202.122L402.783 207.121L383.739 192.323L394.74 187.416Z" fill="#FDA758"/>
<path d="M431.389 196.441C427.96 197.697 424.753 198.106 421.769 197.666C418.793 197.208 416.175 195.964 413.915 193.936C411.664 191.889 409.9 189.122 408.623 185.637C407.382 182.251 406.966 179.047 407.376 176.024C407.78 172.988 408.94 170.319 410.857 168.02C412.768 165.706 415.374 163.944 418.675 162.734C421.008 161.88 423.275 161.46 425.476 161.477C427.676 161.494 429.742 161.955 431.671 162.862C433.601 163.768 435.34 165.124 436.889 166.929C438.433 168.719 439.697 170.958 440.682 173.647L441.636 176.251L413.147 186.69L410.927 180.629L429.706 173.748C429.285 172.644 428.66 171.751 427.829 171.071C426.999 170.391 426.047 169.973 424.974 169.818C423.909 169.643 422.801 169.767 421.649 170.189C420.482 170.617 419.533 171.263 418.801 172.128C418.064 172.979 417.589 173.952 417.377 175.046C417.16 176.126 417.243 177.234 417.626 178.368L419.886 184.535C420.376 185.872 421.069 186.95 421.966 187.767C422.857 188.57 423.888 189.072 425.059 189.272C426.229 189.472 427.483 189.327 428.821 188.837C429.745 188.499 430.538 188.063 431.198 187.531C431.858 186.998 432.367 186.384 432.725 185.688C433.084 184.992 433.265 184.232 433.269 183.407L442.953 180.174C443.341 182.468 443.152 184.659 442.384 186.748C441.626 188.817 440.32 190.691 438.466 192.371C436.607 194.036 434.248 195.393 431.389 196.441Z" fill="#FDA758"/>
<path d="M473.016 156.709L463.323 159.912C463.012 159.246 462.551 158.712 461.94 158.311C461.324 157.895 460.607 157.644 459.79 157.558C458.983 157.452 458.108 157.542 457.165 157.826C455.932 158.197 454.954 158.76 454.232 159.515C453.525 160.266 453.305 161.06 453.573 161.898C453.755 162.555 454.186 163.042 454.867 163.359C455.563 163.672 456.658 163.762 458.152 163.628L464.961 162.908C468.49 162.542 471.29 162.854 473.36 163.845C475.445 164.831 476.862 166.541 477.61 168.974C478.286 171.271 478.204 173.471 477.366 175.574C476.542 177.674 475.111 179.544 473.074 181.186C471.032 182.813 468.517 184.077 465.528 184.977C460.755 186.413 456.695 186.567 453.349 185.439C450.013 184.291 447.651 182.122 446.264 178.932L456.696 175.507C457.295 176.656 458.177 177.403 459.341 177.749C460.505 178.094 461.842 178.04 463.351 177.586C464.715 177.175 465.748 176.587 466.451 175.822C467.154 175.056 467.387 174.251 467.148 173.405C466.906 172.655 466.391 172.153 465.603 171.9C464.81 171.632 463.678 171.577 462.207 171.736L456.04 172.381C452.505 172.781 449.672 172.408 447.539 171.262C445.401 170.101 443.956 168.242 443.201 165.684C442.514 163.454 442.535 161.367 443.263 159.423C443.987 157.465 445.332 155.731 447.298 154.221C449.265 152.712 451.757 151.503 454.775 150.594C459.301 149.232 463.157 149.107 466.34 150.222C469.52 151.322 471.745 153.484 473.016 156.709Z" fill="#FDA758"/>
<path d="M497.498 139.463L499.489 147.399L478.127 152.756L476.137 144.82L497.498 139.463ZM478.578 135.585L489.358 132.882L497.213 164.207C497.379 164.869 497.617 165.379 497.926 165.739C498.246 166.081 498.633 166.288 499.089 166.361C499.541 166.42 500.054 166.377 500.627 166.233C501.038 166.13 501.463 165.985 501.9 165.797C502.348 165.591 502.682 165.429 502.903 165.311L506.486 172.684C506.008 172.96 505.327 173.326 504.441 173.782C503.571 174.235 502.496 174.653 501.218 175.036C498.719 175.787 496.478 176.037 494.493 175.785C492.52 175.515 490.866 174.742 489.531 173.468C488.211 172.19 487.278 170.401 486.732 168.101L478.578 135.585Z" fill="#FDA758"/>
<path d="M526.536 169.502C522.943 170.236 519.705 170.132 516.822 169.19C513.951 168.231 511.547 166.572 509.612 164.215C507.688 161.84 506.369 158.901 505.653 155.397C504.934 151.879 504.995 148.658 505.835 145.733C506.688 142.791 508.248 140.322 510.516 138.328C512.795 136.316 515.731 134.943 519.324 134.209C522.916 133.474 526.148 133.587 529.02 134.547C531.903 135.489 534.306 137.147 536.23 139.522C538.165 141.88 539.492 144.817 540.211 148.335C540.927 151.839 540.859 155.062 540.007 158.004C539.166 160.929 537.606 163.397 535.326 165.409C533.058 167.404 530.128 168.768 526.536 169.502ZM524.924 161.272C526.23 161.005 527.254 160.378 527.996 159.391C528.737 158.405 529.2 157.15 529.384 155.628C529.583 154.103 529.491 152.405 529.109 150.535C528.72 148.634 528.136 147.022 527.355 145.697C526.588 144.369 525.671 143.397 524.601 142.78C523.532 142.163 522.344 141.989 521.038 142.256C519.687 142.532 518.626 143.166 517.854 144.159C517.098 145.148 516.62 146.406 516.422 147.931C516.238 149.453 516.34 151.164 516.728 153.064C517.11 154.935 517.685 156.534 518.451 157.862C519.232 159.187 520.165 160.156 521.249 160.77C522.348 161.38 523.573 161.548 524.924 161.272Z" fill="#FDA758"/>
<path d="M547.61 164.699L542.06 130.234L552.718 128.517L553.73 134.8L554.089 134.742C554.351 132.367 555.103 130.512 556.346 129.176C557.587 127.826 559.149 126.998 561.034 126.695C561.543 126.613 562.072 126.566 562.623 126.554C563.171 126.527 563.688 126.544 564.173 126.604L565.709 136.14C565.156 136.045 564.445 136.014 563.576 136.046C562.721 136.076 561.965 136.144 561.307 136.25C560.005 136.46 558.878 136.941 557.925 137.693C556.984 138.427 556.298 139.359 555.866 140.488C555.446 141.599 555.347 142.842 555.569 144.219L558.582 162.932L547.61 164.699Z" fill="#FDA758"/>
<path d="M589.947 159.146C586.322 159.582 583.107 159.243 580.302 158.131C577.511 157.001 575.249 155.19 573.514 152.698C571.793 150.188 570.711 147.091 570.268 143.405C569.838 139.825 570.168 136.611 571.26 133.763C572.351 130.9 574.092 128.57 576.486 126.771C578.877 124.958 581.818 123.841 585.308 123.421C587.775 123.125 590.078 123.237 592.216 123.758C594.354 124.279 596.258 125.202 597.928 126.528C599.598 127.853 600.98 129.572 602.073 131.683C603.165 133.78 603.882 136.25 604.223 139.093L604.554 141.846L574.431 145.468L573.66 139.06L593.517 136.672C593.361 135.501 592.957 134.489 592.305 133.636C591.653 132.784 590.822 132.159 589.813 131.761C588.817 131.347 587.71 131.213 586.491 131.359C585.258 131.508 584.186 131.919 583.275 132.593C582.362 133.252 581.677 134.09 581.219 135.107C580.76 136.108 580.586 137.205 580.699 138.397L581.483 144.918C581.653 146.332 582.081 147.54 582.766 148.541C583.449 149.527 584.338 150.252 585.431 150.715C586.525 151.179 587.778 151.326 589.192 151.156C590.17 151.038 591.041 150.796 591.806 150.43C592.571 150.063 593.207 149.582 593.716 148.987C594.224 148.391 594.575 147.693 594.769 146.891L604.935 145.967C604.787 148.289 604.1 150.378 602.874 152.235C601.66 154.075 599.959 155.599 597.769 156.809C595.578 158.003 592.971 158.782 589.947 159.146Z" fill="#FDA758"/>
<path d="M666.119 120.005C665.904 118.345 665.182 117.076 663.95 116.197C662.734 115.303 661.028 114.898 658.833 114.981C657.379 115.036 656.175 115.271 655.22 115.686C654.266 116.101 653.559 116.651 653.099 117.336C652.64 118.005 652.418 118.764 652.435 119.612C652.431 120.31 652.59 120.918 652.913 121.437C653.251 121.955 653.723 122.407 654.329 122.793C654.95 123.164 655.69 123.485 656.549 123.755C657.408 124.026 658.372 124.255 659.441 124.442L663.472 125.199C665.792 125.612 667.847 126.201 669.634 126.968C671.437 127.733 672.959 128.669 674.198 129.774C675.453 130.879 676.419 132.169 677.097 133.645C677.774 135.12 678.156 136.789 678.241 138.651C678.337 141.589 677.691 144.137 676.302 146.298C674.913 148.458 672.861 150.15 670.148 151.375C667.45 152.599 664.163 153.284 660.287 153.431C656.396 153.578 652.982 153.123 650.046 152.067C647.11 151.01 644.795 149.324 643.1 147.008C641.405 144.691 640.466 141.717 640.284 138.085L651.049 137.678C651.196 139.173 651.645 140.407 652.394 141.38C653.143 142.352 654.149 143.072 655.41 143.54C656.686 144.007 658.149 144.21 659.799 144.147C661.313 144.09 662.593 143.837 663.637 143.388C664.697 142.938 665.5 142.339 666.048 141.591C666.596 140.842 666.86 139.998 666.839 139.059C666.791 138.182 666.49 137.442 665.937 136.842C665.383 136.226 664.545 135.712 663.422 135.299C662.314 134.871 660.905 134.492 659.194 134.163L654.291 133.211C650.229 132.44 647 131.069 644.606 129.097C642.211 127.11 640.954 124.353 640.836 120.824C640.712 117.948 641.389 115.398 642.867 113.174C644.344 110.95 646.438 109.18 649.148 107.865C651.857 106.549 654.976 105.825 658.504 105.691C662.107 105.555 665.257 106.05 667.953 107.176C670.664 108.287 672.795 109.912 674.347 112.052C675.898 114.191 676.744 116.707 676.884 119.597L666.119 120.005Z" fill="#AAABEA"/>
<path d="M703.785 152.805C700.134 152.778 696.988 152.034 694.347 150.575C691.722 149.101 689.707 147.018 688.303 144.326C686.913 141.618 686.233 138.409 686.26 134.697C686.287 131.091 687.023 127.945 688.467 125.258C689.911 122.557 691.934 120.466 694.536 118.985C697.138 117.489 700.197 116.754 703.712 116.78C706.197 116.799 708.467 117.202 710.521 117.99C712.576 118.778 714.348 119.935 715.837 121.461C717.325 122.988 718.478 124.867 719.295 127.101C720.112 129.319 720.51 131.86 720.488 134.724L720.468 137.496L690.128 137.271L690.176 130.817L710.175 130.965C710.169 129.783 709.896 128.728 709.358 127.8C708.819 126.872 708.074 126.146 707.124 125.624C706.188 125.087 705.107 124.814 703.88 124.805C702.637 124.795 701.522 125.067 700.533 125.621C699.544 126.159 698.758 126.903 698.175 127.853C697.592 128.788 697.281 129.854 697.242 131.051L697.193 137.619C697.183 139.043 697.454 140.295 698.007 141.375C698.559 142.44 699.349 143.271 700.374 143.87C701.4 144.469 702.625 144.773 704.05 144.784C705.034 144.791 705.929 144.661 706.734 144.394C707.539 144.128 708.232 143.731 708.811 143.205C709.391 142.679 709.828 142.031 710.121 141.26L720.323 141.632C719.882 143.916 718.936 145.902 717.484 147.588C716.047 149.259 714.166 150.556 711.841 151.478C709.516 152.385 706.831 152.827 703.785 152.805Z" fill="#AFB3EB"/>
<path d="M735.396 106.323L733.728 152.838L722.622 152.44L724.289 105.925L735.396 106.323Z" fill="#AFB3EB"/>
<path d="M766.565 119.651L766.068 127.818L743.655 126.454L744.152 118.287L766.565 119.651ZM746.705 153.416L748.933 116.802C749.097 114.11 749.739 111.91 750.86 110.202C751.982 108.479 753.47 107.234 755.323 106.467C757.177 105.684 759.283 105.364 761.643 105.508C763.185 105.602 764.63 105.811 765.976 106.136C767.339 106.446 768.347 106.713 769.001 106.935L766.738 114.948C766.338 114.787 765.846 114.644 765.261 114.517C764.692 114.391 764.15 114.313 763.636 114.281C762.336 114.202 761.426 114.435 760.907 114.981C760.388 115.526 760.098 116.297 760.037 117.296L757.798 154.091L746.705 153.416Z" fill="#AFB3EB"/>
<path d="M826.42 130.891L815.129 129.606C815.111 128.43 814.921 127.348 814.561 126.362C814.2 125.375 813.674 124.507 812.981 123.757C812.289 123.008 811.436 122.4 810.421 121.933C809.424 121.454 808.293 121.142 807.028 120.998C804.785 120.743 802.788 121.072 801.037 121.986C799.301 122.902 797.878 124.349 796.769 126.327C795.674 128.307 794.959 130.772 794.623 133.723C794.273 136.794 794.417 139.418 795.054 141.594C795.707 143.758 796.772 145.457 798.248 146.693C799.74 147.915 801.585 148.651 803.783 148.901C805.018 149.042 806.157 149.011 807.202 148.81C808.262 148.61 809.21 148.253 810.046 147.738C810.899 147.21 811.624 146.538 812.22 145.721C812.833 144.891 813.301 143.931 813.623 142.839L824.906 144.192C824.477 146.217 823.653 148.166 822.433 150.04C821.229 151.916 819.675 153.577 817.772 155.022C815.871 156.453 813.631 157.51 811.052 158.192C808.489 158.876 805.619 159.037 802.442 158.676C798.257 158.2 794.613 156.855 791.51 154.641C788.424 152.414 786.126 149.423 784.617 145.668C783.108 141.912 782.642 137.498 783.219 132.425C783.799 127.336 785.26 123.134 787.605 119.817C789.95 116.5 792.883 114.112 796.404 112.652C799.925 111.193 803.74 110.697 807.85 111.165C810.65 111.483 813.195 112.169 815.484 113.223C817.775 114.261 819.739 115.629 821.376 117.325C823.015 119.006 824.276 120.987 825.16 123.268C826.044 125.549 826.464 128.09 826.42 130.891Z" fill="#AFB3EB"/>
<path d="M840.887 163.72C838.688 163.366 836.795 162.685 835.208 161.677C833.638 160.657 832.48 159.319 831.734 157.664C831.005 155.997 830.824 154.026 831.19 151.752C831.499 149.838 832.096 148.276 832.981 147.068C833.866 145.861 834.966 144.94 836.28 144.308C837.595 143.676 839.056 143.275 840.664 143.104C842.275 142.919 843.967 142.892 845.742 143.025C847.73 143.161 849.338 143.228 850.566 143.227C851.797 143.21 852.711 143.058 853.31 142.771C853.926 142.471 854.291 141.97 854.404 141.267L854.422 141.155C854.608 140.003 854.355 139.049 853.664 138.293C852.972 137.537 851.953 137.05 850.607 136.833C849.156 136.6 847.939 136.726 846.955 137.212C845.971 137.698 845.27 138.475 844.852 139.543L834.791 137.553C835.428 135.507 836.499 133.762 838.006 132.316C839.53 130.858 841.46 129.834 843.796 129.244C846.149 128.641 848.866 128.588 851.948 129.084C854.147 129.439 856.131 130.027 857.902 130.85C859.675 131.657 861.17 132.665 862.387 133.875C863.606 135.069 864.475 136.436 864.994 137.978C865.528 139.522 865.648 141.207 865.354 143.031L861.579 166.456L851.257 164.793L852.031 159.991L851.762 159.948C850.961 161.016 850.016 161.877 848.929 162.53C847.856 163.186 846.644 163.612 845.293 163.809C843.956 164.008 842.487 163.978 840.887 163.72ZM845.432 157.086C846.614 157.277 847.714 157.208 848.734 156.882C849.769 156.557 850.637 156.022 851.341 155.276C852.047 154.515 852.49 153.574 852.671 152.452L853.199 149.176C852.858 149.29 852.453 149.378 851.982 149.44C851.527 149.505 851.028 149.555 850.485 149.59C849.942 149.625 849.386 149.643 848.819 149.644C848.251 149.644 847.706 149.641 847.186 149.634C846.127 149.632 845.203 149.744 844.415 149.97C843.642 150.198 843.016 150.558 842.538 151.049C842.077 151.527 841.786 152.14 841.666 152.888C841.483 154.025 841.747 154.958 842.458 155.686C843.184 156.417 844.176 156.884 845.432 157.086Z" fill="#AAABEA"/>
<path d="M867.85 167.636L874.592 133.384L885.184 135.469L883.955 141.713L884.312 141.783C885.381 139.646 886.73 138.167 888.359 137.345C889.991 136.508 891.743 136.274 893.616 136.642C894.122 136.742 894.635 136.881 895.155 137.061C895.679 137.226 896.158 137.42 896.592 137.645L894.727 147.122C894.242 146.841 893.586 146.566 892.759 146.295C891.947 146.027 891.214 145.828 890.56 145.7C889.266 145.445 888.042 145.505 886.887 145.88C885.75 146.243 884.784 146.879 883.987 147.788C883.208 148.685 882.684 149.817 882.415 151.185L878.755 169.782L867.85 167.636Z" fill="#AAABEA"/>
<path d="M907.374 176.586C903.818 175.755 900.913 174.337 898.659 172.332C896.423 170.315 894.917 167.839 894.14 164.904C893.382 161.957 893.426 158.676 894.27 155.061C895.091 151.55 896.502 148.643 898.503 146.341C900.507 144.024 902.941 142.431 905.806 141.56C908.673 140.674 911.819 140.631 915.242 141.431C917.661 141.997 919.786 142.891 921.617 144.112C923.448 145.334 924.921 146.853 926.037 148.669C927.152 150.486 927.862 152.574 928.167 154.932C928.475 157.276 928.303 159.842 927.651 162.631L927.02 165.331L897.475 158.424L898.945 152.139L918.42 156.692C918.674 155.538 918.641 154.448 918.32 153.424C917.999 152.4 917.433 151.529 916.62 150.81C915.826 150.079 914.832 149.575 913.637 149.295C912.427 149.012 911.279 149.032 910.192 149.354C909.109 149.661 908.178 150.213 907.401 151.012C906.626 151.795 906.088 152.767 905.786 153.925L904.291 160.321C903.967 161.708 903.955 162.989 904.256 164.164C904.561 165.324 905.147 166.31 906.016 167.119C906.885 167.929 908.012 168.496 909.399 168.821C910.358 169.045 911.26 169.115 912.104 169.033C912.948 168.95 913.711 168.716 914.392 168.33C915.073 167.945 915.642 167.409 916.098 166.722L925.968 169.333C925.034 171.464 923.673 173.192 921.885 174.517C920.115 175.83 917.995 176.68 915.524 177.067C913.056 177.44 910.34 177.279 907.374 176.586Z" fill="#AAABEA"/>
<path d="M956.647 188.823L945.109 185.207L974.018 145.49L988.31 149.971L989.372 199.083L977.834 195.466L977.819 158.972L977.472 158.863L956.647 188.823ZM960.587 170.861L984.702 178.421L982.146 186.576L958.03 179.016L960.587 170.861Z" fill="#AFB3EB"/>
<path d="M985.617 211.733L1002.62 166.847L1012.91 170.744L1010.79 176.333L1011.11 176.454C1011.91 175.623 1012.88 174.895 1014 174.269C1015.15 173.649 1016.44 173.279 1017.88 173.16C1019.33 173.032 1020.92 173.293 1022.64 173.942C1024.9 174.801 1026.79 176.199 1028.31 178.135C1029.85 180.077 1030.75 182.518 1031.03 185.46C1031.31 188.401 1030.72 191.791 1029.27 195.631C1027.87 199.329 1026.11 202.202 1023.98 204.25C1021.88 206.304 1019.6 207.578 1017.14 208.073C1014.7 208.574 1012.27 208.368 1009.86 207.455C1008.22 206.833 1006.9 206.024 1005.9 205.029C1004.9 204.035 1004.15 202.942 1003.67 201.753C1003.19 200.568 1002.92 199.39 1002.87 198.217L1002.65 198.137L996.01 215.67L985.617 211.733ZM1006.62 187.026C1005.95 188.783 1005.61 190.402 1005.58 191.882C1005.57 193.368 1005.87 194.642 1006.49 195.703C1007.13 196.755 1008.08 197.519 1009.34 197.997C1010.62 198.48 1011.83 198.537 1013 198.167C1014.16 197.782 1015.22 197.024 1016.17 195.892C1017.13 194.766 1017.94 193.324 1018.61 191.567C1019.27 189.81 1019.62 188.199 1019.64 186.732C1019.67 185.271 1019.38 184.017 1018.75 182.971C1018.14 181.929 1017.19 181.164 1015.9 180.676C1014.63 180.193 1013.41 180.129 1012.26 180.485C1011.1 180.841 1010.04 181.573 1009.07 182.68C1008.11 183.792 1007.3 185.241 1006.62 187.026Z" fill="#AAABEA"/>
<path d="M1023.96 226.398L1043.79 182.686L1053.8 187.231L1051.34 192.674L1051.65 192.815C1052.5 192.037 1053.51 191.371 1054.67 190.819C1055.85 190.273 1057.16 189.986 1058.61 189.958C1060.07 189.923 1061.64 190.285 1063.31 191.042C1065.51 192.044 1067.31 193.559 1068.71 195.588C1070.11 197.623 1070.86 200.118 1070.95 203.071C1071.04 206.024 1070.24 209.37 1068.54 213.109C1066.91 216.71 1064.97 219.465 1062.72 221.374C1060.49 223.289 1058.13 224.416 1055.65 224.754C1053.18 225.098 1050.77 224.738 1048.43 223.674C1046.83 222.948 1045.56 222.056 1044.62 221C1043.69 219.944 1043.02 218.806 1042.6 217.588C1042.2 216.375 1042.01 215.182 1042.03 214.009L1041.82 213.915L1034.08 230.99L1023.96 226.398ZM1046.49 203.079C1045.71 204.79 1045.27 206.383 1045.14 207.859C1045.04 209.342 1045.26 210.632 1045.81 211.73C1046.38 212.82 1047.28 213.644 1048.51 214.201C1049.75 214.765 1050.96 214.899 1052.14 214.603C1053.33 214.294 1054.43 213.605 1055.45 212.535C1056.48 211.473 1057.39 210.086 1058.16 208.375C1058.94 206.664 1059.38 205.077 1059.5 203.615C1059.63 202.159 1059.41 200.889 1058.86 199.805C1058.31 198.727 1057.41 197.903 1056.16 197.333C1054.92 196.77 1053.71 196.629 1052.53 196.911C1051.36 197.193 1050.25 197.855 1049.21 198.898C1048.19 199.947 1047.28 201.34 1046.49 203.079Z" fill="#AFB3EB"/>
</g>
<defs>
<filter id="filter0_f_343_400" x="241.061" y="637.351" width="278.967" height="307.481" filterUnits="userSpaceOnUse" color-interpolation-filters="sRGB">
<feFlood flood-opacity="0" result="BackgroundImageFix"/>
<feBlend mode="normal" in="SourceGraphic" in2="BackgroundImageFix" result="shape"/>
<feGaussianBlur stdDeviation="25" result="effect1_foregroundBlur_343_400"/>
</filter>
<linearGradient id="paint0_linear_343_400" x1="433.782" y1="311.488" x2="513.006" y2="336.584" gradientUnits="userSpaceOnUse">
<stop offset="0.119884" stop-color="#B6C8E8"/>
<stop offset="0.683049" stop-color="#74A3D7"/>
<stop offset="1" stop-color="#2C3641"/>
</linearGradient>
<linearGradient id="paint1_linear_343_400" x1="393.924" y1="327.124" x2="521.368" y2="366.119" gradientUnits="userSpaceOnUse">
<stop stop-color="#516E8D"/>
<stop offset="0.155208" stop-color="#74A3D7"/>
<stop offset="0.35156" stop-color="#B6C8E8"/>
<stop offset="0.596354" stop-color="#8AAFDC"/>
<stop offset="0.86875" stop-color="#92B4DF"/>
<stop offset="1" stop-color="#4F6B8A"/>
</linearGradient>
<clipPath id="clip0_343_400">
<rect width="1440" height="1024" fill="white"/>
</clipPath>
</defs>
</svg>
