<svg width="1774" height="710" viewBox="0 0 1774 710" fill="none" xmlns="http://www.w3.org/2000/svg">
<g clip-path="url(#clip0_918_8178)">
<mask id="mask0_918_8178" style="mask-type:luminance" maskUnits="userSpaceOnUse" x="1" y="0" width="1775" height="710">
<path d="M1.66626 0H1775.09V710H1.66626V0Z" fill="white"/>
</mask>
<g mask="url(#mask0_918_8178)">
<path d="M1588.69 243.315C1528.76 214.87 1485.51 203.331 1427.01 193.322C1423.6 192.738 1420.64 195.734 1421.29 199.139C1433.76 264.814 1454.11 311.384 1483.65 356.256C1484.75 357.936 1486.78 358.785 1488.75 358.387C1518.68 352.357 1542.23 340.232 1559.38 321.893C1576.53 303.554 1587.2 279.08 1591.49 248.481C1591.79 246.336 1590.64 244.238 1588.69 243.315Z" fill="#E08717" stroke="#4A310C" stroke-width="2" stroke-linejoin="round"/>
<ellipse cx="14.3236" cy="13.5891" rx="14.3236" ry="13.5891" transform="matrix(0.963872 -0.266365 -0.266365 -0.963872 1470.92 273.283)" fill="#942828"/>
<ellipse cx="14.3236" cy="13.5891" rx="14.3236" ry="13.5891" transform="matrix(0.963872 -0.266365 -0.266365 -0.963872 1522.07 259.21)" fill="#942828"/>
<ellipse cx="14.3236" cy="13.5891" rx="14.3236" ry="13.5891" transform="matrix(0.963872 -0.266365 -0.266365 -0.963872 1495.03 332.923)" fill="#942828"/>
<ellipse cx="1535.93" cy="283.431" rx="14.3236" ry="13.5891" transform="rotate(-15.4481 1535.93 283.431)" fill="#942828"/>
<ellipse cx="1445.03" cy="216.805" rx="14.3236" ry="13.5891" transform="rotate(-15.4481 1445.03 216.805)" fill="#942828"/>
<path d="M1446.13 243.273C1449.74 234.593 1458.73 234.945 1463.01 243.934L1446.13 243.273Z" fill="#AB7A4E"/>
<path d="M1451.3 242.74L1456.43 242.942L1456.03 253.217C1453.83 254.366 1452.7 254.334 1450.89 253.016L1451.3 242.74Z" fill="#AB7A4E"/>
<path d="M1560.96 243.187C1575.25 239.964 1582.9 251.709 1575.32 265.253L1560.96 243.187Z" fill="#AB7A4E"/>
<path d="M1566.29 249.278L1570.66 255.994L1557.23 264.737C1553.79 262.97 1552.81 261.508 1552.86 258.022L1566.29 249.278Z" fill="#AB7A4E"/>
<path d="M1494.47 290.006C1488.49 281.297 1494.31 273.034 1505.41 274.483L1494.47 290.006Z" fill="#AB7A4E"/>
<path d="M1497.13 284.806L1500.45 280.081L1509.9 286.737C1509.64 289.517 1508.92 290.561 1506.57 291.462L1497.13 284.806Z" fill="#AB7A4E"/>
<ellipse cx="1503.61" cy="231.94" rx="3.30545" ry="5.50908" transform="rotate(-15.4481 1503.61 231.94)" fill="#588223"/>
<ellipse cx="1476.54" cy="294.975" rx="3.30545" ry="5.50908" transform="rotate(-34.0016 1476.54 294.975)" fill="#588223"/>
<ellipse cx="1537.07" cy="309.525" rx="3.30545" ry="5.50908" transform="rotate(5.67271 1537.07 309.525)" fill="#588223"/>
<ellipse cx="1478.21" cy="218.305" rx="3.30545" ry="5.50908" transform="rotate(-33.0925 1478.21 218.305)" fill="#588223"/>
<path d="M1528.05 392.45C1551.89 359.116 1570.15 341.596 1621.71 320.832L1782.94 420.363V661.293H1696.63L1528.05 392.45Z" fill="#573353"/>
<path d="M1506.02 353.151L1580.57 297.693L1602.61 324.504L1613.63 329.32C1591.85 370.45 1548.99 391.431 1540.17 388.084C1531.36 384.737 1506.02 353.151 1506.02 353.151Z" fill="#8B432A"/>
<path d="M1559.27 302.836C1559.27 302.836 1580.2 296.183 1580.57 297.694C1580.94 299.204 1537.24 332.89 1506.02 353.193C1521.44 342.02 1529.33 336.901 1559.27 302.836Z" fill="#8B432A"/>
<path d="M1544.28 262.515C1544.28 250.028 1556.4 247.457 1563.01 260.311C1569.62 273.166 1580.64 297.773 1580.64 297.773L1558.61 303.649C1558.61 303.649 1544.28 275.002 1544.28 262.515Z" fill="#8B432A"/>
<line x1="1552.78" y1="319.491" x2="1550.58" y2="331.978" stroke="#BF5C38"/>
<path d="M1528.05 392.45C1563.23 384.503 1583.55 371.557 1621.71 320.832L1782.94 420.363V729.28H1710.22L1528.05 392.45Z" fill="#74A3D7"/>
<path d="M1541.27 389.921L1742.17 727.077" stroke="#57455E" stroke-width="4"/>
<path d="M1557.8 382.209L1784.04 727.077" stroke="#57455E" stroke-width="4"/>
<path d="M1573.96 373.027L1789.18 657.295" stroke="#57455E" stroke-width="4"/>
<path d="M1585.34 362.376L1784.04 574.659" stroke="#57455E" stroke-width="4"/>
<path d="M1595.26 352.459L1785.51 529.852" stroke="#57455E" stroke-width="4"/>
<path d="M1604.07 342.177L1783.67 493.493M1612.52 330.79L1795.79 465.946" stroke="#57455E" stroke-width="4"/>
<path d="M932.184 566.876C917.103 552.562 861.124 561.764 851.667 571.222L830.851 738.326H880.295L959.679 735.259L932.184 566.876Z" fill="#32378F"/>
<path d="M932.695 566.109C926.56 573.266 862.913 582.753 850.9 570.455L830.706 737.368H891.03H961.068L932.695 566.109Z" fill="#868AE0"/>
<path d="M849.878 588.348C884.453 596.193 903.908 594.514 934.997 583.491" stroke="#B6B6ED" stroke-width="4"/>
<path d="M849.112 597.294C883.686 605.139 905.186 603.716 936.275 592.693" stroke="#B6B6ED" stroke-width="4"/>
<path d="M836.852 477.923L965.935 522.655L956.222 553.839L829.439 510.641L836.852 477.923Z" fill="#923258"/>
<path d="M823.049 449.668C831.636 450.509 836.374 452.404 844.776 457.592C844.776 476.389 837.874 518.447 815.636 544.381C804.529 545.315 799.373 543.877 793.909 537.48C794.462 485.952 813.847 456.058 823.049 449.668Z" fill="#923258"/>
<path d="M994.638 504.971C987.689 499.856 982.898 498.099 973.181 496.341C964.146 504.971 943.186 554.606 943.186 582.212C950.823 590.33 960.152 591.497 968.491 590.391C983.828 565.853 999.232 534.434 994.638 504.971Z" fill="#923258"/>
<path d="M801.833 453.385C806.764 453.657 809.409 454.439 813.847 456.708C801.804 476.7 796.626 491.949 790.842 528.023C785.174 528.515 782.802 527.536 779.084 524.956C776.137 521.905 776.12 519.921 776.783 516.265C780.921 491.782 785.139 479.64 793.909 459.008C795.929 455.137 797.728 453.972 801.833 453.385Z" fill="#923258"/>
<path d="M782.152 478.689C785.986 479.712 785.26 480.755 785.73 479.967L780.874 496.837L777.04 494.793C776.186 487.61 778.317 477.667 782.152 478.689Z" fill="#923258"/>
<path d="M1009.24 519.015C1005.1 516.329 1002.5 515.403 997.578 514.621C995.527 537.87 990.724 553.241 974.14 585.795C978.429 589.533 980.922 590.139 985.447 590.245C989.625 589.517 990.808 587.924 992.427 584.579C1003.51 562.361 1007.26 550.065 1012.33 528.228C1012.98 523.91 1012.21 521.909 1009.24 519.015Z" fill="#923258"/>
<path d="M1010.23 551.058C1006.53 549.625 1006.5 550.896 1006.59 549.982L1000.57 566.474L1004.87 567.081C1009.8 561.781 1013.93 552.492 1010.23 551.058Z" fill="#923258"/>
<path d="M924.516 542.338L865.726 547.45L865.726 558.442L862.148 575.567C880.296 578.635 920.938 574.801 924.516 570.455C928.095 566.11 924.516 542.338 924.516 542.338Z" fill="#E79D68"/>
<path d="M877.741 526.49L863.426 530.835L865.726 548.217L868.027 548.217L924.261 542.593L877.741 526.49Z" fill="#E79D68"/>
<line y1="-0.5" x2="8.82503" y2="-0.5" transform="matrix(0.173785 0.984784 0.984784 -0.173785 890.01 533.902)" stroke="#D17941"/>
<path d="M866.117 502.86C859.964 496.721 852.74 501.429 855.824 511.005C858.908 520.581 865.616 538.105 865.616 538.105L879.343 530.136C879.343 530.136 872.269 508.998 866.117 502.86Z" fill="#E79D68"/>
<path d="M871.841 500.446C871.841 500.446 872.238 496.701 876.647 490.828C881.055 484.955 888.327 488.214 888.03 494.199C887.733 500.184 885.763 499.921 881.985 504.662C878.206 509.402 871.359 506.597 871.841 500.446Z" fill="#F39860"/>
<path d="M884.896 504.763C884.621 503.028 885.436 501.797 887.452 496.328C889.468 490.859 895.808 488.424 897.933 494.028C900.057 499.631 899.466 497.862 895.891 505.874C892.316 513.887 884.385 511.409 884.896 504.763Z" fill="#F39860"/>
<path d="M875.225 496.911C873.792 498.211 872.873 499.438 872.54 501.251C872.448 501.748 872.478 502.263 872.631 502.747C872.866 503.489 873.204 504.106 873.708 504.639C874.209 505.167 874.852 505.59 875.666 505.976C877.18 506.694 878.993 506.296 880.104 505.062C880.878 504.204 881.499 503.312 881.877 502.297C882.258 501.276 882.383 500.159 882.202 498.865C882.102 498.151 881.77 497.485 881.264 496.973C880.394 496.093 879.592 495.655 878.726 495.599C877.889 495.544 877.082 495.856 876.239 496.243C875.872 496.412 875.528 496.636 875.225 496.911Z" fill="#F39860" stroke="#D07A3F"/>
<path d="M887.789 501.818C886.46 503.028 885.6 504.178 885.279 505.865C885.185 506.363 885.214 506.881 885.372 507.367C885.589 508.039 885.899 508.604 886.355 509.094C886.807 509.581 887.384 509.972 888.107 510.328C889.617 511.069 891.445 510.664 892.545 509.417C893.956 507.818 894.765 506.114 894.445 503.712C894.349 502.994 894.016 502.326 893.504 501.816C892.695 501.008 891.942 500.604 891.129 500.552C890.342 500.502 889.586 500.791 888.804 501.149C888.436 501.318 888.092 501.542 887.789 501.818Z" fill="#F39860" stroke="#D07A3F"/>
<path d="M896.832 507.226C896.557 505.491 897.371 504.26 899.388 498.791C901.404 493.322 907.744 490.887 909.868 496.49C911.993 502.094 911.402 500.325 907.827 508.337C904.252 516.35 896.321 513.872 896.832 507.226Z" fill="#F39860"/>
<path d="M899.558 505.639C898.576 506.548 897.915 507.436 897.642 508.698C897.533 509.201 897.561 509.732 897.737 510.223C898.057 511.119 898.589 511.742 899.464 512.257C900.943 513.128 902.856 512.68 903.896 511.365C904.796 510.227 905.301 508.983 905.132 507.336C905.058 506.607 904.719 505.921 904.181 505.42C903.573 504.853 902.988 504.561 902.352 504.527C901.74 504.494 901.158 504.707 900.579 504.966C900.207 505.133 899.86 505.359 899.558 505.639Z" fill="#F39860" stroke="#D07A3F"/>
<path d="M908.079 510.805C907.804 509.07 908.618 507.839 910.635 502.37C912.651 496.901 918.99 494.466 921.115 500.07C923.24 505.673 922.649 503.904 919.074 511.916C915.499 519.929 907.567 517.451 908.079 510.805Z" fill="#F39860"/>
<path d="M911.07 510.387C910.356 511.062 909.854 511.743 909.62 512.673C909.492 513.182 909.518 513.73 909.719 514.228C909.922 514.731 910.219 515.133 910.653 515.473C912.059 516.576 914.138 516.03 915.072 514.623C915.586 513.848 915.867 512.992 915.801 511.938C915.755 511.195 915.412 510.483 914.834 509.996C914.379 509.613 913.927 509.412 913.437 509.392C912.967 509.373 912.524 509.525 912.1 509.709C911.721 509.873 911.372 510.102 911.07 510.387Z" fill="#F39860" stroke="#D07A3F"/>
<path d="M484.611 555.33C499.1 534.177 568.975 530.819 582.82 539.781L651.064 735.901L591.445 748.666L494.933 765.464L484.611 555.33Z" fill="#0F1F47"/>
<path d="M465.326 486.922C479.512 492.183 513.257 517.226 523.008 518.757C533.751 517.169 534.155 517.207 539.083 513.336L543.18 502.367L564.428 513.336L567.143 526.779L575.729 546.738C556.538 559.451 505.631 565.026 498.563 557.666C491.495 550.306 465.326 486.922 465.326 486.922Z" fill="#D7835E"/>
<path d="M554.842 467.694C560.676 458.704 570.588 462.286 569.342 474.629C568.096 486.971 564.3 514.028 564.3 514.028L542.551 506.464C542.551 506.464 549.008 476.684 554.842 467.694Z" fill="#D7835E"/>
<path d="M484.239 555.32C493.484 562.366 571.586 557.806 582.897 539.875L650.991 734.708L578.252 750.283L493.802 768.366L484.239 555.32Z" fill="#FDA758"/>
<path d="M589.831 559.418C550.167 577.804 522.694 578.645 485.5 576.124" stroke="#FFDEB7" stroke-width="4"/>
<path d="M569.988 409.812L537.057 524.643C536.527 526.493 535.068 527.931 533.211 528.435L523.772 530.997C523.045 531.194 522.284 531.241 521.545 531.125C508.186 529.031 499.1 524.994 488.11 520.112C484.426 518.475 480.528 516.744 476.183 514.958C475.781 514.793 475.395 514.58 475.043 514.327L473.995 513.573C472.095 512.206 471.268 509.788 471.934 507.544L505.094 395.727C505.836 393.223 508.238 391.587 510.841 391.812L559.376 396.009C560.787 396.131 562.096 396.792 563.031 397.855L565.311 400.445L568.923 404.772C570.091 406.172 570.49 408.06 569.988 409.812Z" fill="#706D80" stroke="#171518"/>
<path d="M562.673 401.642L529.256 516.421C529.039 517.165 528.667 517.856 528.165 518.447L525.145 521.997C523.996 523.348 522.271 524.067 520.528 523.863C504.705 522.008 492.396 516.133 478.789 509.479C477.227 508.715 476.118 507.258 475.797 505.55L474.803 500.252C474.642 499.397 474.687 498.516 474.933 497.682L505.066 395.502C505.802 393.005 508.189 391.366 510.785 391.576L558.39 395.427C560.314 395.583 561.965 396.861 562.598 398.684C562.929 399.638 562.955 400.672 562.673 401.642Z" fill="#56597A" stroke="#171518"/>
<g filter="url(#filter0_f_918_8178)">
<path d="M484.537 381.551L559.904 386.857L519.259 512.347L447.084 492.088L484.537 381.551Z" fill="#F5D49D" fill-opacity="0.5"/>
</g>
<path d="M475.791 493.417L503.732 401.289L560.939 406.163L530.68 510.667L475.791 493.417Z" fill="#F5D49D" stroke="black"/>
<path d="M506.232 508.909C506.308 509.757 505.922 510.604 505.162 511.288C504.402 511.972 503.288 512.467 501.999 512.582C500.709 512.698 499.525 512.407 498.656 511.869C497.787 511.331 497.257 510.566 497.182 509.717C497.106 508.869 497.491 508.022 498.251 507.338C499.012 506.654 500.125 506.159 501.415 506.044C502.705 505.928 503.888 506.219 504.758 506.757C505.627 507.295 506.156 508.061 506.232 508.909Z" fill="#626B8E" stroke="#171518"/>
<path d="M530.171 398.947L526.692 393.079L546.82 394.66L538.379 399.817L530.171 398.947Z" fill="#978C88" stroke="black"/>
<path d="M480.457 447.767C480.457 447.767 480.773 437.365 482.034 436.104C483.294 434.843 488.337 436.104 488.337 436.104L492.435 437.68C492.435 437.68 494.957 438.941 497.163 440.517C499.37 442.093 499.685 446.191 495.272 447.767C490.859 449.343 489.283 447.767 489.283 447.767L488.652 449.098L480.457 447.767Z" fill="#D7835E"/>
<path d="M490.323 444.321C491.471 445.777 492.558 446.738 494.169 447.141C494.682 447.269 495.209 447.237 495.698 447.12C496.198 447 496.656 446.862 497.069 446.626C497.494 446.383 497.85 446.049 498.169 445.571C499.298 443.876 498.538 441.664 497.012 440.741C495.937 440.091 495.113 439.893 494.027 439.646C492.661 439.336 491.061 439.597 489.956 440.721C489.613 441.071 489.36 441.439 489.361 441.948C489.361 442.175 489.412 442.397 489.482 442.617C489.553 442.837 489.652 443.085 489.768 443.363C489.91 443.703 490.094 444.029 490.323 444.321Z" fill="#D7835E" stroke="#AB5B4A"/>
<path d="M487.771 465.692C487.771 465.692 483.182 464.977 476.215 459.192C469.249 453.407 473.702 444.648 481.055 445.375C488.409 446.102 487.966 448.513 493.576 453.454C499.187 458.394 495.318 466.657 487.771 465.692Z" fill="#D7835E"/>
<path d="M484.648 460.682C485.875 462.851 487.128 464.31 489.316 465.188C489.78 465.374 490.283 465.454 490.783 465.418C491.844 465.343 492.743 465.082 493.577 464.55C494.403 464.023 495.133 463.25 495.889 462.2C496.851 460.864 496.909 458.995 495.816 457.689C493.933 455.441 491.852 454.812 489.301 454.115C488.923 454.011 488.507 453.945 488.08 453.975C486.387 454.095 485.252 454.763 484.636 455.838C484.039 456.879 483.99 458.203 484.224 459.529C484.297 459.943 484.45 460.331 484.648 460.682Z" fill="#D7835E" stroke="#AB5B4A"/>
<path d="M475.748 493.176C475.748 493.176 471.203 492.221 464.549 486.079C457.895 479.937 462.801 471.424 470.106 472.535C477.412 473.647 476.843 476.031 482.187 481.259C487.53 486.487 483.234 494.536 475.748 493.176Z" fill="#D7835E"/>
<path d="M471.497 487.26C472.546 489.521 473.677 491.076 475.788 492.127C476.235 492.35 476.73 492.47 477.232 492.474C478.295 492.484 479.212 492.297 480.086 491.834C480.952 491.375 481.742 490.663 482.579 489.677C483.655 488.412 483.809 486.601 483 485.161C482.229 483.789 481.373 482.613 480.256 481.72C479.133 480.821 477.772 480.229 476.026 479.986C475.317 479.887 474.593 480.01 473.956 480.327C472.503 481.051 471.666 481.843 471.279 482.847C470.903 483.822 470.992 484.908 471.158 486.1C471.213 486.499 471.326 486.891 471.497 487.26Z" fill="#D7835E" stroke="#AB5B4A"/>
<path d="M476.131 479.079C476.131 479.079 471.999 476.96 467.2 469.281C462.401 461.602 469.377 454.683 476.131 457.681C482.885 460.68 481.708 462.83 485.484 469.281C489.261 475.733 482.995 482.364 476.131 479.079Z" fill="#D7835E"/>
<path d="M473.591 472.251C474.006 474.709 474.688 476.507 476.446 478.077C476.819 478.41 477.265 478.656 477.748 478.793C478.771 479.083 479.705 479.144 480.67 478.928C481.626 478.713 482.576 478.235 483.644 477.505C485.014 476.567 485.641 474.861 485.24 473.259C484.858 471.733 484.342 470.372 483.501 469.216C482.654 468.053 481.497 467.123 479.877 466.429C479.219 466.147 478.489 466.074 477.79 466.212C476.198 466.528 475.182 467.07 474.544 467.936C473.924 468.778 473.724 469.849 473.57 471.043C473.518 471.442 473.523 471.85 473.591 472.251Z" fill="#D7835E" stroke="#AB5B4A"/>
<path d="M1205.41 540.163C1220.99 517.418 1296.12 513.808 1311.01 523.444L1384.38 734.311L1320.28 748.037L1216.51 766.097L1205.41 540.163Z" fill="#56597A"/>
<path d="M1228.62 516.629L1227.81 516.1L1227.84 517.066L1228.34 517.048C1227.84 517.066 1227.84 517.067 1227.84 517.067L1227.84 517.068L1227.84 517.071L1227.84 517.084L1227.85 517.137L1227.85 517.345C1227.86 517.527 1227.87 517.794 1227.88 518.136C1227.9 518.821 1227.94 519.803 1227.97 520.996C1228.04 523.381 1228.13 526.605 1228.19 529.963C1228.24 533.321 1228.27 536.81 1228.23 539.725C1228.19 542.662 1228.07 544.959 1227.85 545.973C1227.75 546.451 1227.94 546.868 1228.26 547.185C1228.57 547.488 1229.02 547.732 1229.54 547.934C1230.6 548.342 1232.15 548.646 1234.05 548.843C1237.87 549.237 1243.23 549.211 1249.26 548.623C1261.31 547.449 1276.11 544.021 1286.52 537.12L1286.8 536.939L1286.74 536.615C1285.79 531.322 1285.53 527.22 1285.99 523.133C1286.46 519.044 1287.65 514.942 1289.63 509.648L1296.14 494.197L1296.17 494.145L1296.18 494.089C1297.91 484.201 1297.97 476.994 1296.73 470.302C1295.5 463.622 1292.98 457.483 1289.62 449.747L1289.49 449.432L1289.15 449.446L1263.47 450.463L1263.22 450.473L1263.08 450.678C1261.54 452.896 1255.32 462.18 1251.62 474.113C1247.91 486.042 1246.69 500.709 1255.28 513.597C1256.01 514.692 1256.08 516.241 1255.38 517.798C1254.69 519.348 1253.26 520.872 1251.06 521.844C1246.67 523.781 1239.17 523.529 1228.62 516.629Z" fill="#EE9275" stroke="#844C01"/>
<path d="M1205.01 540.151C1214.95 547.727 1298.93 542.824 1311.09 523.545L1384.3 733.028L1306.09 749.774L1215.29 769.217L1205.01 540.151Z" fill="#FF8A91"/>
<path d="M1318.55 544.557C1275.9 564.326 1246.36 565.23 1206.37 562.518" stroke="#FFACB1" stroke-width="4"/>
<path d="M1211.3 451.301C1227.63 485.814 1250.61 479.768 1250.61 479.768C1250.61 479.768 1250.31 503.133 1257.05 516.031C1253.3 524.85 1247.84 526.813 1228.92 518.742C1215.61 512.178 1214.75 488.204 1211.3 451.301Z" fill="#EE9275"/>
<path d="M1211.91 447.201C1213.07 442.797 1214.19 439.641 1215.73 437.634C1216.49 436.641 1217.34 435.94 1218.34 435.506C1219.34 435.07 1220.53 434.889 1221.96 434.985C1223.73 435.102 1225.16 436.483 1225.77 438.269L1236.66 470.351C1236.85 470.9 1237.11 471.431 1237.45 471.914C1237.93 472.584 1238.42 473.209 1238.95 473.803C1240.63 475.674 1241.52 478.256 1241.38 480.208C1241.31 481.18 1241 481.934 1240.48 482.394C1239.97 482.842 1239.18 483.085 1237.99 482.864C1237.05 482.69 1236.05 482.427 1234.95 482.063C1234.28 481.841 1233.66 481.456 1233.14 480.961C1222.32 470.795 1217.5 463.756 1212.13 450.518C1211.71 449.466 1211.63 448.297 1211.91 447.201Z" fill="#EE9275" stroke="#844C01" stroke-linejoin="round"/>
<path d="M1244.7 462.244L1244.73 462.365L1244.8 462.461L1252.15 471.474C1252.15 473.564 1252.06 475.266 1251.84 476.627C1251.62 478.031 1251.27 479.026 1250.78 479.704C1250.31 480.361 1249.68 480.748 1248.82 480.903C1247.95 481.056 1246.85 480.979 1245.43 480.665L1236.79 472.693C1230.66 458.893 1227.94 451.153 1226.05 437.447C1227.53 432.626 1229.39 429.855 1231.46 428.127C1233.43 426.492 1235.63 425.751 1238.05 425.134C1239.96 432.621 1240.91 438.363 1241.74 443.943C1241.9 445.02 1242.05 446.091 1242.2 447.168C1242.87 451.793 1243.55 456.524 1244.7 462.244Z" fill="#EE9275" stroke="#844C01"/>
<path d="M1245.28 463.561C1241.4 454.285 1239.71 446.526 1238.24 425.318C1240.53 421.215 1242.33 418.661 1244.15 417.184C1245.86 415.795 1247.61 415.339 1249.87 415.505L1253.85 432.075C1254.5 436.962 1255.4 440.44 1256.81 443.451C1258.19 446.38 1260.03 448.84 1262.55 451.711C1256.49 463.236 1254.67 466.79 1252.51 471.115L1245.28 463.561Z" fill="#EE9275" stroke="#844C01"/>
<path d="M1275.87 415.776L1275.88 415.864L1275.92 415.942C1276.74 417.564 1277.53 419.108 1278.29 420.591C1284.36 432.437 1288.47 440.462 1291.01 453.807L1263.07 451.835C1256.03 442.63 1254.27 434.6 1250.36 416.874C1250.28 416.503 1250.2 416.128 1250.11 415.748C1255.12 401.589 1258.9 395.076 1267.56 386.255C1269.56 384.475 1272.17 384.955 1274.45 386.027C1275.57 386.557 1276.56 387.21 1277.27 387.734C1277.63 387.995 1277.92 388.223 1278.11 388.384C1278.14 388.405 1278.16 388.425 1278.18 388.443C1275.13 400.814 1274.79 406.714 1275.87 415.776Z" fill="#EE9275" stroke="#844C01"/>
<path d="M1251.12 412.589C1244.98 407.966 1242.26 405.308 1240.23 400.616C1238.78 396.805 1237.95 393.896 1237.65 391.657C1237.34 389.415 1237.57 387.898 1238.16 386.826C1238.74 385.764 1239.71 385.06 1241.09 384.534C1242.46 384.015 1244.16 383.69 1246.16 383.357C1250.16 384.762 1252.93 386.057 1255.16 387.66C1257.35 389.227 1259.05 391.107 1260.87 393.725L1251.12 412.589Z" fill="#EE9275" stroke="#844C01"/>
<path d="M1258.71 378.79C1249.31 373.581 1245.11 370.305 1242.48 362.847C1240.68 345.076 1258.71 342.852 1261.12 356.069C1263.53 369.286 1258.71 378.79 1258.71 378.79Z" fill="#BA6D74"/>
<path d="M1258.63 378.651C1269 375.849 1273.87 373.677 1278.21 367.069C1284.22 350.25 1267.26 343.764 1261.74 356.016C1256.23 368.268 1258.63 378.651 1258.63 378.651Z" fill="#BA6D74"/>
<path d="M1262.94 449.884L1290.39 452.934L1292.3 457.401L1262.94 458.017V449.884Z" fill="#EE9275"/>
<path d="M231.675 415.903C221.215 378.939 213.849 356.486 161.084 335.119L-4.22838 396.046L-4.22837 644.686L34.2038 644.686L231.675 415.903Z" fill="#FF8A91"/>
<path d="M231.711 416.433C231.851 416.717 185.24 387.918 160.194 335.447L-4.58167 396.381L-9.24137 711.192L25.5147 711.192C25.5147 711.192 231.571 416.149 231.711 416.433Z" fill="#FFA9AF"/>
<path d="M200.351 462.871C159.99 435.218 125.362 393.113 105.483 356.348" stroke="#2A557B" stroke-width="4"/>
<path d="M201.805 425.79C201.805 428.439 199.514 430.638 196.624 430.638C193.733 430.638 191.442 428.439 191.442 425.79C191.442 423.142 193.733 420.943 196.624 420.943C199.514 420.943 201.805 423.142 201.805 425.79Z" stroke="#2A557B"/>
<path d="M119.425 416.433L112.741 461.883" stroke="#584963" stroke-width="20" stroke-linecap="round"/>
<path d="M68.3499 506.903L110.789 524.49" stroke="#584963" stroke-width="20" stroke-linecap="round"/>
<path d="M10.9626 457.067L56.4934 450.956" stroke="#584963" stroke-width="20" stroke-linecap="round"/>
<path d="M38.1484 573.024L34.0493 618.78" stroke="#584963" stroke-width="20" stroke-linecap="round"/>
<path d="M286.379 217.16C305.058 224.9 315.564 229.076 334.953 233.538L330.599 249.548L279.398 234.005L286.379 217.16Z" fill="url(#paint0_linear_918_8178)"/>
<path d="M292.003 194.707C294.88 192.517 325.725 200.963 346.352 212.397L338.705 234.641C316.877 231.107 304.872 226.704 283.647 216.325C283.647 216.325 289.127 196.896 292.003 194.707Z" fill="#56597A"/>
<path d="M292.003 194.707C314.023 204.685 325.864 208.342 346.352 212.397L338.705 234.641C316.877 231.107 304.872 226.704 283.647 216.325C286.295 203.958 288.265 200.089 292.003 194.707Z" fill="#41456E"/>
<path d="M318.958 201.687C317.68 200.768 317.613 198.891 318.821 197.884L320.414 196.554C320.936 196.119 321.559 195.822 322.226 195.698C332.453 193.793 338.841 193.781 348.931 196.868C350.613 197.383 352.204 198.169 353.657 199.159C364.647 206.654 369.533 211.664 373.349 221.087C377.199 234.493 377.63 244.378 373.528 256.234C372.909 258.023 370.494 258.131 369.628 256.447V256.447C369.321 255.851 369.302 255.146 369.562 254.529C374.473 242.855 374.088 235.462 370.551 223.127C370.202 221.91 369.726 220.725 369.114 219.617C365.605 213.267 361.974 209.061 354.579 203.022C352.66 201.454 350.43 200.295 348.04 199.638C338.32 196.965 333.017 196.817 326.307 199.016C325.731 199.204 325.184 199.476 324.675 199.806L321.672 201.752C320.84 202.291 319.763 202.265 318.958 201.687V201.687Z" fill="#DC6C99"/>
<path d="M324.149 200.06C326.729 198.485 328.62 198.137 332.029 197.557C337.71 197.866 340.821 198.508 346.017 201.703C354.919 208.574 354.746 213.965 355.735 223.195C358.055 235.014 359.398 241.611 364.849 251.086L369.456 255.15L371.958 257.672C368.184 259.065 366.031 258.925 361.993 253.609C357.411 248.183 355.293 240.105 351.732 223.445C350.702 213.869 349.357 209.152 342.828 204.247C335.885 201.145 331.697 200.603 324.149 200.06Z" fill="#F087B1"/>
<path d="M256.729 248.568C273.88 212.335 348.452 242.822 339.409 274.864C331.521 302.818 286.625 429.864 275.296 461.834C273.765 466.153 269.49 468.86 264.934 468.371C236.182 465.286 219.164 460.923 195.48 444.524C195.48 444.524 239.577 284.802 256.729 248.568Z" fill="url(#paint1_linear_918_8178)"/>
<path d="M254.369 256.752C271.728 223.433 346.875 252.573 337.654 282.005C329.622 307.647 286.347 430.457 275.332 461.669C273.821 465.951 269.617 468.653 265.099 468.203C236.026 465.302 217.49 459.98 193.839 445.046C193.839 445.046 237.011 290.071 254.369 256.752Z" fill="#B6C8E8"/>
<path d="M268.667 255.149C276.921 247.935 277.339 254.606 277.339 254.606C266.105 274.713 253.978 309.31 251.79 311.791C249.601 314.272 249.162 307.268 249.162 307.268C252.038 283.243 260.413 262.363 268.667 255.149Z" fill="#D4E0F7"/>
<path d="M221.74 373.642C221.74 373.642 223.868 359.039 225.361 347.924L204.62 323.917L182.9 342.231L171.556 351.933C171.499 362.746 204.904 400.807 207.703 397.704C210.502 394.601 221.74 373.642 221.74 373.642Z" fill="#855138"/>
<path d="M243.34 296.447C245.595 285.31 235.25 280.829 227.033 291.099C218.815 301.369 204.544 323.974 204.544 323.974L225.028 348.926C225.028 348.926 241.084 307.583 243.34 296.447Z" fill="#855138"/>
<path d="M233.797 298.126C234.678 297.278 235.951 295.784 237.098 294.236C238.237 292.7 239.299 291.046 239.714 289.886C239.894 289.38 239.893 288.811 239.672 288.3C239.351 287.563 238.81 287.146 238.143 286.854C237.656 286.641 237.061 286.479 236.415 286.304C236.226 286.253 236.032 286.2 235.835 286.145C234.678 285.819 233.365 285.855 232.295 286.587C231.097 287.406 229.571 288.606 228.245 289.935C226.934 291.249 225.756 292.749 225.344 294.169C225.065 295.13 225.494 296.068 226.142 296.674C228.018 298.427 230.699 299.302 232.662 298.792C233.118 298.674 233.495 298.417 233.797 298.126Z" fill="#855138" stroke="#643B2F"/>
<path d="M334.977 290.442C334.977 290.442 333.767 290.442 341.757 288.567C349.747 286.692 352.002 300.578 347.24 303.109C342.478 305.641 331.239 308.347 331.239 308.347L327.291 308.347L334.977 290.442Z" fill="#855138"/>
<path d="M311.35 311.409C311.35 311.409 318.117 308.509 327.918 307.937C337.719 307.365 339.436 316.967 333.07 321.834C326.705 326.702 323.906 325.171 315.805 325.408C307.703 325.646 304.655 316.231 311.35 311.409Z" fill="#855138"/>
<path d="M307.516 329.571C307.516 329.571 314.283 326.671 324.084 326.099C333.885 325.527 336.087 334.048 329.722 338.916C323.356 343.784 320.072 343.334 311.971 343.571C303.869 343.808 300.821 334.394 307.516 329.571Z" fill="#855138"/>
<path d="M303.536 344.772C303.536 344.772 308.976 342.482 316.862 342.044C324.748 341.605 325.878 352.22 321.633 353.663C317.388 355.106 313.661 355.71 307.143 355.885C300.624 356.06 298.156 348.587 303.536 344.772Z" fill="#855138"/>
<path d="M311.479 317.75C311.301 316.171 311.918 314.458 313.392 313.862C314.717 313.326 316.299 313.369 318.697 313.844C319.318 313.967 319.915 314.201 320.449 314.54C324.291 316.976 324.826 318.742 322.105 321.712C321.5 322.372 320.709 322.83 319.858 323.107C318.365 323.594 317.175 323.915 315.759 323.775C314.569 323.658 313.542 322.904 312.911 321.888C312.059 320.518 311.652 319.282 311.479 317.75Z" fill="#855138" stroke="#653129" stroke-linejoin="round"/>
<path d="M312.213 328.888C309.578 329.319 307.661 330.037 305.982 331.918C305.65 332.29 305.403 332.733 305.263 333.213C304.939 334.321 304.869 335.328 305.105 336.371C305.339 337.403 305.865 338.434 306.672 339.605C307.613 340.969 309.309 341.6 310.913 341.215C312.573 340.817 314.05 340.277 315.302 339.382C316.563 338.481 317.569 337.24 318.319 335.486C318.6 334.829 318.675 334.101 318.542 333.403C318.218 331.688 317.647 330.6 316.732 329.918C315.842 329.255 314.701 329.041 313.421 328.871C313.022 328.819 312.614 328.822 312.213 328.888Z" fill="#855138" stroke="#653129"/>
<path d="M307.752 345.494C306.067 345.795 304.783 346.293 303.657 347.502C303.315 347.869 303.066 348.319 302.94 348.808C302.774 349.456 302.731 350.067 302.836 350.691C302.94 351.311 303.186 351.918 303.563 352.566C304.42 354.042 306.217 354.699 307.83 354.206C309.743 353.623 311.235 352.638 312.199 350.547C312.498 349.899 312.576 349.167 312.424 348.472C312.189 347.396 311.792 346.671 311.163 346.201C310.554 345.746 309.795 345.587 308.987 345.473C308.579 345.416 308.161 345.421 307.752 345.494Z" fill="#855138" stroke="#653129"/>
</g>
</g>
<defs>
<filter id="filter0_f_918_8178" x="397.084" y="331.551" width="212.82" height="230.797" filterUnits="userSpaceOnUse" color-interpolation-filters="sRGB">
<feFlood flood-opacity="0" result="BackgroundImageFix"/>
<feBlend mode="normal" in="SourceGraphic" in2="BackgroundImageFix" result="shape"/>
<feGaussianBlur stdDeviation="25" result="effect1_foregroundBlur_918_8178"/>
</filter>
<linearGradient id="paint0_linear_918_8178" x1="286.76" y1="223.248" x2="339.712" y2="240.021" gradientUnits="userSpaceOnUse">
<stop offset="0.119884" stop-color="#B6C8E8"/>
<stop offset="0.683049" stop-color="#74A3D7"/>
<stop offset="1" stop-color="#2C3641"/>
</linearGradient>
<linearGradient id="paint1_linear_918_8178" x1="260.12" y1="233.699" x2="345.302" y2="259.762" gradientUnits="userSpaceOnUse">
<stop stop-color="#516E8D"/>
<stop offset="0.155208" stop-color="#74A3D7"/>
<stop offset="0.35156" stop-color="#B6C8E8"/>
<stop offset="0.596354" stop-color="#8AAFDC"/>
<stop offset="0.86875" stop-color="#92B4DF"/>
<stop offset="1" stop-color="#4F6B8A"/>
</linearGradient>
<clipPath id="clip0_918_8178">
<rect width="1773.42" height="710" fill="white" transform="matrix(-1 0 0 1 1774 0)"/>
</clipPath>
</defs>
</svg>
