<svg width="1773" height="172" viewBox="0 0 1773 172" fill="none" xmlns="http://www.w3.org/2000/svg">
<g clip-path="url(#clip0_921_8868)">
<path d="M545.474 136.518L526.513 94.0101L544.072 86.1776C547.255 84.758 550.258 84.1071 553.081 84.2248C555.912 84.3226 558.432 85.1561 560.642 86.7254C562.845 88.2808 564.595 90.5114 565.891 93.4173C567.206 96.3647 567.68 99.1562 567.313 101.792C566.939 104.414 565.81 106.792 563.925 108.927C562.034 111.048 559.47 112.831 556.232 114.275L545.128 119.228L541.517 111.133L550.712 107.032C552.261 106.34 553.466 105.563 554.325 104.699C555.191 103.814 555.709 102.837 555.878 101.766C556.041 100.681 555.83 99.4813 555.243 98.1668C554.657 96.8522 553.903 95.8864 552.98 95.2692C552.052 94.6381 550.966 94.3427 549.723 94.3828C548.474 94.4091 547.082 94.7648 545.546 95.4499L540.481 97.7089L555.748 131.936L545.474 136.518ZM560.74 106.416L579.991 121.122L568.783 126.121L549.739 111.323L560.74 106.416Z" fill="#FDA758"/>
<path d="M597.388 115.441C593.959 116.697 590.753 117.106 587.768 116.667C584.792 116.208 582.174 114.965 579.914 112.937C577.663 110.889 575.899 108.122 574.622 104.637C573.381 101.251 572.966 98.0469 573.375 95.0246C573.779 91.988 574.94 89.3198 576.856 87.02C578.768 84.7059 581.374 82.9442 584.674 81.7348C587.007 80.8799 589.274 80.4608 591.475 80.4774C593.676 80.494 595.741 80.9555 597.671 81.8621C599.6 82.7687 601.34 84.1243 602.888 85.9289C604.432 87.7192 605.696 89.9588 606.681 92.6476L607.635 95.2511L579.147 105.69L576.926 99.6294L595.705 92.7484C595.284 91.6439 594.659 90.7516 593.829 90.0715C592.998 89.3913 592.047 88.9736 590.973 88.8183C589.909 88.6436 588.8 88.7673 587.648 89.1896C586.481 89.617 585.532 90.2634 584.8 91.1286C584.063 91.9796 583.589 92.9523 583.376 94.0466C583.159 95.1268 583.242 96.234 583.625 97.3683L585.885 103.536C586.375 104.873 587.068 105.95 587.965 106.767C588.856 107.57 589.887 108.072 591.058 108.272C592.229 108.473 593.483 108.328 594.82 107.838C595.745 107.499 596.537 107.063 597.197 106.531C597.857 105.999 598.367 105.384 598.725 104.688C599.083 103.992 599.264 103.232 599.269 102.407L608.952 99.174C609.341 101.468 609.151 103.66 608.384 105.748C607.625 107.817 606.319 109.692 604.465 111.371C602.607 113.037 600.248 114.393 597.388 115.441Z" fill="#FDA758"/>
<path d="M639.016 75.7089L629.323 78.9114C629.012 78.2456 628.551 77.7119 627.939 77.3105C627.324 76.8946 626.607 76.6434 625.79 76.5571C624.983 76.4519 624.108 76.5413 623.165 76.8252C621.932 77.1964 620.954 77.7597 620.232 78.515C619.525 79.2659 619.305 80.06 619.573 80.8971C619.755 81.5544 620.186 82.0416 620.867 82.3588C621.562 82.6716 622.658 82.7613 624.152 82.6278L630.961 81.9074C634.49 81.5413 637.29 81.8536 639.36 82.8443C641.445 83.8307 642.862 85.5404 643.61 87.9734C644.285 90.2701 644.204 92.4703 643.366 94.574C642.542 96.6733 641.111 98.5438 639.074 100.186C637.032 101.813 634.517 103.076 631.528 103.976C626.755 105.413 622.695 105.567 619.349 104.438C616.013 103.29 613.651 101.122 612.263 97.9315L622.696 94.5062C623.295 95.6551 624.177 96.4023 625.341 96.7481C626.505 97.0939 627.842 97.0396 629.351 96.5854C630.714 96.1749 631.748 95.5869 632.451 94.8215C633.154 94.056 633.386 93.2503 633.148 92.4045C632.906 91.6544 632.391 91.1527 631.603 90.8995C630.81 90.6318 629.678 90.577 628.207 90.7351L622.04 91.3808C618.505 91.7803 615.671 91.4071 613.538 90.2612C611.401 89.1007 609.955 87.2415 609.201 84.6837C608.514 82.4538 608.535 80.3668 609.263 78.4229C609.987 76.4645 611.332 74.7305 613.298 73.2208C615.265 71.7111 617.757 70.502 620.775 69.5936C625.301 68.231 629.156 68.107 632.34 69.2215C635.519 70.3214 637.745 72.4839 639.016 75.7089Z" fill="#FDA758"/>
<path d="M663.499 58.4631L665.489 66.3992L644.128 71.7562L642.138 63.8201L663.499 58.4631ZM644.578 54.5854L655.358 51.8821L663.214 83.2075C663.38 83.8688 663.617 84.3794 663.926 84.7393C664.246 85.0809 664.634 85.2882 665.09 85.3614C665.542 85.4198 666.054 85.3772 666.628 85.2335C667.039 85.1303 667.463 84.9848 667.901 84.7971C668.349 84.5909 668.683 84.429 668.904 84.3112L672.486 91.6839C672.009 91.9599 671.327 92.326 670.442 92.7823C669.572 93.235 668.497 93.6528 667.218 94.036C664.72 94.7875 662.479 95.0372 660.494 94.7851C658.521 94.5146 656.866 93.7422 655.531 92.4681C654.211 91.1902 653.278 89.4013 652.733 87.1013L644.578 54.5854Z" fill="#FDA758"/>
<path d="M692.536 88.5019C688.944 89.236 685.706 89.1321 682.822 88.1903C679.951 87.2306 677.548 85.5722 675.612 83.2149C673.689 80.8398 672.369 77.9006 671.653 74.3972C670.934 70.879 670.995 67.6577 671.836 64.7332C672.688 61.7908 674.248 59.3225 676.516 57.3281C678.796 55.3158 681.732 53.9426 685.324 53.2085C688.917 52.4744 692.149 52.5872 695.02 53.5469C697.903 54.4887 700.307 56.1472 702.23 58.5223C704.166 60.8795 705.493 63.8173 706.212 67.3355C706.928 70.8388 706.859 74.0617 706.007 77.004C705.166 79.9285 703.606 82.3969 701.326 84.4092C699.059 86.4036 696.128 87.7678 692.536 88.5019ZM690.924 80.2717C692.23 80.0048 693.254 79.378 693.996 78.3913C694.738 77.4047 695.2 76.1502 695.384 74.6281C695.583 73.1029 695.491 71.4051 695.109 69.5346C694.721 67.6345 694.136 66.0219 693.355 64.6969C692.589 63.3689 691.671 62.3966 690.602 61.78C689.532 61.1634 688.344 60.9886 687.038 61.2556C685.687 61.5316 684.626 62.166 683.855 63.1587C683.098 64.1484 682.62 65.4058 682.422 66.931C682.238 68.4532 682.34 70.1643 682.728 72.0645C683.111 73.9349 683.685 75.5341 684.451 76.8622C685.232 78.1872 686.165 79.1564 687.249 79.77C688.348 80.3805 689.573 80.5477 690.924 80.2717Z" fill="#FDA758"/>
<path d="M713.61 83.6984L708.06 49.2333L718.719 47.5171L719.73 53.7998L720.089 53.742C720.351 51.3671 721.104 49.5117 722.347 48.176C723.587 46.8252 725.15 45.9981 727.035 45.6946C727.543 45.6127 728.073 45.5658 728.623 45.5539C729.172 45.527 729.688 45.5436 730.174 45.6035L731.709 55.1398C731.157 55.0446 730.446 55.0133 729.576 55.0459C728.722 55.076 727.965 55.1441 727.307 55.2501C726.006 55.4596 724.878 55.9404 723.925 56.6924C722.985 57.4271 722.298 58.3586 721.866 59.4871C721.447 60.5983 721.348 61.8419 721.569 63.2182L724.582 81.9317L713.61 83.6984Z" fill="#FDA758"/>
<path d="M755.947 78.146C752.321 78.5819 749.106 78.2436 746.302 77.1311C743.511 76.0017 741.248 74.1907 739.514 71.6981C737.793 69.1886 736.711 66.0911 736.268 62.4055C735.837 58.8252 736.168 55.6112 737.26 52.7635C738.35 49.9008 740.092 47.5701 742.485 45.7715C744.877 43.9579 747.818 42.8413 751.308 42.4216C753.775 42.125 756.077 42.2372 758.215 42.7584C760.353 43.2796 762.258 44.2028 763.928 45.5281C765.598 46.8533 766.98 48.5719 768.073 50.6837C769.164 52.7805 769.881 55.2505 770.223 58.0937L770.554 60.8466L740.43 64.4688L739.659 58.0604L759.516 55.6727C759.36 54.5012 758.956 53.4891 758.304 52.6366C757.652 51.7841 756.822 51.1591 755.813 50.7616C754.817 50.3472 753.709 50.2133 752.491 50.3598C751.257 50.5081 750.185 50.9194 749.274 51.5936C748.362 52.2527 747.677 53.0905 747.219 54.1069C746.759 55.1083 746.586 56.2051 746.699 57.3971L747.483 63.9183C747.653 65.3324 748.08 66.54 748.766 67.5411C749.449 68.5272 750.337 69.2521 751.431 69.7158C752.524 70.1794 753.778 70.3263 755.192 70.1562C756.17 70.0387 757.041 69.7965 757.806 69.4299C758.57 69.0633 759.207 68.5823 759.715 67.9871C760.224 67.3918 760.575 66.6934 760.768 65.8918L770.935 64.9669C770.787 67.2891 770.1 69.3785 768.873 71.2352C767.66 73.075 765.958 74.5996 763.769 75.8091C761.578 77.0034 758.97 77.7824 755.947 78.146Z" fill="#FDA758"/>
<path d="M832.118 39.0051C831.904 37.3454 831.181 36.0763 829.95 35.198C828.734 34.3039 827.028 33.8984 824.832 33.9815C823.379 34.0364 822.175 34.2715 821.22 34.6867C820.265 35.1019 819.558 35.6517 819.099 36.3362C818.639 37.0056 818.418 37.7645 818.434 38.613C818.431 39.3106 818.59 39.9186 818.913 40.4371C819.251 40.955 819.723 41.4072 820.329 41.7936C820.949 42.1644 821.689 42.4851 822.549 42.7559C823.408 43.0266 824.372 43.2555 825.44 43.4425L829.472 44.1998C831.792 44.6124 833.846 45.2018 835.634 45.9681C837.437 46.7338 838.958 47.6694 840.198 48.7749C841.453 49.8797 842.419 51.1699 843.096 52.6454C843.774 54.1208 844.155 55.7894 844.241 57.6511C844.337 60.589 843.69 63.138 842.301 65.2981C840.912 67.4582 838.861 69.1506 836.148 70.3752C833.45 71.5993 830.163 72.2846 826.287 72.4312C822.395 72.5784 818.982 72.1238 816.046 71.0674C813.11 70.0109 810.794 68.3245 809.1 66.0081C807.405 63.6917 806.466 60.7175 806.283 57.0855L817.048 56.6783C817.196 58.1738 817.644 59.4077 818.394 60.3801C819.143 61.3524 820.148 62.0725 821.409 62.5404C822.685 63.0076 824.149 63.21 825.799 63.1476C827.313 63.0903 828.592 62.8372 829.637 62.3883C830.696 61.9389 831.5 61.3399 832.048 60.5914C832.596 59.8429 832.859 58.999 832.839 58.0597C832.791 57.1821 832.49 56.4429 831.936 55.8422C831.382 55.2263 830.544 54.7122 829.422 54.2998C828.314 53.8717 826.904 53.4928 825.194 53.1633L820.291 52.2116C816.228 51.4404 813 50.069 810.606 48.0975C808.211 46.1108 806.954 43.3533 806.836 39.825C806.712 36.9488 807.388 34.3987 808.866 32.1746C810.344 29.9505 812.437 28.1807 815.147 26.8652C817.857 25.5497 820.976 24.8252 824.504 24.6918C828.107 24.5555 831.257 25.0504 833.953 26.1766C836.663 27.2871 838.794 28.9122 840.346 31.0521C841.898 33.1919 842.744 35.7072 842.883 38.5979L832.118 39.0051Z" fill="#AAABEA"/>
<path d="M869.785 71.8046C866.134 71.7775 862.988 71.0345 860.347 69.5754C857.721 68.1013 855.707 66.0182 854.302 63.3258C852.913 60.6185 852.232 57.4088 852.26 53.6968C852.287 50.0908 853.022 46.9447 854.467 44.2584C855.911 41.5569 857.934 39.4658 860.536 37.985C863.138 36.4892 866.197 35.7543 869.712 35.7804C872.196 35.7988 874.466 36.202 876.521 36.99C878.576 37.778 880.348 38.9351 881.836 40.4614C883.325 41.9876 884.478 43.8674 885.295 46.1008C886.112 48.3191 886.509 50.86 886.488 53.7235L886.467 56.4962L856.127 56.271L856.175 49.8166L876.175 49.9651C876.168 48.7832 875.896 47.7281 875.357 46.7998C874.819 45.8716 874.074 45.1463 873.123 44.6241C872.188 44.0868 871.107 43.8137 869.879 43.8045C868.637 43.7953 867.521 44.0674 866.532 44.6206C865.543 45.1588 864.758 45.903 864.175 46.8532C863.592 47.7883 863.281 48.8542 863.242 50.0509L863.193 56.6189C863.183 58.0431 863.454 59.2952 864.006 60.3751C864.559 61.4398 865.348 62.2714 866.374 62.87C867.4 63.4685 868.625 63.7731 870.049 63.7836C871.034 63.7909 871.929 63.6612 872.734 63.3945C873.539 63.1277 874.231 62.7313 874.811 62.2053C875.391 61.6793 875.827 61.031 876.121 60.2604L886.323 60.6316C885.882 62.9163 884.935 64.9017 883.483 66.588C882.047 68.2592 880.166 69.5558 877.841 70.478C875.516 71.385 872.831 71.8272 869.785 71.8046Z" fill="#AFB3EB"/>
<path d="M901.396 25.3225L899.728 71.8381L888.622 71.4399L890.289 24.9243L901.396 25.3225Z" fill="#AFB3EB"/>
<path d="M932.565 38.6516L932.068 46.8183L909.655 45.4542L910.152 37.2875L932.565 38.6516ZM912.704 72.4165L914.933 35.8025C915.097 33.1105 915.739 30.9106 916.86 29.2028C917.982 27.4799 919.469 26.2346 921.322 25.467C923.176 24.6842 925.283 24.3647 927.642 24.5082C929.185 24.6021 930.629 24.8115 931.976 25.1363C933.338 25.4469 934.347 25.7132 935.001 25.9352L932.737 33.9488C932.337 33.7879 931.845 33.6441 931.261 33.5174C930.692 33.3917 930.15 33.3132 929.636 33.2819C928.335 33.2027 927.425 33.4358 926.906 33.981C926.387 34.5263 926.098 35.298 926.037 36.2961L923.797 73.0917L912.704 72.4165Z" fill="#AFB3EB"/>
<path d="M992.421 49.8908L981.13 48.6057C981.112 47.4294 980.922 46.348 980.562 45.3615C980.201 44.375 979.675 43.5069 978.982 42.7571C978.29 42.0073 977.437 41.3993 976.422 40.9331C975.425 40.4536 974.293 40.1419 973.029 39.9979C970.786 39.7426 968.789 40.0719 967.038 40.9858C965.302 41.9015 963.879 43.3483 962.77 45.3264C961.675 47.3063 960.96 49.7715 960.624 52.7221C960.274 55.7932 960.418 58.4172 961.055 60.5941C961.708 62.7576 962.773 64.4571 964.249 65.6925C965.741 66.9146 967.586 67.6508 969.784 67.9009C971.019 68.0414 972.158 68.011 973.203 67.8097C974.263 67.61 975.211 67.2528 976.047 66.7381C976.9 66.2099 977.625 65.5376 978.221 64.721C978.834 63.891 979.302 62.9302 979.624 61.8384L990.907 63.1913C990.478 65.2164 989.654 67.166 988.434 69.0401C987.23 70.9159 985.676 72.5765 983.773 74.0221C981.872 75.4527 979.632 76.5092 977.053 77.1916C974.49 77.8758 971.62 78.0371 968.443 77.6756C964.258 77.1992 960.614 75.8543 957.511 73.6407C954.425 71.4137 952.127 68.4226 950.618 64.6672C949.109 60.9118 948.643 56.4975 949.22 51.4242C949.8 46.3358 951.261 42.1333 953.606 38.8166C955.951 35.4998 958.884 33.1116 962.405 31.652C965.926 30.1923 969.741 29.6964 973.851 30.1642C976.651 30.4829 979.196 31.169 981.485 32.2226C983.776 33.261 985.74 34.6283 987.377 36.3243C989.016 38.0052 990.277 39.9863 991.161 42.2676C992.045 44.5489 992.465 47.09 992.421 49.8908Z" fill="#AFB3EB"/>
<path d="M1006.89 82.7206C1004.69 82.3662 1002.79 81.6852 1001.21 80.6774C999.638 79.657 998.48 78.3194 997.733 76.6644C997.005 74.9969 996.823 73.0263 997.19 70.7526C997.498 68.8379 998.095 67.2766 998.981 66.0688C999.866 64.8609 1000.97 63.9409 1002.28 63.3086C1003.59 62.6763 1005.06 62.2749 1006.66 62.1044C1008.27 61.9189 1009.97 61.8924 1011.74 62.0249C1013.73 62.1612 1015.34 62.2285 1016.57 62.2269C1017.8 62.2104 1018.71 62.0585 1019.31 61.7713C1019.93 61.4716 1020.29 60.9702 1020.4 60.2672L1020.42 60.155C1020.61 59.0032 1020.35 58.0493 1019.66 57.2932C1018.97 56.5372 1017.95 56.0507 1016.61 55.8337C1015.16 55.5999 1013.94 55.726 1012.95 56.212C1011.97 56.698 1011.27 57.4752 1010.85 58.5436L1000.79 56.5537C1001.43 54.5077 1002.5 52.7621 1004.01 51.3167C1005.53 49.8588 1007.46 48.8347 1009.8 48.2443C1012.15 47.6413 1014.87 47.5881 1017.95 48.0848C1020.15 48.4391 1022.13 49.0276 1023.9 49.85C1025.67 50.6576 1027.17 51.6659 1028.39 52.8749C1029.61 54.069 1030.47 55.4368 1030.99 56.9784C1031.53 58.5224 1031.65 60.2069 1031.35 62.0319L1027.58 85.4569L1017.26 83.7934L1018.03 78.9918L1017.76 78.9484C1016.96 80.0163 1016.02 80.877 1014.93 81.5305C1013.86 82.1863 1012.64 82.6126 1011.29 82.8091C1009.96 83.0081 1008.49 82.9786 1006.89 82.7206ZM1011.43 76.0866C1012.61 76.277 1013.71 76.2089 1014.73 75.8821C1015.77 75.5577 1016.64 75.0225 1017.34 74.2764C1018.05 73.5154 1018.49 72.5739 1018.67 71.452L1019.2 68.1761C1018.86 68.29 1018.45 68.3781 1017.98 68.4404C1017.53 68.5052 1017.03 68.5552 1016.48 68.5905C1015.94 68.6257 1015.39 68.6437 1014.82 68.6442C1014.25 68.6448 1013.71 68.6415 1013.19 68.6343C1012.13 68.6325 1011.2 68.7445 1010.41 68.9705C1009.64 69.1988 1009.02 69.5584 1008.54 70.0491C1008.08 70.5274 1007.79 71.1405 1007.67 71.8884C1007.48 73.0252 1007.75 73.9579 1008.46 74.6864C1009.18 75.4174 1010.18 75.8841 1011.43 76.0866Z" fill="#AAABEA"/>
<path d="M1033.85 86.6362L1040.59 52.3843L1051.18 54.4691L1049.95 60.7129L1050.31 60.7832C1051.38 58.6464 1052.73 57.1669 1054.36 56.3448C1055.99 55.5078 1057.74 55.2736 1059.62 55.6423C1060.12 55.7418 1060.63 55.8814 1061.15 56.061C1061.68 56.2258 1062.16 56.4205 1062.59 56.645L1060.73 66.1223C1060.24 65.8415 1059.59 65.5656 1058.76 65.2948C1057.95 65.0269 1057.21 64.8285 1056.56 64.6998C1055.27 64.4452 1054.04 64.5054 1052.89 64.8804C1051.75 65.2434 1050.78 65.8793 1049.99 66.788C1049.21 67.6848 1048.68 68.817 1048.41 70.1847L1044.75 88.7825L1033.85 86.6362Z" fill="#AAABEA"/>
<path d="M1073.37 95.5861C1069.82 94.755 1066.91 93.3368 1064.66 91.3317C1062.42 89.3152 1060.92 86.8392 1060.14 83.9036C1059.38 80.9567 1059.43 77.6759 1060.27 74.0612C1061.09 70.5498 1062.5 67.6431 1064.5 65.3411C1066.51 63.0244 1068.94 61.4306 1071.81 60.5597C1074.67 59.6741 1077.82 59.6313 1081.24 60.4314C1083.66 60.997 1085.79 61.8906 1087.62 63.112C1089.45 64.3335 1090.92 65.8526 1092.04 67.6695C1093.15 69.4863 1093.86 71.5739 1094.17 73.9324C1094.48 76.2761 1094.3 78.8422 1093.65 81.6307L1093.02 84.3307L1063.48 77.4245L1064.94 71.1393L1084.42 75.6917C1084.67 74.5375 1084.64 73.4483 1084.32 72.4242C1084 71.4 1083.43 70.5285 1082.62 69.8096C1081.83 69.0794 1080.83 68.5746 1079.64 68.2953C1078.43 68.0125 1077.28 68.0319 1076.19 68.3537C1075.11 68.6606 1074.18 69.2133 1073.4 70.0118C1072.63 70.7954 1072.09 71.7666 1071.79 72.9253L1070.29 79.321C1069.97 80.7079 1069.96 81.9889 1070.26 83.164C1070.56 84.3244 1071.15 85.3095 1072.02 86.1194C1072.88 86.9293 1074.01 87.4964 1075.4 87.8206C1076.36 88.0447 1077.26 88.1154 1078.1 88.0327C1078.95 87.9499 1079.71 87.7158 1080.39 87.3305C1081.07 86.9452 1081.64 86.409 1082.1 85.7221L1091.97 88.3326C1091.03 90.4638 1089.67 92.1919 1087.89 93.5166C1086.12 94.8301 1084 95.6804 1081.52 96.0675C1079.06 96.4398 1076.34 96.2793 1073.37 95.5861Z" fill="#AAABEA"/>
<path d="M1122.65 107.823L1111.11 104.206L1140.02 64.4901L1154.31 68.9704L1155.37 118.082L1143.83 114.465L1143.82 77.9715L1143.47 77.8627L1122.65 107.823ZM1126.59 89.8612L1150.7 97.4212L1148.15 105.575L1124.03 98.0153L1126.59 89.8612Z" fill="#AFB3EB"/>
<path d="M1151.62 130.733L1168.62 85.8463L1178.91 89.7436L1176.79 95.3332L1177.11 95.4539C1177.91 94.6232 1178.88 93.8949 1180 93.2692C1181.15 92.6489 1182.44 92.2791 1183.88 92.1598C1185.33 92.0318 1186.92 92.2925 1188.63 92.9421C1190.9 93.801 1192.79 95.1986 1194.31 97.1349C1195.85 99.0766 1196.75 101.518 1197.03 104.459C1197.31 107.4 1196.72 110.791 1195.27 114.631C1193.87 118.329 1192.11 121.202 1189.98 123.25C1187.88 125.303 1185.6 126.578 1183.14 127.073C1180.7 127.574 1178.27 127.368 1175.86 126.455C1174.22 125.832 1172.9 125.024 1171.9 124.029C1170.9 123.034 1170.15 121.942 1169.66 120.752C1169.19 119.568 1168.92 118.389 1168.87 117.217L1168.65 117.136L1162.01 134.67L1151.62 130.733ZM1172.62 106.026C1171.95 107.783 1171.61 109.401 1171.58 110.882C1171.57 112.368 1171.87 113.641 1172.49 114.702C1173.13 115.754 1174.08 116.519 1175.34 116.997C1176.62 117.48 1177.83 117.537 1179 117.166C1180.16 116.782 1181.22 116.024 1182.17 114.892C1183.13 113.766 1183.94 112.324 1184.61 110.567C1185.27 108.81 1185.62 107.199 1185.64 105.732C1185.67 104.271 1185.38 103.017 1184.75 101.97C1184.14 100.929 1183.19 100.164 1181.9 99.6757C1180.63 99.1926 1179.41 99.1291 1178.26 99.4851C1177.1 99.8412 1176.04 100.573 1175.07 101.679C1174.11 102.792 1173.3 104.24 1172.62 106.026Z" fill="#AAABEA"/>
<path d="M1189.96 145.398L1209.79 101.686L1219.8 106.23L1217.33 111.674L1217.64 111.814C1218.5 111.036 1219.51 110.371 1220.67 109.818C1221.85 109.272 1223.16 108.985 1224.61 108.958C1226.07 108.923 1227.64 109.284 1229.31 110.042C1231.51 111.043 1233.31 112.559 1234.7 114.588C1236.11 116.623 1236.86 119.117 1236.95 122.07C1237.04 125.023 1236.24 128.369 1234.54 132.109C1232.91 135.71 1230.97 138.465 1228.72 140.374C1226.49 142.289 1224.13 143.415 1221.65 143.753C1219.18 144.097 1216.77 143.737 1214.43 142.673C1212.83 141.947 1211.56 141.056 1210.62 140C1209.69 138.943 1209.01 137.806 1208.6 136.587C1208.2 135.375 1208.01 134.182 1208.03 133.008L1207.82 132.914L1200.08 149.989L1189.96 145.398ZM1212.49 122.079C1211.71 123.79 1211.26 125.383 1211.14 126.859C1211.04 128.341 1211.26 129.631 1211.81 130.73C1212.38 131.82 1213.28 132.644 1214.51 133.201C1215.75 133.764 1216.96 133.898 1218.14 133.603C1219.33 133.293 1220.43 132.604 1221.45 131.535C1222.48 130.472 1223.39 129.085 1224.16 127.374C1224.94 125.663 1225.38 124.077 1225.5 122.615C1225.63 121.159 1225.41 119.889 1224.86 118.804C1224.31 117.726 1223.41 116.903 1222.16 116.333C1220.92 115.77 1219.71 115.629 1218.53 115.91C1217.36 116.192 1216.25 116.854 1215.21 117.897C1214.18 118.946 1213.28 120.34 1212.49 122.079Z" fill="#AFB3EB"/>
</g>
<defs>
<clipPath id="clip0_921_8868">
<rect width="1773" height="172" fill="white" transform="matrix(-1 0 0 1 1773 0)"/>
</clipPath>
</defs>
</svg>
