<svg width="1774" height="710" viewBox="0 0 1774 710" fill="none" xmlns="http://www.w3.org/2000/svg">
<g clip-path="url(#clip0_893_8240)">
<mask id="mask0_893_8240" style="mask-type:luminance" maskUnits="userSpaceOnUse" x="4" y="0" width="1775" height="710">
<path d="M4.66626 0H1778.09V710H4.66626V0Z" fill="white"/>
</mask>
<g mask="url(#mask0_893_8240)">
<path d="M573 104.5L1.00002 78V158H573V104.5Z" fill="#DDEBF9"/>
<rect width="765" height="63" transform="matrix(-1 0 0 1 766 140)" fill="#DDEBF9"/>
<path d="M0.989441 59.4997C-1.93267 90.6723 0.154377 84.0357 16.7431 85.3472C33.3318 86.6587 50.5019 98.7609 48.9632 68.0576C49.9179 59.4601 37.0376 52.7786 20.6553 50.1158C1.48911 47.0004 2.48926 43.5 0.989441 59.4997Z" fill="#DDEBF9"/>
<path d="M43.7949 66.2693C41.2323 89.3469 86.882 96.1243 125.476 99.1755C164.07 102.227 195.26 127.835 199.997 62.9144C202.56 39.8368 173.896 13.7393 135.302 10.6881C87.4888 6.90823 46.3575 43.1917 43.7949 66.2693Z" fill="#DDEBF9"/>
<path d="M190.734 57.2219C175.415 126.266 219.779 96.4624 252.556 105.63C285.334 114.797 320.342 107.802 324.45 89.2837C328.559 70.7656 300.212 47.7368 267.435 38.5697C234.657 29.4026 194.842 38.7038 190.734 57.2219Z" fill="#DDEBF9"/>
<path d="M316.603 82.0509C293.957 135.637 335.462 106.684 361.869 108.772C388.275 110.86 408.882 136.458 412.23 89.6109C413.385 79.2033 392.915 69.074 366.509 66.9864C340.102 64.8987 317.759 71.6434 316.603 82.0509Z" fill="#DDEBF9"/>
<path d="M392.405 95.4824C389.742 119.465 443.628 129.287 479.852 132.15C516.076 135.014 563.831 133.228 566.494 109.245C569.157 85.2628 526.63 39.9723 490.406 37.1085C441.98 33.28 395.068 71.4998 392.405 95.4824Z" fill="#DDEBF9"/>
<ellipse cx="63.9954" cy="37.9056" rx="63.9954" ry="37.9056" transform="matrix(-0.971066 -0.23881 -0.199344 0.97993 681.388 109.141)" fill="#DDEBF9"/>
<ellipse cx="51.0369" cy="23.4383" rx="51.0369" ry="23.4383" transform="matrix(-0.99689 -0.0788114 -0.110365 0.993891 769.383 120.083)" fill="#DDEBF9"/>
<path d="M744.008 151.289C741.546 173.462 776.209 182.763 816.834 185.975C857.46 189.187 892.389 173.816 894.851 151.643C897.313 129.471 866.376 108.892 825.75 105.681C785.125 102.469 746.47 129.117 744.008 151.289Z" fill="#DDEBF9"/>
<path d="M882.594 159.043C882.594 194.492 913.528 223.23 951.686 223.23C989.845 223.23 1024.41 194.492 1024.41 159.043C1024.41 123.593 987.767 91.5635 949.608 91.5635C911.45 91.5635 882.594 123.593 882.594 159.043Z" fill="#DDEBF9"/>
<path d="M925.916 237.391C929.427 264.043 957.575 282.316 988.785 278.204C1020 274.092 1042.45 249.152 1038.94 222.5C1033.87 184.057 1007.06 175.94 975.854 180.052C944.643 184.164 919.989 192.405 925.916 237.391Z" fill="#DDEBF9"/>
<path d="M1330.65 170.539C1336.09 185.59 1381.74 219.371 1423.31 213.894C1464.89 208.417 1493.06 166.411 1490.73 148.698C1491.91 87.7235 1449.04 33.3048 1400.19 42.7442C1348.76 45.7644 1322.33 107.36 1330.65 170.539Z" fill="#DDEBF9"/>
<path d="M1236.87 210.895C1239.09 227.745 1284.47 231.367 1322.36 226.375C1360.25 221.383 1384.29 226.443 1382.77 190.987C1376.02 139.763 1344.75 85.6002 1300.22 94.2088C1253.35 96.9547 1229.27 153.198 1236.87 210.895Z" fill="#DDEBF9"/>
<path d="M1119.45 258.71C1122.35 270.73 1152.24 253.562 1194.17 248.039C1236.09 242.516 1274.76 238.248 1280.86 236.618C1269.83 152.909 1237.37 109.232 1188.14 119.025C1136.24 121.727 1100.35 179.371 1119.45 258.71Z" fill="#DDEBF9"/>
<path d="M1002.16 255.06C1004.86 268.596 1046.02 249.283 1087.87 243.768C1129.73 238.253 1173.47 244.724 1171.88 232.7C1164.14 143.244 1127.64 99.2743 1078.51 109.206C1026.67 111.711 985.089 169.319 1002.16 255.06Z" fill="#DDEBF9"/>
<path d="M1548.1 143.168C1553.05 180.78 1579.9 177.243 1626.32 171.126C1672.75 165.01 1719.56 146.364 1716.22 121.017C1707.42 54.1813 1662.64 4.95863 1616.22 11.0754C1569.79 17.1922 1534.58 80.0622 1548.1 143.168Z" fill="#DDEBF9"/>
<path d="M1659.61 135.901C1664.12 170.106 1708.69 164.235 1763.66 156.992C1774.65 155.544 1775.9 157.491 1777.23 107.316C1778.57 57.1404 1777.88 29.0572 1767 31.3206C1712.67 42.6251 1653.1 86.4223 1659.61 135.901Z" fill="#DDEBF9"/>
<path d="M1448.39 176.11C1454.9 225.57 1489.4 204.663 1534.58 198.712C1579.75 192.76 1618.49 204.017 1611.97 154.557C1605.46 105.097 1563.55 69.8267 1518.38 75.7782C1461.22 77.5115 1441.87 126.65 1448.39 176.11Z" fill="#DDEBF9"/>
<path d="M1774 148L1.00025 173.231V650H1774V148Z" fill="#DDEBF9"/>
<path d="M1.00001 639.005L890.995 641C878.995 640.994 1782 641 1782 641C1782 579.018 1400.75 434 913.566 434C426.379 434 1.00001 577.023 1.00001 639.005Z" fill="#B6D3D9"/>
<path d="M1.00001 639.005L890.995 641C878.995 640.994 1782 641 1782 641C1782 579.018 1400.75 434 913.566 434C426.379 434 1.00001 577.023 1.00001 639.005Z" fill="#3B697C" fill-opacity="0.25"/>
<path d="M1 636.98L1774 634V710H1V636.98Z" fill="#B6D3D9"/>
<path d="M1 636.98L1774 634V710H1V636.98Z" fill="#3B697C" fill-opacity="0.25"/>
<path d="M883.611 484.414L883.552 484.444L883.503 484.488C877.473 489.877 872.994 492.231 868.763 491.949C864.716 491.679 860.735 488.988 855.705 483.768C864.412 483.053 869.974 480.664 879.784 474.433C881.739 475.006 883.14 476.393 885.984 480.644C885.688 481.804 885.413 482.571 885.07 483.13C884.72 483.699 884.285 484.075 883.611 484.414Z" fill="#3B697C" stroke="#19334E"/>
<line y1="-0.5" x2="6.86826" y2="-0.5" transform="matrix(0.291193 -0.956664 0.563986 0.825784 886.505 480.377)" stroke="#19334E"/>
<path d="M886.362 480.755C878.853 485.266 869.021 490.421 867.137 487.999" stroke="#19334E"/>
<path d="M1041.22 536.248L1023.4 531.84C1011.06 514.908 1013.52 507.966 1039.54 521.811L1041.22 536.248Z" fill="#3B697C"/>
<path d="M160.381 618.963L149.708 616.324C142.32 606.183 143.796 602.026 159.377 610.317L160.381 618.963Z" fill="#3B697C"/>
<path d="M835.255 629.386L849.835 632.993C859.927 646.845 857.912 652.525 836.627 641.198L835.255 629.386Z" fill="#3B697C"/>
<path d="M1369.54 503.489L1347.58 508.921C1332.38 529.788 1335.42 538.343 1367.48 521.281L1369.54 503.489Z" fill="#3B697C"/>
<path d="M1419.26 645.208L1440.49 650.46C1455.19 670.633 1452.25 678.904 1421.26 662.409L1419.26 645.208Z" fill="#3B697C"/>
<path d="M400.695 648.404C406.95 642.963 406.229 634.511 410.294 630.634C414.241 626.871 421.883 630.21 426.723 635.054C427.005 635.337 427.188 635.704 427.24 636.101C428.118 642.705 425.339 647.517 420.869 649.352C416.264 651.243 409.037 645.874 400.695 648.404Z" fill="#3B697C"/>
<path d="M1580.56 618.859C1587.05 613.214 1586.3 604.446 1590.52 600.425C1594.74 596.404 1603.02 600.199 1608.01 605.466C1609.19 612.641 1606.27 617.882 1601.49 619.843C1596.71 621.804 1589.22 616.235 1580.56 618.859Z" fill="#3B697C"/>
<path d="M486.021 504.981C490.251 510.977 487.85 518.091 490.527 522.28C493.205 526.469 500.841 525.008 506.042 521.656C508.475 515.95 507.124 511.014 503.564 508.418C500.003 505.822 492.659 508.914 486.021 504.981Z" fill="#3B697C"/>
<path d="M610.267 691.417C609.951 682.83 602.665 677.91 602.186 672.108C601.706 666.306 609.855 662.248 617.077 661.678C623.394 665.265 625.638 670.82 624.165 675.765C622.691 680.709 613.657 683.042 610.267 691.417Z" fill="#3B697C"/>
<path d="M548.987 620.536L560.203 643.502" stroke="#3B697C" stroke-width="2" stroke-linecap="round"/>
<path d="M568.468 617.999L570.059 642.315" stroke="#3B697C" stroke-width="2" stroke-linecap="round"/>
<path d="M584.106 619.304L580.301 643.492" stroke="#3B697C" stroke-width="2" stroke-linecap="round"/>
<path d="M205.989 672.67L213.373 687.79" stroke="#3B697C" stroke-width="2" stroke-linecap="round"/>
<path d="M218.814 671L219.862 687.008" stroke="#3B697C" stroke-width="2" stroke-linecap="round"/>
<path d="M229.11 671.859L226.605 687.784" stroke="#3B697C" stroke-width="2" stroke-linecap="round"/>
<path d="M933.986 624.536L945.202 647.502" stroke="#3B697C" stroke-width="2" stroke-linecap="round"/>
<path d="M953.467 621.999L955.058 646.315" stroke="#3B697C" stroke-width="2" stroke-linecap="round"/>
<path d="M969.105 623.304L965.301 647.492" stroke="#3B697C" stroke-width="2" stroke-linecap="round"/>
<path d="M322.044 572.25L321.984 572.278L321.919 572.288C315.133 573.421 311.212 575.137 309.165 578.069C307.223 580.852 306.875 584.857 307.636 590.887C312.709 585.561 317.265 583.147 326.544 579.978C327.177 578.416 327.008 576.77 325.719 572.669C324.809 572.258 324.17 572.039 323.633 571.972C323.085 571.903 322.618 571.988 322.044 572.25Z" fill="#3B697C" stroke="#19334E"/>
<line y1="-0.5" x2="5.84511" y2="-0.5" transform="matrix(0.928449 0.37146 -0.291252 -0.956646 326.234 572.41)" stroke="#19334E"/>
<path d="M325.906 572.304C318.913 574.886 310.256 578.669 310.86 581.209" stroke="#19334E"/>
<path d="M1680.99 655.537L1692.21 678.503" stroke="#3B697C" stroke-width="3" stroke-linecap="round"/>
<path d="M1700.47 653L1702.06 677.316" stroke="#3B697C" stroke-width="3" stroke-linecap="round"/>
<path d="M1716.11 654.305L1712.3 678.493" stroke="#3B697C" stroke-width="3" stroke-linecap="round"/>
<path d="M1087.99 549.536L1099.21 572.502" stroke="#3B697C" stroke-width="2" stroke-linecap="round"/>
<path d="M1107.47 546.999L1109.06 571.315" stroke="#3B697C" stroke-width="2" stroke-linecap="round"/>
<path d="M1123.11 548.304L1119.3 572.492" stroke="#3B697C" stroke-width="2" stroke-linecap="round"/>
<path d="M1151.88 484.515L1151.94 484.542L1152.01 484.553C1161.06 486.065 1166.35 488.36 1169.12 492.33C1171.79 496.148 1172.22 501.645 1171.14 509.885C1164.29 502.619 1158.24 499.386 1145.69 495.104C1144.78 492.93 1145.02 490.683 1146.78 485.104C1148.03 484.534 1148.92 484.225 1149.67 484.13C1150.44 484.033 1151.09 484.155 1151.88 484.515Z" fill="#3B697C" stroke="#19334E"/>
<line y1="-0.5" x2="7.79348" y2="-0.5" transform="matrix(-0.928449 0.37146 0.291252 -0.956646 1146.23 484.881)" stroke="#19334E"/>
<path d="M1146.66 484.739C1155.99 488.181 1167.53 493.225 1166.72 496.612" stroke="#19334E"/>
<path d="M1173.01 679.231L1172.95 679.254L1172.89 679.263C1165.14 680.396 1160.64 682.116 1158.28 685.074C1156.05 687.878 1155.66 691.906 1156.53 697.954C1162.34 692.589 1167.53 690.174 1178.18 686.99C1178.92 685.409 1178.73 683.762 1177.26 679.646C1176.22 679.235 1175.48 679.014 1174.86 678.946C1174.23 678.876 1173.68 678.964 1173.01 679.231Z" fill="#3B697C" stroke="#19334E"/>
<line y1="-0.5" x2="6.56237" y2="-0.5" transform="matrix(0.94368 0.33086 -0.328177 -0.944616 1177.8 679.41)" stroke="#19334E"/>
<path d="M1177.42 679.304C1169.44 681.886 1159.56 685.669 1160.25 688.209" stroke="#19334E"/>
<path d="M727.044 581.75L726.984 581.723L726.919 581.712C720.133 580.579 716.212 578.863 714.165 575.931C712.223 573.148 711.875 569.143 712.636 563.113C717.709 568.439 722.265 570.853 731.544 574.022C732.177 575.584 732.008 577.23 730.719 581.331C729.809 581.742 729.17 581.961 728.633 582.028C728.085 582.097 727.618 582.012 727.044 581.75Z" fill="#3B697C" stroke="#19334E"/>
<line y1="-0.5" x2="5.84514" y2="-0.5" transform="matrix(0.928449 -0.37146 -0.291252 0.956646 731.234 581.59)" stroke="#19334E"/>
<path d="M730.906 581.696C723.913 579.114 715.255 575.331 715.86 572.791" stroke="#19334E"/>
</g>
</g>
<defs>
<clipPath id="clip0_893_8240">
<rect width="1773.42" height="710" fill="white" transform="matrix(-1 0 0 1 1774 0)"/>
</clipPath>
</defs>
</svg>
