<svg width="1440" height="756" viewBox="0 0 1440 756" fill="none" xmlns="http://www.w3.org/2000/svg">
<g clip-path="url(#clip0_343_400)">
<rect width="1440" height="756" fill="#232221"/>
<path d="M1244.75 272.314C1184.82 243.87 1141.56 232.33 1083.06 222.321C1079.65 221.737 1076.7 224.733 1077.34 228.139C1089.82 293.813 1110.16 340.384 1139.7 385.256C1140.81 386.935 1142.83 387.784 1144.81 387.386C1174.73 381.357 1198.28 369.231 1215.43 350.892C1232.58 332.554 1243.25 308.08 1247.55 277.48C1247.85 275.335 1246.69 273.237 1244.75 272.314Z" fill="#E08717" stroke="#4A310C" stroke-width="2" stroke-linejoin="round"/>
<ellipse cx="14.3236" cy="13.5891" rx="14.3236" ry="13.5891" transform="matrix(0.963872 -0.266365 -0.266365 -0.963872 1126.98 302.283)" fill="#942828"/>
<ellipse cx="14.3236" cy="13.5891" rx="14.3236" ry="13.5891" transform="matrix(0.963872 -0.266365 -0.266365 -0.963872 1178.12 288.21)" fill="#942828"/>
<ellipse cx="14.3236" cy="13.5891" rx="14.3236" ry="13.5891" transform="matrix(0.963872 -0.266365 -0.266365 -0.963872 1151.08 361.923)" fill="#942828"/>
<ellipse cx="1191.98" cy="312.431" rx="14.3236" ry="13.5891" transform="rotate(-15.4481 1191.98 312.431)" fill="#942828"/>
<ellipse cx="1101.08" cy="245.805" rx="14.3236" ry="13.5891" transform="rotate(-15.4481 1101.08 245.805)" fill="#942828"/>
<path d="M1102.18 272.273C1105.8 263.593 1114.78 263.946 1119.07 272.935L1102.18 272.273Z" fill="#AB7A4E"/>
<path d="M1107.35 271.74L1112.49 271.942L1112.09 282.218C1109.88 283.367 1108.76 283.334 1106.95 282.016L1107.35 271.74Z" fill="#AB7A4E"/>
<path d="M1217.01 272.187C1231.31 268.964 1238.95 280.709 1231.38 294.253L1217.01 272.187Z" fill="#AB7A4E"/>
<path d="M1222.35 278.278L1226.72 284.994L1213.29 293.737C1209.84 291.97 1208.87 290.508 1208.91 287.021L1222.35 278.278Z" fill="#AB7A4E"/>
<path d="M1150.53 319.006C1144.54 310.297 1150.36 302.034 1161.46 303.482L1150.53 319.006Z" fill="#AB7A4E"/>
<path d="M1153.18 313.805L1156.51 309.081L1165.96 315.737C1165.7 318.517 1164.98 319.56 1162.63 320.461L1153.18 313.805Z" fill="#AB7A4E"/>
<ellipse cx="1159.66" cy="260.94" rx="3.30545" ry="5.50908" transform="rotate(-15.4481 1159.66 260.94)" fill="#588223"/>
<ellipse cx="1132.59" cy="323.975" rx="3.30545" ry="5.50908" transform="rotate(-34.0016 1132.59 323.975)" fill="#588223"/>
<ellipse cx="1193.12" cy="338.524" rx="3.30545" ry="5.50908" transform="rotate(5.67271 1193.12 338.524)" fill="#588223"/>
<ellipse cx="1134.27" cy="247.304" rx="3.30545" ry="5.50908" transform="rotate(-33.0925 1134.27 247.304)" fill="#588223"/>
<path d="M1184.11 421.45C1207.94 388.116 1226.2 370.596 1277.76 349.832L1438.99 449.362V690.293H1352.68L1184.11 421.45Z" fill="#573353"/>
<path d="M1162.07 382.152L1236.63 326.694L1258.66 353.505L1269.68 358.321C1247.9 399.451 1205.04 420.431 1196.23 417.084C1187.41 413.738 1162.07 382.152 1162.07 382.152Z" fill="#8B432A"/>
<path d="M1215.32 331.836C1215.32 331.836 1236.26 325.184 1236.63 326.694C1236.99 328.205 1193.29 361.891 1162.07 382.194C1177.49 371.02 1185.39 365.902 1215.32 331.836Z" fill="#8B432A"/>
<path d="M1200.34 291.515C1200.34 279.028 1212.46 276.457 1219.07 289.312C1225.68 302.166 1236.7 326.773 1236.7 326.773L1214.66 332.65C1214.66 332.65 1200.34 304.003 1200.34 291.515Z" fill="#8B432A"/>
<line x1="1208.84" y1="348.491" x2="1206.63" y2="360.978" stroke="#BF5C38"/>
<path d="M1184.11 421.45C1219.29 413.503 1239.6 400.556 1277.76 349.832L1438.99 449.362V758.279H1366.27L1184.11 421.45Z" fill="#74A3D7"/>
<path d="M1197.33 418.921L1398.23 756.077" stroke="#57455E" stroke-width="4"/>
<path d="M1213.86 411.208L1440.09 756.077" stroke="#57455E" stroke-width="4"/>
<path d="M1230.02 402.027L1445.24 686.295" stroke="#57455E" stroke-width="4"/>
<path d="M1241.4 391.375L1440.1 603.659" stroke="#57455E" stroke-width="4"/>
<path d="M1251.32 381.459L1441.56 558.851" stroke="#57455E" stroke-width="4"/>
<path d="M1260.13 371.177L1439.72 522.493M1268.58 359.79L1451.85 494.946" stroke="#57455E" stroke-width="4"/>
<path d="M795.183 586.876C780.102 572.562 724.123 581.764 714.666 591.222L693.85 758.326H743.294L822.678 755.259L795.183 586.876Z" fill="#32378F"/>
<path d="M795.696 586.109C789.561 593.266 725.914 602.753 713.9 590.455L693.707 757.368H754.031H824.068L795.696 586.109Z" fill="#868AE0"/>
<path d="M712.879 608.347C747.453 616.193 766.909 614.514 797.997 603.491" stroke="#B6B6ED" stroke-width="4"/>
<path d="M712.111 617.294C746.686 625.139 768.186 623.716 799.274 612.693" stroke="#B6B6ED" stroke-width="4"/>
<path d="M699.852 497.923L828.935 542.655L819.222 573.84L692.439 530.641L699.852 497.923Z" fill="#923258"/>
<path d="M686.05 469.668C694.636 470.509 699.375 472.405 707.777 477.592C707.777 496.39 700.875 538.448 678.637 564.382C667.53 565.315 662.373 563.878 656.91 557.48C657.463 505.953 676.848 476.059 686.05 469.668Z" fill="#923258"/>
<path d="M857.639 524.971C850.69 519.857 845.899 518.099 836.182 516.342C827.147 524.971 806.187 574.606 806.187 602.212C813.824 610.331 823.153 611.498 831.492 610.392C846.829 585.853 862.233 554.435 857.639 524.971Z" fill="#923258"/>
<path d="M664.834 473.385C669.765 473.657 672.41 474.439 676.847 476.708C664.804 496.7 659.627 511.949 653.842 548.023C648.174 548.515 645.802 547.536 642.084 544.956C639.138 541.905 639.12 539.921 639.784 536.265C643.921 511.782 648.14 499.64 656.91 479.008C658.929 475.137 660.729 473.972 664.834 473.385Z" fill="#923258"/>
<path d="M645.153 498.69C648.987 499.713 648.261 500.756 648.731 499.968L643.875 516.838L640.041 514.794C639.187 507.611 641.318 497.668 645.153 498.69Z" fill="#923258"/>
<path d="M872.243 539.016C868.099 536.33 865.501 535.403 860.579 534.621C858.527 557.871 853.725 573.242 837.14 605.795C841.43 609.533 843.923 610.14 848.448 610.246C852.626 609.518 853.809 607.925 855.428 604.58C866.512 582.362 870.259 570.066 875.331 548.229C875.981 543.911 875.213 541.91 872.243 539.016Z" fill="#923258"/>
<path d="M873.232 571.059C869.532 569.625 869.503 570.896 869.588 569.983L863.57 586.475L867.873 587.082C872.795 581.782 876.933 572.492 873.232 571.059Z" fill="#923258"/>
<path d="M787.517 562.338L728.727 567.45L728.727 578.441L725.149 595.567C743.297 598.634 783.939 594.8 787.517 590.455C791.096 586.11 787.517 562.338 787.517 562.338Z" fill="#E79D68"/>
<path d="M740.74 546.49L726.425 550.835L728.726 568.217L731.026 568.217L787.261 562.593L740.74 546.49Z" fill="#E79D68"/>
<line y1="-0.5" x2="8.82503" y2="-0.5" transform="matrix(0.173785 0.984784 0.984784 -0.173785 753.01 553.903)" stroke="#D17941"/>
<path d="M729.118 522.86C722.965 516.722 715.741 521.429 718.825 531.005C721.909 540.581 728.617 558.105 728.617 558.105L742.344 550.137C742.344 550.137 735.27 528.998 729.118 522.86Z" fill="#E79D68"/>
<path d="M734.843 520.446C734.843 520.446 735.24 516.701 739.648 510.828C744.057 504.955 751.328 508.214 751.032 514.199C750.735 520.184 748.765 519.921 744.986 524.662C741.208 529.402 734.361 526.597 734.843 520.446Z" fill="#F39860"/>
<path d="M747.896 524.763C747.621 523.027 748.436 521.797 750.452 516.328C752.468 510.859 758.808 508.424 760.933 514.027C763.057 519.63 762.466 517.861 758.891 525.874C755.316 533.886 747.385 531.409 747.896 524.763Z" fill="#F39860"/>
<path d="M738.225 516.911C736.792 518.21 735.874 519.438 735.54 521.251C735.449 521.748 735.478 522.263 735.632 522.747C735.867 523.489 736.204 524.106 736.709 524.638C737.209 525.167 737.853 525.59 738.666 525.976C740.181 526.694 741.993 526.295 743.105 525.062C743.878 524.204 744.499 523.311 744.878 522.297C745.259 521.276 745.384 520.159 745.203 518.865C745.103 518.15 744.771 517.485 744.265 516.973C743.395 516.093 742.592 515.655 741.727 515.598C740.889 515.544 740.082 515.856 739.24 516.243C738.872 516.412 738.528 516.636 738.225 516.911Z" fill="#F39860" stroke="#D07A3F"/>
<path d="M750.79 521.817C749.461 523.027 748.601 524.177 748.281 525.864C748.186 526.362 748.216 526.88 748.373 527.366C748.591 528.038 748.9 528.603 749.356 529.093C749.808 529.58 750.385 529.971 751.109 530.327C752.618 531.068 754.446 530.663 755.547 529.416C756.958 527.817 757.766 526.113 757.446 523.711C757.35 522.994 757.017 522.325 756.506 521.815C755.696 521.008 754.944 520.603 754.13 520.551C753.343 520.501 752.587 520.791 751.806 521.149C751.437 521.317 751.093 521.542 750.79 521.817Z" fill="#F39860" stroke="#D07A3F"/>
<path d="M759.833 527.226C759.559 525.491 760.373 524.26 762.389 518.791C764.406 513.322 770.745 510.887 772.87 516.49C774.995 522.094 774.404 520.325 770.829 528.337C767.253 536.35 759.322 533.872 759.833 527.226Z" fill="#F39860"/>
<path d="M762.559 525.639C761.577 526.547 760.916 527.436 760.643 528.698C760.534 529.201 760.562 529.731 760.738 530.222C761.058 531.118 761.59 531.741 762.465 532.257C763.944 533.128 765.857 532.679 766.897 531.365C767.797 530.227 768.301 528.983 768.133 527.336C768.059 526.606 767.72 525.921 767.182 525.419C766.574 524.853 765.989 524.561 765.353 524.527C764.741 524.494 764.159 524.706 763.58 524.966C763.208 525.133 762.861 525.359 762.559 525.639Z" fill="#F39860" stroke="#D07A3F"/>
<path d="M771.08 530.805C770.805 529.069 771.619 527.839 773.636 522.369C775.652 516.9 781.991 514.466 784.116 520.069C786.241 525.672 785.65 523.903 782.075 531.916C778.5 539.928 770.568 537.45 771.08 530.805Z" fill="#F39860"/>
<path d="M774.071 530.387C773.357 531.062 772.855 531.742 772.621 532.673C772.493 533.181 772.519 533.729 772.72 534.227C772.923 534.73 773.22 535.132 773.654 535.473C775.06 536.575 777.139 536.03 778.073 534.622C778.587 533.847 778.868 532.991 778.802 531.937C778.756 531.195 778.413 530.482 777.835 529.996C777.38 529.612 776.928 529.412 776.438 529.392C775.968 529.373 775.525 529.524 775.101 529.708C774.722 529.872 774.373 530.102 774.071 530.387Z" fill="#F39860" stroke="#D07A3F"/>
<path d="M396.662 577.08C411.151 555.926 481.025 552.569 494.871 561.531L563.115 757.65L503.496 770.416L406.984 787.214L396.662 577.08Z" fill="#0F1F47"/>
<path d="M377.376 508.671C391.562 513.933 425.307 538.975 435.058 540.506C445.801 538.918 446.205 538.957 451.134 535.086L455.23 524.116L476.479 535.086L479.194 548.528L487.779 568.488C468.588 581.201 417.681 586.775 410.613 579.415C403.546 572.055 377.376 508.671 377.376 508.671Z" fill="#D7835E"/>
<path d="M466.892 489.444C472.726 480.454 482.638 484.036 481.392 496.378C480.146 508.721 476.35 535.778 476.35 535.778L454.601 528.214C454.601 528.214 461.058 498.434 466.892 489.444Z" fill="#D7835E"/>
<path d="M396.289 577.069C405.534 584.115 483.636 579.555 494.947 561.625L563.041 756.457L490.303 772.032L405.852 790.115L396.289 577.069Z" fill="#FDA758"/>
<path d="M501.881 581.167C462.217 599.553 434.745 600.394 397.55 597.872" stroke="#FFDEB7" stroke-width="4"/>
<path d="M482.038 431.561L449.108 546.392C448.577 548.242 447.119 549.68 445.261 550.184L435.823 552.745C435.096 552.943 434.334 552.989 433.595 552.874C420.237 550.78 411.151 546.743 400.16 541.861C396.476 540.224 392.578 538.493 388.234 536.707C387.831 536.542 387.445 536.329 387.093 536.076L386.045 535.322C384.146 533.955 383.319 531.537 383.984 529.293L417.144 417.476C417.887 414.972 420.289 413.335 422.891 413.56L471.427 417.758C472.837 417.88 474.146 418.541 475.082 419.604L477.361 422.194L480.973 426.52C482.142 427.92 482.541 429.808 482.038 431.561Z" fill="#706D80" stroke="#171518"/>
<path d="M474.723 423.39L441.307 538.169C441.09 538.914 440.718 539.605 440.215 540.195L437.196 543.745C436.046 545.096 434.321 545.816 432.579 545.611C416.755 543.757 404.447 537.882 390.839 531.228C389.278 530.464 388.168 529.007 387.848 527.299L386.853 522.001C386.693 521.146 386.738 520.265 386.984 519.431L417.116 417.251C417.853 414.753 420.24 413.115 422.835 413.325L470.441 417.176C472.365 417.332 474.015 418.609 474.648 420.433C474.979 421.387 475.006 422.421 474.723 423.39Z" fill="#56597A" stroke="#171518"/>
<g filter="url(#filter0_f_343_400)">
<path d="M396.587 403.3L471.954 408.606L431.31 534.096L359.134 513.837L396.587 403.3Z" fill="#F5D49D" fill-opacity="0.5"/>
</g>
<path d="M387.841 515.166L415.783 423.038L472.99 427.912L442.731 532.416L387.841 515.166Z" fill="#F5D49D" stroke="black"/>
<path d="M418.283 530.658C418.359 531.506 417.974 532.353 417.213 533.037C416.453 533.721 415.34 534.216 414.05 534.331C412.76 534.446 411.577 534.156 410.707 533.618C409.838 533.079 409.309 532.314 409.233 531.466C409.157 530.617 409.542 529.77 410.303 529.086C411.063 528.403 412.176 527.907 413.466 527.792C414.756 527.677 415.939 527.967 416.809 528.506C417.678 529.044 418.207 529.809 418.283 530.658Z" fill="#626B8E" stroke="#171518"/>
<path d="M442.221 420.696L438.742 414.828L458.87 416.409L450.428 421.566L442.221 420.696Z" fill="#978C88" stroke="black"/>
<path d="M392.508 469.516C392.508 469.516 392.823 459.114 394.084 457.854C395.345 456.593 400.388 457.854 400.388 457.854L404.485 459.43C404.485 459.43 407.007 460.69 409.214 462.266C411.42 463.842 411.735 467.94 407.323 469.516C402.91 471.092 401.333 469.516 401.333 469.516L400.703 470.847L392.508 469.516Z" fill="#D7835E"/>
<path d="M402.372 466.07C403.52 467.527 404.607 468.487 406.218 468.89C406.731 469.019 407.258 468.987 407.747 468.869C408.247 468.749 408.705 468.611 409.118 468.375C409.543 468.132 409.899 467.799 410.218 467.32C411.347 465.626 410.587 463.414 409.061 462.491C407.986 461.841 407.162 461.643 406.077 461.396C404.71 461.085 403.11 461.346 402.005 462.471C401.662 462.82 401.409 463.188 401.41 463.698C401.41 463.924 401.461 464.146 401.531 464.366C401.602 464.586 401.701 464.834 401.817 465.113C401.959 465.453 402.143 465.779 402.372 466.07Z" fill="#D7835E" stroke="#AB5B4A"/>
<path d="M399.821 487.441C399.821 487.441 395.232 486.726 388.266 480.941C381.299 475.156 385.752 466.397 393.106 467.124C400.459 467.852 400.016 470.262 405.627 475.203C411.237 480.143 407.369 488.406 399.821 487.441Z" fill="#D7835E"/>
<path d="M396.698 482.431C397.925 484.601 399.178 486.06 401.366 486.938C401.83 487.124 402.333 487.204 402.833 487.168C403.893 487.092 404.793 486.832 405.627 486.3C406.453 485.773 407.183 485 407.939 483.95C408.9 482.614 408.959 480.745 407.865 479.439C405.983 477.191 403.901 476.562 401.351 475.864C400.972 475.761 400.556 475.695 400.129 475.725C398.437 475.844 397.301 476.513 396.685 477.587C396.088 478.629 396.039 479.953 396.274 481.278C396.347 481.693 396.499 482.08 396.698 482.431Z" fill="#D7835E" stroke="#AB5B4A"/>
<path d="M387.798 514.926C387.798 514.926 383.253 513.971 376.599 507.829C369.945 501.687 374.851 493.173 382.156 494.285C389.462 495.396 388.893 497.781 394.237 503.008C399.581 508.236 395.284 516.285 387.798 514.926Z" fill="#D7835E"/>
<path d="M383.547 509.009C384.595 511.27 385.727 512.825 387.837 513.876C388.285 514.099 388.78 514.219 389.281 514.224C390.344 514.234 391.262 514.046 392.136 513.583C393.001 513.124 393.791 512.413 394.629 511.427C395.704 510.161 395.859 508.35 395.049 506.91C394.279 505.538 393.422 504.362 392.306 503.469C391.182 502.57 389.821 501.978 388.076 501.735C387.367 501.637 386.643 501.759 386.005 502.077C384.553 502.801 383.715 503.592 383.328 504.596C382.952 505.571 383.042 506.657 383.207 507.849C383.263 508.248 383.376 508.64 383.547 509.009Z" fill="#D7835E" stroke="#AB5B4A"/>
<path d="M388.181 500.829C388.181 500.829 384.048 498.71 379.249 491.031C374.45 483.352 381.427 476.433 388.181 479.431C394.935 482.429 393.757 484.579 397.534 491.031C401.31 497.482 395.044 504.114 388.181 500.829Z" fill="#D7835E"/>
<path d="M385.641 494.001C386.056 496.458 386.738 498.257 388.496 499.827C388.869 500.16 389.315 500.406 389.798 500.543C390.821 500.833 391.755 500.894 392.72 500.677C393.676 500.463 394.626 499.985 395.694 499.255C397.064 498.317 397.691 496.611 397.29 495.009C396.908 493.482 396.392 492.122 395.55 490.966C394.704 489.803 393.547 488.873 391.927 488.178C391.269 487.896 390.538 487.824 389.84 487.962C388.248 488.278 387.231 488.82 386.593 489.686C385.974 490.528 385.774 491.599 385.619 492.792C385.568 493.192 385.573 493.6 385.641 494.001Z" fill="#D7835E" stroke="#AB5B4A"/>
<path d="M968.412 560.162C983.99 537.418 1059.12 533.808 1074.01 543.444L1147.38 754.31L1083.28 768.036L979.51 786.097L968.412 560.162Z" fill="#56597A"/>
<path d="M991.616 536.629L990.807 536.1L990.843 537.066L991.342 537.048C990.843 537.066 990.843 537.066 990.843 537.067L990.843 537.067L990.843 537.071L990.843 537.084L990.845 537.137L990.853 537.344C990.859 537.526 990.869 537.794 990.88 538.136C990.903 538.82 990.936 539.803 990.972 540.995C991.043 543.38 991.129 546.605 991.187 549.962C991.244 553.321 991.273 556.81 991.23 559.725C991.186 562.662 991.07 564.959 990.853 565.973C990.751 566.451 990.942 566.867 991.262 567.185C991.568 567.488 992.015 567.732 992.541 567.934C993.599 568.342 995.148 568.646 997.049 568.843C1000.87 569.237 1006.23 569.211 1012.26 568.623C1024.31 567.448 1039.11 564.02 1049.52 557.12L1049.8 556.939L1049.74 556.615C1048.79 551.322 1048.53 547.22 1048.99 543.133C1049.46 539.044 1050.65 534.942 1052.63 529.648L1059.15 514.197L1059.17 514.144L1059.18 514.089C1060.91 504.201 1060.97 496.994 1059.73 490.302C1058.5 483.621 1055.98 477.482 1052.62 469.746L1052.49 469.432L1052.15 469.446L1026.47 470.462L1026.22 470.472L1026.08 470.677C1024.54 472.896 1018.32 482.18 1014.62 494.113C1010.91 506.042 1009.69 520.709 1018.28 533.597C1019.01 534.692 1019.08 536.24 1018.38 537.797C1017.69 539.348 1016.26 540.872 1014.06 541.843C1009.67 543.781 1002.17 543.529 991.616 536.629Z" fill="#EE9275" stroke="#844C01"/>
<path d="M968.013 560.151C977.953 567.726 1061.93 562.824 1074.09 543.544L1147.3 753.028L1069.1 769.774L978.295 789.217L968.013 560.151Z" fill="#FF8A91"/>
<path d="M1081.54 564.556C1038.9 584.325 1009.36 585.229 969.369 582.518" stroke="#FFACB1" stroke-width="4"/>
<path d="M974.301 471.301C990.632 505.814 1013.61 499.768 1013.61 499.768C1013.61 499.768 1013.31 523.133 1020.05 536.031C1016.3 544.85 1010.84 546.813 991.924 538.742C978.609 532.177 977.745 508.204 974.301 471.301Z" fill="#EE9275"/>
<path d="M974.914 467.2C976.065 462.796 977.189 459.641 978.726 457.633C979.485 456.64 980.338 455.939 981.339 455.505C982.342 455.07 983.525 454.889 984.963 454.984C986.727 455.101 988.159 456.482 988.765 458.268L999.661 490.35C999.848 490.9 1000.11 491.431 1000.45 491.913C1000.93 492.584 1001.42 493.209 1001.95 493.803C1003.63 495.673 1004.52 498.256 1004.38 500.207C1004.31 501.179 1004 501.933 1003.48 502.393C1002.97 502.841 1002.18 503.085 1000.99 502.864C1000.05 502.689 999.049 502.426 997.952 502.063C997.281 501.841 996.662 501.455 996.136 500.961C985.316 490.795 980.501 483.755 975.134 470.518C974.707 469.465 974.628 468.297 974.914 467.2Z" fill="#EE9275" stroke="#844C01" stroke-linejoin="round"/>
<path d="M1007.7 482.244L1007.73 482.365L1007.8 482.461L1015.15 491.474C1015.15 493.564 1015.06 495.266 1014.84 496.627C1014.62 498.031 1014.27 499.026 1013.78 499.704C1013.31 500.361 1012.68 500.749 1011.82 500.903C1010.95 501.056 1009.85 500.979 1008.43 500.665L999.795 492.693C993.66 478.893 990.938 471.153 989.046 457.447C990.531 452.626 992.387 449.855 994.462 448.128C996.427 446.492 998.633 445.752 1001.05 445.134C1002.96 452.621 1003.91 458.363 1004.74 463.944C1004.9 465.02 1005.05 466.091 1005.2 467.168C1005.87 471.793 1006.55 476.525 1007.7 482.244Z" fill="#EE9275" stroke="#844C01"/>
<path d="M1008.27 483.561C1004.4 474.285 1002.71 466.526 1001.24 445.318C1003.52 441.215 1005.33 438.661 1007.15 437.184C1008.86 435.795 1010.6 435.339 1012.87 435.505L1016.85 452.075C1017.5 456.962 1018.4 460.44 1019.81 463.451C1021.19 466.38 1023.03 468.84 1025.55 471.711C1019.49 483.236 1017.67 486.79 1015.51 491.115L1008.27 483.561Z" fill="#EE9275" stroke="#844C01"/>
<path d="M1038.87 435.775L1038.88 435.863L1038.92 435.942C1039.74 437.564 1040.53 439.107 1041.29 440.591C1047.36 452.437 1051.47 460.462 1054.01 473.806L1026.07 471.834C1019.04 462.63 1017.27 454.599 1013.36 436.873C1013.28 436.502 1013.2 436.127 1013.11 435.748C1018.12 421.588 1021.9 415.076 1030.56 406.255C1032.56 404.475 1035.17 404.955 1037.45 406.027C1038.57 406.556 1039.56 407.21 1040.28 407.733C1040.63 407.995 1040.92 408.222 1041.11 408.384C1041.14 408.405 1041.16 408.424 1041.18 408.443C1038.13 420.813 1037.79 426.714 1038.87 435.775Z" fill="#EE9275" stroke="#844C01"/>
<path d="M1014.12 432.589C1007.98 427.966 1005.26 425.308 1003.23 420.616C1001.78 416.805 1000.95 413.896 1000.65 411.657C1000.34 409.415 1000.57 407.898 1001.16 406.826C1001.74 405.764 1002.71 405.06 1004.09 404.534C1005.46 404.015 1007.16 403.69 1009.16 403.357C1013.16 404.762 1015.93 406.056 1018.16 407.66C1020.35 409.227 1022.05 411.107 1023.87 413.725L1014.12 432.589Z" fill="#EE9275" stroke="#844C01"/>
<path d="M1021.71 398.79C1012.31 393.581 1008.11 390.305 1005.48 382.847C1003.68 365.076 1021.71 362.852 1024.12 376.069C1026.53 389.286 1021.71 398.79 1021.71 398.79Z" fill="#BA6D74"/>
<path d="M1021.63 398.651C1032 395.849 1036.87 393.677 1041.21 387.069C1047.22 370.249 1030.26 363.763 1024.74 376.015C1019.23 388.267 1021.63 398.651 1021.63 398.651Z" fill="#BA6D74"/>
<path d="M1025.94 469.884L1053.39 472.934L1055.3 477.401L1025.94 478.017V469.884Z" fill="#EE9275"/>
<path d="M237.674 463.903C227.215 426.939 219.848 404.486 167.083 383.119L1.77089 444.047L1.7709 692.686L40.2031 692.686L237.674 463.903Z" fill="#FF8A91"/>
<path d="M237.71 464.432C237.85 464.717 191.239 435.918 166.194 383.447L1.4176 444.381L-3.2421 759.191L31.5139 759.191C31.5139 759.191 237.57 464.148 237.71 464.432Z" fill="#FFA9AF"/>
<path d="M206.352 510.871C165.99 483.218 131.362 441.113 111.484 404.348" stroke="#2A557B" stroke-width="4"/>
<path d="M207.806 473.79C207.806 476.439 205.515 478.638 202.625 478.638C199.734 478.638 197.443 476.439 197.443 473.79C197.443 471.142 199.734 468.943 202.625 468.943C205.515 468.943 207.806 471.142 207.806 473.79Z" stroke="#2A557B"/>
<path d="M125.426 464.433L118.742 509.883" stroke="#584963" stroke-width="20" stroke-linecap="round"/>
<path d="M74.3496 554.903L116.789 572.49" stroke="#584963" stroke-width="20" stroke-linecap="round"/>
<path d="M16.9629 505.068L62.4936 498.957" stroke="#584963" stroke-width="20" stroke-linecap="round"/>
<path d="M44.1484 621.025L40.0493 666.781" stroke="#584963" stroke-width="20" stroke-linecap="round"/>
<path d="M292.378 265.159C311.057 272.899 321.563 277.076 340.952 281.537L336.598 297.548L285.397 282.004L292.378 265.159Z" fill="url(#paint0_linear_343_400)"/>
<path d="M298.003 242.707C300.879 240.517 331.725 248.963 352.352 260.397L344.705 282.641C322.876 279.107 310.872 274.704 289.647 264.325C289.647 264.325 295.126 244.896 298.003 242.707Z" fill="#56597A"/>
<path d="M298.003 242.707C320.023 252.685 331.864 256.342 352.352 260.397L344.705 282.641C322.876 279.107 310.872 274.704 289.647 264.325C292.294 251.958 294.264 248.089 298.003 242.707Z" fill="#41456E"/>
<path d="M324.957 249.686C323.68 248.768 323.612 246.891 324.82 245.883L326.414 244.553C326.935 244.119 327.558 243.822 328.225 243.697C338.452 241.792 344.84 241.78 354.93 244.868C356.612 245.382 358.203 246.168 359.656 247.159C370.646 254.653 375.532 259.663 379.349 269.086C383.199 282.492 383.63 292.377 379.528 304.233C378.909 306.023 376.493 306.13 375.627 304.446V304.446C375.321 303.85 375.302 303.146 375.561 302.528C380.472 290.854 380.088 283.462 376.55 271.126C376.201 269.909 375.726 268.724 375.113 267.616C371.604 261.267 367.973 257.06 360.578 251.021C358.659 249.454 356.429 248.295 354.039 247.638C344.32 244.964 339.016 244.816 332.306 247.015C331.73 247.204 331.183 247.475 330.674 247.805L327.671 249.751C326.839 250.29 325.762 250.264 324.957 249.686V249.686Z" fill="#DC6C99"/>
<path d="M330.149 248.059C332.729 246.484 334.62 246.137 338.028 245.557C343.71 245.866 346.82 246.507 352.017 249.703C360.919 256.573 360.745 261.965 361.735 271.194C364.055 283.014 365.398 289.611 370.849 299.085L375.456 303.15L377.958 305.672C374.183 307.064 372.031 306.924 367.993 301.608C363.411 296.182 361.293 288.105 357.732 271.445C356.702 261.868 355.357 257.152 348.828 252.247C341.885 249.145 337.697 248.602 330.149 248.059Z" fill="#F087B1"/>
<path d="M262.728 296.568C279.879 260.334 354.451 290.821 345.409 322.864C337.52 350.817 292.625 477.863 281.295 509.833C279.764 514.153 275.49 516.859 270.933 516.37C242.181 513.285 225.163 508.922 201.48 492.523C201.48 492.523 245.577 332.801 262.728 296.568Z" fill="url(#paint1_linear_343_400)"/>
<path d="M260.368 304.752C277.727 271.433 352.873 300.573 343.653 330.005C335.62 355.647 292.345 478.457 281.331 509.669C279.82 513.951 275.615 516.653 271.097 516.203C242.025 513.302 223.489 507.98 199.837 493.046C199.837 493.046 243.009 338.071 260.368 304.752Z" fill="#B6C8E8"/>
<path d="M274.665 303.149C282.919 295.935 283.337 302.606 283.337 302.606C272.103 322.713 259.977 357.31 257.788 359.792C255.6 362.273 255.161 355.268 255.161 355.268C258.037 331.243 266.411 310.364 274.665 303.149Z" fill="#D4E0F7"/>
<path d="M227.74 421.642C227.74 421.642 229.869 407.038 231.362 395.924L210.621 371.916L188.9 390.231L177.557 399.933C177.5 410.745 210.905 448.806 213.704 445.703C216.503 442.6 227.74 421.642 227.74 421.642Z" fill="#855138"/>
<path d="M249.339 344.447C251.594 333.31 241.25 328.829 233.032 339.099C224.815 349.369 210.544 371.974 210.544 371.974L231.027 396.926C231.027 396.926 247.084 355.584 249.339 344.447Z" fill="#855138"/>
<path d="M239.798 346.126C240.678 345.278 241.951 343.784 243.098 342.236C244.237 340.7 245.299 339.046 245.714 337.886C245.895 337.38 245.894 336.811 245.672 336.3C245.351 335.563 244.81 335.146 244.144 334.854C243.656 334.641 243.061 334.479 242.416 334.304C242.226 334.253 242.032 334.2 241.836 334.145C240.678 333.819 239.365 333.855 238.295 334.587C237.097 335.406 235.572 336.606 234.245 337.935C232.934 339.249 231.756 340.749 231.344 342.169C231.065 343.13 231.494 344.068 232.142 344.674C234.018 346.427 236.699 347.302 238.663 346.792C239.118 346.674 239.495 346.417 239.798 346.126Z" fill="#855138" stroke="#643B2F"/>
<path d="M340.975 338.443C340.975 338.443 339.765 338.442 347.755 336.568C355.746 334.693 358 348.578 353.238 351.11C348.476 353.641 337.237 356.347 337.237 356.347L333.289 356.347L340.975 338.443Z" fill="#855138"/>
<path d="M317.35 359.409C317.35 359.409 324.117 356.509 333.918 355.937C343.719 355.365 345.436 364.966 339.07 369.834C332.705 374.702 329.906 373.171 321.805 373.408C313.703 373.645 310.655 364.231 317.35 359.409Z" fill="#855138"/>
<path d="M313.516 377.571C313.516 377.571 320.283 374.671 330.084 374.099C339.885 373.527 342.087 382.048 335.722 386.916C329.356 391.784 326.072 391.334 317.971 391.571C309.869 391.808 306.821 382.394 313.516 377.571Z" fill="#855138"/>
<path d="M309.535 392.771C309.535 392.771 314.975 390.481 322.861 390.043C330.746 389.605 331.877 400.219 327.632 401.663C323.387 403.106 319.66 403.709 313.142 403.885C306.623 404.06 304.155 396.587 309.535 392.771Z" fill="#855138"/>
<path d="M317.478 365.75C317.3 364.171 317.918 362.459 319.391 361.863C320.716 361.326 322.298 361.369 324.696 361.844C325.317 361.967 325.914 362.201 326.448 362.54C330.29 364.976 330.825 366.742 328.104 369.713C327.499 370.372 326.708 370.83 325.857 371.108C324.364 371.594 323.174 371.915 321.758 371.775C320.568 371.658 319.541 370.904 318.91 369.889C318.058 368.518 317.651 367.282 317.478 365.75Z" fill="#855138" stroke="#653129" stroke-linejoin="round"/>
<path d="M318.211 376.888C315.576 377.32 313.659 378.037 311.981 379.918C311.649 380.291 311.402 380.734 311.261 381.214C310.938 382.321 310.867 383.328 311.104 384.371C311.338 385.404 311.864 386.435 312.671 387.605C313.611 388.97 315.307 389.6 316.911 389.216C318.572 388.818 320.048 388.278 321.301 387.382C322.561 386.481 323.567 385.241 324.318 383.486C324.599 382.829 324.673 382.102 324.541 381.404C324.216 379.688 323.646 378.6 322.731 377.919C321.84 377.256 320.7 377.041 319.419 376.872C319.02 376.819 318.612 376.823 318.211 376.888Z" fill="#855138" stroke="#653129"/>
<path d="M313.75 393.494C312.065 393.795 310.781 394.293 309.655 395.502C309.313 395.869 309.064 396.319 308.939 396.808C308.772 397.457 308.729 398.067 308.834 398.691C308.938 399.312 309.184 399.919 309.561 400.567C310.419 402.042 312.215 402.699 313.829 402.207C315.741 401.623 317.233 400.638 318.198 398.548C318.497 397.9 318.574 397.168 318.422 396.473C318.187 395.397 317.791 394.672 317.161 394.202C316.552 393.747 315.793 393.587 314.985 393.473C314.577 393.416 314.16 393.421 313.75 393.494Z" fill="#855138" stroke="#653129"/>
<path d="M379.474 175.518L360.513 133.01L378.072 125.177C381.255 123.758 384.258 123.107 387.081 123.224C389.912 123.322 392.432 124.156 394.642 125.725C396.845 127.28 398.595 129.511 399.891 132.417C401.206 135.364 401.68 138.156 401.313 140.792C400.939 143.414 399.81 145.792 397.925 147.927C396.034 150.048 393.47 151.83 390.232 153.275L379.128 158.228L375.517 150.133L384.712 146.031C386.261 145.34 387.466 144.562 388.325 143.698C389.191 142.814 389.709 141.836 389.878 140.765C390.041 139.681 389.83 138.481 389.243 137.166C388.657 135.852 387.903 134.886 386.98 134.269C386.052 133.638 384.966 133.342 383.723 133.382C382.474 133.409 381.082 133.764 379.546 134.45L374.481 136.709L389.748 170.935L379.474 175.518ZM394.74 145.416L413.991 160.122L402.783 165.121L383.739 150.323L394.74 145.416Z" fill="#FDA758"/>
<path d="M431.389 154.441C427.96 155.697 424.753 156.106 421.769 155.666C418.793 155.208 416.175 153.964 413.915 151.936C411.664 149.889 409.9 147.122 408.623 143.637C407.382 140.251 406.966 137.047 407.376 134.024C407.78 130.988 408.94 128.319 410.857 126.02C412.768 123.706 415.374 121.944 418.675 120.734C421.008 119.88 423.275 119.46 425.476 119.477C427.676 119.494 429.742 119.955 431.671 120.862C433.601 121.768 435.34 123.124 436.889 124.929C438.433 126.719 439.697 128.958 440.682 131.647L441.636 134.251L413.147 144.69L410.927 138.629L429.706 131.748C429.285 130.644 428.66 129.751 427.829 129.071C426.999 128.391 426.047 127.973 424.974 127.818C423.909 127.643 422.801 127.767 421.649 128.189C420.482 128.617 419.533 129.263 418.801 130.128C418.064 130.979 417.589 131.952 417.377 133.046C417.16 134.126 417.243 135.234 417.626 136.368L419.886 142.535C420.376 143.872 421.069 144.95 421.966 145.767C422.857 146.57 423.888 147.072 425.059 147.272C426.229 147.472 427.483 147.327 428.821 146.837C429.745 146.499 430.538 146.063 431.198 145.531C431.858 144.998 432.367 144.384 432.725 143.688C433.084 142.992 433.265 142.232 433.269 141.407L442.953 138.174C443.341 140.468 443.152 142.659 442.384 144.748C441.626 146.817 440.32 148.691 438.466 150.371C436.607 152.036 434.248 153.393 431.389 154.441Z" fill="#FDA758"/>
<path d="M473.016 114.709L463.323 117.912C463.012 117.246 462.551 116.712 461.94 116.311C461.324 115.895 460.607 115.644 459.79 115.558C458.983 115.452 458.108 115.542 457.165 115.826C455.932 116.197 454.954 116.76 454.232 117.515C453.525 118.266 453.305 119.06 453.573 119.898C453.755 120.555 454.186 121.042 454.867 121.359C455.563 121.672 456.658 121.762 458.152 121.628L464.961 120.908C468.49 120.542 471.29 120.854 473.36 121.845C475.445 122.831 476.862 124.541 477.61 126.974C478.286 129.271 478.204 131.471 477.366 133.574C476.542 135.674 475.111 137.544 473.074 139.186C471.032 140.813 468.517 142.077 465.528 142.977C460.755 144.413 456.695 144.567 453.349 143.439C450.013 142.291 447.651 140.122 446.264 136.932L456.696 133.507C457.295 134.656 458.177 135.403 459.341 135.749C460.505 136.094 461.842 136.04 463.351 135.586C464.715 135.175 465.748 134.587 466.451 133.822C467.154 133.056 467.387 132.251 467.148 131.405C466.906 130.655 466.391 130.153 465.603 129.9C464.81 129.632 463.678 129.577 462.207 129.736L456.04 130.381C452.505 130.781 449.672 130.408 447.539 129.262C445.401 128.101 443.956 126.242 443.201 123.684C442.514 121.454 442.535 119.367 443.263 117.423C443.987 115.465 445.332 113.731 447.298 112.221C449.265 110.712 451.757 109.503 454.775 108.594C459.301 107.232 463.157 107.107 466.34 108.222C469.52 109.322 471.745 111.484 473.016 114.709Z" fill="#FDA758"/>
<path d="M497.498 97.4631L499.489 105.399L478.127 110.756L476.137 102.82L497.498 97.4631ZM478.578 93.5854L489.358 90.8821L497.213 122.207C497.379 122.869 497.617 123.379 497.926 123.739C498.246 124.081 498.633 124.288 499.089 124.361C499.541 124.42 500.054 124.377 500.627 124.233C501.038 124.13 501.463 123.985 501.9 123.797C502.348 123.591 502.682 123.429 502.903 123.311L506.486 130.684C506.008 130.96 505.327 131.326 504.441 131.782C503.571 132.235 502.496 132.653 501.218 133.036C498.719 133.787 496.478 134.037 494.493 133.785C492.52 133.515 490.866 132.742 489.531 131.468C488.211 130.19 487.278 128.401 486.732 126.101L478.578 93.5854Z" fill="#FDA758"/>
<path d="M526.536 127.502C522.943 128.236 519.705 128.132 516.822 127.19C513.951 126.231 511.547 124.572 509.612 122.215C507.688 119.84 506.369 116.901 505.653 113.397C504.934 109.879 504.995 106.658 505.835 103.733C506.688 100.791 508.248 98.3225 510.516 96.3281C512.795 94.3158 515.731 92.9426 519.324 92.2085C522.916 91.4744 526.148 91.5872 529.02 92.5469C531.903 93.4887 534.306 95.1472 536.23 97.5223C538.165 99.8795 539.492 102.817 540.211 106.335C540.927 109.839 540.859 113.062 540.007 116.004C539.166 118.929 537.606 121.397 535.326 123.409C533.058 125.404 530.128 126.768 526.536 127.502ZM524.924 119.272C526.23 119.005 527.254 118.378 527.996 117.391C528.737 116.405 529.2 115.15 529.384 113.628C529.583 112.103 529.491 110.405 529.109 108.535C528.72 106.634 528.136 105.022 527.355 103.697C526.588 102.369 525.671 101.397 524.601 100.78C523.532 100.163 522.344 99.9886 521.038 100.256C519.687 100.532 518.626 101.166 517.854 102.159C517.098 103.148 516.62 104.406 516.422 105.931C516.238 107.453 516.34 109.164 516.728 111.064C517.11 112.935 517.685 114.534 518.451 115.862C519.232 117.187 520.165 118.156 521.249 118.77C522.348 119.38 523.573 119.548 524.924 119.272Z" fill="#FDA758"/>
<path d="M547.61 122.699L542.06 88.2336L552.718 86.5175L553.73 92.8002L554.089 92.7424C554.351 90.3675 555.103 88.5121 556.346 87.1763C557.587 85.8256 559.149 84.9985 561.034 84.695C561.543 84.6131 562.072 84.5662 562.623 84.5543C563.171 84.5274 563.688 84.5439 564.173 84.6039L565.709 94.1402C565.156 94.045 564.445 94.0136 563.576 94.0462C562.721 94.0764 561.965 94.1445 561.307 94.2505C560.005 94.46 558.878 94.9408 557.925 95.6928C556.984 96.4274 556.298 97.359 555.866 98.4875C555.446 99.5986 555.347 100.842 555.569 102.219L558.582 120.932L547.61 122.699Z" fill="#FDA758"/>
<path d="M589.947 117.146C586.322 117.582 583.107 117.243 580.302 116.131C577.511 115.001 575.249 113.19 573.514 110.698C571.793 108.188 570.711 105.091 570.268 101.405C569.838 97.8249 570.168 94.6109 571.26 91.7632C572.351 88.9004 574.092 86.5697 576.486 84.7711C578.877 82.9575 581.818 81.8409 585.308 81.4212C587.775 81.1246 590.078 81.2369 592.216 81.7581C594.354 82.2793 596.258 83.2025 597.928 84.5277C599.598 85.853 600.98 87.5715 602.073 89.6834C603.165 91.7802 603.882 94.2502 604.223 97.0933L604.554 99.8462L574.431 103.468L573.66 97.06L593.517 94.6724C593.361 93.5008 592.957 92.4888 592.305 91.6363C591.653 90.7837 590.822 90.1587 589.813 89.7612C588.817 89.3469 587.71 89.2129 586.491 89.3595C585.258 89.5078 584.186 89.919 583.275 90.5932C582.362 91.2523 581.677 92.0901 581.219 93.1066C580.76 94.108 580.586 95.2047 580.699 96.3967L581.483 102.918C581.653 104.332 582.081 105.54 582.766 106.541C583.449 107.527 584.338 108.252 585.431 108.715C586.525 109.179 587.778 109.326 589.192 109.156C590.17 109.038 591.041 108.796 591.806 108.43C592.571 108.063 593.207 107.582 593.716 106.987C594.224 106.391 594.575 105.693 594.769 104.891L604.935 103.967C604.787 106.289 604.1 108.378 602.874 110.235C601.66 112.075 599.959 113.599 597.769 114.809C595.578 116.003 592.971 116.782 589.947 117.146Z" fill="#FDA758"/>
<path d="M666.119 78.0046C665.904 76.3449 665.182 75.0758 663.95 74.1975C662.734 73.3034 661.028 72.8979 658.833 72.981C657.379 73.036 656.175 73.271 655.22 73.6862C654.266 74.1014 653.559 74.6512 653.099 75.3357C652.64 76.0051 652.418 76.764 652.435 77.6125C652.431 78.3101 652.59 78.9181 652.913 79.4366C653.251 79.9545 653.723 80.4067 654.329 80.7931C654.95 81.1639 655.69 81.4846 656.549 81.7554C657.408 82.0261 658.372 82.255 659.441 82.442L663.472 83.1993C665.792 83.6119 667.847 84.2013 669.634 84.9676C671.437 85.7333 672.959 86.6689 674.198 87.7744C675.453 88.8793 676.419 90.1694 677.097 91.6449C677.774 93.1203 678.156 94.7889 678.241 96.6506C678.337 99.5885 677.691 102.137 676.302 104.298C674.913 106.458 672.861 108.15 670.148 109.375C667.45 110.599 664.163 111.284 660.287 111.431C656.396 111.578 652.982 111.123 650.046 110.067C647.11 109.01 644.795 107.324 643.1 105.008C641.405 102.691 640.466 99.717 640.284 96.085L651.049 95.6778C651.196 97.1733 651.645 98.4072 652.394 99.3796C653.143 100.352 654.149 101.072 655.41 101.54C656.686 102.007 658.149 102.21 659.799 102.147C661.313 102.09 662.593 101.837 663.637 101.388C664.697 100.938 665.5 100.339 666.048 99.5909C666.596 98.8424 666.86 97.9985 666.839 97.0592C666.791 96.1816 666.49 95.4424 665.937 94.8417C665.383 94.2258 664.545 93.7117 663.422 93.2993C662.314 92.8712 660.905 92.4923 659.194 92.1628L654.291 91.2111C650.229 90.4399 647 89.0685 644.606 87.097C642.211 85.1103 640.954 82.3528 640.836 78.8245C640.712 75.9483 641.389 73.3982 642.867 71.1741C644.344 68.95 646.438 67.1802 649.148 65.8647C651.857 64.5492 654.976 63.8247 658.504 63.6913C662.107 63.555 665.257 64.0499 667.953 65.1761C670.664 66.2866 672.795 67.9117 674.347 70.0516C675.898 72.1914 676.744 74.7067 676.884 77.5974L666.119 78.0046Z" fill="#AAABEA"/>
<path d="M703.785 110.805C700.134 110.778 696.988 110.034 694.347 108.575C691.722 107.101 689.707 105.018 688.303 102.326C686.913 99.6185 686.233 96.4088 686.26 92.6968C686.287 89.0908 687.023 85.9447 688.467 83.2584C689.911 80.5569 691.934 78.4658 694.536 76.985C697.138 75.4892 700.197 74.7543 703.712 74.7804C706.197 74.7988 708.467 75.202 710.521 75.99C712.576 76.778 714.348 77.9351 715.837 79.4614C717.325 80.9876 718.478 82.8674 719.295 85.1008C720.112 87.3191 720.51 89.86 720.488 92.7235L720.468 95.4962L690.128 95.271L690.176 88.8166L710.175 88.9651C710.169 87.7832 709.896 86.7281 709.358 85.7998C708.819 84.8716 708.074 84.1463 707.124 83.6241C706.188 83.0868 705.107 82.8137 703.88 82.8045C702.637 82.7953 701.522 83.0674 700.533 83.6206C699.544 84.1588 698.758 84.903 698.175 85.8532C697.592 86.7883 697.281 87.8542 697.242 89.0509L697.193 95.6189C697.183 97.0431 697.454 98.2952 698.007 99.3751C698.559 100.44 699.349 101.271 700.374 101.87C701.4 102.469 702.625 102.773 704.05 102.784C705.034 102.791 705.929 102.661 706.734 102.394C707.539 102.128 708.232 101.731 708.811 101.205C709.391 100.679 709.828 100.031 710.121 99.2604L720.323 99.6316C719.882 101.916 718.936 103.902 717.484 105.588C716.047 107.259 714.166 108.556 711.841 109.478C709.516 110.385 706.831 110.827 703.785 110.805Z" fill="#AFB3EB"/>
<path d="M735.396 64.3229L733.728 110.838L722.622 110.44L724.289 63.9247L735.396 64.3229Z" fill="#AFB3EB"/>
<path d="M766.565 77.6511L766.068 85.8178L743.655 84.4537L744.152 76.287L766.565 77.6511ZM746.705 111.416L748.933 74.802C749.097 72.11 749.739 69.9101 750.86 68.2023C751.982 66.4794 753.47 65.2341 755.323 64.4665C757.177 63.6838 759.283 63.3642 761.643 63.5078C763.185 63.6016 764.63 63.811 765.976 64.1358C767.339 64.4464 768.347 64.7127 769.001 64.9347L766.738 72.9483C766.338 72.7874 765.846 72.6436 765.261 72.5169C764.692 72.3912 764.15 72.3127 763.636 72.2814C762.336 72.2023 761.426 72.4353 760.907 72.9805C760.388 73.5258 760.098 74.2975 760.037 75.2956L757.798 112.091L746.705 111.416Z" fill="#AFB3EB"/>
<path d="M826.42 88.8912L815.129 87.606C815.111 86.4297 814.921 85.3483 814.561 84.3618C814.2 83.3754 813.674 82.5072 812.981 81.7575C812.289 81.0077 811.436 80.3997 810.421 79.9335C809.424 79.454 808.293 79.1422 807.028 78.9983C804.785 78.743 802.788 79.0723 801.037 79.9862C799.301 80.9018 797.878 82.3487 796.769 84.3268C795.674 86.3066 794.959 88.7719 794.623 91.7225C794.273 94.7936 794.417 97.4176 795.054 99.5944C795.707 101.758 796.772 103.457 798.248 104.693C799.74 105.915 801.585 106.651 803.783 106.901C805.018 107.042 806.157 107.011 807.202 106.81C808.262 106.61 809.21 106.253 810.046 105.738C810.899 105.21 811.624 104.538 812.22 103.721C812.833 102.891 813.301 101.931 813.623 100.839L824.906 102.192C824.477 104.217 823.653 106.166 822.433 108.04C821.229 109.916 819.675 111.577 817.772 113.022C815.871 114.453 813.631 115.51 811.052 116.192C808.489 116.876 805.619 117.037 802.442 116.676C798.257 116.2 794.613 114.855 791.51 112.641C788.424 110.414 786.126 107.423 784.617 103.668C783.108 99.9122 782.642 95.4979 783.219 90.4246C783.799 85.3362 785.26 81.1336 787.605 77.8169C789.95 74.5002 792.883 72.112 796.404 70.6523C799.925 69.1927 803.74 68.6967 807.85 69.1645C810.65 69.4832 813.195 70.1694 815.484 71.2229C817.775 72.2614 819.739 73.6287 821.376 75.3247C823.015 77.0056 824.276 78.9867 825.16 81.268C826.044 83.5493 826.464 86.0903 826.42 88.8912Z" fill="#AFB3EB"/>
<path d="M840.887 121.72C838.688 121.366 836.795 120.685 835.208 119.677C833.638 118.657 832.48 117.319 831.734 115.664C831.005 113.997 830.824 112.026 831.19 109.752C831.499 107.838 832.096 106.276 832.981 105.068C833.866 103.861 834.966 102.94 836.28 102.308C837.595 101.676 839.056 101.275 840.664 101.104C842.275 100.919 843.967 100.892 845.742 101.025C847.73 101.161 849.338 101.228 850.566 101.227C851.797 101.21 852.711 101.058 853.31 100.771C853.926 100.471 854.291 99.9699 854.404 99.2668L854.422 99.1546C854.608 98.0028 854.355 97.0489 853.664 96.2929C852.972 95.5368 851.953 95.0503 850.607 94.8334C849.156 94.5995 847.939 94.7256 846.955 95.2116C845.971 95.6977 845.27 96.4749 844.852 97.5432L834.791 95.5533C835.428 93.5074 836.499 91.7617 838.006 90.3164C839.53 88.8585 841.46 87.8343 843.796 87.2439C846.149 86.6409 848.866 86.5878 851.948 87.0844C854.147 87.4388 856.131 88.0272 857.902 88.8497C859.675 89.6572 861.17 90.6655 862.387 91.8745C863.606 93.0686 864.475 94.4365 864.994 95.9781C865.528 97.5221 865.648 99.2066 865.354 101.031L861.579 124.456L851.257 122.793L852.031 117.991L851.762 117.948C850.961 119.016 850.016 119.877 848.929 120.53C847.856 121.186 846.644 121.612 845.293 121.809C843.956 122.008 842.487 121.978 840.887 121.72ZM845.432 115.086C846.614 115.277 847.714 115.208 848.734 114.882C849.769 114.557 850.637 114.022 851.341 113.276C852.047 112.515 852.49 111.574 852.671 110.452L853.199 107.176C852.858 107.29 852.453 107.378 851.982 107.44C851.527 107.505 851.028 107.555 850.485 107.59C849.942 107.625 849.386 107.643 848.819 107.644C848.251 107.644 847.706 107.641 847.186 107.634C846.127 107.632 845.203 107.744 844.415 107.97C843.642 108.198 843.016 108.558 842.538 109.049C842.077 109.527 841.786 110.14 841.666 110.888C841.483 112.025 841.747 112.958 842.458 113.686C843.184 114.417 844.176 114.884 845.432 115.086Z" fill="#AAABEA"/>
<path d="M867.85 125.636L874.592 91.3842L885.184 93.469L883.955 99.7128L884.312 99.783C885.381 97.6463 886.73 96.1668 888.359 95.3447C889.991 94.5077 891.743 94.2735 893.616 94.6422C894.122 94.7417 894.635 94.8812 895.155 95.0609C895.679 95.2257 896.158 95.4204 896.592 95.6449L894.727 105.122C894.242 104.841 893.586 104.566 892.759 104.295C891.947 104.027 891.214 103.828 890.56 103.7C889.266 103.445 888.042 103.505 886.887 103.88C885.75 104.243 884.784 104.879 883.987 105.788C883.208 106.685 882.684 107.817 882.415 109.185L878.755 127.782L867.85 125.636Z" fill="#AAABEA"/>
<path d="M907.374 134.586C903.818 133.755 900.913 132.337 898.659 130.332C896.423 128.315 894.917 125.839 894.14 122.904C893.382 119.957 893.426 116.676 894.27 113.061C895.091 109.55 896.502 106.643 898.503 104.341C900.507 102.024 902.941 100.431 905.806 99.5597C908.673 98.6741 911.819 98.6313 915.242 99.4314C917.661 99.997 919.786 100.891 921.617 102.112C923.448 103.334 924.921 104.853 926.037 106.669C927.152 108.486 927.862 110.574 928.167 112.932C928.475 115.276 928.303 117.842 927.651 120.631L927.02 123.331L897.475 116.424L898.945 110.139L918.42 114.692C918.674 113.538 918.641 112.448 918.32 111.424C917.999 110.4 917.433 109.529 916.62 108.81C915.826 108.079 914.832 107.575 913.637 107.295C912.427 107.012 911.279 107.032 910.192 107.354C909.109 107.661 908.178 108.213 907.401 109.012C906.626 109.795 906.088 110.767 905.786 111.925L904.291 118.321C903.967 119.708 903.955 120.989 904.256 122.164C904.561 123.324 905.147 124.31 906.016 125.119C906.885 125.929 908.012 126.496 909.399 126.821C910.358 127.045 911.26 127.115 912.104 127.033C912.948 126.95 913.711 126.716 914.392 126.33C915.073 125.945 915.642 125.409 916.098 124.722L925.968 127.333C925.034 129.464 923.673 131.192 921.885 132.517C920.115 133.83 917.995 134.68 915.524 135.067C913.056 135.44 910.34 135.279 907.374 134.586Z" fill="#AAABEA"/>
<path d="M956.647 146.823L945.109 143.207L974.018 103.49L988.31 107.971L989.372 157.083L977.834 153.466L977.819 116.972L977.472 116.863L956.647 146.823ZM960.587 128.861L984.702 136.421L982.146 144.576L958.03 137.016L960.587 128.861Z" fill="#AFB3EB"/>
<path d="M985.617 169.733L1002.62 124.847L1012.91 128.744L1010.79 134.333L1011.11 134.454C1011.91 133.623 1012.88 132.895 1014 132.269C1015.15 131.649 1016.44 131.279 1017.88 131.16C1019.33 131.032 1020.92 131.293 1022.64 131.942C1024.9 132.801 1026.79 134.199 1028.31 136.135C1029.85 138.077 1030.75 140.518 1031.03 143.46C1031.31 146.401 1030.72 149.791 1029.27 153.631C1027.87 157.329 1026.11 160.202 1023.98 162.25C1021.88 164.304 1019.6 165.578 1017.14 166.073C1014.7 166.574 1012.27 166.368 1009.86 165.455C1008.22 164.833 1006.9 164.024 1005.9 163.029C1004.9 162.035 1004.15 160.942 1003.67 159.753C1003.19 158.568 1002.92 157.39 1002.87 156.217L1002.65 156.137L996.01 173.67L985.617 169.733ZM1006.62 145.026C1005.95 146.783 1005.61 148.402 1005.58 149.882C1005.57 151.368 1005.87 152.642 1006.49 153.703C1007.13 154.755 1008.08 155.519 1009.34 155.997C1010.62 156.48 1011.83 156.537 1013 156.167C1014.16 155.782 1015.22 155.024 1016.17 153.892C1017.13 152.766 1017.94 151.324 1018.61 149.567C1019.27 147.81 1019.62 146.199 1019.64 144.732C1019.67 143.271 1019.38 142.017 1018.75 140.971C1018.14 139.929 1017.19 139.164 1015.9 138.676C1014.63 138.193 1013.41 138.129 1012.26 138.485C1011.1 138.841 1010.04 139.573 1009.07 140.68C1008.11 141.792 1007.3 143.241 1006.62 145.026Z" fill="#AAABEA"/>
<path d="M1023.96 184.398L1043.79 140.686L1053.8 145.231L1051.34 150.674L1051.65 150.815C1052.5 150.037 1053.51 149.371 1054.67 148.819C1055.85 148.273 1057.16 147.986 1058.61 147.958C1060.07 147.923 1061.64 148.285 1063.31 149.042C1065.51 150.044 1067.31 151.559 1068.71 153.588C1070.11 155.623 1070.86 158.118 1070.95 161.071C1071.04 164.024 1070.24 167.37 1068.54 171.109C1066.91 174.71 1064.97 177.465 1062.72 179.374C1060.49 181.289 1058.13 182.416 1055.65 182.754C1053.18 183.098 1050.77 182.738 1048.43 181.674C1046.83 180.948 1045.56 180.056 1044.62 179C1043.69 177.944 1043.02 176.806 1042.6 175.588C1042.2 174.375 1042.01 173.182 1042.03 172.009L1041.82 171.915L1034.08 188.99L1023.96 184.398ZM1046.49 161.079C1045.71 162.79 1045.27 164.383 1045.14 165.859C1045.04 167.342 1045.26 168.632 1045.81 169.73C1046.38 170.82 1047.28 171.644 1048.51 172.201C1049.75 172.765 1050.96 172.899 1052.14 172.603C1053.33 172.294 1054.43 171.605 1055.45 170.535C1056.48 169.473 1057.39 168.086 1058.16 166.375C1058.94 164.664 1059.38 163.077 1059.5 161.615C1059.63 160.159 1059.41 158.889 1058.86 157.805C1058.31 156.727 1057.41 155.903 1056.16 155.333C1054.92 154.77 1053.71 154.629 1052.53 154.911C1051.36 155.193 1050.25 155.855 1049.21 156.898C1048.19 157.947 1047.28 159.34 1046.49 161.079Z" fill="#AFB3EB"/>
</g>
<defs>
<filter id="filter0_f_343_400" x="309.135" y="353.3" width="212.818" height="230.796" filterUnits="userSpaceOnUse" color-interpolation-filters="sRGB">
<feFlood flood-opacity="0" result="BackgroundImageFix"/>
<feBlend mode="normal" in="SourceGraphic" in2="BackgroundImageFix" result="shape"/>
<feGaussianBlur stdDeviation="25" result="effect1_foregroundBlur_343_400"/>
</filter>
<linearGradient id="paint0_linear_343_400" x1="292.759" y1="271.247" x2="345.712" y2="288.021" gradientUnits="userSpaceOnUse">
<stop offset="0.119884" stop-color="#B6C8E8"/>
<stop offset="0.683049" stop-color="#74A3D7"/>
<stop offset="1" stop-color="#2C3641"/>
</linearGradient>
<linearGradient id="paint1_linear_343_400" x1="266.119" y1="281.698" x2="351.301" y2="307.761" gradientUnits="userSpaceOnUse">
<stop stop-color="#516E8D"/>
<stop offset="0.155208" stop-color="#74A3D7"/>
<stop offset="0.35156" stop-color="#B6C8E8"/>
<stop offset="0.596354" stop-color="#8AAFDC"/>
<stop offset="0.86875" stop-color="#92B4DF"/>
<stop offset="1" stop-color="#4F6B8A"/>
</linearGradient>
<clipPath id="clip0_343_400">
<rect width="1440" height="756" fill="white"/>
</clipPath>
</defs>
</svg>
