<svg width="1440" height="756" viewBox="0 0 1440 756" fill="none" xmlns="http://www.w3.org/2000/svg">
<g clip-path="url(#clip0_643_5431)">
<rect width="1440" height="756" fill="#232221"/>
<path d="M1244.75 272.314C1184.82 243.87 1141.56 232.33 1083.06 222.322C1079.65 221.738 1076.7 224.733 1077.34 228.139C1089.82 293.813 1110.16 340.384 1139.7 385.256C1140.81 386.935 1142.83 387.784 1144.81 387.387C1174.73 381.357 1198.28 369.231 1215.43 350.892C1232.58 332.554 1243.25 308.08 1247.55 277.48C1247.85 275.335 1246.69 273.237 1244.75 272.314Z" fill="#E08717" stroke="#4A310C" stroke-width="2" stroke-linejoin="round"/>
<ellipse cx="14.3236" cy="13.5891" rx="14.3236" ry="13.5891" transform="matrix(0.963872 -0.266365 -0.266365 -0.963872 1126.98 302.283)" fill="#942828"/>
<ellipse cx="14.3236" cy="13.5891" rx="14.3236" ry="13.5891" transform="matrix(0.963872 -0.266365 -0.266365 -0.963872 1178.12 288.21)" fill="#942828"/>
<ellipse cx="14.3236" cy="13.5891" rx="14.3236" ry="13.5891" transform="matrix(0.963872 -0.266365 -0.266365 -0.963872 1151.08 361.923)" fill="#942828"/>
<ellipse cx="1191.98" cy="312.431" rx="14.3236" ry="13.5891" transform="rotate(-15.4481 1191.98 312.431)" fill="#942828"/>
<ellipse cx="1101.08" cy="245.806" rx="14.3236" ry="13.5891" transform="rotate(-15.4481 1101.08 245.806)" fill="#942828"/>
<path d="M1102.18 272.273C1105.8 263.594 1114.78 263.946 1119.07 272.935L1102.18 272.273Z" fill="#AB7A4E"/>
<path d="M1107.35 271.741L1112.49 271.942L1112.09 282.218C1109.88 283.367 1108.76 283.334 1106.95 282.016L1107.35 271.741Z" fill="#AB7A4E"/>
<path d="M1217.01 272.187C1231.31 268.964 1238.95 280.709 1231.38 294.253L1217.01 272.187Z" fill="#AB7A4E"/>
<path d="M1222.35 278.278L1226.72 284.994L1213.29 293.737C1209.84 291.97 1208.87 290.508 1208.91 287.021L1222.35 278.278Z" fill="#AB7A4E"/>
<path d="M1150.53 319.006C1144.54 310.297 1150.36 302.034 1161.46 303.482L1150.53 319.006Z" fill="#AB7A4E"/>
<path d="M1153.18 313.805L1156.51 309.081L1165.96 315.737C1165.7 318.517 1164.98 319.56 1162.63 320.461L1153.18 313.805Z" fill="#AB7A4E"/>
<ellipse cx="1159.66" cy="260.94" rx="3.30545" ry="5.50908" transform="rotate(-15.4481 1159.66 260.94)" fill="#588223"/>
<ellipse cx="1132.59" cy="323.975" rx="3.30545" ry="5.50908" transform="rotate(-34.0016 1132.59 323.975)" fill="#588223"/>
<ellipse cx="1193.12" cy="338.524" rx="3.30545" ry="5.50908" transform="rotate(5.67271 1193.12 338.524)" fill="#588223"/>
<ellipse cx="1134.27" cy="247.305" rx="3.30545" ry="5.50908" transform="rotate(-33.0925 1134.27 247.305)" fill="#588223"/>
<path d="M1184.11 421.45C1207.94 388.116 1226.2 370.596 1277.76 349.832L1438.99 449.362V690.293H1352.68L1184.11 421.45Z" fill="#573353"/>
<path d="M1162.07 382.152L1236.63 326.694L1258.66 353.505L1269.68 358.321C1247.9 399.451 1205.04 420.431 1196.23 417.084C1187.41 413.738 1162.07 382.152 1162.07 382.152Z" fill="#8B432A"/>
<path d="M1215.32 331.836C1215.32 331.836 1236.26 325.184 1236.63 326.694C1236.99 328.205 1193.29 361.891 1162.07 382.194C1177.49 371.02 1185.39 365.902 1215.32 331.836Z" fill="#8B432A"/>
<path d="M1200.34 291.515C1200.34 279.028 1212.46 276.457 1219.07 289.312C1225.68 302.166 1236.7 326.773 1236.7 326.773L1214.66 332.65C1214.66 332.65 1200.34 304.003 1200.34 291.515Z" fill="#8B432A"/>
<line x1="1208.84" y1="348.491" x2="1206.63" y2="360.978" stroke="#BF5C38"/>
<path d="M1184.11 421.45C1219.29 413.503 1239.6 400.556 1277.76 349.832L1438.99 449.362V758.279H1366.27L1184.11 421.45Z" fill="#74A3D7"/>
<path d="M1197.33 418.921L1398.23 756.077" stroke="#57455E" stroke-width="4"/>
<path d="M1213.86 411.208L1440.09 756.077" stroke="#57455E" stroke-width="4"/>
<path d="M1230.02 402.026L1445.24 686.295" stroke="#57455E" stroke-width="4"/>
<path d="M1241.4 391.375L1440.1 603.659" stroke="#57455E" stroke-width="4"/>
<path d="M1251.32 381.459L1441.56 558.851" stroke="#57455E" stroke-width="4"/>
<path d="M1260.13 371.177L1439.72 522.493M1268.58 359.79L1451.85 494.946" stroke="#57455E" stroke-width="4"/>
<path d="M795.183 586.876C780.102 572.562 724.123 581.764 714.666 591.222L693.85 758.326H743.294L822.678 755.259L795.183 586.876Z" fill="#32378F"/>
<path d="M795.696 586.109C789.561 593.266 725.914 602.753 713.9 590.455L693.707 757.368H754.031H824.068L795.696 586.109Z" fill="#868AE0"/>
<path d="M712.879 608.347C747.453 616.193 766.909 614.514 797.997 603.491" stroke="#B6B6ED" stroke-width="4"/>
<path d="M712.111 617.294C746.686 625.139 768.186 623.716 799.274 612.693" stroke="#B6B6ED" stroke-width="4"/>
<path d="M699.852 497.923L828.935 542.655L819.222 573.84L692.439 530.641L699.852 497.923Z" fill="#923258"/>
<path d="M686.05 469.668C694.636 470.509 699.375 472.405 707.777 477.592C707.777 496.39 700.875 538.448 678.637 564.382C667.53 565.315 662.373 563.878 656.91 557.48C657.463 505.953 676.848 476.059 686.05 469.668Z" fill="#923258"/>
<path d="M857.639 524.971C850.69 519.857 845.899 518.099 836.182 516.342C827.147 524.971 806.187 574.606 806.187 602.212C813.824 610.331 823.153 611.498 831.492 610.392C846.829 585.853 862.233 554.435 857.639 524.971Z" fill="#923258"/>
<path d="M664.834 473.385C669.765 473.657 672.41 474.439 676.847 476.708C664.804 496.7 659.627 511.949 653.842 548.023C648.174 548.515 645.802 547.536 642.084 544.956C639.138 541.905 639.12 539.921 639.784 536.265C643.921 511.782 648.14 499.64 656.91 479.008C658.929 475.137 660.729 473.972 664.834 473.385Z" fill="#923258"/>
<path d="M645.153 498.69C648.987 499.713 648.261 500.756 648.731 499.968L643.875 516.838L640.041 514.794C639.187 507.611 641.318 497.668 645.153 498.69Z" fill="#923258"/>
<path d="M872.243 539.016C868.099 536.33 865.501 535.403 860.579 534.621C858.527 557.871 853.725 573.242 837.14 605.795C841.43 609.533 843.923 610.14 848.448 610.246C852.626 609.518 853.809 607.925 855.428 604.58C866.512 582.362 870.259 570.066 875.331 548.229C875.981 543.911 875.213 541.91 872.243 539.016Z" fill="#923258"/>
<path d="M873.232 571.059C869.532 569.625 869.503 570.896 869.588 569.983L863.57 586.475L867.873 587.082C872.795 581.782 876.933 572.492 873.232 571.059Z" fill="#923258"/>
<path d="M787.517 562.338L728.727 567.45L728.727 578.441L725.149 595.567C743.297 598.634 783.939 594.8 787.517 590.455C791.096 586.11 787.517 562.338 787.517 562.338Z" fill="#E79D68"/>
<path d="M740.74 546.49L726.425 550.835L728.726 568.217L731.026 568.217L787.261 562.593L740.74 546.49Z" fill="#E79D68"/>
<line y1="-0.5" x2="8.82503" y2="-0.5" transform="matrix(0.173785 0.984784 0.984784 -0.173785 753.01 553.903)" stroke="#D17941"/>
<path d="M729.118 522.86C722.965 516.722 715.741 521.429 718.825 531.005C721.909 540.581 728.617 558.105 728.617 558.105L742.344 550.137C742.344 550.137 735.27 528.998 729.118 522.86Z" fill="#E79D68"/>
<path d="M734.843 520.446C734.843 520.446 735.24 516.701 739.648 510.828C744.057 504.955 751.328 508.214 751.032 514.199C750.735 520.184 748.765 519.921 744.986 524.662C741.208 529.402 734.361 526.597 734.843 520.446Z" fill="#F39860"/>
<path d="M747.896 524.763C747.621 523.027 748.436 521.797 750.452 516.328C752.468 510.859 758.808 508.424 760.933 514.027C763.057 519.63 762.466 517.861 758.891 525.874C755.316 533.886 747.385 531.409 747.896 524.763Z" fill="#F39860"/>
<path d="M738.225 516.911C736.792 518.21 735.874 519.438 735.54 521.251C735.449 521.748 735.478 522.263 735.632 522.747C735.867 523.489 736.204 524.106 736.709 524.638C737.209 525.167 737.853 525.59 738.666 525.976C740.181 526.694 741.993 526.295 743.105 525.062C743.878 524.204 744.499 523.311 744.878 522.297C745.259 521.276 745.384 520.159 745.203 518.865C745.103 518.15 744.771 517.485 744.265 516.973C743.395 516.093 742.592 515.655 741.727 515.598C740.889 515.544 740.082 515.856 739.24 516.243C738.872 516.412 738.528 516.636 738.225 516.911Z" fill="#F39860" stroke="#D07A3F"/>
<path d="M750.79 521.817C749.461 523.027 748.601 524.177 748.281 525.864C748.186 526.362 748.216 526.88 748.373 527.366C748.591 528.038 748.9 528.603 749.356 529.093C749.808 529.58 750.385 529.971 751.109 530.327C752.618 531.068 754.446 530.663 755.547 529.416C756.958 527.817 757.766 526.113 757.446 523.711C757.35 522.994 757.017 522.325 756.506 521.815C755.696 521.008 754.944 520.603 754.13 520.551C753.343 520.501 752.587 520.791 751.806 521.149C751.437 521.317 751.093 521.542 750.79 521.817Z" fill="#F39860" stroke="#D07A3F"/>
<path d="M759.833 527.226C759.559 525.491 760.373 524.26 762.389 518.791C764.406 513.322 770.745 510.887 772.87 516.49C774.995 522.094 774.404 520.325 770.829 528.337C767.253 536.35 759.322 533.872 759.833 527.226Z" fill="#F39860"/>
<path d="M762.559 525.639C761.577 526.547 760.916 527.436 760.643 528.698C760.534 529.201 760.562 529.731 760.738 530.222C761.058 531.118 761.59 531.741 762.465 532.257C763.944 533.128 765.857 532.679 766.897 531.365C767.797 530.227 768.301 528.983 768.133 527.336C768.059 526.606 767.72 525.921 767.182 525.419C766.574 524.853 765.989 524.561 765.353 524.527C764.741 524.494 764.159 524.706 763.58 524.966C763.208 525.133 762.861 525.359 762.559 525.639Z" fill="#F39860" stroke="#D07A3F"/>
<path d="M771.08 530.805C770.805 529.069 771.619 527.839 773.636 522.369C775.652 516.9 781.991 514.466 784.116 520.069C786.241 525.672 785.65 523.903 782.075 531.916C778.5 539.928 770.568 537.45 771.08 530.805Z" fill="#F39860"/>
<path d="M774.071 530.387C773.357 531.062 772.855 531.742 772.621 532.673C772.493 533.181 772.519 533.729 772.72 534.227C772.923 534.73 773.22 535.132 773.654 535.473C775.06 536.575 777.139 536.03 778.073 534.622C778.587 533.847 778.868 532.991 778.802 531.937C778.756 531.195 778.413 530.482 777.835 529.996C777.38 529.612 776.928 529.412 776.438 529.392C775.968 529.373 775.525 529.524 775.101 529.708C774.722 529.872 774.373 530.102 774.071 530.387Z" fill="#F39860" stroke="#D07A3F"/>
<path d="M396.662 577.08C411.151 555.926 481.025 552.569 494.871 561.531L563.115 757.65L503.496 770.416L406.984 787.214L396.662 577.08Z" fill="#0F1F47"/>
<path d="M377.376 508.671C391.562 513.933 425.307 538.975 435.058 540.506C445.801 538.918 446.205 538.957 451.134 535.086L455.23 524.116L476.479 535.086L479.194 548.528L487.779 568.488C468.588 581.201 417.681 586.775 410.613 579.415C403.546 572.055 377.376 508.671 377.376 508.671Z" fill="#D7835E"/>
<path d="M466.892 489.444C472.726 480.454 482.638 484.036 481.392 496.378C480.146 508.721 476.35 535.778 476.35 535.778L454.601 528.214C454.601 528.214 461.058 498.434 466.892 489.444Z" fill="#D7835E"/>
<path d="M396.289 577.069C405.534 584.115 483.636 579.555 494.947 561.625L563.041 756.457L490.303 772.032L405.852 790.115L396.289 577.069Z" fill="#FDA758"/>
<path d="M501.881 581.167C462.217 599.553 434.745 600.394 397.55 597.872" stroke="#FFDEB7" stroke-width="4"/>
<path d="M482.038 431.561L449.108 546.392C448.577 548.242 447.119 549.68 445.261 550.184L435.823 552.745C435.096 552.943 434.334 552.989 433.595 552.874C420.237 550.78 411.151 546.743 400.16 541.861C396.476 540.224 392.578 538.493 388.234 536.707C387.831 536.542 387.445 536.329 387.093 536.076L386.045 535.322C384.146 533.955 383.319 531.537 383.984 529.293L417.144 417.476C417.887 414.972 420.289 413.335 422.891 413.56L471.427 417.758C472.837 417.88 474.146 418.541 475.082 419.604L477.361 422.194L480.973 426.52C482.142 427.92 482.541 429.808 482.038 431.561Z" fill="#706D80" stroke="#171518"/>
<path d="M474.723 423.39L441.307 538.169C441.09 538.914 440.718 539.605 440.215 540.195L437.196 543.745C436.046 545.096 434.321 545.816 432.579 545.611C416.755 543.757 404.447 537.882 390.839 531.228C389.278 530.464 388.168 529.007 387.848 527.299L386.853 522.001C386.693 521.146 386.738 520.265 386.984 519.431L417.116 417.251C417.853 414.753 420.24 413.115 422.835 413.325L470.441 417.176C472.365 417.332 474.015 418.609 474.648 420.433C474.979 421.387 475.006 422.421 474.723 423.39Z" fill="#56597A" stroke="#171518"/>
<g filter="url(#filter0_f_643_5431)">
<path d="M396.587 403.3L471.954 408.606L431.31 534.096L359.134 513.837L396.587 403.3Z" fill="#F5D49D" fill-opacity="0.5"/>
</g>
<path d="M387.841 515.166L415.783 423.038L472.99 427.912L442.731 532.416L387.841 515.166Z" fill="#F5D49D" stroke="black"/>
<path d="M418.283 530.658C418.359 531.506 417.974 532.353 417.213 533.037C416.453 533.721 415.34 534.216 414.05 534.331C412.76 534.446 411.577 534.156 410.707 533.618C409.838 533.079 409.309 532.314 409.233 531.466C409.157 530.617 409.542 529.77 410.303 529.086C411.063 528.403 412.176 527.907 413.466 527.792C414.756 527.677 415.939 527.967 416.809 528.506C417.678 529.044 418.207 529.809 418.283 530.658Z" fill="#626B8E" stroke="#171518"/>
<path d="M442.221 420.696L438.742 414.828L458.87 416.409L450.428 421.566L442.221 420.696Z" fill="#978C88" stroke="black"/>
<path d="M392.508 469.516C392.508 469.516 392.823 459.114 394.084 457.854C395.345 456.593 400.388 457.854 400.388 457.854L404.485 459.43C404.485 459.43 407.007 460.69 409.214 462.266C411.42 463.842 411.735 467.94 407.323 469.516C402.91 471.092 401.333 469.516 401.333 469.516L400.703 470.847L392.508 469.516Z" fill="#D7835E"/>
<path d="M402.372 466.07C403.52 467.527 404.607 468.487 406.218 468.89C406.731 469.019 407.258 468.987 407.747 468.869C408.247 468.749 408.705 468.611 409.118 468.375C409.543 468.132 409.899 467.799 410.218 467.32C411.347 465.626 410.587 463.414 409.061 462.491C407.986 461.841 407.162 461.643 406.077 461.396C404.71 461.085 403.11 461.346 402.005 462.471C401.662 462.82 401.409 463.188 401.41 463.698C401.41 463.924 401.461 464.146 401.531 464.366C401.602 464.586 401.701 464.834 401.817 465.113C401.959 465.453 402.143 465.779 402.372 466.07Z" fill="#D7835E" stroke="#AB5B4A"/>
<path d="M399.821 487.441C399.821 487.441 395.232 486.726 388.266 480.941C381.299 475.156 385.752 466.397 393.106 467.124C400.459 467.852 400.016 470.262 405.627 475.203C411.237 480.143 407.369 488.406 399.821 487.441Z" fill="#D7835E"/>
<path d="M396.698 482.431C397.925 484.601 399.178 486.06 401.366 486.938C401.83 487.124 402.333 487.204 402.833 487.168C403.893 487.092 404.793 486.832 405.627 486.3C406.453 485.773 407.183 485 407.939 483.95C408.9 482.614 408.959 480.745 407.865 479.439C405.983 477.191 403.901 476.562 401.351 475.864C400.972 475.761 400.556 475.695 400.129 475.725C398.437 475.844 397.301 476.513 396.685 477.587C396.088 478.629 396.039 479.953 396.274 481.278C396.347 481.693 396.499 482.08 396.698 482.431Z" fill="#D7835E" stroke="#AB5B4A"/>
<path d="M387.798 514.926C387.798 514.926 383.253 513.971 376.599 507.829C369.945 501.687 374.851 493.173 382.156 494.285C389.462 495.396 388.893 497.781 394.237 503.008C399.581 508.236 395.284 516.285 387.798 514.926Z" fill="#D7835E"/>
<path d="M383.547 509.009C384.595 511.27 385.727 512.825 387.837 513.876C388.285 514.099 388.78 514.219 389.281 514.224C390.344 514.234 391.262 514.046 392.136 513.583C393.001 513.124 393.791 512.413 394.629 511.427C395.704 510.161 395.859 508.35 395.049 506.91C394.279 505.538 393.422 504.362 392.306 503.469C391.182 502.57 389.821 501.978 388.076 501.735C387.367 501.637 386.643 501.759 386.005 502.077C384.553 502.801 383.715 503.592 383.328 504.596C382.952 505.571 383.042 506.657 383.207 507.849C383.263 508.248 383.376 508.64 383.547 509.009Z" fill="#D7835E" stroke="#AB5B4A"/>
<path d="M388.181 500.829C388.181 500.829 384.048 498.71 379.249 491.031C374.45 483.352 381.427 476.433 388.181 479.431C394.935 482.429 393.757 484.579 397.534 491.031C401.31 497.482 395.044 504.114 388.181 500.829Z" fill="#D7835E"/>
<path d="M385.641 494.001C386.056 496.458 386.738 498.257 388.496 499.827C388.869 500.16 389.315 500.406 389.798 500.543C390.821 500.833 391.755 500.894 392.72 500.677C393.676 500.463 394.626 499.985 395.694 499.255C397.064 498.317 397.691 496.611 397.29 495.009C396.908 493.482 396.392 492.122 395.55 490.966C394.704 489.803 393.547 488.873 391.927 488.178C391.269 487.896 390.538 487.824 389.84 487.962C388.248 488.278 387.231 488.82 386.593 489.686C385.974 490.528 385.774 491.599 385.619 492.792C385.568 493.192 385.573 493.6 385.641 494.001Z" fill="#D7835E" stroke="#AB5B4A"/>
<path d="M968.412 560.162C983.99 537.418 1059.12 533.808 1074.01 543.444L1147.38 754.31L1083.28 768.036L979.51 786.097L968.412 560.162Z" fill="#56597A"/>
<path d="M991.616 536.629L990.807 536.1L990.843 537.066L991.342 537.048C990.843 537.066 990.843 537.066 990.843 537.067L990.843 537.067L990.843 537.071L990.843 537.084L990.845 537.137L990.853 537.344C990.859 537.526 990.869 537.794 990.88 538.136C990.903 538.82 990.936 539.803 990.972 540.995C991.043 543.38 991.129 546.605 991.187 549.962C991.244 553.321 991.273 556.81 991.23 559.725C991.186 562.662 991.07 564.959 990.853 565.973C990.751 566.451 990.942 566.867 991.262 567.185C991.568 567.488 992.015 567.732 992.541 567.934C993.599 568.342 995.148 568.646 997.049 568.843C1000.87 569.237 1006.23 569.211 1012.26 568.623C1024.31 567.448 1039.11 564.02 1049.52 557.12L1049.8 556.939L1049.74 556.615C1048.79 551.322 1048.53 547.22 1048.99 543.133C1049.46 539.044 1050.65 534.942 1052.63 529.648L1059.15 514.197L1059.17 514.144L1059.18 514.089C1060.91 504.201 1060.97 496.994 1059.73 490.302C1058.5 483.621 1055.98 477.482 1052.62 469.746L1052.49 469.432L1052.15 469.446L1026.47 470.462L1026.22 470.472L1026.08 470.677C1024.54 472.896 1018.32 482.18 1014.62 494.113C1010.91 506.042 1009.69 520.709 1018.28 533.597C1019.01 534.692 1019.08 536.24 1018.38 537.797C1017.69 539.348 1016.26 540.872 1014.06 541.843C1009.67 543.781 1002.17 543.529 991.616 536.629Z" fill="#EE9275" stroke="#844C01"/>
<path d="M968.013 560.151C977.953 567.726 1061.93 562.824 1074.09 543.544L1147.3 753.028L1069.1 769.774L978.295 789.217L968.013 560.151Z" fill="#FF8A91"/>
<path d="M1081.54 564.556C1038.9 584.325 1009.36 585.229 969.369 582.518" stroke="#FFACB1" stroke-width="4"/>
<path d="M974.301 471.301C990.632 505.814 1013.61 499.768 1013.61 499.768C1013.61 499.768 1013.31 523.133 1020.05 536.031C1016.3 544.85 1010.84 546.813 991.924 538.742C978.609 532.177 977.745 508.204 974.301 471.301Z" fill="#EE9275"/>
<path d="M974.914 467.2C976.065 462.796 977.189 459.641 978.726 457.633C979.485 456.64 980.338 455.939 981.339 455.505C982.342 455.07 983.525 454.889 984.963 454.984C986.727 455.101 988.159 456.482 988.765 458.268L999.661 490.35C999.848 490.9 1000.11 491.431 1000.45 491.913C1000.93 492.584 1001.42 493.209 1001.95 493.803C1003.63 495.673 1004.52 498.256 1004.38 500.207C1004.31 501.179 1004 501.933 1003.48 502.393C1002.97 502.841 1002.18 503.085 1000.99 502.864C1000.05 502.689 999.049 502.426 997.952 502.063C997.281 501.841 996.662 501.455 996.136 500.961C985.316 490.795 980.501 483.755 975.134 470.518C974.707 469.465 974.628 468.297 974.914 467.2Z" fill="#EE9275" stroke="#844C01" stroke-linejoin="round"/>
<path d="M1007.7 482.244L1007.73 482.365L1007.8 482.461L1015.15 491.474C1015.15 493.564 1015.06 495.266 1014.84 496.627C1014.62 498.031 1014.27 499.026 1013.78 499.704C1013.31 500.361 1012.68 500.749 1011.82 500.903C1010.95 501.056 1009.85 500.979 1008.43 500.665L999.795 492.693C993.66 478.893 990.938 471.153 989.046 457.447C990.531 452.626 992.387 449.855 994.462 448.128C996.427 446.492 998.633 445.752 1001.05 445.134C1002.96 452.621 1003.91 458.363 1004.74 463.944C1004.9 465.02 1005.05 466.091 1005.2 467.168C1005.87 471.793 1006.55 476.525 1007.7 482.244Z" fill="#EE9275" stroke="#844C01"/>
<path d="M1008.27 483.561C1004.4 474.285 1002.71 466.526 1001.24 445.318C1003.52 441.215 1005.33 438.661 1007.15 437.184C1008.86 435.795 1010.6 435.339 1012.87 435.505L1016.85 452.075C1017.5 456.962 1018.4 460.44 1019.81 463.451C1021.19 466.38 1023.03 468.84 1025.55 471.711C1019.49 483.236 1017.67 486.79 1015.51 491.115L1008.27 483.561Z" fill="#EE9275" stroke="#844C01"/>
<path d="M1038.87 435.775L1038.88 435.863L1038.92 435.942C1039.74 437.564 1040.53 439.107 1041.29 440.591C1047.36 452.437 1051.47 460.462 1054.01 473.806L1026.07 471.834C1019.04 462.63 1017.27 454.599 1013.36 436.873C1013.28 436.502 1013.2 436.127 1013.11 435.748C1018.12 421.588 1021.9 415.076 1030.56 406.255C1032.56 404.475 1035.17 404.955 1037.45 406.027C1038.57 406.556 1039.56 407.21 1040.28 407.733C1040.63 407.995 1040.92 408.222 1041.11 408.384C1041.14 408.405 1041.16 408.424 1041.18 408.443C1038.13 420.813 1037.79 426.714 1038.87 435.775Z" fill="#EE9275" stroke="#844C01"/>
<path d="M1014.12 432.589C1007.98 427.966 1005.26 425.308 1003.23 420.616C1001.78 416.805 1000.95 413.896 1000.65 411.657C1000.34 409.415 1000.57 407.898 1001.16 406.826C1001.74 405.764 1002.71 405.06 1004.09 404.534C1005.46 404.015 1007.16 403.69 1009.16 403.357C1013.16 404.762 1015.93 406.056 1018.16 407.66C1020.35 409.227 1022.05 411.107 1023.87 413.725L1014.12 432.589Z" fill="#EE9275" stroke="#844C01"/>
<path d="M1021.71 398.79C1012.31 393.581 1008.11 390.305 1005.48 382.847C1003.68 365.076 1021.71 362.852 1024.12 376.069C1026.53 389.286 1021.71 398.79 1021.71 398.79Z" fill="#BA6D74"/>
<path d="M1021.63 398.651C1032 395.849 1036.87 393.677 1041.21 387.069C1047.22 370.249 1030.26 363.763 1024.74 376.015C1019.23 388.267 1021.63 398.651 1021.63 398.651Z" fill="#BA6D74"/>
<path d="M1025.94 469.884L1053.39 472.934L1055.3 477.401L1025.94 478.017V469.884Z" fill="#EE9275"/>
<path d="M237.674 463.903C227.215 426.939 219.848 404.486 167.083 383.119L1.77089 444.047L1.7709 692.686L40.2031 692.686L237.674 463.903Z" fill="#FF8A91"/>
<path d="M237.71 464.432C237.85 464.717 191.239 435.918 166.194 383.447L1.4176 444.381L-3.2421 759.191L31.5139 759.191C31.5139 759.191 237.57 464.148 237.71 464.432Z" fill="#FFA9AF"/>
<path d="M206.352 510.871C165.99 483.218 131.362 441.113 111.484 404.348" stroke="#2A557B" stroke-width="4"/>
<path d="M207.806 473.79C207.806 476.439 205.515 478.638 202.625 478.638C199.734 478.638 197.443 476.439 197.443 473.79C197.443 471.142 199.734 468.943 202.625 468.943C205.515 468.943 207.806 471.142 207.806 473.79Z" stroke="#2A557B"/>
<path d="M125.426 464.433L118.742 509.883" stroke="#584963" stroke-width="20" stroke-linecap="round"/>
<path d="M74.3496 554.903L116.789 572.49" stroke="#584963" stroke-width="20" stroke-linecap="round"/>
<path d="M16.9629 505.068L62.4936 498.957" stroke="#584963" stroke-width="20" stroke-linecap="round"/>
<path d="M44.1484 621.025L40.0493 666.781" stroke="#584963" stroke-width="20" stroke-linecap="round"/>
<path d="M292.378 265.159C311.057 272.899 321.563 277.076 340.952 281.537L336.598 297.548L285.397 282.004L292.378 265.159Z" fill="url(#paint0_linear_643_5431)"/>
<path d="M298.003 242.707C300.879 240.517 331.725 248.963 352.352 260.397L344.705 282.641C322.876 279.107 310.872 274.704 289.647 264.325C289.647 264.325 295.126 244.896 298.003 242.707Z" fill="#56597A"/>
<path d="M298.003 242.707C320.023 252.685 331.864 256.342 352.352 260.397L344.705 282.641C322.876 279.107 310.872 274.704 289.647 264.326C292.294 251.958 294.264 248.089 298.003 242.707Z" fill="#41456E"/>
<path d="M324.957 249.686C323.68 248.768 323.612 246.891 324.82 245.883L326.414 244.553C326.935 244.118 327.558 243.822 328.225 243.697C338.452 241.792 344.84 241.78 354.93 244.868C356.612 245.382 358.203 246.168 359.656 247.159C370.646 254.653 375.532 259.663 379.349 269.086C383.199 282.492 383.63 292.377 379.528 304.233C378.909 306.023 376.493 306.13 375.627 304.446V304.446C375.321 303.85 375.302 303.146 375.561 302.528C380.472 290.854 380.088 283.461 376.55 271.126C376.201 269.909 375.726 268.724 375.113 267.616C371.604 261.266 367.973 257.06 360.578 251.021C358.659 249.454 356.429 248.295 354.039 247.638C344.32 244.964 339.016 244.816 332.306 247.015C331.73 247.204 331.183 247.475 330.674 247.805L327.671 249.751C326.839 250.29 325.762 250.264 324.957 249.686V249.686Z" fill="#DC6C99"/>
<path d="M330.149 248.059C332.729 246.484 334.62 246.137 338.028 245.557C343.71 245.866 346.82 246.507 352.017 249.703C360.919 256.573 360.745 261.965 361.735 271.194C364.055 283.014 365.398 289.611 370.849 299.085L375.456 303.149L377.958 305.672C374.183 307.064 372.031 306.924 367.993 301.608C363.411 296.182 361.293 288.105 357.732 271.445C356.702 261.868 355.357 257.152 348.828 252.247C341.885 249.145 337.697 248.602 330.149 248.059Z" fill="#F087B1"/>
<path d="M262.728 296.568C279.879 260.334 354.451 290.822 345.409 322.864C337.52 350.817 292.625 477.863 281.295 509.833C279.764 514.153 275.49 516.859 270.933 516.37C242.181 513.285 225.163 508.922 201.48 492.523C201.48 492.523 245.577 332.801 262.728 296.568Z" fill="url(#paint1_linear_643_5431)"/>
<path d="M260.368 304.752C277.727 271.433 352.873 300.573 343.653 330.005C335.62 355.646 292.345 478.457 281.331 509.669C279.82 513.951 275.615 516.653 271.097 516.203C242.025 513.302 223.489 507.98 199.837 493.046C199.837 493.046 243.009 338.071 260.368 304.752Z" fill="#B6C8E8"/>
<path d="M274.665 303.149C282.919 295.935 283.337 302.606 283.337 302.606C272.103 322.713 259.977 357.31 257.788 359.791C255.6 362.273 255.161 355.268 255.161 355.268C258.037 331.243 266.411 310.363 274.665 303.149Z" fill="#D4E0F7"/>
<path d="M227.74 421.642C227.74 421.642 229.869 407.039 231.362 395.924L210.621 371.917L188.9 390.231L177.557 399.933C177.5 410.746 210.905 448.807 213.704 445.704C216.503 442.601 227.74 421.642 227.74 421.642Z" fill="#855138"/>
<path d="M249.339 344.447C251.594 333.31 241.25 328.829 233.032 339.099C224.815 349.369 210.544 371.975 210.544 371.975L231.027 396.926C231.027 396.926 247.084 355.584 249.339 344.447Z" fill="#855138"/>
<path d="M239.798 346.126C240.678 345.278 241.951 343.784 243.098 342.236C244.237 340.7 245.299 339.046 245.714 337.886C245.895 337.38 245.894 336.811 245.672 336.3C245.351 335.563 244.81 335.146 244.144 334.854C243.656 334.641 243.061 334.479 242.416 334.304C242.226 334.253 242.032 334.2 241.836 334.145C240.678 333.819 239.365 333.855 238.295 334.587C237.097 335.406 235.572 336.606 234.245 337.935C232.934 339.249 231.756 340.749 231.344 342.169C231.065 343.13 231.494 344.068 232.142 344.674C234.018 346.427 236.699 347.302 238.663 346.792C239.118 346.674 239.495 346.417 239.798 346.126Z" fill="#855138" stroke="#643B2F"/>
<path d="M340.975 338.442C340.975 338.442 339.765 338.442 347.755 336.567C355.746 334.693 358 348.578 353.238 351.11C348.476 353.641 337.237 356.347 337.237 356.347L333.289 356.347L340.975 338.442Z" fill="#855138"/>
<path d="M317.35 359.408C317.35 359.408 324.117 356.508 333.918 355.936C343.719 355.364 345.436 364.966 339.07 369.834C332.705 374.702 329.906 373.171 321.805 373.408C313.703 373.645 310.655 364.231 317.35 359.408Z" fill="#855138"/>
<path d="M313.516 377.571C313.516 377.571 320.283 374.671 330.084 374.099C339.885 373.527 342.087 382.048 335.722 386.916C329.356 391.784 326.072 391.333 317.971 391.571C309.869 391.808 306.821 382.394 313.516 377.571Z" fill="#855138"/>
<path d="M309.535 392.771C309.535 392.771 314.975 390.481 322.861 390.043C330.746 389.605 331.877 400.219 327.632 401.663C323.387 403.106 319.66 403.709 313.142 403.885C306.623 404.06 304.155 396.587 309.535 392.771Z" fill="#855138"/>
<path d="M317.478 365.75C317.3 364.171 317.918 362.459 319.391 361.863C320.716 361.326 322.298 361.369 324.696 361.844C325.317 361.967 325.914 362.201 326.448 362.54C330.29 364.976 330.825 366.742 328.104 369.713C327.499 370.372 326.708 370.83 325.857 371.108C324.364 371.594 323.174 371.915 321.758 371.775C320.568 371.658 319.541 370.904 318.91 369.888C318.058 368.518 317.651 367.282 317.478 365.75Z" fill="#855138" stroke="#653129" stroke-linejoin="round"/>
<path d="M318.211 376.888C315.576 377.32 313.659 378.037 311.981 379.918C311.649 380.29 311.402 380.734 311.261 381.214C310.938 382.321 310.867 383.328 311.104 384.371C311.338 385.404 311.864 386.435 312.671 387.605C313.611 388.97 315.307 389.6 316.911 389.216C318.572 388.818 320.048 388.278 321.301 387.382C322.561 386.481 323.567 385.24 324.318 383.486C324.599 382.829 324.673 382.102 324.541 381.404C324.216 379.688 323.646 378.6 322.731 377.919C321.84 377.256 320.7 377.041 319.419 376.872C319.02 376.819 318.612 376.823 318.211 376.888Z" fill="#855138" stroke="#653129"/>
<path d="M313.75 393.494C312.065 393.795 310.781 394.293 309.655 395.502C309.313 395.869 309.064 396.319 308.939 396.808C308.772 397.457 308.729 398.067 308.834 398.691C308.938 399.312 309.184 399.919 309.561 400.567C310.419 402.042 312.215 402.699 313.829 402.207C315.741 401.623 317.233 400.638 318.198 398.548C318.497 397.9 318.574 397.168 318.422 396.473C318.187 395.397 317.791 394.672 317.161 394.202C316.552 393.747 315.793 393.587 314.985 393.473C314.577 393.416 314.16 393.421 313.75 393.494Z" fill="#855138" stroke="#653129"/>
<path d="M381.602 205.424L354.365 167.68L369.957 156.428C372.783 154.389 375.589 153.139 378.377 152.678C381.168 152.196 383.806 152.498 386.289 153.583C388.764 154.656 390.932 156.483 392.794 159.063C394.682 161.68 395.716 164.316 395.894 166.971C396.064 169.614 395.444 172.173 394.034 174.648C392.616 177.11 390.469 179.378 387.594 181.453L377.734 188.568L372.548 181.38L380.712 175.489C382.088 174.496 383.108 173.489 383.773 172.467C384.441 171.425 384.748 170.362 384.695 169.279C384.634 168.184 384.182 167.053 383.339 165.886C382.497 164.718 381.561 163.927 380.533 163.511C379.495 163.083 378.372 163.015 377.163 163.308C375.945 163.588 374.655 164.221 373.291 165.205L368.794 168.45L390.725 198.841L381.602 205.424ZM390.403 172.84L412.251 183.307L402.299 190.489L380.636 179.888L390.403 172.84Z" fill="#FDA758"/>
<path d="M428.123 174.196C425.023 176.125 421.967 177.179 418.956 177.359C415.949 177.517 413.132 176.834 410.506 175.31C407.885 173.765 405.593 171.416 403.631 168.265C401.726 165.203 400.665 162.151 400.449 159.109C400.225 156.054 400.817 153.205 402.224 150.563C403.623 147.907 405.814 145.651 408.798 143.793C410.908 142.48 413.042 141.607 415.199 141.174C417.357 140.741 419.473 140.772 421.547 141.266C423.621 141.759 425.601 142.731 427.485 144.182C429.361 145.62 431.056 147.554 432.57 149.985L434.035 152.339L408.276 168.372L404.865 162.892L421.845 152.324C421.207 151.328 420.413 150.583 419.462 150.086C418.51 149.59 417.493 149.375 416.41 149.442C415.333 149.488 414.273 149.836 413.231 150.484C412.176 151.141 411.379 151.967 410.839 152.964C410.291 153.947 410.025 154.996 410.04 156.111C410.048 157.213 410.355 158.28 410.962 159.312L414.433 164.888C415.185 166.097 416.084 167.01 417.128 167.627C418.165 168.231 419.276 168.512 420.463 168.469C421.65 168.427 422.848 168.029 424.058 167.276C424.894 166.756 425.581 166.168 426.118 165.512C426.656 164.856 427.029 164.151 427.238 163.396C427.446 162.642 427.468 161.861 427.304 161.052L436.124 155.911C436.973 158.077 437.235 160.261 436.909 162.463C436.589 164.643 435.693 166.745 434.221 168.767C432.741 170.777 430.709 172.586 428.123 174.196Z" fill="#FDA758"/>
<path d="M460.766 126.805L451.931 131.918C451.49 131.33 450.93 130.902 450.249 130.633C449.562 130.352 448.809 130.252 447.992 130.334C447.18 130.396 446.342 130.662 445.477 131.133C444.345 131.748 443.503 132.499 442.95 133.385C442.411 134.265 442.358 135.087 442.791 135.852C443.103 136.458 443.625 136.847 444.356 137.019C445.101 137.183 446.191 137.047 447.627 136.612L454.145 134.517C457.526 133.438 460.33 133.173 462.559 133.72C464.802 134.26 466.537 135.645 467.766 137.874C468.896 139.984 469.266 142.155 468.874 144.385C468.496 146.609 467.477 148.732 465.818 150.755C464.151 152.765 461.947 154.515 459.204 156.005C454.825 158.386 450.882 159.365 447.376 158.943C443.876 158.5 441.121 156.859 439.112 154.02L448.626 148.537C449.447 149.54 450.462 150.091 451.672 150.192C452.883 150.293 454.18 149.967 455.565 149.215C456.816 148.534 457.708 147.748 458.24 146.855C458.772 145.962 458.835 145.126 458.428 144.347C458.039 143.662 457.432 143.276 456.609 143.189C455.778 143.088 454.659 143.266 453.251 143.721L447.346 145.611C443.967 146.724 441.116 146.937 438.794 146.25C436.465 145.551 434.671 144.026 433.41 141.675C432.283 139.633 431.877 137.585 432.193 135.534C432.502 133.469 433.465 131.497 435.082 129.618C436.699 127.738 438.892 126.046 441.661 124.541C445.814 122.283 449.563 121.375 452.907 121.816C456.244 122.245 458.863 123.907 460.766 126.805Z" fill="#FDA758"/>
<path d="M481.214 104.925L484.782 112.288L464.964 121.892L461.396 114.529L481.214 104.925ZM461.9 104.991L471.902 100.144L485.985 129.207C486.282 129.821 486.619 130.272 486.995 130.562C487.378 130.831 487.8 130.954 488.261 130.933C488.715 130.898 489.208 130.752 489.74 130.494C490.122 130.309 490.508 130.08 490.897 129.807C491.294 129.514 491.588 129.287 491.78 129.127L496.792 135.613C496.381 135.981 495.788 136.478 495.015 137.106C494.255 137.726 493.288 138.355 492.115 138.991C489.823 140.236 487.679 140.938 485.685 141.096C483.698 141.234 481.921 140.816 480.354 139.841C478.801 138.859 477.522 137.298 476.519 135.158L461.9 104.991Z" fill="#FDA758"/>
<path d="M515.769 128.406C512.402 129.858 509.211 130.417 506.197 130.084C503.19 129.73 500.498 128.597 498.123 126.684C495.755 124.752 493.863 122.144 492.447 118.86C491.026 115.563 490.428 112.397 490.654 109.362C490.888 106.308 491.911 103.573 493.725 101.158C495.546 98.7226 498.14 96.7791 501.507 95.3274C504.874 93.8756 508.061 93.3265 511.068 93.68C514.082 94.0135 516.774 95.1466 519.141 97.0792C521.517 98.9918 523.416 101.597 524.838 104.894C526.253 108.178 526.844 111.347 526.61 114.401C526.384 117.436 525.361 120.171 523.54 122.606C521.726 125.021 519.136 126.954 515.769 128.406ZM512.511 120.678C513.736 120.15 514.61 119.328 515.135 118.21C515.66 117.093 515.857 115.771 515.726 114.243C515.61 112.709 515.173 111.066 514.417 109.313C513.649 107.532 512.748 106.073 511.713 104.935C510.692 103.791 509.595 103.027 508.422 102.641C507.25 102.256 506.051 102.327 504.827 102.855C503.561 103.401 502.651 104.239 502.099 105.368C501.56 106.491 501.349 107.82 501.466 109.353C501.596 110.881 502.046 112.535 502.814 114.316C503.57 116.069 504.458 117.518 505.479 118.661C506.514 119.799 507.625 120.558 508.812 120.937C510.012 121.31 511.245 121.224 512.511 120.678Z" fill="#FDA758"/>
<path d="M535.419 119.403L522.953 86.7961L533.037 82.941L535.309 88.885L535.649 88.7552C535.421 86.3767 535.779 84.4069 536.723 82.8456C537.662 81.2701 539.023 80.1415 540.806 79.4598C541.287 79.2758 541.796 79.1218 542.332 78.9978C542.864 78.8596 543.373 78.7703 543.86 78.73L547.31 87.7522C546.749 87.7717 546.047 87.8862 545.202 88.0955C544.372 88.2994 543.645 88.5204 543.023 88.7585C541.791 89.2293 540.786 89.93 540.006 90.8607C539.235 91.7718 538.754 92.8238 538.561 94.0168C538.377 95.1902 538.534 96.4279 539.031 97.7299L545.8 115.435L535.419 119.403Z" fill="#FDA758"/>
<path d="M575.734 105.327C572.274 106.494 569.058 106.819 566.085 106.302C563.122 105.766 560.538 104.455 558.331 102.368C556.134 100.263 554.443 97.4514 553.257 93.9339C552.105 90.5168 551.773 87.3029 552.261 84.2923C552.744 81.2673 553.973 78.6302 555.949 76.381C557.92 74.1175 560.571 72.4243 563.902 71.3012C566.257 70.5073 568.534 70.1473 570.733 70.2212C572.933 70.2951 574.985 70.8103 576.891 71.7668C578.796 72.7233 580.499 74.1237 582.001 75.968C583.497 77.798 584.703 80.0697 585.618 82.7833L586.504 85.4107L557.753 95.1043L555.691 88.988L574.642 82.5982C574.251 81.4832 573.648 80.5749 572.836 79.8734C572.024 79.1718 571.084 78.7295 570.014 78.5463C568.955 78.3439 567.844 78.4388 566.681 78.8309C565.503 79.2278 564.538 79.8492 563.783 80.6951C563.025 81.5266 562.525 82.4866 562.284 83.575C562.039 84.6492 562.093 85.7582 562.446 86.9021L564.545 93.126C565 94.4756 565.665 95.5706 566.54 96.4108C567.41 97.2367 568.428 97.7651 569.593 97.9959C570.758 98.2266 572.015 98.1145 573.365 97.6595C574.298 97.3448 575.101 96.93 575.775 96.415C576.449 95.9 576.974 95.2993 577.35 94.6128C577.726 93.9264 577.927 93.171 577.953 92.3468L587.717 89.3666C588.046 91.6701 587.8 93.8558 586.978 95.9237C586.166 97.9724 584.811 99.8121 582.915 101.443C581.013 103.059 578.62 104.354 575.734 105.327Z" fill="#FDA758"/>
<path d="M639.402 93.873L622.209 94.5233L620.45 48.0111L637.62 47.3616C642.359 47.1824 646.474 47.9592 649.967 49.6921C653.473 51.4092 656.224 53.9738 658.218 57.3857C660.211 60.7824 661.299 64.8958 661.482 69.7257C661.665 74.5707 660.892 78.7696 659.161 82.3224C657.446 85.8746 654.905 88.6469 651.538 90.6392C648.171 92.6164 644.126 93.6943 639.402 93.873ZM633.089 84.514L638.608 84.3052C641.212 84.2067 643.398 83.6843 645.167 82.738C646.95 81.776 648.265 80.2782 649.113 78.2447C649.976 76.1955 650.344 73.4978 650.217 70.1517C650.091 66.8057 649.521 64.1586 648.507 62.2107C647.493 60.2477 646.053 58.8617 644.188 58.0528C642.337 57.2283 640.079 56.8664 637.414 56.9672L632.055 57.1699L633.089 84.514Z" fill="#AAABEA"/>
<path d="M683.785 93.8047C680.134 93.7776 676.988 93.0345 674.347 91.5755C671.722 90.1014 669.707 88.0182 668.303 85.3259C666.913 82.6185 666.233 79.4089 666.26 75.6968C666.287 72.0909 667.023 68.9447 668.467 66.2584C669.911 63.5569 671.934 61.4658 674.536 59.9851C677.138 58.4892 680.197 57.7543 683.712 57.7804C686.197 57.7989 688.467 58.2021 690.521 58.9901C692.576 59.7781 694.348 60.9352 695.837 62.4614C697.325 63.9877 698.478 65.8675 699.295 68.1009C700.112 70.3191 700.51 72.86 700.488 75.7236L700.468 78.4963L670.128 78.2711L670.176 71.8167L690.175 71.9651C690.169 70.7832 689.896 69.7282 689.358 68.7999C688.819 67.8716 688.074 67.1464 687.124 66.6242C686.188 66.0869 685.107 65.8137 683.88 65.8046C682.637 65.7954 681.522 66.0674 680.533 66.6207C679.544 67.1588 678.758 67.903 678.175 68.8533C677.592 69.7884 677.281 70.8543 677.242 72.051L677.193 78.619C677.183 80.0432 677.454 81.2952 678.007 82.3751C678.559 83.4399 679.349 84.2715 680.374 84.87C681.4 85.4686 682.625 85.7731 684.05 85.7837C685.034 85.791 685.929 85.6613 686.734 85.3945C687.539 85.1278 688.232 84.7314 688.811 84.2054C689.391 83.6793 689.828 83.031 690.121 82.2605L700.323 82.6317C699.882 84.9163 698.936 86.9018 697.484 88.588C696.047 90.2592 694.166 91.5559 691.841 92.4781C689.516 93.3851 686.831 93.8273 683.785 93.8047Z" fill="#AFB3EB"/>
<path d="M736.95 70.2977L726.742 70.2047C726.662 69.4741 726.398 68.8202 725.948 68.2432C725.5 67.651 724.902 67.1823 724.157 66.8372C723.427 66.4775 722.57 66.28 721.585 66.2447C720.298 66.1985 719.191 66.4166 718.264 66.8988C717.352 67.3816 716.888 68.0624 716.872 68.9412C716.832 69.622 717.084 70.2223 717.626 70.7421C718.184 71.2624 719.191 71.7003 720.649 72.0558L727.327 73.5687C730.785 74.3598 733.335 75.558 734.975 77.1632C736.631 78.769 737.421 80.8441 737.345 83.3885C737.244 85.7803 736.458 87.8368 734.986 89.5579C733.529 91.2796 731.572 92.5891 729.114 93.4864C726.657 94.3687 723.868 94.7539 720.749 94.642C715.768 94.4635 711.875 93.3005 709.071 91.1532C706.283 88.9914 704.747 86.1769 704.462 82.71L715.442 82.8307C715.638 84.1113 716.232 85.1029 717.223 85.8055C718.213 86.5081 719.496 86.8876 721.071 86.9441C722.494 86.9951 723.662 86.7716 724.574 86.2737C725.487 85.7758 725.966 85.088 726.013 84.2103C726.026 83.4224 725.7 82.7815 725.036 82.2877C724.371 81.7787 723.318 81.3619 721.874 81.0372L715.828 79.6607C712.353 78.8993 709.791 77.6325 708.141 75.8601C706.492 74.0726 705.723 71.8467 705.834 69.1822C705.902 66.8499 706.594 64.881 707.91 63.2756C709.227 61.655 711.059 60.4472 713.407 59.652C715.755 58.8568 718.504 58.5157 721.654 58.6286C726.378 58.798 730.067 59.9233 732.722 62.0046C735.377 64.0707 736.786 66.8351 736.95 70.2977Z" fill="#AFB3EB"/>
<path d="M741.639 94.0319L741.911 59.1239L753.024 59.2106L752.752 94.1186L741.639 94.0319ZM747.511 55.0993C745.95 55.0871 744.613 54.5615 743.5 53.5225C742.387 52.4683 741.836 51.2064 741.848 49.7368C741.859 48.2823 742.429 47.0442 743.559 46.0227C744.688 44.986 746.033 44.4738 747.593 44.4859C749.169 44.4982 750.506 45.0314 751.604 46.0854C752.717 47.1245 753.268 48.3712 753.257 49.8257C753.245 51.2954 752.675 52.5485 751.545 53.5852C750.431 54.6069 749.086 55.1115 747.511 55.0993Z" fill="#AFB3EB"/>
<path d="M772.736 106.874C769.424 106.674 766.616 106.041 764.312 104.976C762.009 103.911 760.232 102.536 758.983 100.852C757.734 99.1674 757.034 97.3036 756.885 95.2605L767.424 95.3053C767.578 96.028 767.903 96.67 768.4 97.2313C768.913 97.7936 769.592 98.2444 770.436 98.5838C771.296 98.9242 772.316 99.13 773.495 99.2013C775.356 99.3137 776.918 98.9527 778.183 98.1184C779.462 97.3001 780.169 95.7717 780.304 93.5334L780.674 87.4082L780.289 87.3849C779.785 88.4322 779.062 89.3524 778.118 90.1454C777.175 90.9384 776.023 91.5367 774.663 91.9403C773.318 92.3447 771.791 92.4954 770.082 92.3921C767.541 92.2386 765.247 91.508 763.201 90.2005C761.171 88.8787 759.596 86.9317 758.477 84.3594C757.373 81.773 756.941 78.5062 757.179 74.5588C757.425 70.4905 758.278 67.1798 759.737 64.6268C761.198 62.0587 763.018 60.203 765.197 59.0596C767.391 57.9171 769.705 57.4194 772.14 57.5665C773.97 57.6771 775.516 58.0892 776.779 58.803C778.057 59.5026 779.09 60.3695 779.877 61.4037C780.665 62.4379 781.246 63.4976 781.621 64.5828L781.938 64.602L782.299 58.6356L793.347 59.3031L791.233 94.2848C791.055 97.2339 790.164 99.6771 788.559 101.614C786.955 103.551 784.79 104.961 782.065 105.844C779.339 106.742 776.23 107.085 772.736 106.874ZM774.426 84.5489C775.772 84.6302 776.943 84.3443 777.939 83.691C778.935 83.0378 779.73 82.0612 780.324 80.7614C780.919 79.4615 781.273 77.8815 781.385 76.0212C781.499 74.1308 781.34 72.4894 780.908 71.0972C780.492 69.6907 779.823 68.5877 778.9 67.7882C777.992 66.9896 776.865 66.5496 775.519 66.4683C774.142 66.3851 772.955 66.6928 771.956 67.3915C770.958 68.0901 770.168 69.1125 769.585 70.4586C769.019 71.7905 768.68 73.3866 768.567 75.2469C768.455 77.1071 768.608 78.7177 769.027 80.0788C769.446 81.4399 770.102 82.5041 770.997 83.2716C771.907 84.04 773.05 84.4658 774.426 84.5489Z" fill="#AFB3EB"/>
<path d="M812.31 75.0463L810.188 94.8419L799.138 93.6573L802.859 58.9471L813.367 60.0736L812.684 66.4462L813.068 66.4874C814.064 64.4456 815.553 62.9214 817.535 61.9148C819.519 60.8932 821.792 60.5197 824.353 60.7942C826.793 61.0559 828.851 61.8327 830.526 63.1246C832.217 64.4031 833.455 66.0749 834.24 68.14C835.041 70.1916 835.294 72.5198 834.999 75.1244L832.628 97.2477L821.577 96.063L823.717 76.1091C823.938 74.1824 823.61 72.6234 822.732 71.4321C821.869 70.2424 820.564 69.5539 818.816 69.3666C817.656 69.2422 816.605 69.3885 815.661 69.8054C814.734 70.2089 813.979 70.8518 813.397 71.7342C812.83 72.6181 812.468 73.7222 812.31 75.0463Z" fill="#AAABEA"/>
<path d="M861.805 107.942L873.667 62.9332L892.259 67.8333C895.629 68.7215 898.364 70.1472 900.463 72.1107C902.581 74.0634 903.997 76.3875 904.713 79.0831C905.432 81.764 905.384 84.6502 904.569 87.7416C903.751 90.8477 902.353 93.3859 900.377 95.3563C898.419 97.316 896.019 98.603 893.178 99.2173C890.336 99.8317 887.194 99.6851 883.751 98.7777L872.279 95.7542L874.538 87.1833L883.988 89.6739C885.629 90.1064 887.074 90.1817 888.324 89.8999C889.588 89.622 890.641 89.0455 891.483 88.1705C892.328 87.2809 892.932 86.1475 893.295 84.7702C893.662 83.3784 893.693 82.1017 893.388 80.9402C893.087 79.764 892.453 78.7508 891.486 77.9006C890.52 77.0504 889.223 76.4109 887.597 75.9823L882.234 74.569L872.683 110.809L861.805 107.942Z" fill="#AAABEA"/>
<path d="M902.906 115.972L912.988 82.5506L923.323 85.6685L921.485 91.7609L921.833 91.8659C923.108 89.8449 924.596 88.5054 926.298 87.8477C928.004 87.1755 929.771 87.1151 931.599 87.6665C932.092 87.8153 932.589 88.0047 933.089 88.2347C933.594 88.4503 934.051 88.6912 934.462 88.9574L931.672 98.2049C931.217 97.8776 930.591 97.5385 929.795 97.1876C929.013 96.841 928.303 96.5714 927.665 96.3788C926.403 95.9981 925.179 95.9375 923.993 96.1969C922.826 96.4462 921.801 96.9837 920.919 97.8096C920.055 98.6253 919.423 99.7005 919.02 101.035L913.546 119.182L902.906 115.972Z" fill="#AAABEA"/>
<path d="M945.166 130.322C941.788 128.897 939.175 126.982 937.329 124.575C935.503 122.161 934.457 119.434 934.193 116.396C933.948 113.349 934.52 110.178 935.91 106.884C937.305 103.575 939.176 100.952 941.522 99.0141C943.888 97.0685 946.57 95.9139 949.569 95.5502C952.586 95.1785 955.785 95.705 959.163 97.1297C962.542 98.5544 965.144 100.474 966.971 102.889C968.817 105.295 969.863 108.022 970.107 111.068C970.372 114.107 969.806 117.28 968.411 120.589C967.022 123.884 965.144 126.504 962.778 128.45C960.432 130.387 957.749 131.542 954.731 131.914C951.733 132.277 948.545 131.747 945.166 130.322ZM948.488 122.621C949.716 123.139 950.915 123.201 952.085 122.806C953.255 122.411 954.345 121.638 955.357 120.486C956.383 119.34 957.267 117.887 958.009 116.128C958.762 114.341 959.191 112.681 959.296 111.146C959.414 109.617 959.206 108.297 958.673 107.184C958.139 106.071 957.258 105.255 956.029 104.737C954.759 104.201 953.525 104.125 952.328 104.508C951.144 104.897 950.039 105.664 949.013 106.81C948.002 107.962 947.119 109.431 946.365 111.219C945.623 112.978 945.193 114.621 945.075 116.15C944.97 117.685 945.192 119.011 945.74 120.13C946.301 121.255 947.217 122.085 948.488 122.621Z" fill="#AFB3EB"/>
<path d="M982.553 144.185C979.22 142.622 976.681 140.595 974.937 138.104C973.207 135.619 972.277 132.856 972.146 129.816C972.022 126.763 972.716 123.624 974.227 120.4C975.746 117.163 977.715 114.622 980.136 112.779C982.577 110.928 985.306 109.873 988.322 109.614C991.352 109.361 994.521 110.01 997.827 111.561C1000.75 112.931 1003.05 114.652 1004.72 116.725C1006.4 118.804 1007.4 121.097 1007.72 123.604C1008.05 126.103 1007.64 128.665 1006.5 131.29L997.094 126.881C997.661 125.172 997.707 123.646 997.233 122.302C996.772 120.965 995.822 119.958 994.381 119.283C993.215 118.736 992.039 118.586 990.852 118.833C989.672 119.066 988.535 119.704 987.443 120.749C986.371 121.786 985.398 123.237 984.523 125.103C983.648 126.968 983.149 128.658 983.024 130.173C982.92 131.68 983.152 132.969 983.721 134.039C984.297 135.096 985.168 135.897 986.334 136.444C987.266 136.882 988.183 137.069 989.083 137.005C989.996 136.949 990.866 136.645 991.693 136.096C992.526 135.533 993.265 134.724 993.91 133.671L1003.31 138.081C1002 140.642 1000.28 142.614 998.155 143.996C996.048 145.384 993.657 146.112 990.981 146.179C988.325 146.239 985.516 145.575 982.553 144.185Z" fill="#AAABEA"/>
<path d="M1017.91 162.333C1014.66 160.668 1012.18 158.59 1010.48 156.1C1008.8 153.603 1007.93 150.837 1007.89 147.8C1007.87 144.758 1008.7 141.584 1010.39 138.281C1012.04 135.071 1014.11 132.591 1016.61 130.841C1019.11 129.077 1021.86 128.118 1024.85 127.964C1027.84 127.798 1030.91 128.516 1034.04 130.119C1036.25 131.252 1038.09 132.632 1039.57 134.26C1041.06 135.887 1042.12 137.717 1042.76 139.749C1043.41 141.782 1043.59 143.979 1043.32 146.341C1043.05 148.69 1042.26 151.139 1040.96 153.687L1039.69 156.155L1012.69 142.318L1015.63 136.574L1033.43 145.695C1033.96 144.636 1034.19 143.571 1034.13 142.5C1034.06 141.429 1033.72 140.446 1033.11 139.552C1032.51 138.652 1031.67 137.922 1030.58 137.362C1029.47 136.796 1028.35 136.537 1027.22 136.587C1026.1 136.623 1025.06 136.935 1024.11 137.522C1023.17 138.095 1022.41 138.908 1021.84 139.959L1018.85 145.805C1018.2 147.072 1017.88 148.312 1017.88 149.525C1017.9 150.725 1018.23 151.823 1018.88 152.818C1019.53 153.814 1020.48 154.637 1021.75 155.286C1022.63 155.735 1023.49 156.022 1024.32 156.145C1025.16 156.269 1025.96 156.226 1026.71 156.016C1027.47 155.807 1028.15 155.424 1028.76 154.868L1037.71 159.784C1036.28 161.627 1034.55 162.975 1032.49 163.829C1030.46 164.676 1028.19 164.989 1025.7 164.768C1023.22 164.534 1020.62 163.722 1017.91 162.333Z" fill="#AFB3EB"/>
<path d="M1075.75 166.888L1066.61 162.332C1066.86 161.64 1066.91 160.936 1066.76 160.221C1066.62 159.492 1066.28 158.809 1065.77 158.172C1065.27 157.529 1064.58 156.976 1063.71 156.513C1062.58 155.907 1061.49 155.618 1060.44 155.645C1059.41 155.68 1058.7 156.088 1058.3 156.871C1057.96 157.466 1057.92 158.116 1058.18 158.82C1058.46 159.532 1059.17 160.368 1060.33 161.326L1065.67 165.612C1068.43 167.838 1070.19 170.033 1070.97 172.194C1071.75 174.363 1071.55 176.575 1070.37 178.828C1069.23 180.934 1067.62 182.438 1065.54 183.34C1063.48 184.25 1061.15 184.569 1058.54 184.299C1055.95 184.015 1053.27 183.14 1050.52 181.672C1046.12 179.329 1043.13 176.578 1041.55 173.419C1039.99 170.254 1039.84 167.051 1041.11 163.81L1050.92 168.73C1050.54 169.967 1050.64 171.118 1051.22 172.184C1051.8 173.25 1052.79 174.153 1054.18 174.894C1055.44 175.563 1056.59 175.874 1057.62 175.826C1058.66 175.778 1059.39 175.37 1059.82 174.602C1060.18 173.899 1060.17 173.18 1059.79 172.445C1059.41 171.697 1058.65 170.86 1057.49 169.936L1052.66 166.049C1049.87 163.842 1048.12 161.581 1047.42 159.265C1046.72 156.936 1047 154.598 1048.27 152.251C1049.35 150.185 1050.84 148.718 1052.72 147.852C1054.62 146.972 1056.79 146.689 1059.25 147.003C1061.71 147.317 1064.33 148.215 1067.11 149.697C1071.28 151.919 1074.11 154.547 1075.58 157.581C1077.06 160.601 1077.12 163.704 1075.75 166.888Z" fill="#AFB3EB"/>
<path d="M1109.76 186.861L1100.62 182.322C1100.86 181.63 1100.91 180.926 1100.76 180.211C1100.61 179.482 1100.28 178.8 1099.76 178.164C1099.26 177.522 1098.58 176.97 1097.71 176.509C1096.57 175.906 1095.48 175.619 1094.43 175.648C1093.4 175.684 1092.69 176.094 1092.29 176.878C1091.96 177.473 1091.92 178.123 1092.18 178.827C1092.46 179.539 1093.17 180.373 1094.33 181.329L1099.67 185.604C1102.44 187.825 1104.21 190.016 1104.99 192.176C1105.78 194.344 1105.58 196.555 1104.4 198.812C1103.27 200.92 1101.66 202.427 1099.59 203.333C1097.53 204.246 1095.19 204.57 1092.59 204.305C1089.99 204.026 1087.32 203.156 1084.56 201.694C1080.16 199.359 1077.16 196.614 1075.58 193.459C1074.01 190.297 1073.86 187.094 1075.11 183.85L1084.94 188.751C1084.56 189.989 1084.66 191.14 1085.24 192.204C1085.83 193.269 1086.82 194.17 1088.21 194.908C1089.47 195.575 1090.62 195.884 1091.65 195.834C1092.69 195.784 1093.42 195.375 1093.85 194.605C1094.2 193.902 1094.19 193.183 1093.81 192.449C1093.43 191.701 1092.67 190.866 1091.51 189.944L1086.67 186.067C1083.88 183.866 1082.12 181.607 1081.41 179.293C1080.71 176.965 1080.99 174.626 1082.25 172.277C1083.33 170.209 1084.81 168.739 1086.7 167.869C1088.59 166.986 1090.76 166.699 1093.22 167.008C1095.68 167.317 1098.31 168.21 1101.09 169.686C1105.27 171.9 1108.1 174.523 1109.58 177.554C1111.06 180.572 1111.12 183.674 1109.76 186.861Z" fill="#AFB3EB"/>
</g>
<defs>
<filter id="filter0_f_643_5431" x="309.135" y="353.3" width="212.818" height="230.796" filterUnits="userSpaceOnUse" color-interpolation-filters="sRGB">
<feFlood flood-opacity="0" result="BackgroundImageFix"/>
<feBlend mode="normal" in="SourceGraphic" in2="BackgroundImageFix" result="shape"/>
<feGaussianBlur stdDeviation="25" result="effect1_foregroundBlur_643_5431"/>
</filter>
<linearGradient id="paint0_linear_643_5431" x1="292.759" y1="271.247" x2="345.712" y2="288.021" gradientUnits="userSpaceOnUse">
<stop offset="0.119884" stop-color="#B6C8E8"/>
<stop offset="0.683049" stop-color="#74A3D7"/>
<stop offset="1" stop-color="#2C3641"/>
</linearGradient>
<linearGradient id="paint1_linear_643_5431" x1="266.119" y1="281.698" x2="351.301" y2="307.761" gradientUnits="userSpaceOnUse">
<stop stop-color="#516E8D"/>
<stop offset="0.155208" stop-color="#74A3D7"/>
<stop offset="0.35156" stop-color="#B6C8E8"/>
<stop offset="0.596354" stop-color="#8AAFDC"/>
<stop offset="0.86875" stop-color="#92B4DF"/>
<stop offset="1" stop-color="#4F6B8A"/>
</linearGradient>
<clipPath id="clip0_643_5431">
<rect width="1440" height="756" fill="white"/>
</clipPath>
</defs>
</svg>
