<svg width="1728" height="717" viewBox="0 0 1728 717" fill="none" xmlns="http://www.w3.org/2000/svg">
<g clip-path="url(#clip0_856_9081)">
<rect width="1728" height="717" fill="#007499"/>
<rect width="1728" height="717" fill="#0C8DB6"/>
<rect width="1728" height="717" fill="#19344E"/>
<mask id="mask0_856_9081" style="mask-type:luminance" maskUnits="userSpaceOnUse" x="-8" y="163" width="1736" height="1113">
<path d="M-8 163H1728V1275.48H-8V163Z" fill="white"/>
</mask>
<g mask="url(#mask0_856_9081)">
<path d="M538.321 354.148L-25.6792 327.648V407.648H538.321V354.148Z" fill="#DDEBF9"/>
<rect width="757" height="63" transform="matrix(-1 0 0 1 731.321 389.648)" fill="#DDEBF9"/>
<path d="M-22.797 310.939C-26.2543 342.073 -27.8344 333.683 -11.2457 334.995C5.34297 336.306 22.5131 348.408 20.9744 317.705C21.9291 309.108 9.2552 301.075 -7.33349 299.763C-22.1197 298.594 -21.0684 295.372 -22.797 310.939Z" fill="#DDEBF9"/>
<path d="M8.80589 315.918C6.24327 338.995 51.893 345.773 90.4871 348.824C129.081 351.875 160.271 377.483 165.008 312.563C167.571 289.485 138.907 263.388 100.313 260.337C52.4998 256.557 11.3685 292.84 8.80589 315.918Z" fill="#DDEBF9"/>
<path d="M155.745 306.87C140.426 375.914 184.79 346.111 217.567 355.278C250.345 364.445 285.352 357.45 289.461 338.932C293.569 320.414 265.223 297.385 232.445 288.218C199.668 279.051 159.853 288.352 155.745 306.87Z" fill="#DDEBF9"/>
<path d="M281.614 331.7C258.967 385.287 300.473 356.334 326.88 358.421C353.286 360.509 373.893 386.107 377.24 339.26C378.396 328.853 357.926 318.723 331.52 316.636C305.113 314.548 282.77 321.293 281.614 331.7Z" fill="#DDEBF9"/>
<path d="M357.416 345.131C354.753 369.113 408.639 378.935 444.863 381.799C481.087 384.663 528.842 382.876 531.505 358.894C534.168 334.911 491.641 289.621 455.417 286.757C406.99 282.928 360.079 321.148 357.416 345.131Z" fill="#DDEBF9"/>
<ellipse cx="63.9954" cy="37.9056" rx="63.9954" ry="37.9056" transform="matrix(-0.971066 -0.23881 -0.199344 0.97993 646.399 358.789)" fill="#DDEBF9"/>
<ellipse cx="51.0369" cy="23.4383" rx="51.0369" ry="23.4383" transform="matrix(-0.99689 -0.0788114 -0.110365 0.993891 734.395 369.73)" fill="#DDEBF9"/>
<path d="M709.019 400.938C706.557 423.11 741.22 432.412 781.845 435.623C822.471 438.835 857.4 423.464 859.862 401.292C862.324 379.119 831.387 358.541 790.762 355.329C750.136 352.117 711.481 378.765 709.019 400.938Z" fill="#DDEBF9"/>
<path d="M847.606 408.69C847.606 444.14 878.539 472.877 916.698 472.877C954.856 472.877 989.426 444.14 989.426 408.69C989.426 373.24 952.778 341.211 914.62 341.211C876.461 341.211 847.606 373.24 847.606 408.69Z" fill="#DDEBF9"/>
<path d="M890.927 487.041C894.438 513.693 922.586 531.965 953.797 527.853C985.007 523.741 1007.46 498.802 1003.95 472.15C998.885 433.707 972.076 425.589 940.865 429.701C909.655 433.813 885 442.054 890.927 487.041Z" fill="#DDEBF9"/>
<path d="M1295.66 420.188C1301.1 435.239 1346.75 469.02 1388.32 463.542C1429.9 458.065 1458.07 416.059 1455.74 398.346C1456.92 337.372 1414.05 282.953 1365.2 292.393C1313.77 295.413 1287.34 357.008 1295.66 420.188Z" fill="#DDEBF9"/>
<path d="M1201.88 460.545C1204.1 477.395 1249.48 481.017 1287.37 476.024C1325.26 471.032 1349.31 476.093 1347.78 440.637C1341.03 389.412 1309.76 335.25 1265.23 343.858C1218.36 346.604 1194.28 402.847 1201.88 460.545Z" fill="#DDEBF9"/>
<path d="M1084.46 508.357C1087.36 520.377 1117.26 503.21 1159.18 497.687C1201.1 492.164 1239.77 487.895 1245.87 486.265C1234.84 402.556 1202.38 358.88 1153.15 368.672C1101.25 371.375 1065.36 429.019 1084.46 508.357Z" fill="#DDEBF9"/>
<path d="M967.172 504.709C969.867 518.244 1011.03 498.931 1052.88 493.416C1094.74 487.902 1138.48 494.373 1136.89 482.348C1129.15 392.893 1092.65 348.923 1043.52 358.855C991.677 361.359 950.101 418.967 967.172 504.709Z" fill="#DDEBF9"/>
<path d="M1513.11 392.817C1518.06 430.428 1544.91 426.892 1591.33 420.775C1637.76 414.658 1684.57 396.012 1681.23 370.666C1672.43 303.83 1627.65 254.607 1581.23 260.724C1534.8 266.841 1499.59 329.711 1513.11 392.817Z" fill="#DDEBF9"/>
<path d="M1616.62 385.549C1621.13 419.755 1665.7 413.883 1720.67 406.64C1731.66 405.192 1732.91 407.14 1734.24 356.964C1735.58 306.789 1734.89 278.706 1724.01 280.969C1669.68 292.274 1610.11 336.071 1616.62 385.549Z" fill="#DDEBF9"/>
<path d="M1413.4 425.759C1419.91 475.219 1454.42 454.313 1499.59 448.361C1544.76 442.41 1583.5 453.666 1576.98 404.206C1570.47 354.747 1528.57 319.476 1483.39 325.428C1426.23 327.161 1406.88 376.299 1413.4 425.759Z" fill="#DDEBF9"/>
<path d="M1728 397.648L-26 415.893V760.648H1728V397.648Z" fill="#DDEBF9"/>
<path d="M-9.99994 745.648H850.753C838.924 745.642 1729 745.648 1729 745.648C1729 683.516 1353.21 538.148 873 538.148C392.789 538.148 -9.99994 683.516 -9.99994 745.648Z" fill="#B6D3D9"/>
<path d="M800.266 660.035L814.846 663.641C824.939 677.494 822.924 683.173 801.639 671.847L800.266 660.035Z" fill="#3B697C"/>
<path d="M1214.7 661.14L1192.74 666.572C1177.54 687.438 1180.57 695.993 1212.64 678.932L1214.7 661.14Z" fill="#3B697C"/>
<path d="M1539.53 692.507C1546.02 686.862 1545.27 678.094 1549.49 674.072C1553.71 670.051 1561.99 673.847 1566.98 679.113C1568.15 686.288 1565.24 691.529 1560.46 693.49C1555.68 695.452 1548.18 689.882 1539.53 692.507Z" fill="#3B697C"/>
<path d="M531.033 645.423C535.263 651.42 532.862 658.533 535.539 662.723C538.217 666.912 545.853 665.45 551.054 662.099C553.487 656.392 552.136 651.457 548.576 648.861C545.015 646.265 537.671 649.357 531.033 645.423Z" fill="#3B697C"/>
<path d="M993 690.186L1004.22 713.152" stroke="#3B697C" stroke-width="2" stroke-linecap="round"/>
<path d="M1012.48 687.648L1014.07 711.964" stroke="#3B697C" stroke-width="2" stroke-linecap="round"/>
<path d="M1028.12 688.953L1024.31 713.141" stroke="#3B697C" stroke-width="2" stroke-linecap="round"/>
<path d="M1366.02 641.879L1365.96 641.902L1365.9 641.912C1358.15 643.045 1353.65 644.764 1351.29 647.722C1349.06 650.527 1348.67 654.555 1349.54 660.602C1355.35 655.238 1360.54 652.823 1371.19 649.639C1371.93 648.057 1371.74 646.411 1370.27 642.294C1369.23 641.883 1368.49 641.663 1367.88 641.595C1367.24 641.524 1366.69 641.612 1366.02 641.879Z" fill="#508D99" stroke="#19334E"/>
<line y1="-0.5" x2="6.56237" y2="-0.5" transform="matrix(0.94368 0.33086 -0.328177 -0.944616 1370.81 642.059)" stroke="#19334E"/>
<path d="M1370.43 641.951C1362.45 644.534 1352.57 648.316 1353.26 650.856" stroke="#19334E"/>
<path d="M1520.89 696.612L1531.56 693.972C1538.95 683.831 1537.48 679.674 1521.89 687.965L1520.89 696.612Z" fill="#3B697C"/>
<path d="M846.017 577.035L831.437 580.641C821.345 594.494 823.36 600.173 844.645 588.847L846.017 577.035Z" fill="#3B697C"/>
<path d="M374.579 607.14L396.542 612.572C411.744 633.438 408.708 641.993 376.647 624.932L374.579 607.14Z" fill="#3B697C"/>
<path d="M201.99 710.856L180.757 716.107C166.059 736.281 168.994 744.552 199.991 728.057L201.99 710.856Z" fill="#3B697C"/>
<path d="M1280.58 726.053C1274.32 720.611 1275.04 712.159 1270.98 708.283C1267.03 704.519 1259.39 707.858 1254.55 712.702C1254.27 712.985 1254.08 713.353 1254.03 713.749C1253.15 720.354 1255.93 725.166 1260.4 727.001C1265.01 728.892 1272.23 723.522 1280.58 726.053Z" fill="#3B697C"/>
<path d="M1115.25 562.423C1111.02 568.42 1113.42 575.533 1110.74 579.723C1108.07 583.912 1100.43 582.45 1095.23 579.099C1092.8 573.392 1094.15 568.457 1097.71 565.861C1101.27 563.265 1108.61 566.357 1115.25 562.423Z" fill="#3B697C"/>
<path d="M1132.28 658.186L1121.07 681.152" stroke="#3B697C" stroke-width="2" stroke-linecap="round"/>
<path d="M1112.8 655.648L1111.21 679.964" stroke="#3B697C" stroke-width="2" stroke-linecap="round"/>
<path d="M1097.17 656.953L1100.97 681.141" stroke="#3B697C" stroke-width="2" stroke-linecap="round"/>
<path d="M747.285 702.186L736.069 725.152" stroke="#3B697C" stroke-width="2" stroke-linecap="round"/>
<path d="M727.805 699.648L726.214 723.964" stroke="#3B697C" stroke-width="2" stroke-linecap="round"/>
<path d="M712.166 700.953L715.971 725.141" stroke="#3B697C" stroke-width="2" stroke-linecap="round"/>
<path d="M653.283 607.186L642.067 630.152" stroke="#3B697C" stroke-width="2" stroke-linecap="round"/>
<path d="M633.803 604.648L632.212 628.964" stroke="#3B697C" stroke-width="2" stroke-linecap="round"/>
<path d="M618.164 605.953L621.969 630.141" stroke="#3B697C" stroke-width="2" stroke-linecap="round"/>
</g>
<path d="M280.588 209.16C277.014 209.16 274.134 207.427 271.948 203.96C269.814 200.44 268.561 195.693 268.188 189.72C268.134 188.867 268.108 187.613 268.108 185.96C268.108 179.507 269.174 173.8 271.308 168.84C273.441 163.827 276.454 159.96 280.348 157.24C284.294 154.467 288.881 153.08 294.108 153.08C299.334 153.08 303.894 154.467 307.788 157.24C311.734 159.96 314.748 163.8 316.828 168.76C318.961 173.72 320.028 179.453 320.028 185.96C320.028 187.613 320.001 188.867 319.948 189.72C319.574 195.8 318.321 200.547 316.188 203.96C314.054 207.373 311.174 209.08 307.548 209.08C304.614 209.08 302.561 208.28 301.388 206.68C300.268 205.08 299.708 203.133 299.708 200.84C299.708 199.773 299.788 198.84 299.948 198.04C297.174 198.147 294.721 198.2 292.588 198.2C291.254 198.2 289.788 198.147 288.188 198.04C288.348 198.84 288.428 199.773 288.428 200.84C288.428 203.187 287.841 205.16 286.668 206.76C285.548 208.36 283.521 209.16 280.588 209.16ZM287.628 183.8C290.508 183.693 292.614 183.64 293.948 183.64C295.388 183.64 297.494 183.693 300.268 183.8C300.374 183.213 300.428 182.333 300.428 181.16C300.428 178.653 299.894 176.627 298.828 175.08C297.761 173.48 296.108 172.68 293.868 172.68C291.681 172.68 290.054 173.453 288.988 175C287.921 176.547 287.388 178.547 287.388 181C287.388 181.907 287.468 182.84 287.628 183.8ZM385.504 175.64C385.504 179.533 384.917 182.973 383.744 185.96C382.624 188.947 381.024 191.453 378.944 193.48C380.704 196.2 381.584 198.84 381.584 201.4C381.584 203.587 380.731 205.4 379.024 206.84C377.371 208.28 375.477 209 373.344 209C372.117 209 370.997 208.813 369.984 208.44C368.971 208.067 367.877 207.427 366.704 206.52C365.691 205.72 364.731 204.627 363.824 203.24C362.917 201.853 362.197 200.413 361.664 198.92C359.904 198.707 358.144 198.253 356.384 197.56C356.704 199.267 356.864 200.573 356.864 201.48C356.864 206.547 354.224 209.08 348.944 209.08C344.517 209.08 341.397 206.493 339.584 201.32C337.771 196.147 336.864 189.827 336.864 182.36C336.864 177.293 337.771 172.547 339.584 168.12C341.451 163.64 344.277 160.04 348.064 157.32C351.851 154.547 356.464 153.16 361.904 153.16C366.277 153.16 370.251 154.093 373.824 155.96C377.397 157.773 380.224 160.387 382.304 163.8C384.437 167.213 385.504 171.16 385.504 175.64ZM355.584 179.4C355.584 181.213 356.304 182.813 357.744 184.2C359.184 185.533 360.837 186.2 362.704 186.2C364.624 186.2 366.277 185.533 367.664 184.2C369.104 182.813 369.824 181.213 369.824 179.4C369.824 177.533 369.104 175.933 367.664 174.6C366.277 173.213 364.624 172.52 362.704 172.52C360.837 172.52 359.184 173.213 357.744 174.6C356.304 175.987 355.584 177.587 355.584 179.4ZM455.696 164.92C455.696 168.44 454.229 171 451.296 172.6C448.416 174.147 443.696 175.08 437.136 175.4C437.349 177.96 437.456 181.267 437.456 185.32C437.456 190.973 437.136 195.507 436.496 198.92C435.909 202.28 434.869 204.787 433.376 206.44C431.883 208.04 429.803 208.84 427.136 208.84C424.523 208.84 422.523 207.987 421.136 206.28C419.749 204.573 418.789 202.04 418.256 198.68C417.723 195.32 417.456 190.867 417.456 185.32C417.456 181.587 417.536 178.28 417.696 175.4C413.269 175.187 409.696 174.733 406.976 174.04C404.309 173.293 402.336 172.2 401.056 170.76C399.776 169.32 399.136 167.373 399.136 164.92C399.136 161.933 400.149 159.587 402.176 157.88C404.203 156.173 407.243 154.973 411.296 154.28C415.349 153.587 420.656 153.24 427.216 153.24C433.829 153.24 439.189 153.587 443.296 154.28C447.403 154.973 450.496 156.173 452.576 157.88C454.656 159.587 455.696 161.933 455.696 164.92ZM496.781 194.52C499.501 194.84 501.608 195.533 503.101 196.6C504.648 197.613 505.421 199.24 505.421 201.48C505.421 203.72 504.621 205.373 503.021 206.44C501.474 207.507 499.608 208.173 497.421 208.44C495.234 208.653 492.408 208.76 488.941 208.76C485.528 208.76 482.728 208.653 480.541 208.44C478.354 208.173 476.488 207.507 474.941 206.44C473.394 205.373 472.621 203.72 472.621 201.48C472.621 199.293 473.341 197.693 474.781 196.68C476.274 195.613 478.301 194.893 480.861 194.52C480.594 191.427 480.461 187 480.461 181.24C480.461 176.067 480.568 171.907 480.781 168.76C477.688 168.44 475.261 167.693 473.501 166.52C471.741 165.347 470.861 163.507 470.861 161C470.861 158.547 471.714 156.733 473.421 155.56C475.128 154.387 477.181 153.667 479.581 153.4C481.981 153.133 485.074 153 488.861 153C492.648 153 495.741 153.133 498.141 153.4C500.541 153.667 502.594 154.387 504.301 155.56C506.061 156.733 506.941 158.547 506.941 161C506.941 163.507 506.034 165.347 504.221 166.52C502.461 167.693 500.008 168.44 496.861 168.76C497.128 171.693 497.261 175.853 497.261 181.24C497.261 186.413 497.101 190.84 496.781 194.52ZM543.157 209.08C539.637 209.08 536.25 208.6 532.997 207.64C529.797 206.627 527.184 205.24 525.157 203.48C523.13 201.667 522.117 199.613 522.117 197.32C522.117 195.133 522.784 193.4 524.117 192.12C525.45 190.84 527.13 190.2 529.157 190.2C530.49 190.2 531.637 190.387 532.597 190.76C533.61 191.08 534.704 191.56 535.877 192.2C536.73 192.627 537.45 192.973 538.037 193.24C538.677 193.453 539.344 193.56 540.037 193.56C541.797 193.56 542.677 192.867 542.677 191.48C542.677 190.947 542.304 190.493 541.557 190.12C540.81 189.693 539.557 189.133 537.797 188.44C534.65 187.213 532.09 186.013 530.117 184.84C527.077 183.027 524.97 181.053 523.797 178.92C522.677 176.787 522.117 174.12 522.117 170.92C522.117 167.827 523.104 164.92 525.077 162.2C527.05 159.427 529.744 157.213 533.157 155.56C536.57 153.907 540.304 153.08 544.357 153.08C548.304 153.08 551.904 153.693 555.157 154.92C558.464 156.093 561.05 157.747 562.917 159.88C564.837 161.96 565.797 164.28 565.797 166.84C565.797 169.773 564.917 171.987 563.157 173.48C561.45 174.92 559.53 175.64 557.397 175.64C555.637 175.64 554.304 175.533 553.397 175.32C552.544 175.107 551.69 174.813 550.837 174.44C550.144 174.173 549.557 173.987 549.077 173.88C548.597 173.72 547.93 173.64 547.077 173.64C546.384 173.64 545.717 173.88 545.077 174.36C544.49 174.787 544.197 175.4 544.197 176.2C544.197 176.787 544.544 177.293 545.237 177.72C545.93 178.093 546.73 178.44 547.637 178.76C548.544 179.08 549.184 179.32 549.557 179.48C554.517 181.293 558.17 183.373 560.517 185.72C562.864 188.013 564.037 191 564.037 194.68C564.037 199.213 562.197 202.76 558.517 205.32C554.89 207.827 549.77 209.08 543.157 209.08ZM638.371 164.92C638.371 168.44 636.904 171 633.971 172.6C631.091 174.147 626.371 175.08 619.811 175.4C620.024 177.96 620.131 181.267 620.131 185.32C620.131 190.973 619.811 195.507 619.171 198.92C618.584 202.28 617.544 204.787 616.051 206.44C614.558 208.04 612.478 208.84 609.811 208.84C607.198 208.84 605.198 207.987 603.811 206.28C602.424 204.573 601.464 202.04 600.931 198.68C600.398 195.32 600.131 190.867 600.131 185.32C600.131 181.587 600.211 178.28 600.371 175.4C595.944 175.187 592.371 174.733 589.651 174.04C586.984 173.293 585.011 172.2 583.731 170.76C582.451 169.32 581.811 167.373 581.811 164.92C581.811 161.933 582.824 159.587 584.851 157.88C586.878 156.173 589.918 154.973 593.971 154.28C598.024 153.587 603.331 153.24 609.891 153.24C616.504 153.24 621.864 153.587 625.971 154.28C630.078 154.973 633.171 156.173 635.251 157.88C637.331 159.587 638.371 161.933 638.371 164.92ZM679.456 194.52C682.176 194.84 684.283 195.533 685.776 196.6C687.323 197.613 688.096 199.24 688.096 201.48C688.096 203.72 687.296 205.373 685.696 206.44C684.149 207.507 682.283 208.173 680.096 208.44C677.909 208.653 675.083 208.76 671.616 208.76C668.203 208.76 665.403 208.653 663.216 208.44C661.029 208.173 659.163 207.507 657.616 206.44C656.069 205.373 655.296 203.72 655.296 201.48C655.296 199.293 656.016 197.693 657.456 196.68C658.949 195.613 660.976 194.893 663.536 194.52C663.269 191.427 663.136 187 663.136 181.24C663.136 176.067 663.243 171.907 663.456 168.76C660.363 168.44 657.936 167.693 656.176 166.52C654.416 165.347 653.536 163.507 653.536 161C653.536 158.547 654.389 156.733 656.096 155.56C657.803 154.387 659.856 153.667 662.256 153.4C664.656 153.133 667.749 153 671.536 153C675.323 153 678.416 153.133 680.816 153.4C683.216 153.667 685.269 154.387 686.976 155.56C688.736 156.733 689.616 158.547 689.616 161C689.616 163.507 688.709 165.347 686.896 166.52C685.136 167.693 682.683 168.44 679.536 168.76C679.803 171.693 679.936 175.853 679.936 181.24C679.936 186.413 679.776 190.84 679.456 194.52ZM731.451 208.84C726.224 208.84 721.531 207.8 717.371 205.72C713.264 203.587 710.011 200.44 707.611 196.28C705.211 192.067 704.011 186.92 704.011 180.84C704.011 175.933 705.131 171.347 707.371 167.08C709.611 162.813 712.704 159.4 716.651 156.84C720.598 154.28 725.024 153 729.931 153C734.571 153 738.704 153.88 742.331 155.64C745.958 157.347 748.758 159.693 750.731 162.68C752.758 165.667 753.771 169 753.771 172.68C753.771 175.027 753.078 177.053 751.691 178.76C750.358 180.467 748.438 181.32 745.931 181.32C744.064 181.32 742.624 181 741.611 180.36C740.598 179.72 739.531 178.733 738.411 177.4C737.291 176.067 736.198 175.08 735.131 174.44C734.118 173.747 732.624 173.4 730.651 173.4C728.144 173.4 725.984 174.36 724.171 176.28C722.411 178.147 721.531 180.44 721.531 183.16C721.531 186.093 722.278 188.573 723.771 190.6C725.318 192.573 727.398 193.56 730.011 193.56C732.038 193.56 733.638 193.267 734.811 192.68C736.038 192.093 737.318 191.24 738.651 190.12C739.771 189.16 740.784 188.44 741.691 187.96C742.651 187.48 743.824 187.24 745.211 187.24C747.344 187.24 749.024 187.907 750.251 189.24C751.478 190.52 752.091 192.2 752.091 194.28C752.091 196.733 751.184 199.08 749.371 201.32C747.611 203.56 745.158 205.373 742.011 206.76C738.864 208.147 735.344 208.84 731.451 208.84ZM821.425 209.16C817.852 209.16 814.972 207.427 812.785 203.96C810.652 200.44 809.399 195.693 809.025 189.72C808.972 188.867 808.945 187.613 808.945 185.96C808.945 179.507 810.012 173.8 812.145 168.84C814.279 163.827 817.292 159.96 821.185 157.24C825.132 154.467 829.719 153.08 834.945 153.08C840.172 153.08 844.732 154.467 848.625 157.24C852.572 159.96 855.585 163.8 857.665 168.76C859.799 173.72 860.865 179.453 860.865 185.96C860.865 187.613 860.839 188.867 860.785 189.72C860.412 195.8 859.159 200.547 857.025 203.96C854.892 207.373 852.012 209.08 848.385 209.08C845.452 209.08 843.399 208.28 842.225 206.68C841.105 205.08 840.545 203.133 840.545 200.84C840.545 199.773 840.625 198.84 840.785 198.04C838.012 198.147 835.559 198.2 833.425 198.2C832.092 198.2 830.625 198.147 829.025 198.04C829.185 198.84 829.265 199.773 829.265 200.84C829.265 203.187 828.679 205.16 827.505 206.76C826.385 208.36 824.359 209.16 821.425 209.16ZM828.465 183.8C831.345 183.693 833.452 183.64 834.785 183.64C836.225 183.64 838.332 183.693 841.105 183.8C841.212 183.213 841.265 182.333 841.265 181.16C841.265 178.653 840.732 176.627 839.665 175.08C838.599 173.48 836.945 172.68 834.705 172.68C832.519 172.68 830.892 173.453 829.825 175C828.759 176.547 828.225 178.547 828.225 181C828.225 181.907 828.305 182.84 828.465 183.8ZM900.963 209C894.083 209 889.069 208.173 885.923 206.52C882.776 204.867 880.749 202.227 879.843 198.6C878.936 194.973 878.483 189.32 878.483 181.64C878.483 173.853 878.909 168.067 879.763 164.28C880.669 160.44 882.669 157.613 885.763 155.8C888.909 153.933 893.896 153 900.723 153C904.829 153 909.016 153.96 913.283 155.88C917.549 157.747 921.149 160.84 924.083 165.16C927.016 169.48 928.483 175 928.483 181.72C928.483 188.173 926.989 193.453 924.003 197.56C921.016 201.613 917.416 204.547 913.203 206.36C908.989 208.12 904.909 209 900.963 209ZM896.003 194.92C897.709 195.133 898.936 195.24 899.683 195.24C903.469 195.24 906.403 194.227 908.483 192.2C910.563 190.173 911.603 187.373 911.603 183.8C911.603 180.6 910.589 178.12 908.563 176.36C906.536 174.547 903.683 173.64 900.003 173.64C898.616 173.64 897.283 173.747 896.003 173.96V194.92ZM972.445 209C967.325 209 962.552 206.733 958.125 202.2C953.699 197.667 950.179 192.12 947.565 185.56C944.952 178.947 943.645 172.813 943.645 167.16C943.645 163.053 944.552 159.693 946.365 157.08C948.179 154.413 950.872 153.08 954.445 153.08C957.379 153.08 959.779 154.2 961.645 156.44C963.565 158.68 965.059 161.427 966.125 164.68C967.192 167.88 968.339 172.093 969.565 177.32C970.685 182.227 971.645 185.853 972.445 188.2C973.139 186.547 973.805 184.573 974.445 182.28C975.085 179.987 975.672 177.72 976.205 175.48C977.432 170.573 978.552 166.627 979.565 163.64C980.632 160.653 982.019 158.147 983.725 156.12C985.432 154.093 987.592 153.08 990.205 153.08C993.779 153.08 996.472 154.36 998.285 156.92C1000.1 159.48 1001.01 162.893 1001.01 167.16C1001.01 172.813 999.725 178.947 997.165 185.56C994.605 192.12 991.112 197.667 986.685 202.2C982.312 206.733 977.565 209 972.445 209ZM1056.93 196.2C1059.49 197 1060.77 198.68 1060.77 201.24C1060.77 203.64 1059.54 205.533 1057.09 206.92C1054.64 208.307 1050.4 209 1044.37 209C1036.85 209 1030.4 207.187 1025.01 203.56C1019.68 199.933 1017.01 192.733 1017.01 181.96C1017.01 176.52 1017.94 171.613 1019.81 167.24C1021.68 162.867 1024.45 159.4 1028.13 156.84C1031.86 154.28 1036.42 153 1041.81 153C1049.01 153 1054.08 154.12 1057.01 156.36C1059.94 158.547 1061.41 161.24 1061.41 164.44C1061.41 165.933 1061.04 167.32 1060.29 168.6C1059.54 169.827 1058.42 170.787 1056.93 171.48C1055.65 172.12 1054 172.44 1051.97 172.44L1049.81 172.36C1049.38 172.307 1048.77 172.28 1047.97 172.28C1045.2 172.28 1043.01 172.787 1041.41 173.8C1039.81 174.76 1038.72 176.253 1038.13 178.28C1040.37 178.173 1042.4 178.12 1044.21 178.12C1049.6 178.12 1053.09 178.28 1054.69 178.6C1056.5 178.973 1057.89 179.693 1058.85 180.76C1059.86 181.827 1060.37 183.08 1060.37 184.52C1060.37 185.96 1059.89 187.213 1058.93 188.28C1057.97 189.293 1056.53 189.987 1054.61 190.36C1053.12 190.68 1049.49 190.84 1043.73 190.84C1041.38 190.84 1039.73 190.813 1038.77 190.76C1040.42 194.28 1043.52 196.04 1048.05 196.04C1048.32 196.04 1048.93 195.987 1049.89 195.88C1051.17 195.773 1052.26 195.72 1053.17 195.72C1054.72 195.72 1055.97 195.88 1056.93 196.2ZM1087.51 209C1084.89 209 1082.76 207.4 1081.11 204.2C1079.51 201 1078.36 197.133 1077.67 192.6C1076.97 188.067 1076.63 183.693 1076.63 179.48C1076.63 172.6 1077.72 166.493 1079.91 161.16C1082.15 155.773 1085.88 153.08 1091.11 153.08C1093.4 153.08 1095.4 153.96 1097.11 155.72C1098.87 157.48 1100.39 159.773 1101.67 162.6C1102.95 165.373 1104.49 169.24 1106.31 174.2L1107.67 177.96C1107.56 175.933 1107.51 174.44 1107.51 173.48C1107.51 167.24 1108.33 162.28 1109.99 158.6C1111.69 154.92 1114.39 153.08 1118.07 153.08C1122.49 153.08 1125.53 155.72 1127.19 161C1128.84 166.227 1129.67 172.387 1129.67 179.48C1129.67 183.693 1129.13 188.067 1128.07 192.6C1127.05 197.133 1125.32 201 1122.87 204.2C1120.41 207.4 1117.21 209 1113.27 209C1110.87 209 1108.76 208.147 1106.95 206.44C1105.19 204.68 1103.69 202.52 1102.47 199.96C1101.29 197.4 1099.88 193.88 1098.23 189.4C1097.37 187.053 1096.71 185.293 1096.23 184.12L1096.31 190.6C1096.31 194.813 1096.09 198.227 1095.67 200.84C1095.24 203.4 1094.39 205.4 1093.11 206.84C1091.88 208.28 1090.01 209 1087.51 209ZM1201.4 164.92C1201.4 168.44 1199.93 171 1197 172.6C1194.12 174.147 1189.4 175.08 1182.84 175.4C1183.05 177.96 1183.16 181.267 1183.16 185.32C1183.16 190.973 1182.84 195.507 1182.2 198.92C1181.61 202.28 1180.57 204.787 1179.08 206.44C1177.58 208.04 1175.5 208.84 1172.84 208.84C1170.22 208.84 1168.22 207.987 1166.84 206.28C1165.45 204.573 1164.49 202.04 1163.96 198.68C1163.42 195.32 1163.16 190.867 1163.16 185.32C1163.16 181.587 1163.24 178.28 1163.4 175.4C1158.97 175.187 1155.4 174.733 1152.68 174.04C1150.01 173.293 1148.04 172.2 1146.76 170.76C1145.48 169.32 1144.84 167.373 1144.84 164.92C1144.84 161.933 1145.85 159.587 1147.88 157.88C1149.9 156.173 1152.94 154.973 1157 154.28C1161.05 153.587 1166.36 153.24 1172.92 153.24C1179.53 153.24 1184.89 153.587 1189 154.28C1193.1 154.973 1196.2 156.173 1198.28 157.88C1200.36 159.587 1201.4 161.933 1201.4 164.92ZM1244.8 209C1238.83 209 1233.71 207.667 1229.44 205C1225.17 202.28 1221.95 198.68 1219.76 194.2C1217.63 189.667 1216.56 184.733 1216.56 179.4C1216.56 172.04 1217.41 165.8 1219.12 160.68C1220.83 155.56 1224.16 153 1229.12 153C1233.01 153 1235.81 154.147 1237.52 156.44C1239.23 158.733 1240.08 161.56 1240.08 164.92C1240.08 167.16 1239.87 169.773 1239.44 172.76C1239.01 175.64 1238.8 178.067 1238.8 180.04C1238.8 182.653 1239.25 184.893 1240.16 186.76C1241.07 188.627 1242.61 189.56 1244.8 189.56C1247.04 189.56 1248.59 188.627 1249.44 186.76C1250.35 184.893 1250.8 182.653 1250.8 180.04C1250.8 178.067 1250.59 175.64 1250.16 172.76C1249.73 169.773 1249.52 167.16 1249.52 164.92C1249.52 161.56 1250.37 158.733 1252.08 156.44C1253.79 154.147 1256.59 153 1260.48 153C1265.44 153 1268.77 155.56 1270.48 160.68C1272.19 165.8 1273.04 172.04 1273.04 179.4C1273.04 184.733 1271.95 189.667 1269.76 194.2C1267.63 198.68 1264.43 202.28 1260.16 205C1255.89 207.667 1250.77 209 1244.8 209ZM1337.71 175.64C1337.71 179.533 1337.12 182.973 1335.95 185.96C1334.83 188.947 1333.23 191.453 1331.15 193.48C1332.91 196.2 1333.79 198.84 1333.79 201.4C1333.79 203.587 1332.93 205.4 1331.23 206.84C1329.57 208.28 1327.68 209 1325.55 209C1324.32 209 1323.2 208.813 1322.19 208.44C1321.17 208.067 1320.08 207.427 1318.91 206.52C1317.89 205.72 1316.93 204.627 1316.03 203.24C1315.12 201.853 1314.4 200.413 1313.87 198.92C1312.11 198.707 1310.35 198.253 1308.59 197.56C1308.91 199.267 1309.07 200.573 1309.07 201.48C1309.07 206.547 1306.43 209.08 1301.15 209.08C1296.72 209.08 1293.6 206.493 1291.79 201.32C1289.97 196.147 1289.07 189.827 1289.07 182.36C1289.07 177.293 1289.97 172.547 1291.79 168.12C1293.65 163.64 1296.48 160.04 1300.27 157.32C1304.05 154.547 1308.67 153.16 1314.11 153.16C1318.48 153.16 1322.45 154.093 1326.03 155.96C1329.6 157.773 1332.43 160.387 1334.51 163.8C1336.64 167.213 1337.71 171.16 1337.71 175.64ZM1307.79 179.4C1307.79 181.213 1308.51 182.813 1309.95 184.2C1311.39 185.533 1313.04 186.2 1314.91 186.2C1316.83 186.2 1318.48 185.533 1319.87 184.2C1321.31 182.813 1322.03 181.213 1322.03 179.4C1322.03 177.533 1321.31 175.933 1319.87 174.6C1318.48 173.213 1316.83 172.52 1314.91 172.52C1313.04 172.52 1311.39 173.213 1309.95 174.6C1308.51 175.987 1307.79 177.587 1307.79 179.4ZM1393.68 196.2C1396.24 197 1397.52 198.68 1397.52 201.24C1397.52 203.64 1396.29 205.533 1393.84 206.92C1391.39 208.307 1387.15 209 1381.12 209C1373.6 209 1367.15 207.187 1361.76 203.56C1356.43 199.933 1353.76 192.733 1353.76 181.96C1353.76 176.52 1354.69 171.613 1356.56 167.24C1358.43 162.867 1361.2 159.4 1364.88 156.84C1368.61 154.28 1373.17 153 1378.56 153C1385.76 153 1390.83 154.12 1393.76 156.36C1396.69 158.547 1398.16 161.24 1398.16 164.44C1398.16 165.933 1397.79 167.32 1397.04 168.6C1396.29 169.827 1395.17 170.787 1393.68 171.48C1392.4 172.12 1390.75 172.44 1388.72 172.44L1386.56 172.36C1386.13 172.307 1385.52 172.28 1384.72 172.28C1381.95 172.28 1379.76 172.787 1378.16 173.8C1376.56 174.76 1375.47 176.253 1374.88 178.28C1377.12 178.173 1379.15 178.12 1380.96 178.12C1386.35 178.12 1389.84 178.28 1391.44 178.6C1393.25 178.973 1394.64 179.693 1395.6 180.76C1396.61 181.827 1397.12 183.08 1397.12 184.52C1397.12 185.96 1396.64 187.213 1395.68 188.28C1394.72 189.293 1393.28 189.987 1391.36 190.36C1389.87 190.68 1386.24 190.84 1380.48 190.84C1378.13 190.84 1376.48 190.813 1375.52 190.76C1377.17 194.28 1380.27 196.04 1384.8 196.04C1385.07 196.04 1385.68 195.987 1386.64 195.88C1387.92 195.773 1389.01 195.72 1389.92 195.72C1391.47 195.72 1392.72 195.88 1393.68 196.2ZM1435.28 209.08C1431.76 209.08 1428.37 208.6 1425.12 207.64C1421.92 206.627 1419.3 205.24 1417.28 203.48C1415.25 201.667 1414.24 199.613 1414.24 197.32C1414.24 195.133 1414.9 193.4 1416.24 192.12C1417.57 190.84 1419.25 190.2 1421.28 190.2C1422.61 190.2 1423.76 190.387 1424.72 190.76C1425.73 191.08 1426.82 191.56 1428 192.2C1428.85 192.627 1429.57 192.973 1430.16 193.24C1430.8 193.453 1431.46 193.56 1432.16 193.56C1433.92 193.56 1434.8 192.867 1434.8 191.48C1434.8 190.947 1434.42 190.493 1433.68 190.12C1432.93 189.693 1431.68 189.133 1429.92 188.44C1426.77 187.213 1424.21 186.013 1422.24 184.84C1419.2 183.027 1417.09 181.053 1415.92 178.92C1414.8 176.787 1414.24 174.12 1414.24 170.92C1414.24 167.827 1415.22 164.92 1417.2 162.2C1419.17 159.427 1421.86 157.213 1425.28 155.56C1428.69 153.907 1432.42 153.08 1436.48 153.08C1440.42 153.08 1444.02 153.693 1447.28 154.92C1450.58 156.093 1453.17 157.747 1455.04 159.88C1456.96 161.96 1457.92 164.28 1457.92 166.84C1457.92 169.773 1457.04 171.987 1455.28 173.48C1453.57 174.92 1451.65 175.64 1449.52 175.64C1447.76 175.64 1446.42 175.533 1445.52 175.32C1444.66 175.107 1443.81 174.813 1442.96 174.44C1442.26 174.173 1441.68 173.987 1441.2 173.88C1440.72 173.72 1440.05 173.64 1439.2 173.64C1438.5 173.64 1437.84 173.88 1437.2 174.36C1436.61 174.787 1436.32 175.4 1436.32 176.2C1436.32 176.787 1436.66 177.293 1437.36 177.72C1438.05 178.093 1438.85 178.44 1439.76 178.76C1440.66 179.08 1441.3 179.32 1441.68 179.48C1446.64 181.293 1450.29 183.373 1452.64 185.72C1454.98 188.013 1456.16 191 1456.16 194.68C1456.16 199.213 1454.32 202.76 1450.64 205.32C1447.01 207.827 1441.89 209.08 1435.28 209.08Z" fill="white"/>
<mask id="mask1_856_9081" style="mask-type:alpha" maskUnits="userSpaceOnUse" x="244" y="485" width="322" height="250">
<rect x="244" y="485" width="322" height="250" fill="#D9D9D9"/>
</mask>
<g mask="url(#mask1_856_9081)">
<ellipse cx="124.084" cy="123.601" rx="124.084" ry="123.601" transform="matrix(-1 0 0 1 559.107 539.773)" fill="#17435A"/>
<ellipse cx="96.7854" cy="108.003" rx="96.7854" ry="108.003" transform="matrix(-1 0 0 1 440.483 490.617)" fill="#17435A"/>
<ellipse cx="6.32827" cy="5.97949" rx="6.32827" ry="5.97949" transform="matrix(-1 0 0 1 476.219 569.141)" fill="#A2C5CC"/>
<ellipse cx="2.48133" cy="2.25641" rx="2.48133" ry="2.25641" transform="matrix(-1 0 0 1 466.045 605.242)" fill="#A2C5CC"/>
<ellipse cx="2.48133" cy="2.25641" rx="2.48133" ry="2.25641" transform="matrix(-1 0 0 1 451.156 612.012)" fill="#3B697C"/>
<ellipse cx="6.32827" cy="5.97949" rx="6.32827" ry="5.97949" transform="matrix(-1 0 0 1 433.038 551.314)" fill="#A2C5CC"/>
<ellipse cx="3.72251" cy="3.38462" rx="3.72251" ry="3.38462" transform="matrix(-1 0 0 1 430.061 578.393)" fill="#A2C5CC"/>
<ellipse cx="3.72251" cy="3.38462" rx="3.72251" ry="3.38462" transform="matrix(-1 0 0 1 532.306 686.926)" fill="#A2C5CC"/>
<ellipse cx="6.32827" cy="5.97949" rx="6.32827" ry="5.97949" transform="matrix(-1 0 0 1 402.765 575.234)" fill="#A2C5CC"/>
<ellipse cx="6.32827" cy="5.97949" rx="6.32827" ry="5.97949" transform="matrix(-1 0 0 1 401.023 596.443)" fill="#A2C5CC"/>
<ellipse cx="6.32827" cy="5.97949" rx="6.32827" ry="5.97949" transform="matrix(-1 0 0 1 521.137 595.541)" fill="#A2C5CC"/>
<ellipse cx="4.96335" cy="4.51282" rx="4.96335" ry="4.51282" transform="matrix(-1 0 0 1 395.069 546.805)" fill="#A2C5CC"/>
<ellipse cx="4.96335" cy="4.51282" rx="4.96335" ry="4.51282" transform="matrix(-1 0 0 1 390.106 513.859)" fill="#A2C5CC"/>
<ellipse cx="4.96335" cy="4.51282" rx="4.96335" ry="4.51282" transform="matrix(-1 0 0 1 362.062 533.039)" fill="#A2C5CC"/>
<ellipse cx="2.97759" cy="2.70769" rx="2.97759" ry="2.70769" transform="matrix(-1 0 0 1 373.479 547.707)" fill="#A2C5CC"/>
<ellipse cx="2.48133" cy="2.25641" rx="2.48133" ry="2.25641" transform="matrix(-1 0 0 1 356.104 570.27)" fill="#A2C5CC"/>
<ellipse cx="2.48133" cy="2.25641" rx="2.48133" ry="2.25641" transform="matrix(-1 0 0 1 332.28 570.27)" fill="#A2C5CC"/>
<ellipse cx="1.86099" cy="1.69231" rx="1.86099" ry="1.69231" transform="matrix(-1 0 0 1 348.66 561.02)" fill="#3B697C"/>
<ellipse cx="2.97759" cy="2.70769" rx="2.97759" ry="2.70769" transform="matrix(-1 0 0 1 378.442 579.295)" fill="#3B697C"/>
<ellipse cx="2.97759" cy="2.70769" rx="2.97759" ry="2.70769" transform="matrix(-1 0 0 1 408.719 565.531)" fill="#3B697C"/>
<ellipse cx="2.97759" cy="2.70769" rx="2.97759" ry="2.70769" transform="matrix(-1 0 0 1 401.023 537.551)" fill="#3B697C"/>
<ellipse cx="2.72946" cy="2.48205" rx="2.72946" ry="2.48205" transform="matrix(-1 0 0 1 482.176 559.662)" fill="#3B697C"/>
<ellipse cx="2.72946" cy="2.48205" rx="2.72946" ry="2.48205" transform="matrix(-1 0 0 1 461.082 551.314)" fill="#A2C5CC"/>
<ellipse cx="2.72946" cy="2.48205" rx="2.72946" ry="2.48205" transform="matrix(-1 0 0 1 451.156 578.393)" fill="#3F7082"/>
<ellipse cx="2.72946" cy="2.48205" rx="2.72946" ry="2.48205" transform="matrix(-1 0 0 1 448.674 567.111)" fill="#A2C5CC"/>
<ellipse cx="2.48133" cy="2.25641" rx="2.48133" ry="2.25641" transform="matrix(-1 0 0 1 332.28 525.818)" fill="#A2C5CC"/>
<ellipse cx="2.48133" cy="2.25641" rx="2.48133" ry="2.25641" transform="matrix(-1 0 0 1 343.7 544.547)" fill="#3B697C"/>
<ellipse cx="2.48133" cy="2.25641" rx="2.48133" ry="2.25641" transform="matrix(-1 0 0 1 285.38 543.191)" fill="#3B697C"/>
<ellipse cx="1.86099" cy="1.69231" rx="1.86099" ry="1.69231" transform="matrix(-1 0 0 1 418.397 599.15)" fill="#3B697C"/>
<ellipse cx="1.86099" cy="1.69231" rx="1.86099" ry="1.69231" transform="matrix(-1 0 0 1 316.648 538.682)" fill="#3B697C"/>
<ellipse cx="2.48133" cy="2.25641" rx="2.48133" ry="2.25641" transform="matrix(-1 0 0 1 353.626 515.213)" fill="#3B697C"/>
<ellipse cx="2.48133" cy="2.25641" rx="2.48133" ry="2.25641" transform="matrix(-1 0 0 1 368.516 503.932)" fill="#A2C5CC"/>
<ellipse cx="4.96335" cy="4.51282" rx="4.96335" ry="4.51282" transform="matrix(-1 0 0 1 489.621 624.648)" fill="#A2C5CC"/>
<ellipse cx="4.96335" cy="4.51282" rx="4.96335" ry="4.51282" transform="matrix(-1 0 0 1 494.584 654.207)" fill="#A2C5CC"/>
<ellipse cx="3.10166" cy="2.82051" rx="3.10166" ry="2.82051" transform="matrix(-1 0 0 1 521.137 578.844)" fill="#A2C5CC"/>
<ellipse cx="3.10166" cy="2.82051" rx="3.10166" ry="2.82051" transform="matrix(-1 0 0 1 503.767 565.305)" fill="#A2C5CC"/>
<ellipse cx="3.10166" cy="2.82051" rx="3.10166" ry="2.82051" transform="matrix(-1 0 0 1 496.322 581.1)" fill="#3F7082"/>
<ellipse cx="2.48133" cy="2.25641" rx="2.48133" ry="2.25641" transform="matrix(-1 0 0 1 488.878 596.896)" fill="#A2C5CC"/>
<ellipse cx="3.10166" cy="2.82051" rx="3.10166" ry="2.82051" transform="matrix(-1 0 0 1 532.306 665.488)" fill="#3B697C"/>
<ellipse cx="3.10166" cy="2.82051" rx="3.10166" ry="2.82051" transform="matrix(-1 0 0 1 532.306 665.488)" fill="#3B697C"/>
<ellipse cx="3.10166" cy="2.82051" rx="3.10166" ry="2.82051" transform="matrix(-1 0 0 1 532.306 665.488)" fill="#3B697C"/>
<ellipse cx="3.10166" cy="2.82051" rx="3.10166" ry="2.82051" transform="matrix(-1 0 0 1 514.935 669.553)" fill="#3B697C"/>
<ellipse cx="3.10166" cy="2.82051" rx="3.10166" ry="2.82051" transform="matrix(-1 0 0 1 514.935 669.553)" fill="#3B697C"/>
<ellipse cx="3.10166" cy="2.82051" rx="3.10166" ry="2.82051" transform="matrix(-1 0 0 1 514.935 669.553)" fill="#3B697C"/>
<ellipse cx="1.86099" cy="1.69231" rx="1.86099" ry="1.69231" transform="matrix(-1 0 0 1 508.733 693.469)" fill="#3B697C"/>
<ellipse cx="1.86099" cy="1.69231" rx="1.86099" ry="1.69231" transform="matrix(-1 0 0 1 508.733 693.469)" fill="#3B697C"/>
<ellipse cx="1.86099" cy="1.69231" rx="1.86099" ry="1.69231" transform="matrix(-1 0 0 1 508.733 693.469)" fill="#A2C5CC"/>
<ellipse cx="3.10166" cy="2.82051" rx="3.10166" ry="2.82051" transform="matrix(-1 0 0 1 527.838 624.648)" fill="#3B697C"/>
<ellipse cx="3.10166" cy="2.82051" rx="3.10166" ry="2.82051" transform="matrix(-1 0 0 1 527.838 624.648)" fill="#3B697C"/>
<ellipse cx="3.10166" cy="2.82051" rx="3.10166" ry="2.82051" transform="matrix(-1 0 0 1 527.838 624.648)" fill="#3B697C"/>
<ellipse cx="1.86099" cy="1.69231" rx="1.86099" ry="1.69231" transform="matrix(-1 0 0 1 537.768 643.828)" fill="#3B697C"/>
<ellipse cx="1.86099" cy="1.69231" rx="1.86099" ry="1.69231" transform="matrix(-1 0 0 1 537.768 643.828)" fill="#3B697C"/>
<ellipse cx="1.86099" cy="1.69231" rx="1.86099" ry="1.69231" transform="matrix(-1 0 0 1 537.768 643.828)" fill="#A2C5CC"/>
<ellipse cx="1.86099" cy="1.69231" rx="1.86099" ry="1.69231" transform="matrix(-1 0 0 1 546.699 635.48)" fill="#3B697C"/>
<ellipse cx="1.86099" cy="1.69231" rx="1.86099" ry="1.69231" transform="matrix(-1 0 0 1 546.699 635.48)" fill="#3B697C"/>
<ellipse cx="1.86099" cy="1.69231" rx="1.86099" ry="1.69231" transform="matrix(-1 0 0 1 546.699 635.48)" fill="#A2C5CC"/>
<ellipse cx="3.10166" cy="2.82051" rx="3.10166" ry="2.82051" transform="matrix(-1 0 0 1 503.767 615.623)" fill="#3B697C"/>
<ellipse cx="3.10166" cy="2.82051" rx="3.10166" ry="2.82051" transform="matrix(-1 0 0 1 503.767 615.623)" fill="#3B697C"/>
<ellipse cx="3.10166" cy="2.82051" rx="3.10166" ry="2.82051" transform="matrix(-1 0 0 1 503.767 615.623)" fill="#3B697C"/>
<ellipse cx="2.60539" cy="2.36923" rx="2.60539" ry="2.36923" transform="matrix(-1 0 0 1 536.026 608.854)" fill="#3B697C"/>
<ellipse cx="2.60539" cy="2.36923" rx="2.60539" ry="2.36923" transform="matrix(-1 0 0 1 536.026 608.854)" fill="#3B697C"/>
<ellipse cx="2.60539" cy="2.36923" rx="2.60539" ry="2.36923" transform="matrix(-1 0 0 1 536.026 608.854)" fill="#3B697C"/>
<ellipse cx="6.32827" cy="5.97949" rx="6.32827" ry="5.97949" transform="matrix(-1 0 0 1 329.802 549.059)" fill="#A2C5CC"/>
<ellipse cx="6.32827" cy="5.97949" rx="6.32827" ry="5.97949" transform="matrix(-1 0 0 1 521.389 647.213)" fill="#A2C5CC"/>
</g>
<mask id="mask2_856_9081" style="mask-type:alpha" maskUnits="userSpaceOnUse" x="80" y="436" width="293" height="294">
<rect width="292.911" height="292.592" transform="matrix(-1 0 0 1 372.997 436.645)" fill="#D9D9D9"/>
</mask>
<g mask="url(#mask2_856_9081)">
<ellipse cx="101.769" cy="164.38" rx="101.769" ry="164.38" transform="matrix(-1 0 0 1 291.742 446.654)" fill="#417385"/>
<ellipse cx="57.403" cy="78.0518" rx="57.403" ry="78.0518" transform="matrix(-1 0 0 1 364.303 603.336)" fill="#417385"/>
<path d="M214.737 543.335C215.032 540.931 213.179 541.604 211.28 542.985C209.897 546.25 209.07 547.68 208.497 557.305C208.596 559.663 209.243 562.016 210.562 566.501L211.649 557.624L212.996 546.622C213.155 545.327 214.443 545.739 214.737 543.335Z" fill="#F8E6C7" stroke="#F8E6C7" stroke-width="0.5" stroke-linecap="round"/>
<path d="M107.316 542.277C107.701 539.884 109.306 540.962 110.758 542.735C111.187 546.212 111.588 547.786 109.461 557.229C108.708 559.488 107.427 561.615 104.902 565.649L106.323 556.812L108.085 545.858C108.292 544.569 106.931 544.671 107.316 542.277Z" fill="#F8E6C7" stroke="#F8E6C7" stroke-width="0.5" stroke-linecap="round"/>
<path d="M108.052 629.93C107.667 627.536 106.062 628.615 104.61 630.387C104.182 633.865 103.78 635.438 105.907 644.882C106.66 647.14 107.941 649.267 110.467 653.302L109.045 644.465L107.284 633.511C107.076 632.222 108.437 632.323 108.052 629.93Z" fill="#F8E6C7" stroke="#F8E6C7" stroke-width="0.5" stroke-linecap="round"/>
<path d="M235.182 599.801C235.182 600.359 235.079 602.219 237.33 601.475C239.581 600.731 239.888 592.53 239.581 587.8C238.888 587.235 237.33 586.125 236.716 586.125C236.102 586.125 235.959 585.453 235.182 586.125V591.986V599.801Z" fill="#F8E6C7" stroke="#F8E6C7" stroke-width="0.5" stroke-linecap="round"/>
<path d="M183.162 605.031C183.107 607.45 181.367 606.561 179.684 604.967C178.783 601.565 178.169 600.048 178.988 590.438C179.426 588.112 180.406 585.856 182.36 581.568L182.159 590.497L181.91 601.565C181.88 602.867 183.216 602.613 183.162 605.031Z" fill="#F8E6C7" stroke="#F8E6C7" stroke-width="0.5" stroke-linecap="round"/>
<path d="M129.383 591.582C129.383 591.024 129.485 589.163 127.235 589.908C124.984 590.652 124.676 598.853 124.984 603.583C125.677 604.148 127.235 605.258 127.848 605.258C128.462 605.258 128.606 605.93 129.383 605.258V599.397V591.582Z" fill="#F8E6C7" stroke="#F8E6C7" stroke-width="0.5" stroke-linecap="round"/>
<path d="M215.536 643.634C215.536 644.383 215.638 646.877 213.387 645.879C211.136 644.881 210.828 633.887 211.136 627.546C211.829 626.789 213.387 625.301 214.001 625.301C214.615 625.301 214.758 624.4 215.536 625.301V633.158V643.634Z" fill="#F8E6C7" stroke="#F8E6C7" stroke-width="0.5" stroke-linecap="round"/>
<path d="M215.536 712.965C215.536 712.217 215.638 709.723 213.387 710.721C211.136 711.718 210.828 722.712 211.136 729.054C211.829 729.811 213.387 731.299 214.001 731.299C214.615 731.299 214.758 732.2 215.536 731.299V723.441V712.965Z" fill="#F8E6C7" stroke="#F8E6C7" stroke-width="0.5" stroke-linecap="round"/>
<path d="M132.452 688.289C132.452 689.037 132.35 691.531 134.602 690.533C136.853 689.536 137.161 678.541 136.853 672.2C136.16 671.443 134.602 669.955 133.988 669.955C133.374 669.955 133.23 669.054 132.452 669.955V677.812V688.289Z" fill="#F8E6C7" stroke="#F8E6C7" stroke-width="0.5" stroke-linecap="round"/>
<path d="M158.849 630.913C158.849 630.164 158.747 627.67 160.998 628.668C163.25 629.666 163.557 640.66 163.25 647.001C162.556 647.758 160.998 649.246 160.384 649.246C159.77 649.246 159.627 650.147 158.849 649.246V641.389V630.913Z" fill="#F8E6C7" stroke="#F8E6C7" stroke-width="0.5" stroke-linecap="round"/>
<path d="M233.354 694.342C233.409 696.76 235.149 695.872 236.832 694.277C237.733 690.875 238.347 689.359 237.528 679.748C237.089 677.422 236.109 675.167 234.156 670.878L234.357 679.807L234.606 690.876C234.636 692.178 233.3 691.924 233.354 694.342Z" fill="#F8E6C7" stroke="#F8E6C7" stroke-width="0.5" stroke-linecap="round"/>
<path d="M187.908 677.17C187.908 676.612 188.01 674.751 185.759 675.495C183.509 676.24 183.201 684.441 183.509 689.171C184.202 689.736 185.759 690.846 186.373 690.846C186.987 690.846 187.13 691.518 187.908 690.846V684.985V677.17Z" fill="#F8E6C7" stroke="#F8E6C7" stroke-width="0.5" stroke-linecap="round"/>
<path d="M156.705 714.346C156.239 721.446 159.159 731.113 160.677 735.059C161.766 731.637 160.414 720.148 159.602 714.831C158.831 711.711 157.172 707.246 156.705 714.346Z" fill="#F2E5C9" stroke="#F7E6C7" stroke-width="0.5"/>
<path d="M323.582 631.257C323.582 630.292 323.684 627.075 321.433 628.362C319.181 629.648 318.874 643.825 319.181 652.002C319.874 652.979 321.433 654.897 322.047 654.897C322.661 654.897 322.804 656.059 323.582 654.897V644.765V631.257Z" fill="#F8E6C7" stroke="#F8E6C7" stroke-width="0.5" stroke-linecap="round"/>
<path d="M343.053 667.659C343.678 676.264 338.993 687.437 336.572 691.948C334.925 687.67 337.193 674.067 338.533 667.8C339.779 664.167 342.427 659.054 343.053 667.659Z" fill="#F2E5C9" stroke="#F7E6C7" stroke-width="0.5"/>
<path d="M295.341 679.621C295.341 680.179 295.444 682.04 293.193 681.296C290.942 680.551 290.635 672.35 290.942 667.62C291.635 667.055 293.193 665.946 293.807 665.946C294.421 665.946 294.564 665.273 295.341 665.946V671.806V679.621Z" fill="#F8E6C7" stroke="#F8E6C7" stroke-width="0.5" stroke-linecap="round"/>
<path d="M314.592 714.065C314.646 716.483 316.386 715.594 318.069 714C318.97 710.598 319.584 709.082 318.765 699.471C318.327 697.145 317.347 694.89 315.393 690.601L315.594 699.53L315.844 710.598C315.873 711.9 314.537 711.646 314.592 714.065Z" fill="#F8E6C7" stroke="#F8E6C7" stroke-width="0.5" stroke-linecap="round"/>
<path d="M186.914 500.479C188.715 507.4 187.665 517.379 186.914 521.504C185.196 518.303 184.357 506.774 184.152 501.409C184.323 498.215 185.114 493.557 186.914 500.479Z" fill="#F2E5C9" stroke="#F7E6C7" stroke-width="0.5"/>
<path d="M269.179 544.949C270.98 551.871 269.93 561.85 269.179 565.974C267.461 562.774 266.622 551.244 266.417 545.88C266.588 542.686 267.379 538.028 269.179 544.949Z" fill="#F2E5C9" stroke="#F7E6C7" stroke-width="0.5"/>
<path d="M268.276 628.981C268.231 636.093 264.623 645.565 262.824 649.413C261.984 645.934 264.159 634.55 265.351 629.293C266.345 626.225 268.322 621.868 268.276 628.981Z" fill="#F2E5C9" stroke="#F7E6C7" stroke-width="0.5"/>
<path d="M132.451 503.018C132.451 502.46 132.553 500.599 130.303 501.343C128.052 502.087 127.744 510.288 128.052 515.019C128.745 515.584 130.303 516.693 130.917 516.693C131.53 516.693 131.674 517.366 132.451 516.693V510.832V503.018Z" fill="#F8E6C7" stroke="#F8E6C7" stroke-width="0.5" stroke-linecap="round"/>
<path d="M211.032 472.69C211.032 472.131 211.134 470.271 208.884 471.015C206.633 471.759 206.325 479.96 206.633 484.69C207.326 485.255 208.884 486.365 209.498 486.365C210.111 486.365 210.255 487.038 211.032 486.365V480.504V472.69Z" fill="#F8E6C7" stroke="#F8E6C7" stroke-width="0.5" stroke-linecap="round"/>
<path d="M161.715 547.858C161.715 547.299 161.818 545.439 159.567 546.183C157.316 546.927 157.009 555.128 157.316 559.858C158.009 560.423 159.567 561.533 160.181 561.533C160.795 561.533 160.938 562.206 161.715 561.533V555.672V547.858Z" fill="#F8E6C7" stroke="#F8E6C7" stroke-width="0.5" stroke-linecap="round"/>
<path d="M235.182 498.736C235.182 498.178 235.079 496.318 237.33 497.062C239.581 497.806 239.888 506.007 239.581 510.737C238.888 511.302 237.33 512.412 236.716 512.412C236.102 512.412 235.959 513.084 235.182 512.412V506.551V498.736Z" fill="#F8E6C7" stroke="#F8E6C7" stroke-width="0.5" stroke-linecap="round"/>
<path d="M163.241 468.192C163.536 465.788 161.683 466.462 159.784 467.842C158.401 471.107 157.574 472.537 157.001 482.163C157.1 484.521 157.747 486.874 159.066 491.358L160.153 482.482L161.501 471.479C161.659 470.185 162.947 470.596 163.241 468.192Z" fill="#F8E6C7" stroke="#F8E6C7" stroke-width="0.5" stroke-linecap="round"/>
</g>
<mask id="mask3_856_9081" style="mask-type:alpha" maskUnits="userSpaceOnUse" x="328" y="606" width="216" height="123">
<rect x="543.791" y="728.982" width="215.499" height="122.73" transform="rotate(180 543.791 728.982)" fill="#D9D9D9"/>
</mask>
<g mask="url(#mask3_856_9081)">
<ellipse cx="27.1344" cy="27.8344" rx="27.1344" ry="27.8344" transform="matrix(-1 0 0 1 541.677 688.41)" fill="#34578D"/>
<ellipse cx="50.2103" cy="43.6494" rx="50.2103" ry="43.6494" transform="matrix(-1 0 0 1 514.544 639.912)" fill="#34578D"/>
<ellipse cx="50.2103" cy="49.3428" rx="50.2103" ry="49.3428" transform="matrix(-1 0 0 1 445.664 612.289)" fill="#34578D"/>
<ellipse cx="50.2103" cy="43.6494" rx="50.2103" ry="43.6494" transform="matrix(-1 0 0 1 437.545 670.275)" fill="#34578D"/>
<ellipse cx="50.2103" cy="43.6494" rx="50.2103" ry="43.6494" transform="matrix(-1 0 0 1 500.628 674.283)" fill="#34578D"/>
<ellipse cx="6.78088" cy="3.53367" rx="6.78088" ry="3.53367" transform="matrix(-0.962741 0.270425 0.321712 0.946838 472.752 699.588)" fill="#BA6D74"/>
<ellipse cx="6.64213" cy="3.56335" rx="6.64213" ry="3.56335" transform="matrix(-0.903817 -0.427919 -0.496977 0.867764 467.928 710.332)" fill="#BA6D74"/>
<ellipse cx="6.75242" cy="4.41755" rx="6.75242" ry="4.41755" transform="matrix(-0.941256 -0.337694 -0.398106 0.917339 461.901 696.977)" fill="#BA6D74"/>
<ellipse cx="6.75242" cy="4.41755" rx="6.75242" ry="4.41755" transform="matrix(-0.941256 -0.337694 -0.398106 0.917339 434.068 666.824)" fill="#BA6D74"/>
<ellipse cx="6.75242" cy="4.41755" rx="6.75242" ry="4.41755" transform="matrix(-0.941256 -0.337694 -0.398106 0.917339 430.592 688.123)" fill="#BA6D74"/>
<ellipse cx="6.75242" cy="4.41755" rx="6.75242" ry="4.41755" transform="matrix(-0.941256 -0.337694 -0.398106 0.917339 398.817 655.438)" fill="#BA6D74"/>
<ellipse cx="6.75242" cy="4.41755" rx="6.75242" ry="4.41755" transform="matrix(-0.941256 -0.337694 -0.398106 0.917339 406.007 692.762)" fill="#BA6D74"/>
<ellipse cx="6.75242" cy="4.41755" rx="6.75242" ry="4.41755" transform="matrix(-0.941256 -0.337694 -0.398106 0.917339 410.645 719.963)" fill="#BA6D74"/>
<ellipse cx="6.75242" cy="4.41755" rx="6.75242" ry="4.41755" transform="matrix(0.941256 -0.337694 0.398106 0.917339 405.085 706.676)" fill="#BA6D74"/>
<ellipse cx="6.75242" cy="4.41755" rx="6.75242" ry="4.41755" transform="matrix(0.941256 -0.337694 0.398106 0.917339 398.824 678.211)" fill="#BA6D74"/>
<ellipse cx="6.75242" cy="4.41755" rx="6.75242" ry="4.41755" transform="matrix(0.941256 -0.337694 0.398106 0.917339 388.851 641.52)" fill="#BA6D74"/>
<ellipse cx="5.69158" cy="3.43492" rx="5.69158" ry="3.43492" transform="matrix(0.941256 -0.337694 0.398106 0.917339 394.415 659.234)" fill="#BA6D74"/>
<ellipse cx="5.36075" cy="3.65032" rx="5.36075" ry="3.65032" transform="matrix(0.514718 -0.857359 0.895746 0.444567 370.526 659.857)" fill="#BA6D74"/>
<ellipse cx="4.2165" cy="3.09967" rx="4.2165" ry="3.09967" transform="matrix(0.514718 -0.857359 0.895746 0.444567 381.891 672.301)" fill="#BA6D74"/>
<ellipse cx="5.60131" cy="2.87654" rx="5.60131" ry="2.87654" transform="matrix(0.999841 0.0178191 0.021553 -0.999768 366.386 670.506)" fill="#BA6D74"/>
<ellipse cx="6.75242" cy="4.41755" rx="6.75242" ry="4.41755" transform="matrix(-0.941256 -0.337694 -0.398106 0.917339 437.548 713.004)" fill="#BA6D74"/>
<ellipse cx="6.75242" cy="4.41755" rx="6.75242" ry="4.41755" transform="matrix(0.941256 -0.337694 0.398106 0.917339 427.119 695.293)" fill="#BA6D74"/>
<ellipse cx="6.75242" cy="4.41755" rx="6.75242" ry="4.41755" transform="matrix(0.941256 -0.337694 0.398106 0.917339 431.758 674.625)" fill="#BA6D74"/>
<ellipse cx="5.82191" cy="3.03609" rx="5.82191" ry="3.03609" transform="matrix(-0.941256 -0.337694 -0.398106 0.917339 469.09 682.01)" fill="#BA6D74"/>
<ellipse cx="5.88595" cy="2.99726" rx="5.88595" ry="2.99726" transform="matrix(-0.995826 0.0912755 0.110198 0.99391 480.255 679.344)" fill="#BA6D74"/>
<ellipse cx="6.75242" cy="4.41755" rx="6.75242" ry="4.41755" transform="matrix(-0.941256 -0.337694 -0.398106 0.917339 480.689 666.824)" fill="#BA6D74"/>
<ellipse cx="6.71431" cy="4.44603" rx="6.71431" ry="4.44603" transform="matrix(-0.911235 0.411886 0.479738 0.877412 488.942 656.781)" fill="#BA6D74"/>
<path d="M514.549 701.273C514.549 708.102 518.569 722.815 520.578 729.319" stroke="#BA6D74" stroke-width="2" stroke-linecap="round"/>
<path d="M528.46 709.287C526.048 713.673 523.977 724.47 523.243 729.319" stroke="#BA6D74" stroke-width="2" stroke-linecap="round"/>
<ellipse cx="4.85327" cy="3.0972" rx="4.85327" ry="3.0972" transform="matrix(-0.983103 -0.183052 -0.219727 0.975561 516.169 708.535)" fill="#BA6D74"/>
<ellipse cx="4.76489" cy="3.16307" rx="4.76489" ry="3.16307" transform="matrix(-0.886931 0.461902 0.533014 0.846106 532.508 713.592)" fill="#BA6D74"/>
<ellipse cx="2.31275" cy="2.11537" rx="2.31275" ry="2.11537" transform="matrix(-0.987284 -0.158963 -0.191172 0.981557 525.909 712.766)" fill="#BA6D74"/>
<path d="M378.798 707.204C376.971 712.134 375.949 723.65 375.667 728.792" stroke="#BA6D74" stroke-width="2" stroke-linecap="round"/>
<path d="M386.745 716.078C383.823 718.709 379.432 726.044 377.602 729.383" stroke="#BA6D74" stroke-width="2" stroke-linecap="round"/>
<ellipse cx="3.68246" cy="2.38311" rx="3.68246" ry="2.38311" transform="matrix(-0.874953 -0.461993 -0.546289 0.852006 378.032 712.805)" fill="#BA6D74"/>
<ellipse cx="1.75461" cy="1.62791" rx="1.75461" ry="1.62791" transform="matrix(-0.887556 -0.440351 -0.521372 0.865723 383.964 718.021)" fill="#BA6D74"/>
<ellipse cx="4.85327" cy="3.0972" rx="4.85327" ry="3.0972" transform="matrix(-0.983103 -0.183052 -0.219727 0.975561 499.936 701.365)" fill="#BA6D74"/>
<ellipse cx="4.77619" cy="3.1548" rx="4.77619" ry="3.1548" transform="matrix(-0.900105 -0.435673 -0.50526 0.862967 494.346 713.609)" fill="#BA6D74"/>
<ellipse cx="4.80402" cy="3.13423" rx="4.80402" ry="3.13423" transform="matrix(-0.931394 0.364014 0.427402 0.904062 502.592 684.195)" fill="#BA6D74"/>
<path d="M498.544 680.398C494.555 688.58 492.166 698.92 491.47 703.067V729.53" stroke="#BA6D74" stroke-width="2" stroke-linecap="round"/>
<ellipse cx="6.64248" cy="4.49878" rx="6.64248" ry="4.49878" transform="matrix(-0.850258 -0.526366 -0.599407 0.800444 495.064 693.297)" fill="#BA6D74"/>
<ellipse cx="4.84107" cy="2.92227" rx="4.84107" ry="2.92227" transform="matrix(-0.966375 -0.246465 -0.321024 0.950841 367.334 710.217)" fill="#BA6D74"/>
<ellipse cx="4.7213" cy="3.01583" rx="4.7213" ry="3.01583" transform="matrix(-0.869495 -0.481719 -0.60437 0.805552 360.705 721.266)" fill="#BA6D74"/>
<ellipse cx="4.76467" cy="2.98256" rx="4.76467" ry="2.98256" transform="matrix(-0.967392 0.272756 0.365794 0.92386 371.455 694.336)" fill="#BA6D74"/>
<path d="M367.745 690.473C363.066 697.834 359.796 707.338 358.746 711.17L356.47 735.957" stroke="#BA6D74" stroke-width="2" stroke-linecap="round"/>
<ellipse cx="6.53261" cy="4.32844" rx="6.53261" ry="4.32844" transform="matrix(-0.815514 -0.566733 -0.692407 0.732103 363.169 702.293)" fill="#BA6D74"/>
<path d="M479.179 656.078C482.106 668.548 474.727 678.35 470.672 681.692C456.748 688.826 459.783 701.37 463.041 706.75C464.572 707.665 467.548 710.293 467.2 713.482C466.852 716.672 464.379 726.507 463.186 731.026" stroke="#BA6D74" stroke-width="2" stroke-linecap="round"/>
<path d="M427.059 656.907C433.632 664.865 434.477 674.063 434.078 677.667L430.367 683.558L428.539 686.164L428.183 688.58C427.589 697.35 437.008 710.858 437.893 717.302L439.015 729.232" stroke="#BA6D74" stroke-width="2" stroke-linecap="round"/>
<path d="M387.284 638.061C394.453 641.987 405.536 701.009 410.182 730.029" stroke="#BA6D74" stroke-width="2" stroke-linecap="round"/>
<path d="M398.584 676.181C386.895 680.82 372.918 661.948 367.391 651.932" stroke="#BA6D74" stroke-width="2" stroke-linecap="round"/>
</g>
<path d="M121.185 552.414H165.911C161.871 674.747 163.023 725.127 181.231 728.945H121.185C157.897 692.233 144.289 627.839 121.185 552.414Z" fill="#F7E6C6"/>
<path d="M149.602 728.729C155.155 714.481 153.909 708.37 138.483 703.156" stroke="#FBAEAC" stroke-linecap="round"/>
<path d="M141.941 694.416C157.367 699.63 166.273 713.618 160.721 727.866" stroke="#FBAEAC" stroke-linecap="round"/>
<path d="M144.043 661.83C159.469 667.044 163.441 676.289 164.553 687.295" stroke="#FBAEAC" stroke-linecap="round"/>
<path d="M163.44 662.369C161.34 658.377 159.116 643.918 163.44 638.738" stroke="#FBAEAC" stroke-linecap="round"/>
<path d="M163.815 627.407C142.441 634.745 168.881 644.672 143.8 655.354" stroke="#FBAEAC" stroke-linecap="round"/>
<path d="M145.243 673.34C166.617 680.678 140.177 690.605 165.258 701.288" stroke="#FBAEAC" stroke-linecap="round"/>
<path d="M130.084 564.5C150.594 577.34 143.427 616.293 163.813 622.012" stroke="#FBAEAC" stroke-linecap="round"/>
<path d="M150.075 606.567C139.397 613.767 141.981 630.41 141.08 630.428" stroke="#FBAEAC" stroke-linecap="round"/>
<path d="M154.391 617.484C147.991 620.195 154.173 645.105 142.683 644.026" stroke="#FBAEAC" stroke-linecap="round"/>
<path d="M139.964 564.498C160.474 577.339 143.423 607.875 163.809 613.594" stroke="#FBAEAC" stroke-linecap="round"/>
<path d="M148.617 574.428C149.976 569.68 168.385 567.63 163.135 561.236" stroke="#FBAEAC" stroke-linecap="round"/>
<path d="M151.194 583.121C152.553 578.373 165.05 578.528 165.05 570.867" stroke="#FBAEAC" stroke-linecap="round"/>
<ellipse cx="147.247" cy="504.678" rx="96.2469" ry="77.4159" fill="#184D62"/>
<ellipse cx="151.077" cy="447.039" rx="76.3551" ry="88.0394" fill="#184D62"/>
<path d="M89.1743 396.636C84.7264 411.555 97.6994 424.284 103.383 424.931C117.485 421.258 116.98 414.794 113.638 395.689" stroke="#42B2FC" stroke-linecap="round"/>
<path d="M114.254 393.963C112.648 403.458 118.331 426.118 128.671 425.039C135.91 424.284 140.184 413.134 137.358 393.963" stroke="#42B2FC" stroke-linecap="round"/>
<path d="M163.562 392.301C164.664 411.551 162.193 421.262 153.297 425.902C143.537 425.902 137.253 415.77 137.483 394.07" stroke="#42B2FC" stroke-linecap="round"/>
<path d="M187.271 391.805C189.575 411.573 180.993 418.443 176.414 419.407C164.528 417.303 162.918 410.402 163.753 393.895" stroke="#42B2FC" stroke-linecap="round"/>
<path d="M207.513 389.539C210.274 413.228 204.325 423.096 198.147 422.291C186.918 419.503 186.116 411.461 186.402 391.744" stroke="#42B2FC" stroke-linecap="round"/>
<path d="M97.2055 385.448C95.4759 396.886 97.6998 397.955 103.383 398.603C117.486 394.929 118.216 389.869 114.874 370.764" stroke="#42B2FC" stroke-linecap="round"/>
<path d="M114.255 370.871C114.255 391.746 123.866 398.128 128.672 398.71C140.597 395.408 141.05 379.737 138.224 362.562" stroke="#42B2FC" stroke-linecap="round"/>
<path d="M160.836 361.16C169.608 372.706 160.836 401.193 153.687 401.993C141.607 398.226 139.565 387.616 139.391 362.458" stroke="#42B2FC" stroke-linecap="round"/>
<path d="M187.277 370.416C189.58 390.184 180.994 392.113 176.415 393.077C164.529 390.974 162.918 384.072 163.753 367.566" stroke="#42B2FC" stroke-linecap="round"/>
<path d="M205.436 385.786C206.671 393.771 204.324 396.768 198.146 395.963C191.969 395.159 185.05 383.041 187.768 370.416" stroke="#42B2FC" stroke-linecap="round"/>
<path d="M77.3123 428.061C77.3123 451.281 90.2852 458.382 95.9686 459.029C110.071 455.355 106.594 435.062 106.594 428.061" stroke="#42B2FC" stroke-linecap="round"/>
<path d="M106.839 428.061C106.839 451.362 116.45 458.487 121.256 459.137C133.181 455.45 134.007 447.232 131.181 428.061" stroke="#42B2FC" stroke-linecap="round"/>
<path d="M156.611 430.393C159.053 451.349 149.863 458.64 144.962 459.666C132.247 457.446 130.531 450.131 131.444 432.63" stroke="#42B2FC" stroke-linecap="round"/>
<path d="M223.841 424.607C226.485 447.294 218.007 455.056 213.437 456.101C201.498 453.536 199.767 445.606 200.323 426.698" stroke="#42B2FC" stroke-linecap="round"/>
<path d="M180.125 428.203C182.228 446.247 173.584 452.589 169 453.505C157.146 451.674 155.606 445.381 156.607 430.294" stroke="#42B2FC" stroke-linecap="round"/>
<path d="M200.098 423.637C202.858 447.326 196.909 457.194 190.731 456.389C179.503 453.6 178.7 445.559 178.986 425.841" stroke="#42B2FC" stroke-linecap="round"/>
<path d="M66.6871 463.655C66.6871 486.876 77.9304 490.753 83.6137 491.4C94.2392 488.744 96.7102 472.244 95.3512 460.432" stroke="#42B2FC" stroke-linecap="round"/>
<path d="M94.4866 460.432C94.4866 483.733 104.098 490.858 108.904 491.508C120.829 487.821 121.655 479.603 118.829 460.432" stroke="#42B2FC" stroke-linecap="round"/>
<path d="M144.259 462.766C146.701 483.722 137.51 491.013 132.61 492.039C119.894 489.819 118.179 482.504 119.091 465.003" stroke="#42B2FC" stroke-linecap="round"/>
<path d="M231.383 467.723C234.595 476.538 231.41 484.537 226.51 485.563C213.794 483.344 212.726 469.87 211.614 456.986" stroke="#42B2FC" stroke-linecap="round"/>
<path d="M211.489 456.979C214.133 479.665 205.655 487.427 201.085 488.472C189.146 485.907 187.415 477.977 187.97 459.069" stroke="#42B2FC" stroke-linecap="round"/>
<path d="M167.769 460.574C169.872 478.618 161.228 484.96 156.644 485.876C144.79 484.045 143.25 477.752 144.251 462.665" stroke="#42B2FC" stroke-linecap="round"/>
<path d="M187.745 456.01C190.506 479.699 184.557 489.567 178.379 488.762C167.15 485.974 166.348 477.932 166.634 458.214" stroke="#42B2FC" stroke-linecap="round"/>
<path d="M53.219 494.314C53.219 516.322 65.6956 523.051 71.9339 523.664C87.4133 520.183 88.4856 512.421 84.8173 494.314" stroke="#42B2FC" stroke-linecap="round"/>
<path d="M66.5667 463.656C70.5203 485.884 59.0907 493.105 52.8524 493.718" stroke="#42B2FC" stroke-linecap="round"/>
<path d="M84.1085 492.156C84.1085 514.325 94.6443 521.104 99.9122 521.722C112.984 518.215 113.889 510.396 110.792 492.156" stroke="#42B2FC" stroke-linecap="round"/>
<path d="M139.057 489.61C141.499 510.567 131.583 517.922 126.319 518.98C112.704 516.841 110.177 493.991 110.918 491.941" stroke="#42B2FC" stroke-linecap="round"/>
<path d="M228.788 486.005C231.23 506.962 228.17 516.65 218.627 516.193C205.912 513.973 203.536 505.341 204.448 487.84" stroke="#42B2FC" stroke-linecap="round"/>
<path d="M240.774 513.306C228.058 511.086 228.248 505.342 229.16 487.841" stroke="#42B2FC" stroke-linecap="round"/>
<path d="M203.703 487.556C206.347 510.242 202.435 515.914 197.866 516.959C185.926 514.394 184.196 506.464 184.751 487.556" stroke="#42B2FC" stroke-linecap="round"/>
<path d="M162.81 489.352C164.912 507.395 156.269 513.737 151.684 514.653C139.83 512.823 138.291 506.53 139.291 491.442" stroke="#42B2FC" stroke-linecap="round"/>
<path d="M183.809 486.375C186.57 510.064 180.257 515.602 174.213 514.785C163.224 511.976 162.424 502.377 162.653 482.665" stroke="#42B2FC" stroke-linecap="round"/>
<path d="M68.6659 523.666C68.6659 545.673 80.8368 550.568 87.0751 551.181C97.4535 548.592 102.573 543.283 98.9051 525.177" stroke="#42B2FC" stroke-linecap="round"/>
<path d="M99.6757 524.312C99.6757 546.482 110.211 553.26 115.479 553.878C128.551 550.371 129.456 542.552 126.359 524.312" stroke="#42B2FC" stroke-linecap="round"/>
<path d="M154.627 521.766C157.069 542.723 147.153 550.078 141.89 551.136C128.275 548.997 125.748 526.147 126.489 524.097" stroke="#42B2FC" stroke-linecap="round"/>
<path d="M229.901 542.994C228.048 541.699 220.264 533.953 219.377 519.894" stroke="#42B2FC" stroke-linecap="round"/>
<path d="M219.277 519.712C221.921 542.399 218.01 548.07 213.44 549.115C201.501 546.55 199.77 538.62 200.325 519.712" stroke="#42B2FC" stroke-linecap="round"/>
<path d="M178.377 521.506C180.479 539.549 171.836 545.892 167.251 546.808C155.397 544.977 153.858 538.684 154.858 523.596" stroke="#42B2FC" stroke-linecap="round"/>
<path d="M199.377 518.531C202.137 542.22 195.824 547.758 189.78 546.942C178.791 544.132 177.991 534.533 178.221 514.821" stroke="#42B2FC" stroke-linecap="round"/>
<path d="M114.998 554.939C114.998 564.66 124.906 567.632 129.861 567.903C142.154 566.365 142.621 559.068 139.707 551.07" stroke="#42B2FC" stroke-linecap="round"/>
<path d="M89.1733 551.07C89.1733 557.221 101.281 561.969 104 562.508C111.166 562.508 115.861 557.652 114.501 553.984" stroke="#42B2FC" stroke-linecap="round"/>
<path d="M210.873 549.344C210.873 553.552 203.707 556.25 200.989 556.789C196.788 556.25 191.104 550.315 192.464 546.646" stroke="#42B2FC" stroke-linecap="round"/>
<path d="M165.529 547.078C169.359 552.041 163.113 569.021 155.729 569.394C143.25 567.639 141.14 562.695 140.961 550.972" stroke="#42B2FC" stroke-linecap="round"/>
<path d="M192.586 547.077C194.966 556.289 183.936 564.791 179.206 565.24C166.927 564.26 166.642 554.769 167.505 547.077" stroke="#42B2FC" stroke-linecap="round"/>
<mask id="mask4_856_9081" style="mask-type:alpha" maskUnits="userSpaceOnUse" x="1230" y="503" width="305" height="230">
<rect width="304.932" height="229.006" transform="matrix(-1 0 0 1 1534.93 503.365)" fill="#D9D9D9"/>
</mask>
<g mask="url(#mask4_856_9081)">
<ellipse cx="1353.97" cy="664.674" rx="117.734" ry="117.276" fill="#508D99"/>
<ellipse cx="1440.62" cy="603.234" rx="91.8323" ry="102.476" fill="#508D99"/>
<ellipse cx="1320.89" cy="580.933" rx="6.00442" ry="5.67348" fill="#A2C5CC"/>
<ellipse cx="1326.89" cy="611.657" rx="2.35434" ry="2.14094" fill="#A2C5CC"/>
<ellipse cx="1341.02" cy="618.08" rx="2.35434" ry="2.14094" fill="#3B697C"/>
<ellipse cx="1361.86" cy="564.019" rx="6.00442" ry="5.67348" fill="#A2C5CC"/>
<ellipse cx="1362.21" cy="587.249" rx="3.53201" ry="3.2114" fill="#A2C5CC"/>
<ellipse cx="1265.2" cy="690.229" rx="3.53201" ry="3.2114" fill="#A2C5CC"/>
<ellipse cx="1390.58" cy="586.713" rx="6.00442" ry="5.67348" fill="#A2C5CC"/>
<ellipse cx="1392.23" cy="606.841" rx="6.00442" ry="5.67348" fill="#A2C5CC"/>
<ellipse cx="1278.26" cy="605.982" rx="6.00442" ry="5.67348" fill="#A2C5CC"/>
<ellipse cx="1396.59" cy="558.348" rx="4.70935" ry="4.28187" fill="#A2C5CC"/>
<ellipse cx="1401.3" cy="527.087" rx="4.70935" ry="4.28187" fill="#A2C5CC"/>
<ellipse cx="1427.91" cy="545.29" rx="4.70935" ry="4.28187" fill="#A2C5CC"/>
<ellipse cx="1415.19" cy="557.491" rx="2.82521" ry="2.56912" fill="#A2C5CC"/>
<ellipse cx="1431.2" cy="578.473" rx="2.35434" ry="2.14094" fill="#A2C5CC"/>
<ellipse cx="1453.81" cy="578.473" rx="2.35434" ry="2.14094" fill="#A2C5CC"/>
<ellipse cx="1437.68" cy="569.156" rx="1.76576" ry="1.6057" fill="#3B697C"/>
<ellipse cx="1410.48" cy="587.464" rx="2.82521" ry="2.56912" fill="#3B697C"/>
<ellipse cx="1381.75" cy="574.405" rx="2.82521" ry="2.56912" fill="#3B697C"/>
<ellipse cx="1389.05" cy="547.856" rx="2.82521" ry="2.56912" fill="#3B697C"/>
<ellipse cx="1311.82" cy="568.623" rx="2.58977" ry="2.35503" fill="#3B697C"/>
<ellipse cx="1331.83" cy="560.701" rx="2.58977" ry="2.35503" fill="#A2C5CC"/>
<ellipse cx="1341.25" cy="586.392" rx="2.58977" ry="2.35503" fill="#3F7082"/>
<ellipse cx="1343.61" cy="575.689" rx="2.58977" ry="2.35503" fill="#A2C5CC"/>
<ellipse cx="1453.81" cy="536.295" rx="2.35434" ry="2.14094" fill="#A2C5CC"/>
<ellipse cx="1442.97" cy="554.065" rx="2.35434" ry="2.14094" fill="#3B697C"/>
<ellipse cx="1498.31" cy="552.778" rx="2.35434" ry="2.14094" fill="#3B697C"/>
<ellipse cx="1371.51" cy="605.34" rx="1.76576" ry="1.6057" fill="#3B697C"/>
<ellipse cx="1468.05" cy="547.963" rx="1.76576" ry="1.6057" fill="#3B697C"/>
<ellipse cx="1433.56" cy="526.233" rx="2.35434" ry="2.14094" fill="#3B697C"/>
<ellipse cx="1419.43" cy="515.53" rx="2.35434" ry="2.14094" fill="#A2C5CC"/>
<ellipse cx="1306.87" cy="632.21" rx="4.70935" ry="4.28187" fill="#A2C5CC"/>
<ellipse cx="1302.16" cy="660.256" rx="4.70935" ry="4.28187" fill="#A2C5CC"/>
<ellipse cx="1275.2" cy="587.143" rx="2.94293" ry="2.67617" fill="#A2C5CC"/>
<ellipse cx="1291.69" cy="574.299" rx="2.94293" ry="2.67617" fill="#A2C5CC"/>
<ellipse cx="1298.75" cy="589.287" rx="2.94293" ry="2.67617" fill="#3F7082"/>
<ellipse cx="1305.23" cy="603.737" rx="2.35434" ry="2.14094" fill="#A2C5CC"/>
<ellipse cx="1264.61" cy="669.354" rx="2.94293" ry="2.67617" fill="#3B697C"/>
<ellipse cx="1264.61" cy="669.354" rx="2.94293" ry="2.67617" fill="#3B697C"/>
<ellipse cx="1264.61" cy="669.354" rx="2.94293" ry="2.67617" fill="#3B697C"/>
<ellipse cx="1281.09" cy="673.207" rx="2.94293" ry="2.67617" fill="#3B697C"/>
<ellipse cx="1281.09" cy="673.207" rx="2.94293" ry="2.67617" fill="#3B697C"/>
<ellipse cx="1281.09" cy="673.207" rx="2.94293" ry="2.67617" fill="#3B697C"/>
<ellipse cx="1285.8" cy="694.834" rx="1.76576" ry="1.6057" fill="#3B697C"/>
<ellipse cx="1285.8" cy="694.834" rx="1.76576" ry="1.6057" fill="#3B697C"/>
<ellipse cx="1285.8" cy="694.834" rx="1.76576" ry="1.6057" fill="#A2C5CC"/>
<ellipse cx="1268.85" cy="630.604" rx="2.94293" ry="2.67617" fill="#3B697C"/>
<ellipse cx="1268.85" cy="630.604" rx="2.94293" ry="2.67617" fill="#3B697C"/>
<ellipse cx="1268.85" cy="630.604" rx="2.94293" ry="2.67617" fill="#3B697C"/>
<ellipse cx="1258.25" cy="647.733" rx="1.76576" ry="1.6057" fill="#3B697C"/>
<ellipse cx="1258.25" cy="647.733" rx="1.76576" ry="1.6057" fill="#3B697C"/>
<ellipse cx="1258.25" cy="647.733" rx="1.76576" ry="1.6057" fill="#A2C5CC"/>
<ellipse cx="1249.77" cy="639.811" rx="1.76576" ry="1.6057" fill="#3B697C"/>
<ellipse cx="1249.77" cy="639.811" rx="1.76576" ry="1.6057" fill="#3B697C"/>
<ellipse cx="1249.77" cy="639.811" rx="1.76576" ry="1.6057" fill="#A2C5CC"/>
<ellipse cx="1291.69" cy="622.043" rx="2.94293" ry="2.67617" fill="#3B697C"/>
<ellipse cx="1291.69" cy="622.043" rx="2.94293" ry="2.67617" fill="#3B697C"/>
<ellipse cx="1291.69" cy="622.043" rx="2.94293" ry="2.67617" fill="#3B697C"/>
<ellipse cx="1260.61" cy="615.189" rx="2.47206" ry="2.24798" fill="#3B697C"/>
<ellipse cx="1260.61" cy="615.189" rx="2.47206" ry="2.24798" fill="#3B697C"/>
<ellipse cx="1260.61" cy="615.189" rx="2.47206" ry="2.24798" fill="#3B697C"/>
<ellipse cx="1459.81" cy="561.879" rx="6.00442" ry="5.67348" fill="#A2C5CC"/>
<ellipse cx="1278.03" cy="655.011" rx="6.00442" ry="5.67348" fill="#A2C5CC"/>
</g>
<mask id="mask5_856_9081" style="mask-type:alpha" maskUnits="userSpaceOnUse" x="1371" y="454" width="278" height="279">
<rect x="1371.08" y="454.752" width="277.921" height="277.618" fill="#D9D9D9"/>
</mask>
<g mask="url(#mask5_856_9081)">
<ellipse cx="1544.74" cy="620.216" rx="96.5609" ry="155.968" fill="#17435A"/>
<ellipse cx="1433.79" cy="660.968" rx="54.4653" ry="74.0574" fill="#17435A"/>
<path d="M1521.24 555.986C1520.96 553.706 1522.72 554.345 1524.52 555.654C1525.83 558.753 1526.62 560.109 1527.16 569.242C1527.07 571.479 1526.45 573.712 1525.2 577.967L1524.17 569.545L1522.89 559.105C1522.74 557.877 1521.52 558.267 1521.24 555.986Z" fill="#F8E6C7" stroke="#F8E6C7" stroke-width="0.5" stroke-linecap="round"/>
<path d="M1623.16 554.978C1622.8 552.707 1621.28 553.731 1619.9 555.412C1619.49 558.712 1619.11 560.205 1621.13 569.165C1621.84 571.308 1623.06 573.326 1625.45 577.154L1624.11 568.769L1622.43 558.376C1622.24 557.153 1623.53 557.249 1623.16 554.978Z" fill="#F8E6C7" stroke="#F8E6C7" stroke-width="0.5" stroke-linecap="round"/>
<path d="M1622.47 638.146C1622.83 635.875 1624.35 636.898 1625.73 638.58C1626.14 641.88 1626.52 643.373 1624.5 652.333C1623.79 654.476 1622.57 656.494 1620.17 660.322L1621.52 651.937L1623.19 641.544C1623.39 640.321 1622.1 640.417 1622.47 638.146Z" fill="#F8E6C7" stroke="#F8E6C7" stroke-width="0.5" stroke-linecap="round"/>
<path d="M1501.84 609.559C1501.84 610.089 1501.94 611.854 1499.8 611.148C1497.67 610.442 1497.38 602.661 1497.67 598.173C1498.32 597.636 1499.8 596.584 1500.39 596.584C1500.97 596.584 1501.1 595.946 1501.84 596.584V602.145V609.559Z" fill="#F8E6C7" stroke="#F8E6C7" stroke-width="0.5" stroke-linecap="round"/>
<path d="M1551.2 614.523C1551.25 616.817 1552.9 615.974 1554.5 614.461C1555.36 611.233 1555.94 609.795 1555.16 600.676C1554.75 598.469 1553.82 596.329 1551.96 592.26L1552.15 600.732L1552.39 611.234C1552.42 612.469 1551.15 612.228 1551.2 614.523Z" fill="#F8E6C7" stroke="#F8E6C7" stroke-width="0.5" stroke-linecap="round"/>
<path d="M1602.23 601.763C1602.23 601.233 1602.13 599.468 1604.27 600.174C1606.4 600.88 1606.69 608.662 1606.4 613.15C1605.74 613.686 1604.27 614.739 1603.68 614.739C1603.1 614.739 1602.96 615.377 1602.23 614.739V609.178V601.763Z" fill="#F8E6C7" stroke="#F8E6C7" stroke-width="0.5" stroke-linecap="round"/>
<path d="M1520.48 651.148C1520.48 651.858 1520.39 654.224 1522.52 653.278C1524.66 652.331 1524.95 641.899 1524.66 635.883C1524 635.164 1522.52 633.753 1521.94 633.753C1521.36 633.753 1521.22 632.897 1520.48 633.753V641.208V651.148Z" fill="#F8E6C7" stroke="#F8E6C7" stroke-width="0.5" stroke-linecap="round"/>
<path d="M1520.48 716.932C1520.48 716.222 1520.39 713.856 1522.52 714.802C1524.66 715.749 1524.95 726.181 1524.66 732.197C1524 732.916 1522.52 734.327 1521.94 734.327C1521.36 734.327 1521.22 735.183 1520.48 734.327V726.872V716.932Z" fill="#F8E6C7" stroke="#F8E6C7" stroke-width="0.5" stroke-linecap="round"/>
<path d="M1599.31 693.519C1599.31 694.229 1599.41 696.595 1597.27 695.649C1595.14 694.702 1594.85 684.271 1595.14 678.254C1595.8 677.535 1597.27 676.124 1597.86 676.124C1598.44 676.124 1598.58 675.268 1599.31 676.124V683.579V693.519Z" fill="#F8E6C7" stroke="#F8E6C7" stroke-width="0.5" stroke-linecap="round"/>
<path d="M1574.27 639.079C1574.27 638.369 1574.36 636.002 1572.23 636.949C1570.09 637.896 1569.8 648.327 1570.09 654.344C1570.75 655.062 1572.23 656.474 1572.81 656.474C1573.39 656.474 1573.53 657.329 1574.27 656.474V649.019V639.079Z" fill="#F8E6C7" stroke="#F8E6C7" stroke-width="0.5" stroke-linecap="round"/>
<path d="M1503.58 699.261C1503.52 701.555 1501.87 700.712 1500.28 699.199C1499.42 695.972 1498.84 694.533 1499.62 685.414C1500.03 683.207 1500.96 681.067 1502.82 676.998L1502.62 685.47L1502.39 695.972C1502.36 697.208 1503.63 696.966 1503.58 699.261Z" fill="#F8E6C7" stroke="#F8E6C7" stroke-width="0.5" stroke-linecap="round"/>
<path d="M1546.7 682.966C1546.7 682.436 1546.6 680.671 1548.74 681.377C1550.87 682.083 1551.16 689.865 1550.87 694.353C1550.21 694.889 1548.74 695.942 1548.15 695.942C1547.57 695.942 1547.43 696.58 1546.7 695.942V690.381V682.966Z" fill="#F8E6C7" stroke="#F8E6C7" stroke-width="0.5" stroke-linecap="round"/>
<path d="M1576.3 718.244C1576.74 724.98 1573.97 734.152 1572.53 737.896C1571.5 734.65 1572.78 723.749 1573.55 718.704C1574.29 715.743 1575.86 711.507 1576.3 718.244Z" fill="#F2E5C9" stroke="#F7E6C7" stroke-width="0.5"/>
<path d="M1417.96 639.406C1417.96 638.49 1417.87 635.438 1420 636.659C1422.14 637.88 1422.43 651.331 1422.14 659.089C1421.48 660.016 1420 661.836 1419.42 661.836C1418.84 661.836 1418.7 662.939 1417.96 661.836V652.223V639.406Z" fill="#F8E6C7" stroke="#F8E6C7" stroke-width="0.5" stroke-linecap="round"/>
<path d="M1399.49 673.942C1398.9 682.107 1403.34 692.708 1405.64 696.988C1407.2 692.929 1405.05 680.022 1403.78 674.076C1402.6 670.63 1400.08 665.778 1399.49 673.942Z" fill="#F2E5C9" stroke="#F7E6C7" stroke-width="0.5"/>
<path d="M1444.76 685.298C1444.76 685.827 1444.66 687.593 1446.8 686.886C1448.93 686.18 1449.23 678.399 1448.93 673.911C1448.28 673.375 1446.8 672.322 1446.22 672.322C1445.63 672.322 1445.5 671.684 1444.76 672.322V677.883V685.298Z" fill="#F8E6C7" stroke="#F8E6C7" stroke-width="0.5" stroke-linecap="round"/>
<path d="M1426.5 717.976C1426.44 720.27 1424.79 719.427 1423.2 717.914C1422.34 714.686 1421.76 713.248 1422.54 704.129C1422.95 701.922 1423.88 699.782 1425.74 695.713L1425.54 704.185L1425.31 714.687C1425.28 715.922 1426.55 715.681 1426.5 717.976Z" fill="#F8E6C7" stroke="#F8E6C7" stroke-width="0.5" stroke-linecap="round"/>
<path d="M1547.64 515.318C1545.93 521.886 1546.93 531.354 1547.64 535.267C1549.27 532.231 1550.07 521.291 1550.26 516.201C1550.1 513.171 1549.35 508.751 1547.64 515.318Z" fill="#F2E5C9" stroke="#F7E6C7" stroke-width="0.5"/>
<path d="M1469.58 557.516C1467.88 564.083 1468.87 573.551 1469.58 577.465C1471.21 574.428 1472.01 563.489 1472.21 558.398C1472.04 555.368 1471.29 550.948 1469.58 557.516Z" fill="#F2E5C9" stroke="#F7E6C7" stroke-width="0.5"/>
<path d="M1470.44 637.247C1470.48 643.995 1473.91 652.983 1475.61 656.633C1476.41 653.333 1474.35 642.531 1473.22 637.543C1472.27 634.632 1470.4 630.498 1470.44 637.247Z" fill="#F2E5C9" stroke="#F7E6C7" stroke-width="0.5"/>
<path d="M1599.31 517.73C1599.31 517.2 1599.22 515.435 1601.35 516.141C1603.49 516.847 1603.78 524.628 1603.49 529.117C1602.83 529.653 1601.35 530.705 1600.77 530.705C1600.19 530.705 1600.05 531.343 1599.31 530.705V525.144V517.73Z" fill="#F8E6C7" stroke="#F8E6C7" stroke-width="0.5" stroke-linecap="round"/>
<path d="M1524.76 488.952C1524.76 488.423 1524.66 486.657 1526.79 487.364C1528.93 488.07 1529.22 495.851 1528.93 500.339C1528.27 500.875 1526.79 501.928 1526.21 501.928C1525.63 501.928 1525.49 502.566 1524.76 501.928V496.367V488.952Z" fill="#F8E6C7" stroke="#F8E6C7" stroke-width="0.5" stroke-linecap="round"/>
<path d="M1571.55 560.277C1571.55 559.747 1571.45 557.982 1573.59 558.688C1575.72 559.394 1576.01 567.175 1575.72 571.663C1575.07 572.199 1573.59 573.252 1573 573.252C1572.42 573.252 1572.29 573.89 1571.55 573.252V567.691V560.277Z" fill="#F8E6C7" stroke="#F8E6C7" stroke-width="0.5" stroke-linecap="round"/>
<path d="M1501.84 513.665C1501.84 513.136 1501.94 511.37 1499.8 512.076C1497.67 512.783 1497.38 520.564 1497.67 525.052C1498.32 525.588 1499.8 526.641 1500.39 526.641C1500.97 526.641 1501.1 527.279 1501.84 526.641V521.08V513.665Z" fill="#F8E6C7" stroke="#F8E6C7" stroke-width="0.5" stroke-linecap="round"/>
<path d="M1570.1 484.686C1569.82 482.405 1571.58 483.044 1573.38 484.354C1574.69 487.452 1575.48 488.808 1576.02 497.941C1575.93 500.179 1575.31 502.411 1574.06 506.666L1573.03 498.244L1571.75 487.805C1571.6 486.576 1570.38 486.967 1570.1 484.686Z" fill="#F8E6C7" stroke="#F8E6C7" stroke-width="0.5" stroke-linecap="round"/>
</g>
<mask id="mask6_856_9081" style="mask-type:alpha" maskUnits="userSpaceOnUse" x="1255" y="601" width="205" height="117">
<rect width="204.47" height="116.449" transform="matrix(1 0 0 -1 1255.28 717.77)" fill="#D9D9D9"/>
</mask>
<g mask="url(#mask6_856_9081)">
<ellipse cx="1283.03" cy="705.678" rx="25.7458" ry="26.41" fill="#34578D"/>
<ellipse cx="1330.67" cy="674.669" rx="47.6407" ry="41.4156" fill="#34578D"/>
<ellipse cx="1396.02" cy="653.861" rx="47.6407" ry="46.8176" fill="#34578D"/>
<ellipse cx="1403.72" cy="703.476" rx="47.6407" ry="41.4156" fill="#34578D"/>
<ellipse cx="1343.87" cy="707.281" rx="47.6407" ry="41.4156" fill="#34578D"/>
<ellipse cx="6.43386" cy="3.35283" rx="6.43386" ry="3.35283" transform="matrix(0.962741 0.270425 -0.321712 0.946838 1322.68 689.871)" fill="#BA6D74"/>
<ellipse cx="6.30221" cy="3.38099" rx="6.30221" ry="3.38099" transform="matrix(0.903817 -0.427919 0.496977 0.867764 1327.26 700.068)" fill="#BA6D74"/>
<ellipse cx="6.40686" cy="4.19148" rx="6.40686" ry="4.19148" transform="matrix(0.941256 -0.337694 0.398106 0.917339 1332.98 687.396)" fill="#BA6D74"/>
<ellipse cx="6.40686" cy="4.19148" rx="6.40686" ry="4.19148" transform="matrix(0.941256 -0.337694 0.398106 0.917339 1359.38 658.783)" fill="#BA6D74"/>
<ellipse cx="6.40686" cy="4.19148" rx="6.40686" ry="4.19148" transform="matrix(0.941256 -0.337694 0.398106 0.917339 1362.69 678.996)" fill="#BA6D74"/>
<ellipse cx="6.40686" cy="4.19148" rx="6.40686" ry="4.19148" transform="matrix(0.941256 -0.337694 0.398106 0.917339 1392.83 647.98)" fill="#BA6D74"/>
<ellipse cx="6.40686" cy="4.19148" rx="6.40686" ry="4.19148" transform="matrix(0.941256 -0.337694 0.398106 0.917339 1386.01 683.396)" fill="#BA6D74"/>
<ellipse cx="6.40686" cy="4.19148" rx="6.40686" ry="4.19148" transform="matrix(0.941256 -0.337694 0.398106 0.917339 1381.61 709.205)" fill="#BA6D74"/>
<ellipse cx="6.40686" cy="4.19148" rx="6.40686" ry="4.19148" transform="matrix(-0.941256 -0.337694 -0.398106 0.917339 1386.88 696.596)" fill="#BA6D74"/>
<ellipse cx="6.40686" cy="4.19148" rx="6.40686" ry="4.19148" transform="matrix(-0.941256 -0.337694 -0.398106 0.917339 1392.82 669.59)" fill="#BA6D74"/>
<ellipse cx="6.40686" cy="4.19148" rx="6.40686" ry="4.19148" transform="matrix(-0.941256 -0.337694 -0.398106 0.917339 1402.29 634.775)" fill="#BA6D74"/>
<ellipse cx="5.40031" cy="3.25913" rx="5.40031" ry="3.25913" transform="matrix(-0.941256 -0.337694 -0.398106 0.917339 1397.01 651.584)" fill="#BA6D74"/>
<ellipse cx="5.08641" cy="3.46351" rx="5.08641" ry="3.46351" transform="matrix(-0.514718 -0.857359 -0.895746 0.444567 1419.67 652.176)" fill="#BA6D74"/>
<ellipse cx="4.00072" cy="2.94104" rx="4.00072" ry="2.94104" transform="matrix(-0.514718 -0.857359 -0.895746 0.444567 1408.89 663.982)" fill="#BA6D74"/>
<ellipse cx="5.31466" cy="2.72933" rx="5.31466" ry="2.72933" transform="matrix(-0.999841 0.0178191 -0.021553 -0.999768 1423.6 662.277)" fill="#BA6D74"/>
<ellipse cx="6.40686" cy="4.19148" rx="6.40686" ry="4.19148" transform="matrix(0.941256 -0.337694 0.398106 0.917339 1356.08 702.602)" fill="#BA6D74"/>
<ellipse cx="6.40686" cy="4.19148" rx="6.40686" ry="4.19148" transform="matrix(-0.941256 -0.337694 -0.398106 0.917339 1365.98 685.799)" fill="#BA6D74"/>
<ellipse cx="6.40686" cy="4.19148" rx="6.40686" ry="4.19148" transform="matrix(-0.941256 -0.337694 -0.398106 0.917339 1361.58 666.189)" fill="#BA6D74"/>
<ellipse cx="5.52397" cy="2.88072" rx="5.52397" ry="2.88072" transform="matrix(0.941256 -0.337694 0.398106 0.917339 1326.16 673.197)" fill="#BA6D74"/>
<ellipse cx="5.58473" cy="2.84387" rx="5.58473" ry="2.84387" transform="matrix(0.995826 0.0912755 -0.110198 0.99391 1315.56 670.664)" fill="#BA6D74"/>
<ellipse cx="6.40686" cy="4.19148" rx="6.40686" ry="4.19148" transform="matrix(0.941256 -0.337694 0.398106 0.917339 1315.15 658.783)" fill="#BA6D74"/>
<ellipse cx="6.40686" cy="4.19148" rx="6.40686" ry="4.19148" transform="matrix(0.941256 -0.337694 0.398106 0.917339 1328.36 712.207)" fill="#BA6D74"/>
<ellipse cx="6.37069" cy="4.2185" rx="6.37069" ry="4.2185" transform="matrix(0.911235 0.411886 -0.479738 0.877412 1307.32 649.258)" fill="#BA6D74"/>
<path d="M1283.02 691.471C1283.02 697.95 1279.21 711.91 1277.3 718.081" stroke="#BA6D74" stroke-width="2" stroke-linecap="round"/>
<path d="M1269.82 699.074C1272.11 703.236 1274.08 713.48 1274.77 718.081" stroke="#BA6D74" stroke-width="2" stroke-linecap="round"/>
<ellipse cx="4.6049" cy="2.9387" rx="4.6049" ry="2.9387" transform="matrix(0.983103 -0.183052 0.219727 0.975561 1281.48 698.361)" fill="#BA6D74"/>
<ellipse cx="4.52104" cy="3.0012" rx="4.52104" ry="3.0012" transform="matrix(0.886931 0.461902 -0.533014 0.846106 1265.98 703.156)" fill="#BA6D74"/>
<ellipse cx="2.19439" cy="2.00711" rx="2.19439" ry="2.00711" transform="matrix(0.987284 -0.158963 0.191172 0.981557 1272.24 702.371)" fill="#BA6D74"/>
<path d="M1411.82 697.096C1413.56 701.774 1414.53 712.701 1414.8 717.58" stroke="#BA6D74" stroke-width="2" stroke-linecap="round"/>
<path d="M1404.29 705.521C1407.06 708.018 1411.22 714.977 1412.96 718.145" stroke="#BA6D74" stroke-width="2" stroke-linecap="round"/>
<ellipse cx="3.494" cy="2.26115" rx="3.494" ry="2.26115" transform="matrix(0.874953 -0.461993 0.546289 0.852006 1412.55 702.41)" fill="#BA6D74"/>
<ellipse cx="3.43953" cy="2.30094" rx="3.43953" ry="2.30094" transform="matrix(1.00767 0.179389 -0.208835 0.95121 1402.6 709.32)" fill="#BA6D74"/>
<ellipse cx="1.66482" cy="1.5446" rx="1.66482" ry="1.5446" transform="matrix(0.887556 -0.440351 0.521372 0.865723 1406.92 707.363)" fill="#BA6D74"/>
<ellipse cx="4.6049" cy="2.9387" rx="4.6049" ry="2.9387" transform="matrix(0.983103 -0.183052 0.219727 0.975561 1296.89 691.564)" fill="#BA6D74"/>
<ellipse cx="4.53176" cy="2.99335" rx="4.53176" ry="2.99335" transform="matrix(0.900105 -0.435673 0.50526 0.862967 1302.19 703.18)" fill="#BA6D74"/>
<ellipse cx="4.55817" cy="2.97383" rx="4.55817" ry="2.97383" transform="matrix(0.931394 0.364014 -0.427402 0.904062 1297.74 708.09)" fill="#BA6D74"/>
<ellipse cx="4.55817" cy="2.97383" rx="4.55817" ry="2.97383" transform="matrix(0.931394 0.364014 -0.427402 0.904062 1294.37 675.27)" fill="#BA6D74"/>
<path d="M1298.21 671.668C1301.99 679.431 1304.26 689.241 1304.92 693.176V718.286" stroke="#BA6D74" stroke-width="2" stroke-linecap="round"/>
<ellipse cx="6.30254" cy="4.26854" rx="6.30254" ry="4.26854" transform="matrix(0.850258 -0.526366 0.599407 0.800444 1301.51 683.906)" fill="#BA6D74"/>
<ellipse cx="4.59332" cy="2.77272" rx="4.59332" ry="2.77272" transform="matrix(0.966375 -0.246465 0.321024 0.950841 1422.71 699.957)" fill="#BA6D74"/>
<ellipse cx="4.47968" cy="2.8615" rx="4.47968" ry="2.8615" transform="matrix(0.869495 -0.481719 0.60437 0.805552 1428.99 710.443)" fill="#BA6D74"/>
<ellipse cx="4.52083" cy="2.82993" rx="4.52083" ry="2.82993" transform="matrix(0.967404 0.272712 -0.365846 0.923838 1424.98 715.377)" fill="#BA6D74"/>
<ellipse cx="4.52083" cy="2.82993" rx="4.52083" ry="2.82993" transform="matrix(0.967392 0.272756 -0.365794 0.92386 1418.8 684.893)" fill="#BA6D74"/>
<path d="M1422.31 681.227C1426.75 688.211 1429.86 697.229 1430.85 700.864L1433.01 724.383" stroke="#BA6D74" stroke-width="2" stroke-linecap="round"/>
<ellipse cx="6.1983" cy="4.10693" rx="6.1983" ry="4.10693" transform="matrix(0.815514 -0.566733 0.692407 0.732103 1426.66 692.441)" fill="#BA6D74"/>
<path d="M1316.58 648.589C1313.8 660.421 1320.81 669.721 1324.65 672.892C1337.86 679.661 1334.98 691.562 1331.89 696.667C1330.44 697.535 1327.62 700.029 1327.95 703.055C1328.28 706.081 1330.62 715.413 1331.76 719.701" stroke="#BA6D74" stroke-width="2" stroke-linecap="round"/>
<path d="M1366.03 649.375C1359.8 656.926 1358.99 665.653 1359.37 669.073L1362.89 674.662L1364.63 677.135L1364.97 679.427C1365.53 687.748 1356.59 700.565 1355.75 706.68L1354.69 717.999" stroke="#BA6D74" stroke-width="2" stroke-linecap="round"/>
<path d="M1403.77 631.496C1396.97 635.222 1386.46 691.223 1382.05 718.758" stroke="#BA6D74" stroke-width="2" stroke-linecap="round"/>
<path d="M1393.05 667.665C1404.14 672.067 1417.41 654.16 1422.65 644.656" stroke="#BA6D74" stroke-width="2" stroke-linecap="round"/>
</g>
<path d="M1469.6 564.594H1427.16C1431 680.666 1429.9 728.468 1412.63 732.09H1469.6C1434.77 697.258 1447.68 636.159 1469.6 564.594Z" fill="#F7E6C6"/>
<path d="M1442.64 731.884C1437.37 718.364 1438.55 712.566 1453.19 707.619" stroke="#FBAEAC" stroke-linecap="round"/>
<path d="M1449.91 699.328C1435.27 704.275 1426.82 717.547 1432.09 731.066" stroke="#FBAEAC" stroke-linecap="round"/>
<path d="M1447.91 668.41C1433.28 673.357 1429.51 682.129 1428.45 692.572" stroke="#FBAEAC" stroke-linecap="round"/>
<path d="M1429.51 668.924C1431.5 665.135 1433.61 651.416 1429.51 646.502" stroke="#FBAEAC" stroke-linecap="round"/>
<path d="M1429.16 635.749C1449.44 642.711 1424.35 652.13 1448.15 662.266" stroke="#FBAEAC" stroke-linecap="round"/>
<path d="M1446.78 679.331C1426.5 686.293 1451.58 695.712 1427.79 705.848" stroke="#FBAEAC" stroke-linecap="round"/>
<path d="M1461.16 576.063C1441.7 588.247 1448.5 625.207 1429.16 630.633" stroke="#FBAEAC" stroke-linecap="round"/>
<path d="M1442.19 615.974C1452.32 622.806 1449.87 638.596 1450.73 638.614" stroke="#FBAEAC" stroke-linecap="round"/>
<path d="M1438.1 626.336C1444.17 628.909 1438.3 652.543 1449.2 651.519" stroke="#FBAEAC" stroke-linecap="round"/>
<path d="M1451.78 576.061C1432.32 588.244 1448.5 617.218 1429.16 622.644" stroke="#FBAEAC" stroke-linecap="round"/>
<path d="M1443.58 585.482C1442.29 580.977 1424.82 579.032 1429.8 572.965" stroke="#FBAEAC" stroke-linecap="round"/>
<path d="M1441.13 593.729C1439.84 589.224 1427.98 589.371 1427.98 582.102" stroke="#FBAEAC" stroke-linecap="round"/>
<ellipse cx="91.3214" cy="73.4541" rx="91.3214" ry="73.4541" transform="matrix(-1 0 0 1 1536.19 445.846)" fill="#3B697C"/>
<ellipse cx="72.4475" cy="83.5339" rx="72.4475" ry="83.5339" transform="matrix(-1 0 0 1 1513.69 381.076)" fill="#3B697C"/>
<path d="M1499.97 416.789C1504.19 430.944 1491.88 443.022 1486.49 443.636C1473.11 440.15 1473.59 434.018 1476.76 415.891" stroke="#A2C5CC" stroke-linecap="round"/>
<path d="M1476.17 414.25C1477.7 423.26 1472.31 444.76 1462.5 443.736C1455.63 443.019 1451.57 432.44 1454.25 414.25" stroke="#A2C5CC" stroke-linecap="round"/>
<path d="M1429.39 412.678C1428.35 430.942 1430.69 440.156 1439.13 444.559C1448.39 444.559 1454.36 434.945 1454.14 414.356" stroke="#A2C5CC" stroke-linecap="round"/>
<path d="M1406.89 412.205C1404.71 430.962 1412.85 437.48 1417.2 438.394C1428.47 436.399 1430 429.851 1429.21 414.188" stroke="#A2C5CC" stroke-linecap="round"/>
<path d="M1387.69 410.055C1385.07 432.531 1390.71 441.894 1396.58 441.131C1407.23 438.485 1407.99 430.855 1407.72 412.146" stroke="#A2C5CC" stroke-linecap="round"/>
<path d="M1492.35 406.171C1493.99 417.023 1491.88 418.038 1486.49 418.653C1473.11 415.167 1472.42 410.365 1475.59 392.238" stroke="#A2C5CC" stroke-linecap="round"/>
<path d="M1476.17 392.338C1476.17 412.145 1467.05 418.201 1462.49 418.753C1451.18 415.619 1450.75 400.751 1453.43 384.455" stroke="#A2C5CC" stroke-linecap="round"/>
<path d="M1431.98 383.127C1423.65 394.082 1431.98 421.111 1438.76 421.87C1450.22 418.296 1452.16 408.229 1452.32 384.358" stroke="#A2C5CC" stroke-linecap="round"/>
<path d="M1406.89 391.909C1404.71 410.666 1412.85 412.497 1417.2 413.411C1428.48 411.415 1430 404.867 1429.21 389.205" stroke="#A2C5CC" stroke-linecap="round"/>
<path d="M1389.66 406.493C1388.49 414.069 1390.71 416.912 1396.58 416.149C1402.44 415.385 1409 403.888 1406.42 391.909" stroke="#A2C5CC" stroke-linecap="round"/>
<path d="M1511.23 446.602C1511.23 468.634 1498.92 475.371 1493.52 475.985C1480.14 472.499 1483.44 453.245 1483.44 446.602" stroke="#A2C5CC" stroke-linecap="round"/>
<path d="M1483.21 446.602C1483.21 468.711 1474.09 475.471 1469.53 476.088C1458.21 472.59 1457.43 464.792 1460.11 446.602" stroke="#A2C5CC" stroke-linecap="round"/>
<path d="M1435.98 448.814C1433.67 468.698 1442.39 475.616 1447.04 476.59C1459.1 474.484 1460.73 467.543 1459.86 450.937" stroke="#A2C5CC" stroke-linecap="round"/>
<path d="M1372.2 443.33C1369.69 464.856 1377.73 472.22 1382.07 473.212C1393.4 470.778 1395.04 463.254 1394.51 445.313" stroke="#A2C5CC" stroke-linecap="round"/>
<path d="M1413.68 446.738C1411.68 463.858 1419.88 469.876 1424.23 470.745C1435.48 469.008 1436.94 463.037 1435.99 448.722" stroke="#A2C5CC" stroke-linecap="round"/>
<path d="M1394.72 442.406C1392.1 464.883 1397.75 474.246 1403.61 473.482C1414.26 470.837 1415.03 463.206 1414.75 444.498" stroke="#A2C5CC" stroke-linecap="round"/>
<path d="M1521.31 480.373C1521.31 502.405 1510.64 506.084 1505.25 506.698C1495.17 504.178 1492.82 488.522 1494.11 477.314" stroke="#A2C5CC" stroke-linecap="round"/>
<path d="M1494.93 477.314C1494.93 499.424 1485.81 506.184 1481.25 506.8C1469.94 503.302 1469.16 495.505 1471.84 477.314" stroke="#A2C5CC" stroke-linecap="round"/>
<path d="M1447.71 479.529C1445.39 499.413 1454.11 506.331 1458.76 507.305C1470.82 505.198 1472.45 498.258 1471.59 481.652" stroke="#A2C5CC" stroke-linecap="round"/>
<path d="M1365.04 484.232C1362 492.596 1365.02 500.186 1369.67 501.159C1381.73 499.053 1382.75 486.269 1383.8 474.045" stroke="#A2C5CC" stroke-linecap="round"/>
<path d="M1383.92 474.035C1381.41 495.561 1389.45 502.925 1393.79 503.917C1405.12 501.483 1406.76 493.959 1406.23 476.019" stroke="#A2C5CC" stroke-linecap="round"/>
<path d="M1425.4 477.449C1423.41 494.569 1431.61 500.587 1435.96 501.456C1447.21 499.719 1448.67 493.748 1447.72 479.433" stroke="#A2C5CC" stroke-linecap="round"/>
<path d="M1406.45 473.121C1403.83 495.598 1409.47 504.961 1415.33 504.197C1425.99 501.551 1426.75 493.921 1426.48 475.213" stroke="#A2C5CC" stroke-linecap="round"/>
<path d="M1534.09 509.467C1534.09 530.348 1522.25 536.732 1516.33 537.315C1501.64 534.011 1500.62 526.647 1504.1 509.467" stroke="#A2C5CC" stroke-linecap="round"/>
<path d="M1521.42 480.375C1517.67 501.466 1528.52 508.317 1534.44 508.899" stroke="#A2C5CC" stroke-linecap="round"/>
<path d="M1504.78 507.416C1504.78 528.451 1494.78 534.882 1489.78 535.469C1477.38 532.141 1476.52 524.722 1479.46 507.416" stroke="#A2C5CC" stroke-linecap="round"/>
<path d="M1452.64 505C1450.32 524.884 1459.73 531.863 1464.73 532.867C1477.64 530.837 1480.04 509.156 1479.34 507.211" stroke="#A2C5CC" stroke-linecap="round"/>
<path d="M1367.5 501.58C1365.19 521.464 1368.09 530.657 1377.15 530.223C1389.21 528.117 1391.46 519.927 1390.6 503.321" stroke="#A2C5CC" stroke-linecap="round"/>
<path d="M1356.13 527.483C1368.2 525.377 1368.02 519.927 1367.15 503.321" stroke="#A2C5CC" stroke-linecap="round"/>
<path d="M1391.3 503.051C1388.79 524.576 1392.51 529.958 1396.84 530.949C1408.17 528.515 1409.81 520.991 1409.29 503.051" stroke="#A2C5CC" stroke-linecap="round"/>
<path d="M1430.11 504.754C1428.11 521.874 1436.31 527.892 1440.66 528.761C1451.91 527.024 1453.37 521.053 1452.42 506.737" stroke="#A2C5CC" stroke-linecap="round"/>
<path d="M1410.18 501.93C1407.56 524.406 1413.55 529.661 1419.28 528.886C1429.71 526.22 1430.47 517.113 1430.25 498.41" stroke="#A2C5CC" stroke-linecap="round"/>
<path d="M1519.43 537.314C1519.43 558.195 1507.88 562.84 1501.96 563.422C1492.12 560.965 1487.26 555.928 1490.74 538.748" stroke="#A2C5CC" stroke-linecap="round"/>
<path d="M1490.01 537.926C1490.01 558.96 1480.01 565.392 1475.01 565.978C1462.61 562.651 1461.75 555.232 1464.69 537.926" stroke="#A2C5CC" stroke-linecap="round"/>
<path d="M1437.87 535.514C1435.55 555.398 1444.96 562.377 1449.95 563.381C1462.87 561.35 1465.27 539.67 1464.57 537.725" stroke="#A2C5CC" stroke-linecap="round"/>
<path d="M1366.45 555.65C1368.21 554.421 1375.59 547.071 1376.43 533.732" stroke="#A2C5CC" stroke-linecap="round"/>
<path d="M1376.53 533.562C1374.02 555.088 1377.73 560.469 1382.07 561.461C1393.39 559.027 1395.04 551.503 1394.51 533.562" stroke="#A2C5CC" stroke-linecap="round"/>
<path d="M1415.34 535.264C1413.34 552.384 1421.54 558.402 1425.89 559.27C1437.14 557.534 1438.6 551.563 1437.65 537.247" stroke="#A2C5CC" stroke-linecap="round"/>
<path d="M1395.41 532.441C1392.79 554.918 1398.78 560.173 1404.51 559.398C1414.94 556.732 1415.7 547.625 1415.48 528.921" stroke="#A2C5CC" stroke-linecap="round"/>
<path d="M1475.47 566.984C1475.47 576.207 1466.07 579.027 1461.37 579.284C1449.7 577.825 1449.26 570.901 1452.02 563.312" stroke="#A2C5CC" stroke-linecap="round"/>
<path d="M1499.97 563.312C1499.97 569.148 1488.48 573.653 1485.9 574.165C1479.1 574.165 1474.65 569.558 1475.94 566.077" stroke="#A2C5CC" stroke-linecap="round"/>
<path d="M1384.5 561.677C1384.5 565.67 1391.3 568.229 1393.88 568.741C1397.86 568.229 1403.26 562.598 1401.97 559.117" stroke="#A2C5CC" stroke-linecap="round"/>
<path d="M1427.52 559.524C1423.89 564.234 1429.82 580.345 1436.82 580.698C1448.66 579.033 1450.67 574.342 1450.84 563.219" stroke="#A2C5CC" stroke-linecap="round"/>
<path d="M1401.85 559.524C1399.59 568.264 1410.06 576.331 1414.55 576.757C1426.2 575.827 1426.47 566.823 1425.65 559.524" stroke="#A2C5CC" stroke-linecap="round"/>
</g>
<defs>
<clipPath id="clip0_856_9081">
<rect width="1728" height="717" fill="white"/>
</clipPath>
</defs>
</svg>
