<svg width="1773" height="172" viewBox="0 0 1773 172" fill="none" xmlns="http://www.w3.org/2000/svg">
<g clip-path="url(#clip0_984_9195)">
<mask id="mask0_984_9195" style="mask-type:luminance" maskUnits="userSpaceOnUse" x="1" y="0" width="1774" height="172">
<path d="M1.08606 0H1774.09V172H1.08606V0Z" fill="white"/>
</mask>
<g mask="url(#mask0_984_9195)">
<path d="M326.884 115.84C321.657 115.84 316.964 114.8 312.804 112.72C308.697 110.587 305.444 107.44 303.044 103.28C300.644 99.0667 299.444 93.92 299.444 87.84C299.444 82.9333 300.564 78.3467 302.804 74.08C305.044 69.8133 308.137 66.4 312.084 63.84C316.03 61.28 320.457 60 325.364 60C330.004 60 334.137 60.88 337.764 62.64C341.39 64.3467 344.19 66.6933 346.164 69.68C348.19 72.6667 349.204 76 349.204 79.68C349.204 82.0267 348.51 84.0533 347.124 85.76C345.79 87.4667 343.87 88.32 341.364 88.32C339.497 88.32 338.057 88 337.044 87.36C336.03 86.72 334.964 85.7333 333.844 84.4C332.724 83.0667 331.63 82.08 330.564 81.44C329.55 80.7467 328.057 80.4 326.084 80.4C323.577 80.4 321.417 81.36 319.604 83.28C317.844 85.1467 316.964 87.44 316.964 90.16C316.964 93.0933 317.71 95.5733 319.204 97.6C320.75 99.5733 322.83 100.56 325.444 100.56C327.47 100.56 329.07 100.267 330.244 99.68C331.47 99.0933 332.75 98.24 334.084 97.12C335.204 96.16 336.217 95.44 337.124 94.96C338.084 94.48 339.257 94.24 340.644 94.24C342.777 94.24 344.457 94.9067 345.684 96.24C346.91 97.52 347.524 99.2 347.524 101.28C347.524 103.733 346.617 106.08 344.804 108.32C343.044 110.56 340.59 112.373 337.444 113.76C334.297 115.147 330.777 115.84 326.884 115.84ZM413.012 82.64C413.012 86.5333 412.425 89.9733 411.252 92.96C410.132 95.9467 408.532 98.4533 406.452 100.48C408.212 103.2 409.092 105.84 409.092 108.4C409.092 110.587 408.239 112.4 406.532 113.84C404.879 115.28 402.985 116 400.852 116C399.625 116 398.505 115.813 397.492 115.44C396.479 115.067 395.385 114.427 394.212 113.52C393.199 112.72 392.239 111.627 391.332 110.24C390.425 108.853 389.705 107.413 389.172 105.92C387.412 105.707 385.652 105.253 383.892 104.56C384.212 106.267 384.372 107.573 384.372 108.48C384.372 113.547 381.732 116.08 376.452 116.08C372.025 116.08 368.905 113.493 367.092 108.32C365.279 103.147 364.372 96.8267 364.372 89.36C364.372 84.2933 365.279 79.5467 367.092 75.12C368.959 70.64 371.785 67.04 375.572 64.32C379.359 61.5467 383.972 60.16 389.412 60.16C393.785 60.16 397.759 61.0933 401.332 62.96C404.905 64.7733 407.732 67.3867 409.812 70.8C411.945 74.2133 413.012 78.16 413.012 82.64ZM383.092 86.4C383.092 88.2133 383.812 89.8133 385.252 91.2C386.692 92.5333 388.345 93.2 390.212 93.2C392.132 93.2 393.785 92.5333 395.172 91.2C396.612 89.8133 397.332 88.2133 397.332 86.4C397.332 84.5333 396.612 82.9333 395.172 81.6C393.785 80.2133 392.132 79.52 390.212 79.52C388.345 79.52 386.692 80.2133 385.252 81.6C383.812 82.9867 383.092 84.5867 383.092 86.4ZM468.986 103.2C471.546 104 472.826 105.68 472.826 108.24C472.826 110.64 471.599 112.533 469.146 113.92C466.692 115.307 462.452 116 456.426 116C448.906 116 442.452 114.187 437.066 110.56C431.732 106.933 429.066 99.7333 429.066 88.96C429.066 83.52 429.999 78.6133 431.866 74.24C433.732 69.8667 436.506 66.4 440.186 63.84C443.919 61.28 448.479 60 453.866 60C461.066 60 466.132 61.12 469.066 63.36C471.999 65.5467 473.466 68.24 473.466 71.44C473.466 72.9333 473.092 74.32 472.346 75.6C471.599 76.8267 470.479 77.7867 468.986 78.48C467.706 79.12 466.052 79.44 464.026 79.44L461.866 79.36C461.439 79.3067 460.826 79.28 460.026 79.28C457.252 79.28 455.066 79.7867 453.466 80.8C451.866 81.76 450.772 83.2533 450.186 85.28C452.426 85.1733 454.452 85.12 456.266 85.12C461.652 85.12 465.146 85.28 466.746 85.6C468.559 85.9733 469.946 86.6933 470.906 87.76C471.919 88.8267 472.426 90.08 472.426 91.52C472.426 92.96 471.946 94.2133 470.986 95.28C470.026 96.2933 468.586 96.9867 466.666 97.36C465.172 97.68 461.546 97.84 455.786 97.84C453.439 97.84 451.786 97.8133 450.826 97.76C452.479 101.28 455.572 103.04 460.106 103.04C460.372 103.04 460.986 102.987 461.946 102.88C463.226 102.773 464.319 102.72 465.226 102.72C466.772 102.72 468.026 102.88 468.986 103.2ZM502.802 116.16C499.229 116.16 496.349 114.427 494.162 110.96C492.029 107.44 490.775 102.693 490.402 96.72C490.349 95.8667 490.322 94.6133 490.322 92.96C490.322 86.5067 491.389 80.8 493.522 75.84C495.655 70.8267 498.669 66.96 502.562 64.24C506.509 61.4667 511.095 60.08 516.322 60.08C521.549 60.08 526.109 61.4667 530.002 64.24C533.949 66.96 536.962 70.8 539.042 75.76C541.175 80.72 542.242 86.4533 542.242 92.96C542.242 94.6133 542.215 95.8667 542.162 96.72C541.789 102.8 540.535 107.547 538.402 110.96C536.269 114.373 533.389 116.08 529.762 116.08C526.829 116.08 524.775 115.28 523.602 113.68C522.482 112.08 521.922 110.133 521.922 107.84C521.922 106.773 522.002 105.84 522.162 105.04C519.389 105.147 516.935 105.2 514.802 105.2C513.469 105.2 512.002 105.147 510.402 105.04C510.562 105.84 510.642 106.773 510.642 107.84C510.642 110.187 510.055 112.16 508.882 113.76C507.762 115.36 505.735 116.16 502.802 116.16ZM509.842 90.8C512.722 90.6933 514.829 90.64 516.162 90.64C517.602 90.64 519.709 90.6933 522.482 90.8C522.589 90.2133 522.642 89.3333 522.642 88.16C522.642 85.6533 522.109 83.6267 521.042 82.08C519.975 80.48 518.322 79.68 516.082 79.68C513.895 79.68 512.269 80.4533 511.202 82C510.135 83.5467 509.602 85.5467 509.602 88C509.602 88.9067 509.682 89.84 509.842 90.8ZM610.794 71.92C610.794 75.44 609.328 78 606.394 79.6C603.514 81.1467 598.794 82.08 592.234 82.4C592.448 84.96 592.554 88.2667 592.554 92.32C592.554 97.9733 592.234 102.507 591.594 105.92C591.008 109.28 589.968 111.787 588.474 113.44C586.981 115.04 584.901 115.84 582.234 115.84C579.621 115.84 577.621 114.987 576.234 113.28C574.848 111.573 573.888 109.04 573.354 105.68C572.821 102.32 572.554 97.8667 572.554 92.32C572.554 88.5867 572.634 85.28 572.794 82.4C568.368 82.1867 564.794 81.7333 562.074 81.04C559.408 80.2933 557.434 79.2 556.154 77.76C554.874 76.32 554.234 74.3733 554.234 71.92C554.234 68.9333 555.248 66.5867 557.274 64.88C559.301 63.1733 562.341 61.9733 566.394 61.28C570.448 60.5867 575.754 60.24 582.314 60.24C588.928 60.24 594.288 60.5867 598.394 61.28C602.501 61.9733 605.594 63.1733 607.674 64.88C609.754 66.5867 610.794 68.9333 610.794 71.92ZM651.879 101.52C654.599 101.84 656.706 102.533 658.199 103.6C659.746 104.613 660.519 106.24 660.519 108.48C660.519 110.72 659.719 112.373 658.119 113.44C656.573 114.507 654.706 115.173 652.519 115.44C650.333 115.653 647.506 115.76 644.039 115.76C640.626 115.76 637.826 115.653 635.639 115.44C633.453 115.173 631.586 114.507 630.039 113.44C628.493 112.373 627.719 110.72 627.719 108.48C627.719 106.293 628.439 104.693 629.879 103.68C631.373 102.613 633.399 101.893 635.959 101.52C635.693 98.4267 635.559 94 635.559 88.24C635.559 83.0667 635.666 78.9067 635.879 75.76C632.786 75.44 630.359 74.6933 628.599 73.52C626.839 72.3467 625.959 70.5067 625.959 68C625.959 65.5467 626.813 63.7333 628.519 62.56C630.226 61.3867 632.279 60.6667 634.679 60.4C637.079 60.1333 640.173 60 643.959 60C647.746 60 650.839 60.1333 653.239 60.4C655.639 60.6667 657.693 61.3867 659.399 62.56C661.159 63.7333 662.039 65.5467 662.039 68C662.039 70.5067 661.133 72.3467 659.319 73.52C657.559 74.6933 655.106 75.44 651.959 75.76C652.226 78.6933 652.359 82.8533 652.359 88.24C652.359 93.4133 652.199 97.84 651.879 101.52ZM706.875 116C701.755 116 696.982 113.733 692.555 109.2C688.128 104.667 684.608 99.12 681.995 92.56C679.382 85.9467 678.075 79.8133 678.075 74.16C678.075 70.0533 678.982 66.6933 680.795 64.08C682.608 61.4133 685.302 60.08 688.875 60.08C691.808 60.08 694.208 61.2 696.075 63.44C697.995 65.68 699.488 68.4267 700.555 71.68C701.622 74.88 702.768 79.0933 703.995 84.32C705.115 89.2267 706.075 92.8533 706.875 95.2C707.568 93.5467 708.235 91.5733 708.875 89.28C709.515 86.9867 710.102 84.72 710.635 82.48C711.862 77.5733 712.982 73.6267 713.995 70.64C715.062 67.6533 716.448 65.1467 718.155 63.12C719.862 61.0933 722.022 60.08 724.635 60.08C728.208 60.08 730.902 61.36 732.715 63.92C734.528 66.48 735.435 69.8933 735.435 74.16C735.435 79.8133 734.155 85.9467 731.595 92.56C729.035 99.12 725.542 104.667 721.115 109.2C716.742 113.733 711.995 116 706.875 116ZM791.361 103.2C793.921 104 795.201 105.68 795.201 108.24C795.201 110.64 793.974 112.533 791.521 113.92C789.067 115.307 784.827 116 778.801 116C771.281 116 764.827 114.187 759.441 110.56C754.107 106.933 751.441 99.7333 751.441 88.96C751.441 83.52 752.374 78.6133 754.241 74.24C756.107 69.8667 758.881 66.4 762.561 63.84C766.294 61.28 770.854 60 776.241 60C783.441 60 788.507 61.12 791.441 63.36C794.374 65.5467 795.841 68.24 795.841 71.44C795.841 72.9333 795.467 74.32 794.721 75.6C793.974 76.8267 792.854 77.7867 791.361 78.48C790.081 79.12 788.427 79.44 786.401 79.44L784.241 79.36C783.814 79.3067 783.201 79.28 782.401 79.28C779.627 79.28 777.441 79.7867 775.841 80.8C774.241 81.76 773.147 83.2533 772.561 85.28C774.801 85.1733 776.827 85.12 778.641 85.12C784.027 85.12 787.521 85.28 789.121 85.6C790.934 85.9733 792.321 86.6933 793.281 87.76C794.294 88.8267 794.801 90.08 794.801 91.52C794.801 92.96 794.321 94.2133 793.361 95.28C792.401 96.2933 790.961 96.9867 789.041 97.36C787.547 97.68 783.921 97.84 778.161 97.84C775.814 97.84 774.161 97.8133 773.201 97.76C774.854 101.28 777.947 103.04 782.481 103.04C782.747 103.04 783.361 102.987 784.321 102.88C785.601 102.773 786.694 102.72 787.601 102.72C789.147 102.72 790.401 102.88 791.361 103.2ZM878.503 115.84C873.276 115.84 868.583 114.8 864.423 112.72C860.316 110.587 857.063 107.44 854.663 103.28C852.263 99.0667 851.063 93.92 851.063 87.84C851.063 82.9333 852.183 78.3467 854.423 74.08C856.663 69.8133 859.756 66.4 863.703 63.84C867.649 61.28 872.076 60 876.983 60C881.623 60 885.756 60.88 889.383 62.64C893.009 64.3467 895.809 66.6933 897.783 69.68C899.809 72.6667 900.823 76 900.823 79.68C900.823 82.0267 900.129 84.0533 898.743 85.76C897.409 87.4667 895.489 88.32 892.983 88.32C891.116 88.32 889.676 88 888.663 87.36C887.649 86.72 886.583 85.7333 885.463 84.4C884.343 83.0667 883.249 82.08 882.183 81.44C881.169 80.7467 879.676 80.4 877.703 80.4C875.196 80.4 873.036 81.36 871.223 83.28C869.463 85.1467 868.583 87.44 868.583 90.16C868.583 93.0933 869.329 95.5733 870.823 97.6C872.369 99.5733 874.449 100.56 877.063 100.56C879.089 100.56 880.689 100.267 881.863 99.68C883.089 99.0933 884.369 98.24 885.703 97.12C886.823 96.16 887.836 95.44 888.743 94.96C889.703 94.48 890.876 94.24 892.263 94.24C894.396 94.24 896.076 94.9067 897.303 96.24C898.529 97.52 899.143 99.2 899.143 101.28C899.143 103.733 898.236 106.08 896.423 108.32C894.663 110.56 892.209 112.373 889.062 113.76C885.916 115.147 882.396 115.84 878.503 115.84ZM962.492 60.16C965.479 60.16 967.772 61.2 969.372 63.28C971.026 65.36 972.146 68.4 972.732 72.4C973.319 76.3467 973.612 81.6 973.612 88.16C973.612 94.72 973.319 99.9733 972.732 103.92C972.146 107.813 971.052 110.773 969.452 112.8C967.852 114.827 965.532 115.84 962.492 115.84C958.866 115.84 956.306 114.293 954.812 111.2C953.319 108.107 952.439 103.307 952.172 96.8C950.519 96.8533 947.799 96.88 944.012 96.88H939.852C939.532 103.387 938.626 108.187 937.132 111.28C935.639 114.373 933.079 115.92 929.452 115.92C926.412 115.92 924.092 114.907 922.492 112.88C920.892 110.853 919.799 107.893 919.212 104C918.679 100.053 918.412 94.7733 918.412 88.16C918.412 81.5467 918.679 76.2667 919.212 72.32C919.799 68.3733 920.892 65.3867 922.492 63.36C924.092 61.28 926.412 60.24 929.452 60.24C932.066 60.24 934.119 61.0667 935.612 62.72C937.106 64.32 938.146 66.6667 938.732 69.76C939.372 72.8 939.772 76.7467 939.932 81.6H945.612C948.546 81.6 950.706 81.6267 952.092 81.68C952.252 74.32 953.052 68.9067 954.492 65.44C955.986 61.92 958.652 60.16 962.492 60.16ZM1039.09 82.64C1039.09 86.5333 1038.5 89.9733 1037.33 92.96C1036.21 95.9467 1034.61 98.4533 1032.53 100.48C1034.29 103.2 1035.17 105.84 1035.17 108.4C1035.17 110.587 1034.32 112.4 1032.61 113.84C1030.96 115.28 1029.06 116 1026.93 116C1025.7 116 1024.58 115.813 1023.57 115.44C1022.56 115.067 1021.46 114.427 1020.29 113.52C1019.28 112.72 1018.32 111.627 1017.41 110.24C1016.5 108.853 1015.78 107.413 1015.25 105.92C1013.49 105.707 1011.73 105.253 1009.97 104.56C1010.29 106.267 1010.45 107.573 1010.45 108.48C1010.45 113.547 1007.81 116.08 1002.53 116.08C998.103 116.08 994.983 113.493 993.17 108.32C991.357 103.147 990.45 96.8267 990.45 89.36C990.45 84.2933 991.357 79.5467 993.17 75.12C995.037 70.64 997.863 67.04 1001.65 64.32C1005.44 61.5467 1010.05 60.16 1015.49 60.16C1019.86 60.16 1023.84 61.0933 1027.41 62.96C1030.98 64.7733 1033.81 67.3867 1035.89 70.8C1038.02 74.2133 1039.09 78.16 1039.09 82.64ZM1009.17 86.4C1009.17 88.2133 1009.89 89.8133 1011.33 91.2C1012.77 92.5333 1014.42 93.2 1016.29 93.2C1018.21 93.2 1019.86 92.5333 1021.25 91.2C1022.69 89.8133 1023.41 88.2133 1023.41 86.4C1023.41 84.5333 1022.69 82.9333 1021.25 81.6C1019.86 80.2133 1018.21 79.52 1016.29 79.52C1014.42 79.52 1012.77 80.2133 1011.33 81.6C1009.89 82.9867 1009.17 84.5867 1009.17 86.4ZM1082.42 116.08C1077.57 116.133 1073.06 114.933 1068.9 112.48C1064.8 110.027 1061.49 106.667 1058.98 102.4C1056.53 98.08 1055.25 93.3067 1055.14 88.08C1055.09 83.0667 1056.26 78.4267 1058.66 74.16C1061.06 69.8933 1064.37 66.5067 1068.58 64C1072.8 61.44 1077.41 60.16 1082.42 60.16C1087.33 60.1067 1091.86 61.3333 1096.02 63.84C1100.24 66.3467 1103.57 69.7867 1106.02 74.16C1108.48 78.5333 1109.7 83.36 1109.7 88.64C1109.7 93.6 1108.48 98.16 1106.02 102.32C1103.57 106.48 1100.24 109.787 1096.02 112.24C1091.86 114.693 1087.33 115.973 1082.42 116.08ZM1082.66 100.48C1085.12 100.48 1087.2 99.6 1088.9 97.84C1090.66 96.08 1091.52 93.7867 1091.46 90.96C1091.46 88.08 1090.61 85.76 1088.9 84C1087.2 82.24 1085.12 81.36 1082.66 81.36C1080.21 81.36 1078.13 82.24 1076.42 84C1074.72 85.76 1073.86 88.08 1073.86 90.96C1073.86 93.7867 1074.72 96.08 1076.42 97.84C1078.13 99.6 1080.21 100.48 1082.66 100.48ZM1136.65 116C1134.04 116 1131.91 114.4 1130.25 111.2C1128.65 108 1127.51 104.133 1126.81 99.6C1126.12 95.0667 1125.77 90.6933 1125.77 86.48C1125.77 79.6 1126.87 73.4933 1129.05 68.16C1131.29 62.7733 1135.03 60.08 1140.25 60.08C1142.55 60.08 1144.55 60.96 1146.25 62.72C1148.01 64.48 1149.53 66.7733 1150.81 69.6C1152.09 72.3733 1153.64 76.24 1155.45 81.2L1156.81 84.96C1156.71 82.9333 1156.65 81.44 1156.65 80.48C1156.65 74.24 1157.48 69.28 1159.13 65.6C1160.84 61.92 1163.53 60.08 1167.21 60.08C1171.64 60.08 1174.68 62.72 1176.33 68C1177.99 73.2267 1178.81 79.3867 1178.81 86.48C1178.81 90.6933 1178.28 95.0667 1177.21 99.6C1176.2 104.133 1174.47 108 1172.01 111.2C1169.56 114.4 1166.36 116 1162.41 116C1160.01 116 1157.91 115.147 1156.09 113.44C1154.33 111.68 1152.84 109.52 1151.61 106.96C1150.44 104.4 1149.03 100.88 1147.37 96.4C1146.52 94.0533 1145.85 92.2933 1145.37 91.12L1145.45 97.6C1145.45 101.813 1145.24 105.227 1144.81 107.84C1144.39 110.4 1143.53 112.4 1142.25 113.84C1141.03 115.28 1139.16 116 1136.65 116ZM1219.12 101.52C1221.84 101.84 1223.95 102.533 1225.44 103.6C1226.99 104.613 1227.76 106.24 1227.76 108.48C1227.76 110.72 1226.96 112.373 1225.36 113.44C1223.82 114.507 1221.95 115.173 1219.76 115.44C1217.58 115.653 1214.75 115.76 1211.28 115.76C1207.87 115.76 1205.07 115.653 1202.88 115.44C1200.7 115.173 1198.83 114.507 1197.28 113.44C1195.74 112.373 1194.96 110.72 1194.96 108.48C1194.96 106.293 1195.68 104.693 1197.12 103.68C1198.62 102.613 1200.64 101.893 1203.2 101.52C1202.94 98.4267 1202.8 94 1202.8 88.24C1202.8 83.0667 1202.91 78.9067 1203.12 75.76C1200.03 75.44 1197.6 74.6933 1195.84 73.52C1194.08 72.3467 1193.2 70.5067 1193.2 68C1193.2 65.5467 1194.06 63.7333 1195.76 62.56C1197.47 61.3867 1199.52 60.6667 1201.92 60.4C1204.32 60.1333 1207.42 60 1211.2 60C1214.99 60 1218.08 60.1333 1220.48 60.4C1222.88 60.6667 1224.94 61.3867 1226.64 62.56C1228.4 63.7333 1229.28 65.5467 1229.28 68C1229.28 70.5067 1228.38 72.3467 1226.56 73.52C1224.8 74.6933 1222.35 75.44 1219.2 75.76C1219.47 78.6933 1219.6 82.8533 1219.6 88.24C1219.6 93.4133 1219.44 97.84 1219.12 101.52ZM1271.12 115.84C1265.89 115.84 1261.2 114.8 1257.04 112.72C1252.93 110.587 1249.68 107.44 1247.28 103.28C1244.88 99.0667 1243.68 93.92 1243.68 87.84C1243.68 82.9333 1244.8 78.3467 1247.04 74.08C1249.28 69.8133 1252.37 66.4 1256.32 63.84C1260.26 61.28 1264.69 60 1269.6 60C1274.24 60 1278.37 60.88 1282 62.64C1285.62 64.3467 1288.42 66.6933 1290.4 69.68C1292.42 72.6667 1293.44 76 1293.44 79.68C1293.44 82.0267 1292.74 84.0533 1291.36 85.76C1290.02 87.4667 1288.1 88.32 1285.6 88.32C1283.73 88.32 1282.29 88 1281.28 87.36C1280.26 86.72 1279.2 85.7333 1278.08 84.4C1276.96 83.0667 1275.86 82.08 1274.8 81.44C1273.78 80.7467 1272.29 80.4 1270.32 80.4C1267.81 80.4 1265.65 81.36 1263.84 83.28C1262.08 85.1467 1261.2 87.44 1261.2 90.16C1261.2 93.0933 1261.94 95.5733 1263.44 97.6C1264.98 99.5733 1267.06 100.56 1269.68 100.56C1271.7 100.56 1273.3 100.267 1274.48 99.68C1275.7 99.0933 1276.98 98.24 1278.32 97.12C1279.44 96.16 1280.45 95.44 1281.36 94.96C1282.32 94.48 1283.49 94.24 1284.88 94.24C1287.01 94.24 1288.69 94.9067 1289.92 96.24C1291.14 97.52 1291.76 99.2 1291.76 101.28C1291.76 103.733 1290.85 106.08 1289.04 108.32C1287.28 110.56 1284.82 112.373 1281.68 113.76C1278.53 115.147 1275.01 115.84 1271.12 115.84ZM1333.27 116C1327.88 116 1323.32 114.907 1319.59 112.72C1315.85 110.48 1313.4 107.147 1312.23 102.72C1311.75 100.907 1311.43 98.6933 1311.27 96.08C1311.11 93.4667 1311.03 90.1333 1311.03 86.08C1311.03 78.1333 1311.88 71.8133 1313.59 67.12C1315.35 62.3733 1318.81 60 1323.99 60C1327.19 60 1329.69 61.12 1331.51 63.36C1333.37 65.6 1334.31 68.3733 1334.31 71.68C1334.31 75.2 1334.01 78.96 1333.43 82.96C1332.84 86.96 1332.01 91.8133 1330.95 97.52C1334.25 96.4533 1337.88 95.92 1341.83 95.92C1345.93 95.92 1349.35 96.6667 1352.07 98.16C1354.84 99.6533 1356.23 102.08 1356.23 105.44C1356.23 108.693 1355.16 111.093 1353.03 112.64C1350.89 114.187 1348.31 115.147 1345.27 115.52C1342.23 115.84 1338.23 116 1333.27 116ZM1411.34 103.2C1413.9 104 1415.18 105.68 1415.18 108.24C1415.18 110.64 1413.96 112.533 1411.5 113.92C1409.05 115.307 1404.81 116 1398.78 116C1391.26 116 1384.81 114.187 1379.42 110.56C1374.09 106.933 1371.42 99.7333 1371.42 88.96C1371.42 83.52 1372.36 78.6133 1374.22 74.24C1376.09 69.8667 1378.86 66.4 1382.54 63.84C1386.28 61.28 1390.84 60 1396.22 60C1403.42 60 1408.49 61.12 1411.42 63.36C1414.36 65.5467 1415.82 68.24 1415.82 71.44C1415.82 72.9333 1415.45 74.32 1414.7 75.6C1413.96 76.8267 1412.84 77.7867 1411.34 78.48C1410.06 79.12 1408.41 79.44 1406.38 79.44L1404.22 79.36C1403.8 79.3067 1403.18 79.28 1402.38 79.28C1399.61 79.28 1397.42 79.7867 1395.82 80.8C1394.22 81.76 1393.13 83.2533 1392.54 85.28C1394.78 85.1733 1396.81 85.12 1398.62 85.12C1404.01 85.12 1407.5 85.28 1409.1 85.6C1410.92 85.9733 1412.3 86.6933 1413.26 87.76C1414.28 88.8267 1414.78 90.08 1414.78 91.52C1414.78 92.96 1414.3 94.2133 1413.34 95.28C1412.38 96.2933 1410.94 96.9867 1409.02 97.36C1407.53 97.68 1403.9 97.84 1398.14 97.84C1395.8 97.84 1394.14 97.8133 1393.18 97.76C1394.84 101.28 1397.93 103.04 1402.46 103.04C1402.73 103.04 1403.34 102.987 1404.3 102.88C1405.58 102.773 1406.68 102.72 1407.58 102.72C1409.13 102.72 1410.38 102.88 1411.34 103.2ZM1452.94 116.08C1449.42 116.08 1446.03 115.6 1442.78 114.64C1439.58 113.627 1436.97 112.24 1434.94 110.48C1432.91 108.667 1431.9 106.613 1431.9 104.32C1431.9 102.133 1432.57 100.4 1433.9 99.12C1435.23 97.84 1436.91 97.2 1438.94 97.2C1440.27 97.2 1441.42 97.3867 1442.38 97.76C1443.39 98.08 1444.49 98.56 1445.66 99.2C1446.51 99.6267 1447.23 99.9733 1447.82 100.24C1448.46 100.453 1449.13 100.56 1449.82 100.56C1451.58 100.56 1452.46 99.8667 1452.46 98.48C1452.46 97.9467 1452.09 97.4933 1451.34 97.12C1450.59 96.6933 1449.34 96.1333 1447.58 95.44C1444.43 94.2133 1441.87 93.0133 1439.9 91.84C1436.86 90.0267 1434.75 88.0533 1433.58 85.92C1432.46 83.7867 1431.9 81.12 1431.9 77.92C1431.9 74.8267 1432.89 71.92 1434.86 69.2C1436.83 66.4267 1439.53 64.2133 1442.94 62.56C1446.35 60.9067 1450.09 60.08 1454.14 60.08C1458.09 60.08 1461.69 60.6933 1464.94 61.92C1468.25 63.0933 1470.83 64.7467 1472.7 66.88C1474.62 68.96 1475.58 71.28 1475.58 73.84C1475.58 76.7733 1474.7 78.9867 1472.94 80.48C1471.23 81.92 1469.31 82.64 1467.18 82.64C1465.42 82.64 1464.09 82.5333 1463.18 82.32C1462.33 82.1067 1461.47 81.8133 1460.62 81.44C1459.93 81.1733 1459.34 80.9867 1458.86 80.88C1458.38 80.72 1457.71 80.64 1456.86 80.64C1456.17 80.64 1455.5 80.88 1454.86 81.36C1454.27 81.7867 1453.98 82.4 1453.98 83.2C1453.98 83.7867 1454.33 84.2933 1455.02 84.72C1455.71 85.0933 1456.51 85.44 1457.42 85.76C1458.33 86.08 1458.97 86.32 1459.34 86.48C1464.3 88.2933 1467.95 90.3733 1470.3 92.72C1472.65 95.0133 1473.82 98 1473.82 101.68C1473.82 106.213 1471.98 109.76 1468.3 112.32C1464.67 114.827 1459.55 116.08 1452.94 116.08Z" fill="white"/>
</g>
</g>
<defs>
<clipPath id="clip0_984_9195">
<rect width="1773" height="172" fill="white" transform="matrix(-1 0 0 1 1773 0)"/>
</clipPath>
</defs>
</svg>
