<svg width="1774" height="710" viewBox="0 0 1774 710" fill="none" xmlns="http://www.w3.org/2000/svg">
<g clip-path="url(#clip0_984_8900)">
<mask id="mask0_984_8900" style="mask-type:luminance" maskUnits="userSpaceOnUse" x="1" y="0" width="1775" height="710">
<path d="M1.66626 0H1775.09V710H1.66626V0Z" fill="white"/>
</mask>
<g mask="url(#mask0_984_8900)">
<path d="M566.321 353.5L2.3208 327V407H566.321V353.5Z" fill="#DDEBF9"/>
<rect width="757" height="63" transform="matrix(-1 0 0 1 759.321 389)" fill="#DDEBF9"/>
<path d="M5.20304 310.291C1.74571 341.426 0.165577 333.036 16.7543 334.347C33.343 335.659 50.5131 347.761 48.9744 317.058C49.9291 308.46 37.2552 300.427 20.6665 299.116C5.8803 297.947 6.93165 294.724 5.20304 310.291Z" fill="#DDEBF9"/>
<path d="M36.8059 315.269C34.2433 338.347 79.893 345.124 118.487 348.175C157.081 351.227 188.271 376.835 193.008 311.914C195.571 288.837 166.907 262.739 128.313 259.688C80.4998 255.908 39.3685 292.192 36.8059 315.269Z" fill="#DDEBF9"/>
<path d="M183.745 306.222C168.426 375.266 212.79 345.462 245.567 354.63C278.345 363.797 313.352 356.802 317.461 338.284C321.569 319.766 293.223 296.737 260.445 287.57C227.668 278.403 187.853 287.704 183.745 306.222Z" fill="#DDEBF9"/>
<path d="M309.614 331.051C286.967 384.637 328.473 355.684 354.88 357.772C381.286 359.86 401.893 385.458 405.24 338.611C406.396 328.203 385.926 318.074 359.52 315.986C333.113 313.899 310.77 320.643 309.614 331.051Z" fill="#DDEBF9"/>
<path d="M385.416 344.482C382.753 368.465 436.639 378.287 472.863 381.15C509.087 384.014 556.842 382.228 559.505 358.245C562.168 334.263 519.641 288.972 483.417 286.108C434.99 282.28 388.079 320.5 385.416 344.482Z" fill="#DDEBF9"/>
<ellipse cx="63.9954" cy="37.9056" rx="63.9954" ry="37.9056" transform="matrix(-0.971066 -0.23881 -0.199344 0.97993 674.399 358.141)" fill="#DDEBF9"/>
<ellipse cx="51.0369" cy="23.4383" rx="51.0369" ry="23.4383" transform="matrix(-0.99689 -0.0788114 -0.110365 0.993891 762.395 369.083)" fill="#DDEBF9"/>
<path d="M737.019 400.289C734.557 422.462 769.22 431.763 809.845 434.975C850.471 438.187 885.4 422.816 887.862 400.643C890.324 378.471 859.387 357.892 818.762 354.681C778.136 351.469 739.481 378.117 737.019 400.289Z" fill="#DDEBF9"/>
<path d="M875.606 408.043C875.606 443.492 906.539 472.23 944.698 472.23C982.856 472.23 1017.43 443.492 1017.43 408.043C1017.43 372.593 980.778 340.563 942.62 340.563C904.461 340.563 875.606 372.593 875.606 408.043Z" fill="#DDEBF9"/>
<path d="M918.927 486.391C922.438 513.043 950.586 531.316 981.797 527.204C1013.01 523.092 1035.46 498.152 1031.95 471.5C1026.89 433.057 1000.08 424.94 968.865 429.052C937.655 433.164 913 441.405 918.927 486.391Z" fill="#DDEBF9"/>
<path d="M1323.66 419.539C1329.1 434.59 1374.75 468.371 1416.32 462.894C1457.9 457.417 1486.07 415.411 1483.74 397.698C1484.92 336.724 1442.05 282.305 1393.2 291.744C1341.77 294.764 1315.34 356.36 1323.66 419.539Z" fill="#DDEBF9"/>
<path d="M1229.88 459.895C1232.1 476.745 1277.48 480.367 1315.37 475.375C1353.26 470.383 1377.31 475.443 1375.78 439.987C1369.03 388.763 1337.76 334.6 1293.23 343.209C1246.36 345.955 1222.28 402.198 1229.88 459.895Z" fill="#DDEBF9"/>
<path d="M1112.46 507.71C1115.36 519.73 1145.26 502.562 1187.18 497.039C1229.1 491.516 1267.77 487.248 1273.87 485.618C1262.84 401.909 1230.38 358.232 1181.15 368.025C1129.25 370.727 1093.36 428.371 1112.46 507.71Z" fill="#DDEBF9"/>
<path d="M995.172 504.06C997.867 517.596 1039.03 498.283 1080.88 492.768C1122.74 487.253 1166.48 493.724 1164.89 481.7C1157.15 392.244 1120.65 348.274 1071.52 358.206C1019.68 360.711 978.101 418.319 995.172 504.06Z" fill="#DDEBF9"/>
<path d="M1541.11 392.168C1546.06 429.78 1572.91 426.243 1619.33 420.126C1665.76 414.01 1712.57 395.364 1709.23 370.017C1700.43 303.181 1655.65 253.959 1609.23 260.075C1562.8 266.192 1527.59 329.062 1541.11 392.168Z" fill="#DDEBF9"/>
<path d="M1644.62 384.901C1649.13 419.106 1706.38 411.564 1777 402.259C1791.12 400.4 1792.64 402.31 1796.2 351.842C1799.76 301.374 1799.91 273.18 1785.91 275.855C1715.96 289.217 1638.11 335.423 1644.62 384.901Z" fill="#DDEBF9"/>
<path d="M1441.4 425.11C1447.91 474.57 1482.42 453.663 1527.59 447.712C1572.76 441.76 1611.5 453.017 1604.98 403.557C1598.47 354.097 1556.57 318.827 1511.39 324.778C1454.23 326.511 1434.88 375.65 1441.4 425.11Z" fill="#DDEBF9"/>
<path d="M1775 397L2.00009 415.245V760H1775V397Z" fill="#DDEBF9"/>
<path d="M18 745H878.753C866.924 744.994 1757 745 1757 745C1757 682.868 1381.21 537.5 901 537.5C420.788 537.5 18 682.868 18 745Z" fill="#B6D3D9"/>
<path d="M828.266 659.387L842.846 662.993C852.939 676.846 850.924 682.526 829.639 671.199L828.266 659.387Z" fill="#3B697C"/>
<path d="M1242.7 660.49L1220.74 665.922C1205.54 686.789 1208.58 695.344 1240.64 678.282L1242.7 660.49Z" fill="#3B697C"/>
<path d="M1567.53 691.859C1574.02 686.214 1573.27 677.446 1577.49 673.425C1581.71 669.404 1589.99 673.199 1594.97 678.466C1596.15 685.641 1593.24 690.882 1588.46 692.843C1583.68 694.804 1576.18 689.235 1567.53 691.859Z" fill="#3B697C"/>
<path d="M559.033 644.775C563.263 650.771 560.862 657.885 563.539 662.074C566.217 666.263 573.853 664.802 579.054 661.45C581.487 655.744 580.136 650.808 576.576 648.212C573.015 645.616 565.671 648.708 559.033 644.775Z" fill="#3B697C"/>
<path d="M1021 689.537L1032.22 712.503" stroke="#3B697C" stroke-width="2" stroke-linecap="round"/>
<path d="M1040.48 687L1042.07 711.316" stroke="#3B697C" stroke-width="2" stroke-linecap="round"/>
<path d="M1056.12 688.305L1052.31 712.493" stroke="#3B697C" stroke-width="2" stroke-linecap="round"/>
<path d="M1394.02 641.231L1393.96 641.254L1393.9 641.263C1386.15 642.396 1381.65 644.116 1379.29 647.074C1377.06 649.878 1376.67 653.906 1377.54 659.954C1383.35 654.589 1388.54 652.174 1399.19 648.99C1399.93 647.409 1399.74 645.762 1398.27 641.646C1397.23 641.235 1396.49 641.014 1395.88 640.946C1395.24 640.876 1394.69 640.964 1394.02 641.231Z" fill="#508D99" stroke="#19334E"/>
<line y1="-0.5" x2="6.56237" y2="-0.5" transform="matrix(0.94368 0.33086 -0.328177 -0.944616 1398.81 641.41)" stroke="#19334E"/>
<path d="M1398.43 641.304C1390.45 643.886 1380.57 647.669 1381.26 650.209" stroke="#19334E"/>
<path d="M1548.89 695.963L1559.56 693.324C1566.95 683.183 1565.48 679.026 1549.89 687.317L1548.89 695.963Z" fill="#3B697C"/>
<path d="M874.017 576.387L859.437 579.993C849.345 593.846 851.36 599.526 872.645 588.199L874.017 576.387Z" fill="#3B697C"/>
<path d="M402.58 606.491L424.542 611.923C439.744 632.79 436.709 641.345 404.647 624.283L402.58 606.491Z" fill="#3B697C"/>
<path d="M229.99 710.207L208.757 715.459C194.059 735.632 196.994 743.903 227.991 727.408L229.99 710.207Z" fill="#3B697C"/>
<path d="M1308.58 725.405C1302.32 719.964 1303.04 711.512 1298.98 707.635C1295.03 703.872 1287.39 707.211 1282.55 712.055C1282.27 712.338 1282.08 712.705 1282.03 713.102C1281.15 719.706 1283.93 724.518 1288.4 726.353C1293.01 728.244 1300.23 722.875 1308.58 725.405Z" fill="#3B697C"/>
<path d="M1143.25 561.775C1139.02 567.771 1141.42 574.885 1138.74 579.074C1136.07 583.263 1128.43 581.802 1123.23 578.45C1120.8 572.744 1122.15 567.808 1125.71 565.212C1129.27 562.616 1136.61 565.708 1143.25 561.775Z" fill="#3B697C"/>
<path d="M1160.28 657.537L1149.07 680.503" stroke="#3B697C" stroke-width="2" stroke-linecap="round"/>
<path d="M1140.8 655L1139.21 679.316" stroke="#3B697C" stroke-width="2" stroke-linecap="round"/>
<path d="M1125.17 656.305L1128.97 680.493" stroke="#3B697C" stroke-width="2" stroke-linecap="round"/>
<path d="M775.285 701.537L764.069 724.503" stroke="#3B697C" stroke-width="2" stroke-linecap="round"/>
<path d="M755.805 699L754.214 723.316" stroke="#3B697C" stroke-width="2" stroke-linecap="round"/>
<path d="M740.166 700.305L743.971 724.493" stroke="#3B697C" stroke-width="2" stroke-linecap="round"/>
<path d="M681.284 606.537L670.068 629.503" stroke="#3B697C" stroke-width="2" stroke-linecap="round"/>
<path d="M661.803 604L660.212 628.316" stroke="#3B697C" stroke-width="2" stroke-linecap="round"/>
<path d="M646.165 605.305L649.97 629.493" stroke="#3B697C" stroke-width="2" stroke-linecap="round"/>
<mask id="mask1_984_8900" style="mask-type:alpha" maskUnits="userSpaceOnUse" x="287" y="474" width="322" height="251">
<rect x="287" y="474.999" width="322" height="250" fill="#D9D9D9"/>
</mask>
<g mask="url(#mask1_984_8900)">
<ellipse cx="124.084" cy="123.601" rx="124.084" ry="123.601" transform="matrix(-1 0 0 1 602.107 529.774)" fill="#17435A"/>
<ellipse cx="96.7854" cy="108.003" rx="96.7854" ry="108.003" transform="matrix(-1 0 0 1 483.483 480.617)" fill="#17435A"/>
<ellipse cx="6.32827" cy="5.97949" rx="6.32827" ry="5.97949" transform="matrix(-1 0 0 1 519.219 559.14)" fill="#A2C5CC"/>
<ellipse cx="2.48133" cy="2.25641" rx="2.48133" ry="2.25641" transform="matrix(-1 0 0 1 509.045 595.241)" fill="#A2C5CC"/>
<ellipse cx="2.48133" cy="2.25641" rx="2.48133" ry="2.25641" transform="matrix(-1 0 0 1 494.156 602.011)" fill="#3B697C"/>
<ellipse cx="6.32827" cy="5.97949" rx="6.32827" ry="5.97949" transform="matrix(-1 0 0 1 476.038 541.313)" fill="#A2C5CC"/>
<ellipse cx="3.72251" cy="3.38462" rx="3.72251" ry="3.38462" transform="matrix(-1 0 0 1 473.061 568.392)" fill="#A2C5CC"/>
<ellipse cx="3.72251" cy="3.38462" rx="3.72251" ry="3.38462" transform="matrix(-1 0 0 1 575.306 676.925)" fill="#A2C5CC"/>
<ellipse cx="6.32827" cy="5.97949" rx="6.32827" ry="5.97949" transform="matrix(-1 0 0 1 445.765 565.232)" fill="#A2C5CC"/>
<ellipse cx="6.32827" cy="5.97949" rx="6.32827" ry="5.97949" transform="matrix(-1 0 0 1 444.023 586.442)" fill="#A2C5CC"/>
<ellipse cx="6.32827" cy="5.97949" rx="6.32827" ry="5.97949" transform="matrix(-1 0 0 1 564.137 585.54)" fill="#A2C5CC"/>
<ellipse cx="4.96335" cy="4.51282" rx="4.96335" ry="4.51282" transform="matrix(-1 0 0 1 438.069 536.804)" fill="#A2C5CC"/>
<ellipse cx="4.96335" cy="4.51282" rx="4.96335" ry="4.51282" transform="matrix(-1 0 0 1 433.106 503.857)" fill="#A2C5CC"/>
<ellipse cx="4.96335" cy="4.51282" rx="4.96335" ry="4.51282" transform="matrix(-1 0 0 1 405.062 523.038)" fill="#A2C5CC"/>
<ellipse cx="2.97759" cy="2.70769" rx="2.97759" ry="2.70769" transform="matrix(-1 0 0 1 416.479 537.706)" fill="#A2C5CC"/>
<ellipse cx="2.48133" cy="2.25641" rx="2.48133" ry="2.25641" transform="matrix(-1 0 0 1 399.104 560.269)" fill="#A2C5CC"/>
<ellipse cx="2.48133" cy="2.25641" rx="2.48133" ry="2.25641" transform="matrix(-1 0 0 1 375.28 560.269)" fill="#A2C5CC"/>
<ellipse cx="1.86099" cy="1.69231" rx="1.86099" ry="1.69231" transform="matrix(-1 0 0 1 391.66 551.018)" fill="#3B697C"/>
<ellipse cx="2.97759" cy="2.70769" rx="2.97759" ry="2.70769" transform="matrix(-1 0 0 1 421.441 569.294)" fill="#3B697C"/>
<ellipse cx="2.97759" cy="2.70769" rx="2.97759" ry="2.70769" transform="matrix(-1 0 0 1 451.719 555.529)" fill="#3B697C"/>
<ellipse cx="2.97759" cy="2.70769" rx="2.97759" ry="2.70769" transform="matrix(-1 0 0 1 444.023 527.551)" fill="#3B697C"/>
<ellipse cx="2.72946" cy="2.48205" rx="2.72946" ry="2.48205" transform="matrix(-1 0 0 1 525.177 549.662)" fill="#3B697C"/>
<ellipse cx="2.72946" cy="2.48205" rx="2.72946" ry="2.48205" transform="matrix(-1 0 0 1 504.082 541.313)" fill="#A2C5CC"/>
<ellipse cx="2.72946" cy="2.48205" rx="2.72946" ry="2.48205" transform="matrix(-1 0 0 1 494.156 568.392)" fill="#3F7082"/>
<ellipse cx="2.72946" cy="2.48205" rx="2.72946" ry="2.48205" transform="matrix(-1 0 0 1 491.674 557.109)" fill="#A2C5CC"/>
<ellipse cx="2.48133" cy="2.25641" rx="2.48133" ry="2.25641" transform="matrix(-1 0 0 1 375.28 515.816)" fill="#A2C5CC"/>
<ellipse cx="2.48133" cy="2.25641" rx="2.48133" ry="2.25641" transform="matrix(-1 0 0 1 386.7 534.545)" fill="#3B697C"/>
<ellipse cx="2.48133" cy="2.25641" rx="2.48133" ry="2.25641" transform="matrix(-1 0 0 1 328.38 533.19)" fill="#3B697C"/>
<ellipse cx="1.86099" cy="1.69231" rx="1.86099" ry="1.69231" transform="matrix(-1 0 0 1 461.397 589.149)" fill="#3B697C"/>
<ellipse cx="1.86099" cy="1.69231" rx="1.86099" ry="1.69231" transform="matrix(-1 0 0 1 359.648 528.68)" fill="#3B697C"/>
<ellipse cx="2.48133" cy="2.25641" rx="2.48133" ry="2.25641" transform="matrix(-1 0 0 1 396.626 505.213)" fill="#3B697C"/>
<ellipse cx="2.48133" cy="2.25641" rx="2.48133" ry="2.25641" transform="matrix(-1 0 0 1 411.515 493.931)" fill="#A2C5CC"/>
<ellipse cx="4.96335" cy="4.51282" rx="4.96335" ry="4.51282" transform="matrix(-1 0 0 1 532.621 614.647)" fill="#A2C5CC"/>
<ellipse cx="4.96335" cy="4.51282" rx="4.96335" ry="4.51282" transform="matrix(-1 0 0 1 537.584 644.206)" fill="#A2C5CC"/>
<ellipse cx="3.10166" cy="2.82051" rx="3.10166" ry="2.82051" transform="matrix(-1 0 0 1 564.137 568.843)" fill="#A2C5CC"/>
<ellipse cx="3.10166" cy="2.82051" rx="3.10166" ry="2.82051" transform="matrix(-1 0 0 1 546.767 555.305)" fill="#A2C5CC"/>
<ellipse cx="3.10166" cy="2.82051" rx="3.10166" ry="2.82051" transform="matrix(-1 0 0 1 539.322 571.1)" fill="#3F7082"/>
<ellipse cx="2.48133" cy="2.25641" rx="2.48133" ry="2.25641" transform="matrix(-1 0 0 1 531.878 586.895)" fill="#A2C5CC"/>
<ellipse cx="3.10166" cy="2.82051" rx="3.10166" ry="2.82051" transform="matrix(-1 0 0 1 575.306 655.488)" fill="#3B697C"/>
<ellipse cx="3.10166" cy="2.82051" rx="3.10166" ry="2.82051" transform="matrix(-1 0 0 1 575.306 655.488)" fill="#3B697C"/>
<ellipse cx="3.10166" cy="2.82051" rx="3.10166" ry="2.82051" transform="matrix(-1 0 0 1 575.306 655.488)" fill="#3B697C"/>
<ellipse cx="3.10166" cy="2.82051" rx="3.10166" ry="2.82051" transform="matrix(-1 0 0 1 557.935 659.552)" fill="#3B697C"/>
<ellipse cx="3.10166" cy="2.82051" rx="3.10166" ry="2.82051" transform="matrix(-1 0 0 1 557.935 659.552)" fill="#3B697C"/>
<ellipse cx="3.10166" cy="2.82051" rx="3.10166" ry="2.82051" transform="matrix(-1 0 0 1 557.935 659.552)" fill="#3B697C"/>
<ellipse cx="1.86099" cy="1.69231" rx="1.86099" ry="1.69231" transform="matrix(-1 0 0 1 551.733 683.469)" fill="#3B697C"/>
<ellipse cx="1.86099" cy="1.69231" rx="1.86099" ry="1.69231" transform="matrix(-1 0 0 1 551.733 683.469)" fill="#3B697C"/>
<ellipse cx="1.86099" cy="1.69231" rx="1.86099" ry="1.69231" transform="matrix(-1 0 0 1 551.733 683.469)" fill="#A2C5CC"/>
<ellipse cx="3.10166" cy="2.82051" rx="3.10166" ry="2.82051" transform="matrix(-1 0 0 1 570.838 614.647)" fill="#3B697C"/>
<ellipse cx="3.10166" cy="2.82051" rx="3.10166" ry="2.82051" transform="matrix(-1 0 0 1 570.838 614.647)" fill="#3B697C"/>
<ellipse cx="3.10166" cy="2.82051" rx="3.10166" ry="2.82051" transform="matrix(-1 0 0 1 570.838 614.647)" fill="#3B697C"/>
<ellipse cx="1.86099" cy="1.69231" rx="1.86099" ry="1.69231" transform="matrix(-1 0 0 1 580.768 633.828)" fill="#3B697C"/>
<ellipse cx="1.86099" cy="1.69231" rx="1.86099" ry="1.69231" transform="matrix(-1 0 0 1 580.768 633.828)" fill="#3B697C"/>
<ellipse cx="1.86099" cy="1.69231" rx="1.86099" ry="1.69231" transform="matrix(-1 0 0 1 580.768 633.828)" fill="#A2C5CC"/>
<ellipse cx="1.86099" cy="1.69231" rx="1.86099" ry="1.69231" transform="matrix(-1 0 0 1 589.699 625.479)" fill="#3B697C"/>
<ellipse cx="1.86099" cy="1.69231" rx="1.86099" ry="1.69231" transform="matrix(-1 0 0 1 589.699 625.479)" fill="#3B697C"/>
<ellipse cx="1.86099" cy="1.69231" rx="1.86099" ry="1.69231" transform="matrix(-1 0 0 1 589.699 625.479)" fill="#A2C5CC"/>
<ellipse cx="3.10166" cy="2.82051" rx="3.10166" ry="2.82051" transform="matrix(-1 0 0 1 546.767 605.623)" fill="#3B697C"/>
<ellipse cx="3.10166" cy="2.82051" rx="3.10166" ry="2.82051" transform="matrix(-1 0 0 1 546.767 605.623)" fill="#3B697C"/>
<ellipse cx="3.10166" cy="2.82051" rx="3.10166" ry="2.82051" transform="matrix(-1 0 0 1 546.767 605.623)" fill="#3B697C"/>
<ellipse cx="2.60539" cy="2.36923" rx="2.60539" ry="2.36923" transform="matrix(-1 0 0 1 579.026 598.852)" fill="#3B697C"/>
<ellipse cx="2.60539" cy="2.36923" rx="2.60539" ry="2.36923" transform="matrix(-1 0 0 1 579.026 598.852)" fill="#3B697C"/>
<ellipse cx="2.60539" cy="2.36923" rx="2.60539" ry="2.36923" transform="matrix(-1 0 0 1 579.026 598.852)" fill="#3B697C"/>
<ellipse cx="6.32827" cy="5.97949" rx="6.32827" ry="5.97949" transform="matrix(-1 0 0 1 372.802 539.059)" fill="#A2C5CC"/>
<ellipse cx="6.32827" cy="5.97949" rx="6.32827" ry="5.97949" transform="matrix(-1 0 0 1 564.389 637.212)" fill="#A2C5CC"/>
</g>
<mask id="mask2_984_8900" style="mask-type:alpha" maskUnits="userSpaceOnUse" x="123" y="426" width="293" height="294">
<rect width="292.911" height="292.592" transform="matrix(-1 0 0 1 415.998 426.645)" fill="#D9D9D9"/>
</mask>
<g mask="url(#mask2_984_8900)">
<ellipse cx="101.769" cy="164.38" rx="101.769" ry="164.38" transform="matrix(-1 0 0 1 334.742 436.654)" fill="#417385"/>
<ellipse cx="57.403" cy="78.0518" rx="57.403" ry="78.0518" transform="matrix(-1 0 0 1 407.303 593.335)" fill="#417385"/>
<path d="M257.738 533.336C258.032 530.932 256.179 531.605 254.281 532.986C252.897 536.251 252.07 537.681 251.497 547.306C251.597 549.664 252.243 552.017 253.562 556.501L254.649 547.625L255.997 536.623C256.155 535.328 257.443 535.74 257.738 533.336Z" fill="#F8E6C7" stroke="#F8E6C7" stroke-width="0.5" stroke-linecap="round"/>
<path d="M150.317 532.278C150.702 529.885 152.307 530.963 153.758 532.736C154.187 536.213 154.589 537.787 152.461 547.23C151.708 549.489 150.428 551.616 147.902 555.65L149.323 546.813L151.085 535.859C151.292 534.57 149.932 534.672 150.317 532.278Z" fill="#F8E6C7" stroke="#F8E6C7" stroke-width="0.5" stroke-linecap="round"/>
<path d="M151.052 619.93C150.667 617.536 149.062 618.615 147.611 620.387C147.182 623.865 146.78 625.438 148.908 634.882C149.661 637.14 150.941 639.267 153.467 643.302L152.046 634.465L150.284 623.511C150.077 622.222 151.437 622.323 151.052 619.93Z" fill="#F8E6C7" stroke="#F8E6C7" stroke-width="0.5" stroke-linecap="round"/>
<path d="M278.182 589.802C278.182 590.36 278.08 592.22 280.33 591.476C282.581 590.732 282.889 582.531 282.581 577.801C281.888 577.236 280.33 576.126 279.717 576.126C279.103 576.126 278.96 575.454 278.182 576.126V581.987V589.802Z" fill="#F8E6C7" stroke="#F8E6C7" stroke-width="0.5" stroke-linecap="round"/>
<path d="M226.162 595.033C226.108 597.452 224.368 596.563 222.685 594.968C221.784 591.566 221.17 590.05 221.989 580.44C222.427 578.114 223.407 575.858 225.361 571.57L225.16 580.499L224.91 591.567C224.881 592.869 226.217 592.615 226.162 595.033Z" fill="#F8E6C7" stroke="#F8E6C7" stroke-width="0.5" stroke-linecap="round"/>
<path d="M172.383 581.584C172.383 581.026 172.486 579.165 170.235 579.91C167.984 580.654 167.677 588.855 167.984 593.585C168.677 594.15 170.235 595.26 170.849 595.26C171.463 595.26 171.606 595.932 172.383 595.26V589.399V581.584Z" fill="#F8E6C7" stroke="#F8E6C7" stroke-width="0.5" stroke-linecap="round"/>
<path d="M258.536 633.634C258.536 634.383 258.639 636.877 256.387 635.879C254.136 634.881 253.828 623.887 254.136 617.546C254.829 616.789 256.387 615.301 257.001 615.301C257.615 615.301 257.759 614.4 258.536 615.301V623.158V633.634Z" fill="#F8E6C7" stroke="#F8E6C7" stroke-width="0.5" stroke-linecap="round"/>
<path d="M258.536 702.966C258.536 702.218 258.639 699.724 256.387 700.721C254.136 701.719 253.828 712.713 254.136 719.055C254.829 719.812 256.387 721.3 257.001 721.3C257.615 721.3 257.759 722.201 258.536 721.3V713.442V702.966Z" fill="#F8E6C7" stroke="#F8E6C7" stroke-width="0.5" stroke-linecap="round"/>
<path d="M175.453 678.289C175.453 679.038 175.351 681.532 177.602 680.534C179.853 679.537 180.161 668.542 179.853 662.201C179.16 661.444 177.602 659.956 176.988 659.956C176.374 659.956 176.231 659.055 175.453 659.956V667.813V678.289Z" fill="#F8E6C7" stroke="#F8E6C7" stroke-width="0.5" stroke-linecap="round"/>
<path d="M201.849 620.913C201.849 620.164 201.747 617.67 203.998 618.668C206.25 619.666 206.557 630.66 206.25 637.001C205.557 637.758 203.998 639.246 203.384 639.246C202.77 639.246 202.627 640.147 201.849 639.246V631.389V620.913Z" fill="#F8E6C7" stroke="#F8E6C7" stroke-width="0.5" stroke-linecap="round"/>
<path d="M276.355 684.343C276.409 686.761 278.149 685.873 279.832 684.278C280.733 680.876 281.347 679.36 280.528 669.749C280.09 667.423 279.11 665.168 277.156 660.879L277.357 669.808L277.607 680.877C277.636 682.179 276.3 681.925 276.355 684.343Z" fill="#F8E6C7" stroke="#F8E6C7" stroke-width="0.5" stroke-linecap="round"/>
<path d="M230.908 667.17C230.908 666.612 231.011 664.751 228.76 665.495C226.509 666.24 226.202 674.441 226.509 679.171C227.202 679.736 228.76 680.846 229.374 680.846C229.987 680.846 230.131 681.518 230.908 680.846V674.985V667.17Z" fill="#F8E6C7" stroke="#F8E6C7" stroke-width="0.5" stroke-linecap="round"/>
<path d="M199.706 704.347C199.24 711.447 202.16 721.114 203.678 725.059C204.766 721.638 203.415 710.149 202.603 704.832C201.831 701.712 200.172 697.247 199.706 704.347Z" fill="#F2E5C9" stroke="#F7E6C7" stroke-width="0.5"/>
<path d="M366.582 621.259C366.582 620.294 366.684 617.077 364.433 618.364C362.182 619.65 361.874 633.827 362.182 642.004C362.875 642.981 364.433 644.899 365.047 644.899C365.661 644.899 365.804 646.061 366.582 644.899V634.767V621.259Z" fill="#F8E6C7" stroke="#F8E6C7" stroke-width="0.5" stroke-linecap="round"/>
<path d="M386.053 657.66C386.679 666.265 381.993 677.438 379.573 681.949C377.925 677.671 380.193 664.068 381.533 657.801C382.779 654.168 385.427 649.055 386.053 657.66Z" fill="#F2E5C9" stroke="#F7E6C7" stroke-width="0.5"/>
<path d="M338.342 669.622C338.342 670.18 338.444 672.041 336.193 671.296C333.943 670.552 333.635 662.351 333.943 657.621C334.636 657.056 336.193 655.946 336.807 655.946C337.421 655.946 337.564 655.274 338.342 655.946V661.807V669.622Z" fill="#F8E6C7" stroke="#F8E6C7" stroke-width="0.5" stroke-linecap="round"/>
<path d="M357.592 704.066C357.646 706.484 359.386 705.595 361.07 704.001C361.97 700.599 362.584 699.083 361.765 689.472C361.327 687.146 360.347 684.891 358.393 680.602L358.595 689.531L358.844 700.599C358.873 701.901 357.537 701.647 357.592 704.066Z" fill="#F8E6C7" stroke="#F8E6C7" stroke-width="0.5" stroke-linecap="round"/>
<path d="M229.915 490.48C231.715 497.401 230.665 507.38 229.915 511.505C228.196 508.304 227.357 496.775 227.152 491.41C227.323 488.216 228.114 483.558 229.915 490.48Z" fill="#F2E5C9" stroke="#F7E6C7" stroke-width="0.5"/>
<path d="M312.18 534.95C313.98 541.872 312.93 551.851 312.18 555.975C310.461 552.775 309.622 541.245 309.417 535.881C309.588 532.687 310.379 528.029 312.18 534.95Z" fill="#F2E5C9" stroke="#F7E6C7" stroke-width="0.5"/>
<path d="M311.277 618.983C311.232 626.095 307.623 635.567 305.825 639.415C304.984 635.936 307.159 624.552 308.351 619.295C309.345 616.227 311.322 611.87 311.277 618.983Z" fill="#F2E5C9" stroke="#F7E6C7" stroke-width="0.5"/>
<path d="M175.451 493.019C175.451 492.46 175.554 490.6 173.303 491.344C171.052 492.088 170.745 500.289 171.052 505.02C171.745 505.585 173.303 506.694 173.917 506.694C174.531 506.694 174.674 507.367 175.451 506.694V500.833V493.019Z" fill="#F8E6C7" stroke="#F8E6C7" stroke-width="0.5" stroke-linecap="round"/>
<path d="M254.032 462.692C254.032 462.133 254.135 460.273 251.884 461.017C249.633 461.761 249.326 469.962 249.633 474.692C250.326 475.257 251.884 476.367 252.498 476.367C253.112 476.367 253.255 477.039 254.032 476.367V470.506V462.692Z" fill="#F8E6C7" stroke="#F8E6C7" stroke-width="0.5" stroke-linecap="round"/>
<path d="M204.716 537.859C204.716 537.3 204.818 535.44 202.567 536.184C200.317 536.928 200.009 545.129 200.317 549.859C201.01 550.424 202.567 551.534 203.181 551.534C203.795 551.534 203.938 552.206 204.716 551.534V545.673V537.859Z" fill="#F8E6C7" stroke="#F8E6C7" stroke-width="0.5" stroke-linecap="round"/>
<path d="M278.182 488.737C278.182 488.179 278.08 486.319 280.33 487.063C282.581 487.807 282.889 496.008 282.581 500.738C281.888 501.303 280.33 502.413 279.717 502.413C279.103 502.413 278.96 503.085 278.182 502.413V496.552V488.737Z" fill="#F8E6C7" stroke="#F8E6C7" stroke-width="0.5" stroke-linecap="round"/>
<path d="M206.242 458.193C206.536 455.789 204.683 456.463 202.785 457.843C201.401 461.108 200.574 462.538 200.002 472.164C200.101 474.522 200.747 476.875 202.066 481.359L203.154 472.483L204.501 461.48C204.66 460.186 205.947 460.597 206.242 458.193Z" fill="#F8E6C7" stroke="#F8E6C7" stroke-width="0.5" stroke-linecap="round"/>
</g>
<mask id="mask3_984_8900" style="mask-type:alpha" maskUnits="userSpaceOnUse" x="371" y="596" width="216" height="123">
<rect x="586.791" y="718.981" width="215.499" height="122.73" transform="rotate(180 586.791 718.981)" fill="#D9D9D9"/>
</mask>
<g mask="url(#mask3_984_8900)">
<ellipse cx="27.1344" cy="27.8344" rx="27.1344" ry="27.8344" transform="matrix(-1 0 0 1 584.677 678.411)" fill="#34578D"/>
<ellipse cx="50.2103" cy="43.6494" rx="50.2103" ry="43.6494" transform="matrix(-1 0 0 1 557.544 629.912)" fill="#34578D"/>
<ellipse cx="50.2103" cy="49.3428" rx="50.2103" ry="49.3428" transform="matrix(-1 0 0 1 488.664 602.289)" fill="#34578D"/>
<ellipse cx="50.2103" cy="43.6494" rx="50.2103" ry="43.6494" transform="matrix(-1 0 0 1 480.545 660.275)" fill="#34578D"/>
<ellipse cx="50.2103" cy="43.6494" rx="50.2103" ry="43.6494" transform="matrix(-1 0 0 1 543.628 664.282)" fill="#34578D"/>
<ellipse cx="6.78088" cy="3.53367" rx="6.78088" ry="3.53367" transform="matrix(-0.962741 0.270425 0.321712 0.946838 515.752 689.588)" fill="#BA6D74"/>
<ellipse cx="6.64213" cy="3.56335" rx="6.64213" ry="3.56335" transform="matrix(-0.903817 -0.427919 -0.496977 0.867764 510.927 700.334)" fill="#BA6D74"/>
<ellipse cx="6.75242" cy="4.41755" rx="6.75242" ry="4.41755" transform="matrix(-0.941256 -0.337694 -0.398106 0.917339 504.901 686.978)" fill="#BA6D74"/>
<ellipse cx="6.75242" cy="4.41755" rx="6.75242" ry="4.41755" transform="matrix(-0.941256 -0.337694 -0.398106 0.917339 477.068 656.825)" fill="#BA6D74"/>
<ellipse cx="6.75242" cy="4.41755" rx="6.75242" ry="4.41755" transform="matrix(-0.941256 -0.337694 -0.398106 0.917339 473.592 678.124)" fill="#BA6D74"/>
<ellipse cx="6.75242" cy="4.41755" rx="6.75242" ry="4.41755" transform="matrix(-0.941256 -0.337694 -0.398106 0.917339 441.817 645.439)" fill="#BA6D74"/>
<ellipse cx="6.75242" cy="4.41755" rx="6.75242" ry="4.41755" transform="matrix(-0.941256 -0.337694 -0.398106 0.917339 449.007 682.763)" fill="#BA6D74"/>
<ellipse cx="6.75242" cy="4.41755" rx="6.75242" ry="4.41755" transform="matrix(-0.941256 -0.337694 -0.398106 0.917339 453.645 709.964)" fill="#BA6D74"/>
<ellipse cx="6.75242" cy="4.41755" rx="6.75242" ry="4.41755" transform="matrix(0.941256 -0.337694 0.398106 0.917339 448.085 696.678)" fill="#BA6D74"/>
<ellipse cx="6.75242" cy="4.41755" rx="6.75242" ry="4.41755" transform="matrix(0.941256 -0.337694 0.398106 0.917339 441.824 668.212)" fill="#BA6D74"/>
<ellipse cx="6.75242" cy="4.41755" rx="6.75242" ry="4.41755" transform="matrix(0.941256 -0.337694 0.398106 0.917339 431.851 631.521)" fill="#BA6D74"/>
<ellipse cx="5.69158" cy="3.43492" rx="5.69158" ry="3.43492" transform="matrix(0.941256 -0.337694 0.398106 0.917339 437.415 649.234)" fill="#BA6D74"/>
<ellipse cx="5.36075" cy="3.65032" rx="5.36075" ry="3.65032" transform="matrix(0.514718 -0.857359 0.895746 0.444567 413.526 649.858)" fill="#BA6D74"/>
<ellipse cx="4.2165" cy="3.09967" rx="4.2165" ry="3.09967" transform="matrix(0.514718 -0.857359 0.895746 0.444567 424.891 662.301)" fill="#BA6D74"/>
<ellipse cx="5.60131" cy="2.87654" rx="5.60131" ry="2.87654" transform="matrix(0.999841 0.0178191 0.021553 -0.999768 409.386 660.508)" fill="#BA6D74"/>
<ellipse cx="6.75242" cy="4.41755" rx="6.75242" ry="4.41755" transform="matrix(-0.941256 -0.337694 -0.398106 0.917339 480.548 703.005)" fill="#BA6D74"/>
<ellipse cx="6.75242" cy="4.41755" rx="6.75242" ry="4.41755" transform="matrix(0.941256 -0.337694 0.398106 0.917339 470.119 685.294)" fill="#BA6D74"/>
<ellipse cx="6.75242" cy="4.41755" rx="6.75242" ry="4.41755" transform="matrix(0.941256 -0.337694 0.398106 0.917339 474.758 664.627)" fill="#BA6D74"/>
<ellipse cx="5.82191" cy="3.03609" rx="5.82191" ry="3.03609" transform="matrix(-0.941256 -0.337694 -0.398106 0.917339 512.09 672.012)" fill="#BA6D74"/>
<ellipse cx="5.88595" cy="2.99726" rx="5.88595" ry="2.99726" transform="matrix(-0.995826 0.0912755 0.110198 0.99391 523.255 669.344)" fill="#BA6D74"/>
<ellipse cx="6.75242" cy="4.41755" rx="6.75242" ry="4.41755" transform="matrix(-0.941256 -0.337694 -0.398106 0.917339 523.688 656.825)" fill="#BA6D74"/>
<ellipse cx="6.75242" cy="4.41755" rx="6.75242" ry="4.41755" transform="matrix(-0.941256 -0.337694 -0.398106 0.917339 509.769 713.127)" fill="#BA6D74"/>
<ellipse cx="6.71431" cy="4.44603" rx="6.71431" ry="4.44603" transform="matrix(-0.911235 0.411886 0.479738 0.877412 531.942 646.782)" fill="#BA6D74"/>
<path d="M557.549 691.274C557.549 698.103 561.569 712.816 563.578 719.32" stroke="#BA6D74" stroke-width="2" stroke-linecap="round"/>
<path d="M571.46 699.288C569.048 703.674 566.977 714.47 566.243 719.32" stroke="#BA6D74" stroke-width="2" stroke-linecap="round"/>
<ellipse cx="4.85327" cy="3.0972" rx="4.85327" ry="3.0972" transform="matrix(-0.983103 -0.183052 -0.219727 0.975561 559.169 698.536)" fill="#BA6D74"/>
<ellipse cx="4.76489" cy="3.16307" rx="4.76489" ry="3.16307" transform="matrix(-0.886931 0.461902 0.533014 0.846106 575.509 703.593)" fill="#BA6D74"/>
<ellipse cx="2.31275" cy="2.11537" rx="2.31275" ry="2.11537" transform="matrix(-0.987284 -0.158963 -0.191172 0.981557 568.909 702.766)" fill="#BA6D74"/>
<path d="M421.798 697.204C419.971 702.134 418.949 713.65 418.667 718.792" stroke="#BA6D74" stroke-width="2" stroke-linecap="round"/>
<path d="M429.745 706.079C426.822 708.71 422.432 716.045 420.602 719.384" stroke="#BA6D74" stroke-width="2" stroke-linecap="round"/>
<ellipse cx="3.68246" cy="2.38311" rx="3.68246" ry="2.38311" transform="matrix(-0.874953 -0.461993 -0.546289 0.852006 421.032 702.806)" fill="#BA6D74"/>
<ellipse cx="1.75461" cy="1.62791" rx="1.75461" ry="1.62791" transform="matrix(-0.887556 -0.440351 -0.521372 0.865723 426.964 708.022)" fill="#BA6D74"/>
<ellipse cx="4.85327" cy="3.0972" rx="4.85327" ry="3.0972" transform="matrix(-0.983103 -0.183052 -0.219727 0.975561 542.936 691.367)" fill="#BA6D74"/>
<ellipse cx="4.77619" cy="3.1548" rx="4.77619" ry="3.1548" transform="matrix(-0.900105 -0.435673 -0.50526 0.862967 537.346 703.611)" fill="#BA6D74"/>
<ellipse cx="4.80402" cy="3.13423" rx="4.80402" ry="3.13423" transform="matrix(-0.931394 0.364014 0.427402 0.904062 542.036 708.79)" fill="#BA6D74"/>
<ellipse cx="4.80402" cy="3.13423" rx="4.80402" ry="3.13423" transform="matrix(-0.931394 0.364014 0.427402 0.904062 545.592 674.197)" fill="#BA6D74"/>
<path d="M541.544 670.4C537.555 678.582 535.166 688.922 534.47 693.069V719.532" stroke="#BA6D74" stroke-width="2" stroke-linecap="round"/>
<ellipse cx="6.64248" cy="4.49878" rx="6.64248" ry="4.49878" transform="matrix(-0.850258 -0.526366 -0.599407 0.800444 538.064 683.298)" fill="#BA6D74"/>
<ellipse cx="4.84107" cy="2.92227" rx="4.84107" ry="2.92227" transform="matrix(-0.966375 -0.246465 -0.321024 0.950841 410.334 700.217)" fill="#BA6D74"/>
<ellipse cx="4.7213" cy="3.01583" rx="4.7213" ry="3.01583" transform="matrix(-0.869495 -0.481719 -0.60437 0.805552 403.706 711.267)" fill="#BA6D74"/>
<ellipse cx="4.76467" cy="2.98256" rx="4.76467" ry="2.98256" transform="matrix(-0.967392 0.272756 0.365794 0.92386 414.455 684.337)" fill="#BA6D74"/>
<path d="M410.746 680.475C406.067 687.836 402.797 697.34 401.746 701.172L399.47 725.959" stroke="#BA6D74" stroke-width="2" stroke-linecap="round"/>
<ellipse cx="6.53261" cy="4.32844" rx="6.53261" ry="4.32844" transform="matrix(-0.815514 -0.566733 -0.692407 0.732103 406.169 692.293)" fill="#BA6D74"/>
<path d="M522.179 646.078C525.106 658.548 517.727 668.35 513.672 671.692C499.748 678.826 502.783 691.37 506.041 696.75C507.572 697.665 510.548 700.293 510.2 703.482C509.852 706.672 507.379 716.507 506.186 721.026" stroke="#BA6D74" stroke-width="2" stroke-linecap="round"/>
<path d="M470.059 646.907C476.632 654.865 477.477 664.063 477.078 667.667L473.367 673.558L471.539 676.164L471.183 678.58C470.589 687.35 480.008 700.858 480.893 707.302L482.015 719.232" stroke="#BA6D74" stroke-width="2" stroke-linecap="round"/>
<path d="M430.284 628.062C437.453 631.989 448.536 691.011 453.182 720.031" stroke="#BA6D74" stroke-width="2" stroke-linecap="round"/>
<path d="M441.584 666.181C429.895 670.82 415.918 651.948 410.391 641.932" stroke="#BA6D74" stroke-width="2" stroke-linecap="round"/>
</g>
<path d="M164.185 542.413H208.911C204.871 664.746 206.023 715.126 224.231 718.944H164.185C200.897 682.232 187.289 617.838 164.185 542.413Z" fill="#F7E6C6"/>
<path d="M192.602 718.729C198.155 704.481 196.909 698.37 181.483 693.156" stroke="#FBAEAC" stroke-linecap="round"/>
<path d="M184.941 684.417C200.367 689.631 209.273 703.619 203.721 717.867" stroke="#FBAEAC" stroke-linecap="round"/>
<path d="M187.043 651.83C202.469 657.044 206.441 666.289 207.553 677.295" stroke="#FBAEAC" stroke-linecap="round"/>
<path d="M206.44 652.369C204.34 648.377 202.116 633.918 206.44 628.738" stroke="#FBAEAC" stroke-linecap="round"/>
<path d="M206.815 617.407C185.441 624.745 211.881 634.672 186.8 645.354" stroke="#FBAEAC" stroke-linecap="round"/>
<path d="M188.242 663.34C209.617 670.678 183.176 680.605 208.257 691.288" stroke="#FBAEAC" stroke-linecap="round"/>
<path d="M173.084 554.501C193.594 567.341 186.427 606.294 206.813 612.013" stroke="#FBAEAC" stroke-linecap="round"/>
<path d="M193.075 596.566C182.397 603.766 184.981 620.409 184.08 620.427" stroke="#FBAEAC" stroke-linecap="round"/>
<path d="M197.391 607.485C190.991 610.196 197.173 635.106 185.683 634.026" stroke="#FBAEAC" stroke-linecap="round"/>
<path d="M182.964 554.499C203.474 567.34 186.423 597.876 206.809 603.595" stroke="#FBAEAC" stroke-linecap="round"/>
<path d="M191.617 564.427C192.975 559.679 211.385 557.629 206.135 551.235" stroke="#FBAEAC" stroke-linecap="round"/>
<path d="M194.194 573.12C195.553 568.372 208.049 568.527 208.05 560.866" stroke="#FBAEAC" stroke-linecap="round"/>
<ellipse cx="190.247" cy="494.678" rx="96.2469" ry="77.4159" fill="#184D62"/>
<ellipse cx="194.077" cy="437.039" rx="76.3551" ry="88.0394" fill="#184D62"/>
<path d="M132.174 386.635C127.726 401.553 140.699 414.282 146.383 414.929C160.485 411.256 159.98 404.792 156.638 385.688" stroke="#42B2FC" stroke-linecap="round"/>
<path d="M157.254 383.962C155.648 393.457 161.331 416.117 171.671 415.038C178.91 414.283 183.184 403.133 180.358 383.962" stroke="#42B2FC" stroke-linecap="round"/>
<path d="M206.562 382.301C207.664 401.551 205.193 411.262 196.297 415.902C186.537 415.902 180.253 405.77 180.483 384.07" stroke="#42B2FC" stroke-linecap="round"/>
<path d="M230.271 381.804C232.575 401.572 223.993 408.442 219.414 409.406C207.528 407.302 205.917 400.401 206.753 383.894" stroke="#42B2FC" stroke-linecap="round"/>
<path d="M250.513 379.538C253.274 403.227 247.325 413.095 241.147 412.29C229.918 409.502 229.116 401.46 229.402 381.743" stroke="#42B2FC" stroke-linecap="round"/>
<path d="M140.205 375.447C138.476 386.885 140.7 387.954 146.383 388.602C160.486 384.928 161.216 379.868 157.874 360.763" stroke="#42B2FC" stroke-linecap="round"/>
<path d="M157.255 360.869C157.255 381.744 166.866 388.126 171.672 388.708C183.597 385.406 184.05 369.735 181.224 352.561" stroke="#42B2FC" stroke-linecap="round"/>
<path d="M203.836 351.159C212.608 362.705 203.836 391.192 196.687 391.992C184.607 388.225 182.565 377.615 182.391 352.457" stroke="#42B2FC" stroke-linecap="round"/>
<path d="M230.276 360.416C232.58 380.184 223.994 382.113 219.415 383.077C207.529 380.974 205.918 374.072 206.753 357.566" stroke="#42B2FC" stroke-linecap="round"/>
<path d="M248.436 375.785C249.672 383.769 247.324 386.766 241.146 385.961C234.969 385.157 228.05 373.039 230.768 360.414" stroke="#42B2FC" stroke-linecap="round"/>
<path d="M120.312 418.061C120.312 441.281 133.285 448.382 138.969 449.029C153.071 445.355 149.594 425.062 149.594 418.061" stroke="#42B2FC" stroke-linecap="round"/>
<path d="M149.839 418.061C149.839 441.362 159.45 448.487 164.256 449.137C176.181 445.45 177.007 437.232 174.181 418.061" stroke="#42B2FC" stroke-linecap="round"/>
<path d="M199.611 420.394C202.053 441.35 192.863 448.641 187.962 449.667C175.247 447.447 173.531 440.132 174.444 422.63" stroke="#42B2FC" stroke-linecap="round"/>
<path d="M266.841 414.608C269.485 437.295 261.007 445.057 256.437 446.102C244.498 443.537 242.767 435.607 243.323 416.699" stroke="#42B2FC" stroke-linecap="round"/>
<path d="M223.125 418.202C225.228 436.246 216.584 442.588 212 443.504C200.146 441.673 198.606 435.38 199.607 420.293" stroke="#42B2FC" stroke-linecap="round"/>
<path d="M243.098 413.637C245.858 437.326 239.909 447.194 233.731 446.389C222.503 443.6 221.7 435.559 221.986 415.841" stroke="#42B2FC" stroke-linecap="round"/>
<path d="M109.687 453.653C109.687 476.874 120.93 480.751 126.614 481.398C137.239 478.742 139.71 462.242 138.351 450.43" stroke="#42B2FC" stroke-linecap="round"/>
<path d="M137.487 450.43C137.487 473.732 147.098 480.856 151.904 481.506C163.829 477.819 164.655 469.601 161.829 450.43" stroke="#42B2FC" stroke-linecap="round"/>
<path d="M187.259 452.765C189.701 473.721 180.51 481.012 175.61 482.038C162.894 479.818 161.179 472.503 162.091 455.002" stroke="#42B2FC" stroke-linecap="round"/>
<path d="M274.383 457.722C277.595 466.537 274.41 474.536 269.51 475.562C256.794 473.343 255.726 459.869 254.614 446.985" stroke="#42B2FC" stroke-linecap="round"/>
<path d="M254.489 446.978C257.133 469.664 248.655 477.426 244.085 478.471C232.146 475.906 230.415 467.976 230.97 449.068" stroke="#42B2FC" stroke-linecap="round"/>
<path d="M210.769 450.574C212.872 468.618 204.228 474.96 199.644 475.876C187.79 474.045 186.25 467.752 187.251 452.665" stroke="#42B2FC" stroke-linecap="round"/>
<path d="M230.745 446.009C233.506 469.698 227.557 479.566 221.379 478.761C210.15 475.973 209.348 467.931 209.634 448.213" stroke="#42B2FC" stroke-linecap="round"/>
<path d="M96.219 484.313C96.219 506.321 108.696 513.05 114.934 513.663C130.413 510.182 131.486 502.42 127.817 484.313" stroke="#42B2FC" stroke-linecap="round"/>
<path d="M109.567 453.654C113.52 475.882 102.091 483.103 95.8524 483.717" stroke="#42B2FC" stroke-linecap="round"/>
<path d="M127.109 482.154C127.109 504.323 137.644 511.102 142.912 511.72C155.984 508.213 156.889 500.394 153.792 482.154" stroke="#42B2FC" stroke-linecap="round"/>
<path d="M182.057 479.608C184.499 500.565 174.583 507.92 169.319 508.978C155.704 506.839 153.177 483.989 153.918 481.939" stroke="#42B2FC" stroke-linecap="round"/>
<path d="M271.788 476.003C274.23 496.96 271.17 506.648 261.627 506.191C248.912 503.971 246.536 495.339 247.448 477.838" stroke="#42B2FC" stroke-linecap="round"/>
<path d="M283.774 503.304C271.059 501.084 271.248 495.34 272.16 477.839" stroke="#42B2FC" stroke-linecap="round"/>
<path d="M246.703 477.555C249.346 500.241 245.435 505.913 240.866 506.958C228.926 504.393 227.196 496.463 227.751 477.555" stroke="#42B2FC" stroke-linecap="round"/>
<path d="M205.81 479.349C207.912 497.392 199.269 503.735 194.684 504.65C182.83 502.82 181.291 496.527 182.291 481.439" stroke="#42B2FC" stroke-linecap="round"/>
<path d="M226.809 476.373C229.57 500.062 223.257 505.6 217.213 504.783C206.223 501.974 205.424 492.375 205.653 472.663" stroke="#42B2FC" stroke-linecap="round"/>
<path d="M111.666 513.664C111.666 535.671 123.837 540.566 130.075 541.18C140.453 538.59 145.573 533.281 141.905 515.175" stroke="#42B2FC" stroke-linecap="round"/>
<path d="M142.676 514.312C142.676 536.482 153.211 543.26 158.479 543.878C171.551 540.371 172.456 532.552 169.359 514.312" stroke="#42B2FC" stroke-linecap="round"/>
<path d="M197.627 511.765C200.069 532.722 190.153 540.077 184.89 541.136C171.275 538.996 168.748 516.146 169.489 514.096" stroke="#42B2FC" stroke-linecap="round"/>
<path d="M272.901 532.993C271.048 531.698 263.264 523.952 262.377 509.893" stroke="#42B2FC" stroke-linecap="round"/>
<path d="M262.277 509.711C264.921 532.398 261.01 538.069 256.44 539.115C244.501 536.549 242.77 528.619 243.325 509.711" stroke="#42B2FC" stroke-linecap="round"/>
<path d="M221.377 511.506C223.48 529.549 214.836 535.892 210.252 536.808C198.397 534.977 196.858 528.684 197.858 513.596" stroke="#42B2FC" stroke-linecap="round"/>
<path d="M242.376 508.53C245.137 532.219 238.824 537.757 232.78 536.941C221.791 534.131 220.991 524.532 221.22 504.82" stroke="#42B2FC" stroke-linecap="round"/>
<path d="M157.998 544.937C157.998 554.658 167.906 557.63 172.861 557.901C185.154 556.363 185.621 549.066 182.707 541.068" stroke="#42B2FC" stroke-linecap="round"/>
<path d="M132.173 541.068C132.173 547.219 144.281 551.967 147 552.506C154.166 552.506 158.861 547.65 157.501 543.982" stroke="#42B2FC" stroke-linecap="round"/>
<path d="M253.873 539.342C253.873 543.55 246.707 546.248 243.989 546.787C239.788 546.248 234.104 540.313 235.464 536.645" stroke="#42B2FC" stroke-linecap="round"/>
<path d="M208.529 537.076C212.359 542.039 206.114 559.019 198.729 559.392C186.25 557.637 184.14 552.693 183.961 540.97" stroke="#42B2FC" stroke-linecap="round"/>
<path d="M235.586 537.075C237.966 546.287 226.936 554.789 222.206 555.238C209.927 554.258 209.642 544.767 210.505 537.075" stroke="#42B2FC" stroke-linecap="round"/>
<mask id="mask4_984_8900" style="mask-type:alpha" maskUnits="userSpaceOnUse" x="1273" y="493" width="305" height="230">
<rect width="304.932" height="229.006" transform="matrix(-1 0 0 1 1577.93 493.365)" fill="#D9D9D9"/>
</mask>
<g mask="url(#mask4_984_8900)">
<ellipse cx="1396.97" cy="654.675" rx="117.734" ry="117.276" fill="#508D99"/>
<ellipse cx="1483.62" cy="593.234" rx="91.8323" ry="102.476" fill="#508D99"/>
<ellipse cx="1363.89" cy="570.931" rx="6.00442" ry="5.67348" fill="#A2C5CC"/>
<ellipse cx="1369.89" cy="601.656" rx="2.35434" ry="2.14094" fill="#A2C5CC"/>
<ellipse cx="1384.02" cy="608.079" rx="2.35434" ry="2.14094" fill="#3B697C"/>
<ellipse cx="1404.86" cy="554.018" rx="6.00442" ry="5.67348" fill="#A2C5CC"/>
<ellipse cx="1405.21" cy="577.249" rx="3.53201" ry="3.2114" fill="#A2C5CC"/>
<ellipse cx="1308.2" cy="680.228" rx="3.53201" ry="3.2114" fill="#A2C5CC"/>
<ellipse cx="1433.58" cy="576.713" rx="6.00442" ry="5.67348" fill="#A2C5CC"/>
<ellipse cx="1435.23" cy="596.84" rx="6.00442" ry="5.67348" fill="#A2C5CC"/>
<ellipse cx="1321.26" cy="595.98" rx="6.00442" ry="5.67348" fill="#A2C5CC"/>
<ellipse cx="1439.59" cy="548.347" rx="4.70935" ry="4.28187" fill="#A2C5CC"/>
<ellipse cx="1444.3" cy="517.087" rx="4.70935" ry="4.28187" fill="#A2C5CC"/>
<ellipse cx="1470.91" cy="535.289" rx="4.70935" ry="4.28187" fill="#A2C5CC"/>
<ellipse cx="1458.19" cy="547.49" rx="2.82521" ry="2.56912" fill="#A2C5CC"/>
<ellipse cx="1474.2" cy="568.472" rx="2.35434" ry="2.14094" fill="#A2C5CC"/>
<ellipse cx="1496.81" cy="568.472" rx="2.35434" ry="2.14094" fill="#A2C5CC"/>
<ellipse cx="1480.68" cy="559.156" rx="1.76576" ry="1.6057" fill="#3B697C"/>
<ellipse cx="1453.48" cy="577.462" rx="2.82521" ry="2.56912" fill="#3B697C"/>
<ellipse cx="1424.75" cy="564.404" rx="2.82521" ry="2.56912" fill="#3B697C"/>
<ellipse cx="1432.05" cy="537.855" rx="2.82521" ry="2.56912" fill="#3B697C"/>
<ellipse cx="1354.82" cy="558.622" rx="2.58977" ry="2.35503" fill="#3B697C"/>
<ellipse cx="1374.83" cy="550.7" rx="2.58977" ry="2.35503" fill="#A2C5CC"/>
<ellipse cx="1384.25" cy="576.392" rx="2.58977" ry="2.35503" fill="#3F7082"/>
<ellipse cx="1386.61" cy="565.688" rx="2.58977" ry="2.35503" fill="#A2C5CC"/>
<ellipse cx="1496.81" cy="526.294" rx="2.35434" ry="2.14094" fill="#A2C5CC"/>
<ellipse cx="1485.97" cy="544.065" rx="2.35434" ry="2.14094" fill="#3B697C"/>
<ellipse cx="1541.31" cy="542.778" rx="2.35434" ry="2.14094" fill="#3B697C"/>
<ellipse cx="1414.51" cy="595.339" rx="1.76576" ry="1.6057" fill="#3B697C"/>
<ellipse cx="1511.05" cy="537.963" rx="1.76576" ry="1.6057" fill="#3B697C"/>
<ellipse cx="1476.56" cy="516.233" rx="2.35434" ry="2.14094" fill="#3B697C"/>
<ellipse cx="1462.43" cy="505.529" rx="2.35434" ry="2.14094" fill="#A2C5CC"/>
<ellipse cx="1349.87" cy="622.208" rx="4.70935" ry="4.28187" fill="#A2C5CC"/>
<ellipse cx="1345.16" cy="650.255" rx="4.70935" ry="4.28187" fill="#A2C5CC"/>
<ellipse cx="1318.2" cy="577.142" rx="2.94293" ry="2.67617" fill="#A2C5CC"/>
<ellipse cx="1334.69" cy="564.298" rx="2.94293" ry="2.67617" fill="#A2C5CC"/>
<ellipse cx="1341.75" cy="579.286" rx="2.94293" ry="2.67617" fill="#3F7082"/>
<ellipse cx="1348.23" cy="593.735" rx="2.35434" ry="2.14094" fill="#A2C5CC"/>
<ellipse cx="1307.61" cy="659.353" rx="2.94293" ry="2.67617" fill="#3B697C"/>
<ellipse cx="1307.61" cy="659.353" rx="2.94293" ry="2.67617" fill="#3B697C"/>
<ellipse cx="1307.61" cy="659.353" rx="2.94293" ry="2.67617" fill="#3B697C"/>
<ellipse cx="1324.09" cy="663.206" rx="2.94293" ry="2.67617" fill="#3B697C"/>
<ellipse cx="1324.09" cy="663.206" rx="2.94293" ry="2.67617" fill="#3B697C"/>
<ellipse cx="1324.09" cy="663.206" rx="2.94293" ry="2.67617" fill="#3B697C"/>
<ellipse cx="1328.8" cy="684.832" rx="1.76576" ry="1.6057" fill="#3B697C"/>
<ellipse cx="1328.8" cy="684.832" rx="1.76576" ry="1.6057" fill="#3B697C"/>
<ellipse cx="1328.8" cy="684.832" rx="1.76576" ry="1.6057" fill="#A2C5CC"/>
<ellipse cx="1311.85" cy="620.602" rx="2.94293" ry="2.67617" fill="#3B697C"/>
<ellipse cx="1311.85" cy="620.602" rx="2.94293" ry="2.67617" fill="#3B697C"/>
<ellipse cx="1311.85" cy="620.602" rx="2.94293" ry="2.67617" fill="#3B697C"/>
<ellipse cx="1301.25" cy="637.731" rx="1.76576" ry="1.6057" fill="#3B697C"/>
<ellipse cx="1301.25" cy="637.731" rx="1.76576" ry="1.6057" fill="#3B697C"/>
<ellipse cx="1301.25" cy="637.731" rx="1.76576" ry="1.6057" fill="#A2C5CC"/>
<ellipse cx="1292.77" cy="629.81" rx="1.76576" ry="1.6057" fill="#3B697C"/>
<ellipse cx="1292.77" cy="629.81" rx="1.76576" ry="1.6057" fill="#3B697C"/>
<ellipse cx="1292.77" cy="629.81" rx="1.76576" ry="1.6057" fill="#A2C5CC"/>
<ellipse cx="1334.69" cy="612.041" rx="2.94293" ry="2.67617" fill="#3B697C"/>
<ellipse cx="1334.69" cy="612.041" rx="2.94293" ry="2.67617" fill="#3B697C"/>
<ellipse cx="1334.69" cy="612.041" rx="2.94293" ry="2.67617" fill="#3B697C"/>
<ellipse cx="1303.61" cy="605.187" rx="2.47206" ry="2.24798" fill="#3B697C"/>
<ellipse cx="1303.61" cy="605.187" rx="2.47206" ry="2.24798" fill="#3B697C"/>
<ellipse cx="1303.61" cy="605.187" rx="2.47206" ry="2.24798" fill="#3B697C"/>
<ellipse cx="1502.81" cy="551.879" rx="6.00442" ry="5.67348" fill="#A2C5CC"/>
<ellipse cx="1321.03" cy="645.01" rx="6.00442" ry="5.67348" fill="#A2C5CC"/>
</g>
<mask id="mask5_984_8900" style="mask-type:alpha" maskUnits="userSpaceOnUse" x="1414" y="444" width="278" height="279">
<rect x="1414.08" y="444.752" width="277.921" height="277.618" fill="#D9D9D9"/>
</mask>
<g mask="url(#mask5_984_8900)">
<ellipse cx="1587.74" cy="610.217" rx="96.5609" ry="155.968" fill="#17435A"/>
<ellipse cx="1476.79" cy="650.969" rx="54.4653" ry="74.0574" fill="#17435A"/>
<path d="M1564.24 545.988C1563.96 543.707 1565.72 544.347 1567.52 545.656C1568.83 548.755 1569.62 550.111 1570.16 559.244C1570.07 561.481 1569.45 563.714 1568.2 567.969L1567.17 559.547L1565.89 549.107C1565.74 547.879 1564.52 548.269 1564.24 545.988Z" fill="#F8E6C7" stroke="#F8E6C7" stroke-width="0.5" stroke-linecap="round"/>
<path d="M1666.16 544.981C1665.8 542.71 1664.28 543.733 1662.9 545.415C1662.49 548.715 1662.11 550.208 1664.13 559.168C1664.84 561.311 1666.06 563.329 1668.45 567.157L1667.11 558.772L1665.43 548.379C1665.24 547.156 1666.53 547.252 1666.16 544.981Z" fill="#F8E6C7" stroke="#F8E6C7" stroke-width="0.5" stroke-linecap="round"/>
<path d="M1665.47 628.147C1665.83 625.876 1667.35 626.899 1668.73 628.581C1669.14 631.881 1669.52 633.374 1667.5 642.334C1666.79 644.477 1665.57 646.495 1663.17 650.323L1664.52 641.938L1666.19 631.545C1666.39 630.322 1665.1 630.418 1665.47 628.147Z" fill="#F8E6C7" stroke="#F8E6C7" stroke-width="0.5" stroke-linecap="round"/>
<path d="M1544.84 599.561C1544.84 600.091 1544.94 601.856 1542.8 601.15C1540.67 600.444 1540.38 592.663 1540.67 588.174C1541.32 587.638 1542.8 586.586 1543.38 586.586C1543.97 586.586 1544.1 585.948 1544.84 586.586V592.147V599.561Z" fill="#F8E6C7" stroke="#F8E6C7" stroke-width="0.5" stroke-linecap="round"/>
<path d="M1594.2 604.525C1594.25 606.819 1595.9 605.976 1597.5 604.463C1598.36 601.235 1598.94 599.797 1598.16 590.678C1597.74 588.471 1596.82 586.331 1594.96 582.262L1595.15 590.734L1595.39 601.236C1595.42 602.471 1594.15 602.23 1594.2 604.525Z" fill="#F8E6C7" stroke="#F8E6C7" stroke-width="0.5" stroke-linecap="round"/>
<path d="M1645.23 591.764C1645.23 591.234 1645.13 589.469 1647.27 590.175C1649.4 590.881 1649.69 598.663 1649.4 603.151C1648.74 603.687 1647.27 604.74 1646.68 604.74C1646.1 604.74 1645.96 605.378 1645.23 604.74V599.179V591.764Z" fill="#F8E6C7" stroke="#F8E6C7" stroke-width="0.5" stroke-linecap="round"/>
<path d="M1563.48 641.15C1563.48 641.86 1563.39 644.226 1565.52 643.28C1567.66 642.333 1567.95 631.901 1567.66 625.885C1567 625.166 1565.52 623.755 1564.94 623.755C1564.36 623.755 1564.22 622.899 1563.48 623.755V631.21V641.15Z" fill="#F8E6C7" stroke="#F8E6C7" stroke-width="0.5" stroke-linecap="round"/>
<path d="M1563.48 706.934C1563.48 706.224 1563.39 703.858 1565.52 704.804C1567.66 705.751 1567.95 716.183 1567.66 722.199C1567 722.918 1565.52 724.329 1564.94 724.329C1564.36 724.329 1564.22 725.185 1563.48 724.329V716.874V706.934Z" fill="#F8E6C7" stroke="#F8E6C7" stroke-width="0.5" stroke-linecap="round"/>
<path d="M1642.31 683.521C1642.31 684.231 1642.41 686.597 1640.27 685.651C1638.14 684.704 1637.85 674.272 1638.14 668.256C1638.8 667.537 1640.27 666.126 1640.86 666.126C1641.44 666.126 1641.58 665.27 1642.31 666.126V673.581V683.521Z" fill="#F8E6C7" stroke="#F8E6C7" stroke-width="0.5" stroke-linecap="round"/>
<path d="M1617.27 629.08C1617.27 628.37 1617.36 626.003 1615.23 626.95C1613.09 627.897 1612.8 638.328 1613.09 644.345C1613.75 645.063 1615.23 646.475 1615.81 646.475C1616.39 646.475 1616.53 647.33 1617.27 646.475V639.02V629.08Z" fill="#F8E6C7" stroke="#F8E6C7" stroke-width="0.5" stroke-linecap="round"/>
<path d="M1546.58 689.262C1546.52 691.556 1544.87 690.713 1543.28 689.2C1542.42 685.973 1541.84 684.534 1542.62 675.415C1543.03 673.208 1543.96 671.068 1545.82 666.999L1545.62 675.471L1545.39 685.973C1545.36 687.209 1546.63 686.967 1546.58 689.262Z" fill="#F8E6C7" stroke="#F8E6C7" stroke-width="0.5" stroke-linecap="round"/>
<path d="M1589.7 672.969C1589.7 672.439 1589.6 670.674 1591.74 671.38C1593.87 672.086 1594.16 679.868 1593.87 684.356C1593.21 684.892 1591.74 685.945 1591.15 685.945C1590.57 685.945 1590.43 686.583 1589.7 685.945V680.384V672.969Z" fill="#F8E6C7" stroke="#F8E6C7" stroke-width="0.5" stroke-linecap="round"/>
<path d="M1619.3 708.246C1619.74 714.983 1616.97 724.155 1615.53 727.899C1614.5 724.653 1615.78 713.752 1616.55 708.707C1617.29 705.746 1618.86 701.51 1619.3 708.246Z" fill="#F2E5C9" stroke="#F7E6C7" stroke-width="0.5"/>
<path d="M1460.96 629.408C1460.96 628.492 1460.87 625.44 1463 626.661C1465.14 627.882 1465.43 641.333 1465.14 649.091C1464.48 650.018 1463 651.838 1462.42 651.838C1461.84 651.838 1461.7 652.941 1460.96 651.838V642.225V629.408Z" fill="#F8E6C7" stroke="#F8E6C7" stroke-width="0.5" stroke-linecap="round"/>
<path d="M1442.49 663.944C1441.9 672.109 1446.34 682.71 1448.64 686.99C1450.2 682.931 1448.05 670.024 1446.78 664.078C1445.6 660.632 1443.08 655.78 1442.49 663.944Z" fill="#F2E5C9" stroke="#F7E6C7" stroke-width="0.5"/>
<path d="M1487.76 675.299C1487.76 675.828 1487.66 677.594 1489.8 676.887C1491.93 676.181 1492.23 668.4 1491.93 663.912C1491.28 663.376 1489.8 662.323 1489.22 662.323C1488.63 662.323 1488.5 661.685 1487.76 662.323V667.884V675.299Z" fill="#F8E6C7" stroke="#F8E6C7" stroke-width="0.5" stroke-linecap="round"/>
<path d="M1469.5 707.977C1469.44 710.271 1467.79 709.428 1466.2 707.915C1465.34 704.687 1464.76 703.249 1465.54 694.13C1465.95 691.923 1466.88 689.783 1468.73 685.714L1468.54 694.186L1468.31 704.688C1468.28 705.923 1469.55 705.682 1469.5 707.977Z" fill="#F8E6C7" stroke="#F8E6C7" stroke-width="0.5" stroke-linecap="round"/>
<path d="M1590.64 505.32C1588.93 511.888 1589.93 521.356 1590.64 525.269C1592.27 522.233 1593.07 511.293 1593.26 506.203C1593.1 503.173 1592.35 498.753 1590.64 505.32Z" fill="#F2E5C9" stroke="#F7E6C7" stroke-width="0.5"/>
<path d="M1512.58 547.517C1510.88 554.084 1511.87 563.552 1512.58 567.466C1514.21 564.429 1515.01 553.49 1515.21 548.399C1515.04 545.369 1514.29 540.949 1512.58 547.517Z" fill="#F2E5C9" stroke="#F7E6C7" stroke-width="0.5"/>
<path d="M1513.44 627.248C1513.48 633.996 1516.91 642.984 1518.61 646.634C1519.41 643.334 1517.35 632.532 1516.22 627.544C1515.27 624.633 1513.4 620.499 1513.44 627.248Z" fill="#F2E5C9" stroke="#F7E6C7" stroke-width="0.5"/>
<path d="M1642.31 507.733C1642.31 507.203 1642.22 505.438 1644.35 506.144C1646.49 506.85 1646.78 514.631 1646.49 519.119C1645.83 519.656 1644.35 520.708 1643.77 520.708C1643.19 520.708 1643.05 521.346 1642.31 520.708V515.147V507.733Z" fill="#F8E6C7" stroke="#F8E6C7" stroke-width="0.5" stroke-linecap="round"/>
<path d="M1567.76 478.953C1567.76 478.424 1567.66 476.658 1569.79 477.365C1571.93 478.071 1572.22 485.852 1571.93 490.34C1571.27 490.876 1569.79 491.929 1569.21 491.929C1568.63 491.929 1568.49 492.567 1567.76 491.929V486.368V478.953Z" fill="#F8E6C7" stroke="#F8E6C7" stroke-width="0.5" stroke-linecap="round"/>
<path d="M1614.55 550.28C1614.55 549.75 1614.45 547.985 1616.59 548.691C1618.72 549.397 1619.01 557.178 1618.72 561.666C1618.07 562.202 1616.59 563.255 1616 563.255C1615.42 563.255 1615.29 563.893 1614.55 563.255V557.694V550.28Z" fill="#F8E6C7" stroke="#F8E6C7" stroke-width="0.5" stroke-linecap="round"/>
<path d="M1544.84 503.667C1544.84 503.138 1544.94 501.372 1542.8 502.078C1540.67 502.785 1540.38 510.566 1540.67 515.054C1541.32 515.59 1542.8 516.643 1543.38 516.643C1543.97 516.643 1544.1 517.281 1544.84 516.643V511.082V503.667Z" fill="#F8E6C7" stroke="#F8E6C7" stroke-width="0.5" stroke-linecap="round"/>
<path d="M1613.1 474.689C1612.82 472.408 1614.58 473.047 1616.38 474.356C1617.69 477.455 1618.48 478.811 1619.02 487.944C1618.93 490.182 1618.31 492.414 1617.06 496.669L1616.03 488.247L1614.75 477.808C1614.6 476.579 1613.38 476.969 1613.1 474.689Z" fill="#F8E6C7" stroke="#F8E6C7" stroke-width="0.5" stroke-linecap="round"/>
</g>
<mask id="mask6_984_8900" style="mask-type:alpha" maskUnits="userSpaceOnUse" x="1298" y="591" width="205" height="117">
<rect width="204.47" height="116.449" transform="matrix(1 0 0 -1 1298.28 707.77)" fill="#D9D9D9"/>
</mask>
<g mask="url(#mask6_984_8900)">
<ellipse cx="1326.03" cy="695.679" rx="25.7458" ry="26.41" fill="#34578D"/>
<ellipse cx="1373.67" cy="664.67" rx="47.6407" ry="41.4156" fill="#34578D"/>
<ellipse cx="1439.02" cy="643.861" rx="47.6407" ry="46.8176" fill="#34578D"/>
<ellipse cx="1446.72" cy="693.475" rx="47.6407" ry="41.4156" fill="#34578D"/>
<ellipse cx="1386.87" cy="697.281" rx="47.6407" ry="41.4156" fill="#34578D"/>
<ellipse cx="6.43386" cy="3.35283" rx="6.43386" ry="3.35283" transform="matrix(0.962741 0.270425 -0.321712 0.946838 1365.68 679.872)" fill="#BA6D74"/>
<ellipse cx="6.30221" cy="3.38099" rx="6.30221" ry="3.38099" transform="matrix(0.903817 -0.427919 0.496977 0.867764 1370.26 690.068)" fill="#BA6D74"/>
<ellipse cx="6.40686" cy="4.19148" rx="6.40686" ry="4.19148" transform="matrix(0.941256 -0.337694 0.398106 0.917339 1375.98 677.396)" fill="#BA6D74"/>
<ellipse cx="6.40686" cy="4.19148" rx="6.40686" ry="4.19148" transform="matrix(0.941256 -0.337694 0.398106 0.917339 1402.38 648.784)" fill="#BA6D74"/>
<ellipse cx="6.40686" cy="4.19148" rx="6.40686" ry="4.19148" transform="matrix(0.941256 -0.337694 0.398106 0.917339 1405.69 668.995)" fill="#BA6D74"/>
<ellipse cx="6.40686" cy="4.19148" rx="6.40686" ry="4.19148" transform="matrix(0.941256 -0.337694 0.398106 0.917339 1435.83 637.98)" fill="#BA6D74"/>
<ellipse cx="6.40686" cy="4.19148" rx="6.40686" ry="4.19148" transform="matrix(0.941256 -0.337694 0.398106 0.917339 1429.01 673.396)" fill="#BA6D74"/>
<ellipse cx="6.40686" cy="4.19148" rx="6.40686" ry="4.19148" transform="matrix(0.941256 -0.337694 0.398106 0.917339 1424.61 699.206)" fill="#BA6D74"/>
<ellipse cx="6.40686" cy="4.19148" rx="6.40686" ry="4.19148" transform="matrix(-0.941256 -0.337694 -0.398106 0.917339 1429.88 686.596)" fill="#BA6D74"/>
<ellipse cx="6.40686" cy="4.19148" rx="6.40686" ry="4.19148" transform="matrix(-0.941256 -0.337694 -0.398106 0.917339 1435.82 659.591)" fill="#BA6D74"/>
<ellipse cx="6.40686" cy="4.19148" rx="6.40686" ry="4.19148" transform="matrix(-0.941256 -0.337694 -0.398106 0.917339 1445.29 624.776)" fill="#BA6D74"/>
<ellipse cx="5.40031" cy="3.25913" rx="5.40031" ry="3.25913" transform="matrix(-0.941256 -0.337694 -0.398106 0.917339 1440.01 641.584)" fill="#BA6D74"/>
<ellipse cx="5.08641" cy="3.46351" rx="5.08641" ry="3.46351" transform="matrix(-0.514718 -0.857359 -0.895746 0.444567 1462.67 642.175)" fill="#BA6D74"/>
<ellipse cx="4.00072" cy="2.94104" rx="4.00072" ry="2.94104" transform="matrix(-0.514718 -0.857359 -0.895746 0.444567 1451.89 653.982)" fill="#BA6D74"/>
<ellipse cx="5.31466" cy="2.72933" rx="5.31466" ry="2.72933" transform="matrix(-0.999841 0.0178191 -0.021553 -0.999768 1466.6 652.277)" fill="#BA6D74"/>
<ellipse cx="6.40686" cy="4.19148" rx="6.40686" ry="4.19148" transform="matrix(0.941256 -0.337694 0.398106 0.917339 1399.08 692.602)" fill="#BA6D74"/>
<ellipse cx="6.40686" cy="4.19148" rx="6.40686" ry="4.19148" transform="matrix(-0.941256 -0.337694 -0.398106 0.917339 1408.98 675.798)" fill="#BA6D74"/>
<ellipse cx="6.40686" cy="4.19148" rx="6.40686" ry="4.19148" transform="matrix(-0.941256 -0.337694 -0.398106 0.917339 1404.58 656.188)" fill="#BA6D74"/>
<ellipse cx="5.52397" cy="2.88072" rx="5.52397" ry="2.88072" transform="matrix(0.941256 -0.337694 0.398106 0.917339 1369.16 663.197)" fill="#BA6D74"/>
<ellipse cx="5.58473" cy="2.84387" rx="5.58473" ry="2.84387" transform="matrix(0.995826 0.0912755 -0.110198 0.99391 1358.56 660.663)" fill="#BA6D74"/>
<ellipse cx="6.40686" cy="4.19148" rx="6.40686" ry="4.19148" transform="matrix(0.941256 -0.337694 0.398106 0.917339 1358.15 648.784)" fill="#BA6D74"/>
<ellipse cx="6.40686" cy="4.19148" rx="6.40686" ry="4.19148" transform="matrix(0.941256 -0.337694 0.398106 0.917339 1371.36 702.207)" fill="#BA6D74"/>
<ellipse cx="6.37069" cy="4.2185" rx="6.37069" ry="4.2185" transform="matrix(0.911235 0.411886 -0.479738 0.877412 1350.32 639.258)" fill="#BA6D74"/>
<path d="M1326.02 681.47C1326.02 687.949 1322.21 701.909 1320.3 708.08" stroke="#BA6D74" stroke-width="2" stroke-linecap="round"/>
<path d="M1312.82 689.073C1315.11 693.235 1317.08 703.479 1317.77 708.08" stroke="#BA6D74" stroke-width="2" stroke-linecap="round"/>
<ellipse cx="4.6049" cy="2.9387" rx="4.6049" ry="2.9387" transform="matrix(0.983103 -0.183052 0.219727 0.975561 1324.48 688.359)" fill="#BA6D74"/>
<ellipse cx="4.52104" cy="3.0012" rx="4.52104" ry="3.0012" transform="matrix(0.886931 0.461902 -0.533014 0.846106 1308.98 693.155)" fill="#BA6D74"/>
<ellipse cx="2.19439" cy="2.00711" rx="2.19439" ry="2.00711" transform="matrix(0.987284 -0.158963 0.191172 0.981557 1315.24 692.37)" fill="#BA6D74"/>
<path d="M1454.82 687.097C1456.56 691.775 1457.53 702.702 1457.8 707.581" stroke="#BA6D74" stroke-width="2" stroke-linecap="round"/>
<path d="M1447.29 695.522C1450.06 698.019 1454.22 704.978 1455.96 708.146" stroke="#BA6D74" stroke-width="2" stroke-linecap="round"/>
<ellipse cx="3.494" cy="2.26115" rx="3.494" ry="2.26115" transform="matrix(0.874953 -0.461993 0.546289 0.852006 1455.55 692.412)" fill="#BA6D74"/>
<ellipse cx="3.43953" cy="2.30094" rx="3.43953" ry="2.30094" transform="matrix(1.00767 0.179389 -0.208835 0.95121 1445.6 699.321)" fill="#BA6D74"/>
<ellipse cx="1.66482" cy="1.5446" rx="1.66482" ry="1.5446" transform="matrix(0.887556 -0.440351 0.521372 0.865723 1449.92 697.364)" fill="#BA6D74"/>
<ellipse cx="4.6049" cy="2.9387" rx="4.6049" ry="2.9387" transform="matrix(0.983103 -0.183052 0.219727 0.975561 1339.89 681.563)" fill="#BA6D74"/>
<ellipse cx="4.53176" cy="2.99335" rx="4.53176" ry="2.99335" transform="matrix(0.900105 -0.435673 0.50526 0.862967 1345.19 693.18)" fill="#BA6D74"/>
<ellipse cx="4.55817" cy="2.97383" rx="4.55817" ry="2.97383" transform="matrix(0.931394 0.364014 -0.427402 0.904062 1340.74 698.09)" fill="#BA6D74"/>
<ellipse cx="4.55817" cy="2.97383" rx="4.55817" ry="2.97383" transform="matrix(0.931394 0.364014 -0.427402 0.904062 1337.37 665.269)" fill="#BA6D74"/>
<path d="M1341.21 661.668C1344.99 669.431 1347.26 679.241 1347.92 683.176V708.286" stroke="#BA6D74" stroke-width="2" stroke-linecap="round"/>
<ellipse cx="6.30254" cy="4.26854" rx="6.30254" ry="4.26854" transform="matrix(0.850258 -0.526366 0.599407 0.800444 1344.51 673.906)" fill="#BA6D74"/>
<ellipse cx="4.59332" cy="2.77272" rx="4.59332" ry="2.77272" transform="matrix(0.966375 -0.246465 0.321024 0.950841 1465.71 689.958)" fill="#BA6D74"/>
<ellipse cx="4.47968" cy="2.8615" rx="4.47968" ry="2.8615" transform="matrix(0.869495 -0.481719 0.60437 0.805552 1471.99 700.445)" fill="#BA6D74"/>
<ellipse cx="4.52083" cy="2.82993" rx="4.52083" ry="2.82993" transform="matrix(0.967404 0.272712 -0.365846 0.923838 1467.98 705.379)" fill="#BA6D74"/>
<ellipse cx="4.52083" cy="2.82993" rx="4.52083" ry="2.82993" transform="matrix(0.967392 0.272756 -0.365794 0.92386 1461.79 674.895)" fill="#BA6D74"/>
<path d="M1465.31 671.227C1469.75 678.211 1472.86 687.229 1473.85 690.864L1476.01 714.383" stroke="#BA6D74" stroke-width="2" stroke-linecap="round"/>
<ellipse cx="6.1983" cy="4.10693" rx="6.1983" ry="4.10693" transform="matrix(0.815514 -0.566733 0.692407 0.732103 1469.66 682.443)" fill="#BA6D74"/>
<path d="M1359.58 638.59C1356.8 650.422 1363.81 659.722 1367.65 662.893C1380.86 669.662 1377.99 681.563 1374.89 686.668C1373.44 687.536 1370.62 690.03 1370.95 693.056C1371.28 696.082 1373.62 705.414 1374.76 709.702" stroke="#BA6D74" stroke-width="2" stroke-linecap="round"/>
<path d="M1409.03 639.376C1402.8 646.927 1401.99 655.654 1402.37 659.074L1405.89 664.663L1407.63 667.136L1407.97 669.428C1408.53 677.749 1399.59 690.566 1398.75 696.681L1397.69 708" stroke="#BA6D74" stroke-width="2" stroke-linecap="round"/>
<path d="M1446.77 621.496C1439.97 625.222 1429.46 681.223 1425.05 708.758" stroke="#BA6D74" stroke-width="2" stroke-linecap="round"/>
<path d="M1436.05 657.664C1447.14 662.066 1460.41 644.159 1465.65 634.655" stroke="#BA6D74" stroke-width="2" stroke-linecap="round"/>
</g>
<path d="M1512.6 554.594H1470.16C1474 670.666 1472.9 718.468 1455.63 722.09H1512.6C1477.77 687.258 1490.68 626.159 1512.6 554.594Z" fill="#F7E6C6"/>
<path d="M1485.64 721.883C1480.37 708.363 1481.55 702.565 1496.19 697.618" stroke="#FBAEAC" stroke-linecap="round"/>
<path d="M1492.91 689.328C1478.27 694.275 1469.82 707.547 1475.09 721.066" stroke="#FBAEAC" stroke-linecap="round"/>
<path d="M1490.91 658.409C1476.28 663.356 1472.51 672.128 1471.45 682.571" stroke="#FBAEAC" stroke-linecap="round"/>
<path d="M1472.51 658.924C1474.5 655.135 1476.61 641.416 1472.51 636.502" stroke="#FBAEAC" stroke-linecap="round"/>
<path d="M1472.16 625.749C1492.44 632.711 1467.35 642.13 1491.15 652.266" stroke="#FBAEAC" stroke-linecap="round"/>
<path d="M1489.78 669.331C1469.5 676.293 1494.58 685.712 1470.79 695.848" stroke="#FBAEAC" stroke-linecap="round"/>
<path d="M1504.16 566.062C1484.7 578.246 1491.5 615.206 1472.16 620.632" stroke="#FBAEAC" stroke-linecap="round"/>
<path d="M1485.19 605.975C1495.32 612.806 1492.87 628.597 1493.73 628.615" stroke="#FBAEAC" stroke-linecap="round"/>
<path d="M1481.1 616.335C1487.17 618.908 1481.3 642.542 1492.2 641.518" stroke="#FBAEAC" stroke-linecap="round"/>
<path d="M1494.78 566.061C1475.32 578.244 1491.5 607.218 1472.16 612.644" stroke="#FBAEAC" stroke-linecap="round"/>
<path d="M1486.58 575.482C1485.29 570.977 1467.82 569.032 1472.8 562.965" stroke="#FBAEAC" stroke-linecap="round"/>
<path d="M1484.13 583.73C1482.84 579.225 1470.98 579.372 1470.98 572.103" stroke="#FBAEAC" stroke-linecap="round"/>
<ellipse cx="91.3214" cy="73.4541" rx="91.3214" ry="73.4541" transform="matrix(-1 0 0 1 1579.19 435.845)" fill="#3B697C"/>
<ellipse cx="72.4475" cy="83.5339" rx="72.4475" ry="83.5339" transform="matrix(-1 0 0 1 1556.69 371.076)" fill="#3B697C"/>
<path d="M1542.97 406.79C1547.19 420.945 1534.88 433.023 1529.49 433.637C1516.11 430.151 1516.59 424.019 1519.76 405.892" stroke="#A2C5CC" stroke-linecap="round"/>
<path d="M1519.17 404.25C1520.7 413.26 1515.31 434.76 1505.5 433.736C1498.63 433.019 1494.57 422.44 1497.25 404.25" stroke="#A2C5CC" stroke-linecap="round"/>
<path d="M1472.39 402.677C1471.35 420.941 1473.69 430.155 1482.13 434.558C1491.39 434.558 1497.36 424.944 1497.14 404.355" stroke="#A2C5CC" stroke-linecap="round"/>
<path d="M1449.89 402.205C1447.71 420.962 1455.85 427.48 1460.2 428.394C1471.47 426.399 1473 419.851 1472.21 404.188" stroke="#A2C5CC" stroke-linecap="round"/>
<path d="M1430.69 400.055C1428.07 422.531 1433.71 431.894 1439.58 431.131C1450.23 428.485 1450.99 420.855 1450.72 402.146" stroke="#A2C5CC" stroke-linecap="round"/>
<path d="M1535.35 396.171C1536.99 407.023 1534.88 408.038 1529.49 408.653C1516.11 405.167 1515.42 400.365 1518.59 382.238" stroke="#A2C5CC" stroke-linecap="round"/>
<path d="M1519.17 382.339C1519.17 402.146 1510.05 408.202 1505.49 408.754C1494.18 405.62 1493.75 390.752 1496.43 374.456" stroke="#A2C5CC" stroke-linecap="round"/>
<path d="M1474.98 373.127C1466.65 384.082 1474.98 411.111 1481.76 411.87C1493.22 408.296 1495.16 398.229 1495.32 374.358" stroke="#A2C5CC" stroke-linecap="round"/>
<path d="M1449.89 381.91C1447.71 400.667 1455.85 402.498 1460.2 403.412C1471.48 401.416 1473 394.868 1472.21 379.206" stroke="#A2C5CC" stroke-linecap="round"/>
<path d="M1432.66 396.493C1431.49 404.069 1433.71 406.912 1439.58 406.149C1445.44 405.385 1452 393.888 1449.42 381.909" stroke="#A2C5CC" stroke-linecap="round"/>
<path d="M1554.23 436.601C1554.23 458.633 1541.92 465.37 1536.52 465.984C1523.14 462.498 1526.44 443.244 1526.44 436.601" stroke="#A2C5CC" stroke-linecap="round"/>
<path d="M1526.21 436.601C1526.21 458.71 1517.09 465.47 1512.53 466.087C1501.21 462.589 1500.43 454.791 1503.11 436.601" stroke="#A2C5CC" stroke-linecap="round"/>
<path d="M1478.98 438.813C1476.67 458.697 1485.39 465.615 1490.04 466.589C1502.1 464.483 1503.73 457.542 1502.86 440.936" stroke="#A2C5CC" stroke-linecap="round"/>
<path d="M1415.2 433.329C1412.69 454.855 1420.73 462.219 1425.07 463.211C1436.4 460.777 1438.04 453.253 1437.51 435.313" stroke="#A2C5CC" stroke-linecap="round"/>
<path d="M1456.68 436.737C1454.68 453.857 1462.88 459.875 1467.23 460.744C1478.48 459.007 1479.94 453.036 1478.99 438.721" stroke="#A2C5CC" stroke-linecap="round"/>
<path d="M1437.72 432.405C1435.1 454.882 1440.75 464.245 1446.61 463.482C1457.26 460.836 1458.03 453.205 1457.75 434.497" stroke="#A2C5CC" stroke-linecap="round"/>
<path d="M1564.31 470.373C1564.31 492.405 1553.64 496.084 1548.25 496.698C1538.17 494.178 1535.82 478.522 1537.11 467.314" stroke="#A2C5CC" stroke-linecap="round"/>
<path d="M1537.93 467.314C1537.93 489.424 1528.81 496.184 1524.25 496.8C1512.94 493.302 1512.16 485.505 1514.84 467.314" stroke="#A2C5CC" stroke-linecap="round"/>
<path d="M1490.71 469.529C1488.39 489.413 1497.11 496.331 1501.76 497.305C1513.82 495.198 1515.45 488.258 1514.59 471.652" stroke="#A2C5CC" stroke-linecap="round"/>
<path d="M1408.04 474.232C1405 482.596 1408.02 490.186 1412.67 491.159C1424.73 489.053 1425.75 476.269 1426.8 464.045" stroke="#A2C5CC" stroke-linecap="round"/>
<path d="M1426.92 464.036C1424.41 485.562 1432.45 492.926 1436.79 493.918C1448.12 491.484 1449.76 483.96 1449.23 466.02" stroke="#A2C5CC" stroke-linecap="round"/>
<path d="M1468.4 467.449C1466.41 484.569 1474.61 490.587 1478.96 491.456C1490.21 489.719 1491.67 483.748 1490.72 469.433" stroke="#A2C5CC" stroke-linecap="round"/>
<path d="M1449.45 463.12C1446.83 485.597 1452.47 494.96 1458.33 494.196C1468.99 491.55 1469.75 483.92 1469.48 465.212" stroke="#A2C5CC" stroke-linecap="round"/>
<path d="M1577.09 499.466C1577.09 520.347 1565.25 526.731 1559.33 527.314C1544.64 524.01 1543.62 516.646 1547.1 499.466" stroke="#A2C5CC" stroke-linecap="round"/>
<path d="M1564.42 470.375C1560.67 491.466 1571.52 498.317 1577.44 498.899" stroke="#A2C5CC" stroke-linecap="round"/>
<path d="M1547.78 497.415C1547.78 518.45 1537.78 524.881 1532.78 525.468C1520.38 522.14 1519.52 514.721 1522.46 497.415" stroke="#A2C5CC" stroke-linecap="round"/>
<path d="M1495.64 495C1493.32 514.884 1502.73 521.863 1507.73 522.867C1520.64 520.837 1523.04 499.156 1522.34 497.211" stroke="#A2C5CC" stroke-linecap="round"/>
<path d="M1410.5 491.58C1408.19 511.464 1411.09 520.657 1420.15 520.223C1432.21 518.117 1434.46 509.927 1433.6 493.321" stroke="#A2C5CC" stroke-linecap="round"/>
<path d="M1399.13 517.482C1411.19 515.376 1411.02 509.926 1410.15 493.32" stroke="#A2C5CC" stroke-linecap="round"/>
<path d="M1434.3 493.051C1431.79 514.576 1435.51 519.958 1439.84 520.949C1451.17 518.515 1452.81 510.991 1452.29 493.051" stroke="#A2C5CC" stroke-linecap="round"/>
<path d="M1473.11 494.754C1471.11 511.874 1479.31 517.892 1483.66 518.761C1494.91 517.024 1496.37 511.053 1495.42 496.737" stroke="#A2C5CC" stroke-linecap="round"/>
<path d="M1453.18 491.93C1450.56 514.406 1456.55 519.661 1462.28 518.886C1472.71 516.22 1473.47 507.113 1473.25 488.41" stroke="#A2C5CC" stroke-linecap="round"/>
<path d="M1562.43 527.315C1562.43 548.196 1550.88 552.841 1544.96 553.423C1535.12 550.966 1530.26 545.929 1533.74 528.749" stroke="#A2C5CC" stroke-linecap="round"/>
<path d="M1533.01 527.928C1533.01 548.962 1523.01 555.394 1518.01 555.98C1505.61 552.652 1504.75 545.234 1507.69 527.928" stroke="#A2C5CC" stroke-linecap="round"/>
<path d="M1480.87 525.514C1478.55 545.398 1487.96 552.377 1492.95 553.381C1505.87 551.35 1508.27 529.67 1507.57 527.725" stroke="#A2C5CC" stroke-linecap="round"/>
<path d="M1409.45 545.652C1411.21 544.423 1418.59 537.073 1419.43 523.734" stroke="#A2C5CC" stroke-linecap="round"/>
<path d="M1419.53 523.563C1417.02 545.089 1420.73 550.47 1425.07 551.462C1436.39 549.028 1438.04 541.504 1437.51 523.563" stroke="#A2C5CC" stroke-linecap="round"/>
<path d="M1458.33 525.265C1456.34 542.385 1464.54 548.403 1468.89 549.271C1480.14 547.535 1481.6 541.564 1480.65 527.248" stroke="#A2C5CC" stroke-linecap="round"/>
<path d="M1438.41 522.442C1435.79 544.919 1441.78 550.174 1447.51 549.399C1457.94 546.733 1458.7 537.626 1458.48 518.922" stroke="#A2C5CC" stroke-linecap="round"/>
<path d="M1518.47 556.984C1518.47 566.207 1509.07 569.027 1504.37 569.284C1492.7 567.825 1492.26 560.901 1495.02 553.312" stroke="#A2C5CC" stroke-linecap="round"/>
<path d="M1542.97 553.312C1542.97 559.148 1531.48 563.653 1528.9 564.165C1522.1 564.165 1517.65 559.558 1518.94 556.077" stroke="#A2C5CC" stroke-linecap="round"/>
<path d="M1427.5 551.677C1427.5 555.67 1434.3 558.229 1436.88 558.741C1440.86 558.229 1446.26 552.598 1444.97 549.117" stroke="#A2C5CC" stroke-linecap="round"/>
<path d="M1470.52 549.524C1466.89 554.234 1472.82 570.345 1479.82 570.698C1491.66 569.033 1493.67 564.342 1493.84 553.219" stroke="#A2C5CC" stroke-linecap="round"/>
<path d="M1444.85 549.524C1442.59 558.264 1453.06 566.331 1457.55 566.757C1469.2 565.827 1469.47 556.823 1468.65 549.524" stroke="#A2C5CC" stroke-linecap="round"/>
</g>
</g>
<defs>
<clipPath id="clip0_984_8900">
<rect width="1773.42" height="710" fill="white" transform="matrix(-1 0 0 1 1774 0)"/>
</clipPath>
</defs>
</svg>
