<svg width="60" height="60" viewBox="0 0 60 60" fill="none" xmlns="http://www.w3.org/2000/svg">
<g clip-path="url(#clip0_78_95)">
<path d="M37.5998 16.408C39.6109 8.90236 37.548 5.18957 32.7367 3.90038C27.9253 2.61119 21.8094 11.2287 19.7983 18.7343C17.7871 26.24 18.3392 31.4154 23.1505 32.7046C27.9618 33.9937 35.5887 23.9137 37.5998 16.408Z" fill="url(#paint0_linear_78_95)"/>
<path d="M27.0431 12.1171C28.6612 11.7611 29.147 9.37206 28.8504 8.02359C28.5538 6.67511 27.6846 5.98073 26.0664 6.33667C24.4482 6.69261 22.5661 9.83682 23.5665 10.8369C24.5665 11.8367 25.4249 12.473 27.0431 12.1171Z" fill="#8F5903"/>
<path d="M28.5239 7.34002C27.157 8.6808 28.0112 11.1817 29.0452 12.2358C30.0791 13.2899 31.3041 13.384 32.671 12.0432C34.0379 10.7024 34.1149 6.63258 32.5937 6.33961C31.0731 6.04666 29.8908 5.99924 28.5239 7.34002Z" fill="#8F5903"/>
<path d="M34.0879 7.13425C32.5453 8.26846 33.0377 10.865 33.9124 12.0546C34.787 13.2442 35.9864 13.5104 37.529 12.3761C39.0717 11.2419 39.7229 7.22381 38.2583 6.71887C36.7943 6.21401 35.6306 6.00004 34.0879 7.13425Z" fill="#8F5903"/>
<path d="M39.0664 8.33643C39.5664 7.33643 36.4324 2.83633 32.5664 2.83633C28.7004 2.83633 24.0664 6.6272 24.0664 8.83634C24.0664 11.0455 29.7004 10.3365 33.5664 10.3365C37.4324 10.3365 38.8428 8.78364 39.0664 8.33643Z" fill="#8F5903"/>
<path d="M1.02331 22.8608L5.21327 29.2538L8.58288 23.9917L1.02331 22.8608Z" fill="#503E52"/>
<path d="M6.08972 23.4573C2.52235 26.0044 6.72133 34.1624 10.2818 39.1491C13.8422 44.1359 33.3023 47.1847 36.5305 46.6595C40.0979 44.1124 35.8546 39.2757 32.2941 34.289C27.8361 31.7384 9.65708 20.9103 6.08972 23.4573Z" fill="url(#paint1_linear_78_95)"/>
<path d="M51.877 37.5317L40.8877 35.3342L29.4817 31.9044L22.5293 44.6592L35.5289 46.9703C37.84 47.2263 39.0268 47.2465 40.781 46.8836L45.6595 48.1908L51.877 37.5317Z" fill="url(#paint2_linear_78_95)"/>
<path d="M34.4567 15.1456C37.8873 8.1735 44.2428 5.08055 48.7121 7.27964C53.1814 9.47872 54.0235 16.9135 50.5929 23.8856C47.1624 30.8577 41.1025 38.113 36.6332 35.9139C17.8896 31.5165 24.0526 28.1191 34.4567 15.1456Z" fill="url(#paint3_linear_78_95)"/>
<path d="M39.9718 14.9403C41.59 14.5844 42.0758 12.1953 41.7791 10.8468C41.4825 9.49835 40.6133 8.80397 38.9951 9.15991C37.3769 9.51586 35.4948 12.6601 36.4952 13.6602C37.4952 14.66 38.3536 15.2963 39.9718 14.9403Z" fill="#8F5903"/>
<path d="M41.4526 10.1633C40.0857 11.504 40.94 14.005 41.9739 15.0591C43.0078 16.1132 44.2328 16.2072 45.5997 14.8664C46.9666 13.5256 47.0436 9.45582 45.5225 9.16285C44.0018 8.8699 42.8195 8.82248 41.4526 10.1633Z" fill="#8F5903"/>
<path d="M46.4053 10.3239C45.2084 12.1079 46.6778 14.6358 48.0299 15.5429C49.382 16.45 50.7345 16.2648 51.9313 14.4809C53.1282 12.6969 51.9951 8.65991 50.4943 8.65993C48.7773 8.69758 47.6021 8.53994 46.4053 10.3239Z" fill="#8F5903"/>
<path d="M51.9951 11.1597C52.4951 10.1597 49.3611 5.65958 45.4951 5.65958C41.6291 5.65958 36.9951 9.45044 36.9951 11.6596C36.9951 13.8687 42.6291 13.1597 46.4951 13.1597C50.3611 13.1597 51.7715 11.6069 51.9951 11.1597Z" fill="#8F5903"/>
<path d="M41.4239 38.03C39.3582 38.2112 38.0888 40.3804 38.9474 42.268L39.7428 44.0167L41.8076 48.6565C42.9318 51.205 44.9767 53.4084 46.9627 54.8308C48.2105 55.7247 49.851 55.1259 50.5675 53.7684L57.4517 40.7249C58.2074 39.293 57.5794 37.7682 55.9678 37.6129C52.9689 37.324 48.738 37.2847 48.1721 37.3866C47.7139 37.4692 44.3198 37.7761 41.4239 38.03Z" fill="url(#paint4_linear_78_95)"/>
<mask id="mask0_78_95" style="mask-type:alpha" maskUnits="userSpaceOnUse" x="37" y="33" width="22" height="25">
<path d="M58.9102 38.7036L46.9915 33.1811L37.5291 51.4171L49.0682 57.4046L53.9131 48.2048L58.9102 38.7036Z" fill="#D9D9D9"/>
</mask>
<g mask="url(#mask0_78_95)">
<path d="M52.4129 41.2051C52.4129 42.8619 54.5321 44.2051 55.9129 44.2051C57.2936 44.2051 57.9131 41.8619 57.9131 40.2051C57.9131 38.5482 57.2936 38.2051 55.9129 38.2051C54.5321 38.2051 52.4129 39.5482 52.4129 41.2051Z" fill="#8F5903"/>
<path d="M50.3383 45.1101C49.925 46.7145 51.6422 48.5439 52.9792 48.8884C54.3163 49.2329 55.5008 47.1184 55.9141 45.5139C56.3275 43.9094 55.8132 43.4226 54.4761 43.0781C53.139 42.7337 50.7517 43.5056 50.3383 45.1101Z" fill="#8F5903"/>
<path d="M48.4131 48.2053C47.718 49.7093 48.827 52.541 50.0804 53.1202C51.3338 53.6994 52.8791 51.8322 53.5741 50.3282C54.2691 48.8242 53.8507 48.2528 52.5974 47.6736C51.344 47.0944 49.1081 46.7013 48.4131 48.2053Z" fill="#8F5903"/>
<path d="M45.9131 52.2053C45.218 53.7093 46.827 55.541 48.0804 56.1202C49.3338 56.6994 50.8791 54.8322 51.5741 53.3282C52.2691 51.8242 51.8507 51.2528 50.5974 50.6736C49.344 50.0944 46.6081 50.7013 45.9131 52.2053Z" fill="#8F5903"/>
</g>
<path d="M10.7114 27.8415C10.4594 28.0936 10.1258 28.2477 9.77046 28.2762C9.41513 28.3047 9.06126 28.2057 8.77229 27.9969C8.48331 27.7882 8.27813 27.4834 8.1935 27.1371C8.10887 26.7908 8.15034 26.4257 8.31046 26.1072C8.47059 25.7887 8.73891 25.5376 9.06733 25.399C9.39575 25.2604 9.7628 25.2433 10.1027 25.3507C10.4426 25.4582 10.7331 25.6831 10.9222 25.9853C11.1113 26.2875 11.1866 26.6472 11.1346 26.9999L9.65062 26.781L10.7114 27.8415Z" fill="#553400"/>
</g>
<defs>
<linearGradient id="paint0_linear_78_95" x1="24.544" y1="33.0779" x2="32.3872" y2="3.80674" gradientUnits="userSpaceOnUse">
<stop stop-color="#B3810B"/>
<stop offset="0.598958" stop-color="#F8E6C7"/>
</linearGradient>
<linearGradient id="paint1_linear_78_95" x1="3.21673" y1="23.0297" x2="41.5535" y2="40.3344" gradientUnits="userSpaceOnUse">
<stop stop-color="#FFE87B"/>
<stop offset="0.669792" stop-color="#B3810B"/>
<stop offset="0.977083" stop-color="#B3810B"/>
</linearGradient>
<linearGradient id="paint2_linear_78_95" x1="28.0293" y1="35.6592" x2="46.8076" y2="42.656" gradientUnits="userSpaceOnUse">
<stop stop-color="#B3810B"/>
<stop offset="0.572917" stop-color="#B3810B"/>
<stop offset="0.979167" stop-color="#8F5903"/>
</linearGradient>
<linearGradient id="paint3_linear_78_95" x1="32.8988" y1="35.6239" x2="42.7811" y2="17.7812" gradientUnits="userSpaceOnUse">
<stop stop-color="#8F5903"/>
<stop offset="0.333333" stop-color="#CCA650"/>
<stop offset="0.666667" stop-color="#E8CE9B"/>
<stop offset="1" stop-color="#F8E6C7"/>
</linearGradient>
<linearGradient id="paint4_linear_78_95" x1="41.5293" y1="41.1594" x2="52.5293" y2="45.6594" gradientUnits="userSpaceOnUse">
<stop stop-color="#B3810B"/>
<stop offset="1" stop-color="#E4B917"/>
</linearGradient>
<clipPath id="clip0_78_95">
<rect width="60" height="60" fill="white"/>
</clipPath>
</defs>
</svg>
