<svg width="60" height="60" viewBox="0 0 60 60" fill="none" xmlns="http://www.w3.org/2000/svg">
<g clip-path="url(#clip0_75_49)">
<path d="M53.9992 38.6623C56.0104 46.168 53.9474 49.8807 49.1361 51.1699C44.3248 52.4591 38.2088 43.8416 36.1977 36.336C34.1865 28.8303 34.7386 23.6549 39.5499 22.3658C44.3613 21.0766 51.9881 31.1566 53.9992 38.6623Z" fill="url(#paint0_linear_75_49)"/>
<path d="M43.4425 42.9532C45.0607 43.3092 45.5465 45.6983 45.2498 47.0467C44.9532 48.3952 44.084 49.0896 42.4658 48.7336C40.8477 48.3777 38.9655 45.2335 39.9659 44.2334C40.9659 43.2336 41.8243 42.5973 43.4425 42.9532Z" fill="#683C01"/>
<path d="M44.9233 47.7303C43.5564 46.3895 44.4107 43.8886 45.4446 42.8345C46.4786 41.7804 47.7035 41.6864 49.0704 43.0271C50.4373 44.3679 50.5143 48.4377 48.9932 48.7307C47.4725 49.0237 46.2902 49.0711 44.9233 47.7303Z" fill="#683C01"/>
<path d="M50.4874 47.9361C48.9447 46.8018 49.4371 44.2053 50.3118 43.0157C51.1864 41.8261 52.3858 41.56 53.9284 42.6942C55.4711 43.8284 56.1223 47.8465 54.6578 48.3514C53.1937 48.8563 52.03 49.0703 50.4874 47.9361Z" fill="#683C01"/>
<path d="M55.4658 46.7339C55.9658 47.7339 52.8318 52.234 48.9658 52.234C45.0998 52.234 40.4658 48.4431 40.4658 46.234C40.4658 44.0248 46.0998 44.7339 49.9658 44.7339C53.8318 44.7339 55.2422 46.2867 55.4658 46.7339Z" fill="#683C01"/>
<path d="M58.2843 9.20459L54.0943 15.5976L50.7247 10.3355L58.2843 9.20459Z" fill="#FC9307"/>
<path d="M53.2178 9.80132C56.7852 12.3484 52.991 19.9394 49.7038 24.5435C46.4165 29.1476 36.7448 29.1054 33.5812 28.4898C30.0138 25.9427 24.7981 23.7357 28.0853 19.1316C32.3353 16.8724 49.6505 7.25428 53.2178 9.80132Z" fill="url(#paint1_linear_75_49)"/>
<path d="M17.8837 24.3738C19.9495 24.5549 21.2188 26.7241 20.3602 28.6117L19.5648 30.3605L17.5 35.0002C16.3758 37.5487 14.3309 39.7521 12.345 41.1746C11.0971 42.0685 9.45659 41.4697 8.74011 40.1121L1.85596 27.0687C1.10024 25.6368 1.72823 24.112 3.33984 23.9567C6.33876 23.6677 10.5696 23.6284 11.1356 23.7304C11.5938 23.8129 14.9878 24.1198 17.8837 24.3738Z" fill="#978339"/>
<path d="M7.43066 23.876L18.4199 21.6784L29.8259 18.2487L33.6724 28.4226L23.7787 33.3145C21.4676 33.5705 20.2808 33.5908 18.5267 33.2278L13.6481 34.535L7.43066 23.876Z" fill="url(#paint2_linear_75_49)"/>
<path d="M41.9995 41.5002C44.0106 49.0059 41.2658 55.5193 36.4545 56.8085C31.6432 58.0977 26.1125 53.0583 24.1013 45.5526C22.0902 38.047 21.8709 28.5964 26.6822 27.3073C43.6819 18.27 41.2825 24.8857 41.9995 41.5002Z" fill="url(#paint3_linear_75_49)"/>
<mask id="mask0_75_49" style="mask-type:alpha" maskUnits="userSpaceOnUse" x="0" y="18" width="22" height="26">
<path d="M0.50293 24.499L12.4216 18.9765L21.884 37.2125L10.3449 43.2L5.5 34.0002L0.50293 24.499Z" fill="#D9D9D9"/>
</mask>
<g mask="url(#mask0_75_49)">
<path d="M7.00023 27.0005C7.00023 28.6573 4.88094 30.0005 3.50023 30.0005C2.11952 30.0005 1.5 27.6573 1.5 26.0005C1.5 24.3436 2.11952 24.0005 3.50023 24.0005C4.88094 24.0005 7.00023 25.3436 7.00023 27.0005Z" fill="#683C01"/>
<path d="M9.07476 30.906C9.48811 32.5104 7.77093 34.3398 6.43387 34.6843C5.09682 35.0288 3.91232 32.9143 3.49896 31.3098C3.08561 29.7053 3.59993 29.2185 4.93698 28.874C6.27404 28.5296 8.6614 29.3015 9.07476 30.906Z" fill="#683C01"/>
<path d="M11 34.0002C11.695 35.5043 10.586 38.3359 9.33269 38.9151C8.07934 39.4943 6.53403 37.6272 5.83899 36.1231C5.14395 34.6191 5.56237 34.0477 6.81573 33.4685C8.06908 32.8893 10.305 32.4962 11 34.0002Z" fill="#683C01"/>
<path d="M13.5 38.0002C14.195 39.5043 12.586 41.3359 11.3327 41.9151C10.0793 42.4943 8.53403 40.6272 7.83899 39.1231C7.14395 37.6191 7.56237 37.0477 8.81573 36.4685C10.0691 35.8893 12.805 36.4962 13.5 38.0002Z" fill="#683C01"/>
</g>
<path d="M48.8892 14.5964C49.1412 14.8485 49.4748 15.0026 49.8301 15.0311C50.1855 15.0595 50.5393 14.9605 50.8283 14.7518C51.1173 14.5431 51.3225 14.2382 51.4071 13.892C51.4917 13.5457 51.4502 13.1806 51.2901 12.8621C51.13 12.5436 50.8617 12.2925 50.5333 12.1539C50.2048 12.0153 49.8378 11.9982 49.4979 12.1056C49.158 12.213 48.8675 12.438 48.6784 12.7402C48.4893 13.0424 48.414 13.4021 48.466 13.7547L49.95 13.5359L48.8892 14.5964Z" fill="#402603"/>
<path d="M29.4767 47.7193C31.0948 48.0753 31.5806 50.4644 31.284 51.8128C30.9874 53.1613 30.1182 53.8557 28.5 53.4998C26.8818 53.1438 24.9997 49.9996 26.0001 48.9995C27.0001 47.9997 27.8585 47.3634 29.4767 47.7193Z" fill="#683C01"/>
<path d="M30.9575 52.4964C29.5906 51.1556 30.4448 48.6547 31.4788 47.6006C32.5127 46.5465 33.7377 46.4525 35.1046 47.7933C36.4715 49.134 36.5485 53.2038 35.0273 53.4968C33.5067 53.7898 32.3244 53.8372 30.9575 52.4964Z" fill="#683C01"/>
<path d="M35.9102 52.3358C34.7133 50.5518 36.1826 48.0239 37.5348 47.1168C38.8869 46.2096 40.2394 46.3948 41.4362 48.1788C42.6331 49.9628 41.5 53.9998 39.9992 53.9997C38.2822 53.9621 37.107 54.1197 35.9102 52.3358Z" fill="#683C01"/>
<path d="M41.5 51.5C42 52.5 38.866 57.0001 35 57.0001C31.134 57.0001 26.5 53.2092 26.5 51.0001C26.5 48.791 32.134 49.5 36 49.5C39.866 49.5 41.2764 51.0528 41.5 51.5Z" fill="#683C01"/>
</g>
<defs>
<linearGradient id="paint0_linear_75_49" x1="40.9434" y1="21.9924" x2="48.7866" y2="51.2636" gradientUnits="userSpaceOnUse">
<stop stop-color="#FBF6EE"/>
<stop offset="0.55" stop-color="#FFE87B"/>
<stop offset="1" stop-color="#CEB640"/>
</linearGradient>
<linearGradient id="paint1_linear_75_49" x1="23" y1="27.5" x2="67" y2="12.5" gradientUnits="userSpaceOnUse">
<stop stop-color="#C4A530"/>
<stop offset="0.708475" stop-color="#F5E391"/>
<stop offset="0.966667" stop-color="#F9EFD3"/>
</linearGradient>
<linearGradient id="paint2_linear_75_49" x1="34" y1="19.0002" x2="12.5" y2="29.0002" gradientUnits="userSpaceOnUse">
<stop stop-color="#DCB72B"/>
<stop offset="1" stop-color="#97833A"/>
</linearGradient>
<linearGradient id="paint3_linear_75_49" x1="34" y1="51" x2="32.5" y2="26.5" gradientUnits="userSpaceOnUse">
<stop stop-color="#E8D062"/>
<stop offset="0.484375" stop-color="#FDEEAB"/>
<stop offset="1" stop-color="#F8F0E1"/>
</linearGradient>
<clipPath id="clip0_75_49">
<rect width="60" height="60" fill="white"/>
</clipPath>
</defs>
</svg>
