<svg width="1440" height="922" viewBox="0 0 1440 922" fill="none" xmlns="http://www.w3.org/2000/svg">
<g clip-path="url(#clip0_830_8188)">
<mask id="mask0_830_8188" style="mask-type:luminance" maskUnits="userSpaceOnUse" x="0" y="0" width="1576" height="923">
<path d="M1575.03 0H0V922.4H1575.03V0Z" fill="white"/>
</mask>
<g mask="url(#mask0_830_8188)">
<rect x="27" y="347.027" width="77.6441" height="178.972" fill="#0C8DB6"/>
<rect x="79.9395" y="357.228" width="19.411" height="10.2005" fill="#C5D9EE"/>
<rect x="79.9395" y="357.228" width="19.411" height="10.2005" fill="#C5D9EE"/>
<rect x="79.9395" y="378.557" width="19.411" height="10.2005" fill="#C5D9EE"/>
<rect x="79.9395" y="378.557" width="19.411" height="10.2005" fill="#C5D9EE"/>
<rect x="79.9395" y="398.957" width="19.411" height="10.2005" fill="#C5D9EE"/>
<rect x="79.9395" y="398.957" width="19.411" height="10.2005" fill="#C5D9EE"/>
<rect x="79.9395" y="421.213" width="19.411" height="10.2005" fill="#C5D9EE"/>
<rect x="79.9395" y="421.213" width="19.411" height="10.2005" fill="#C5D9EE"/>
<line x1="31.9121" y1="354.873" x2="62.6756" y2="354.873" stroke="#C5D9EE" stroke-linecap="round"/>
<line x1="31.9121" y1="362.292" x2="62.6756" y2="362.292" stroke="#C5D9EE" stroke-linecap="round"/>
<line x1="31.9121" y1="368.783" x2="62.6756" y2="368.783" stroke="#C5D9EE" stroke-linecap="round"/>
<line x1="31.9121" y1="375.274" x2="62.6756" y2="375.274" stroke="#C5D9EE" stroke-linecap="round"/>
<line x1="31.9121" y1="381.766" x2="62.6756" y2="381.766" stroke="#C5D9EE" stroke-linecap="round"/>
<line x1="31.9121" y1="388.257" x2="62.6756" y2="388.257" stroke="#C5D9EE" stroke-linecap="round"/>
<line x1="31.9121" y1="395.675" x2="62.6756" y2="395.675" stroke="#C5D9EE" stroke-linecap="round"/>
<line x1="31.9121" y1="402.166" x2="62.6756" y2="402.166" stroke="#C5D9EE" stroke-linecap="round"/>
<line x1="31.3525" y1="521.792" x2="31.3525" y2="411.51" stroke="#C5D9EE" stroke-linecap="round"/>
<line x1="35.7637" y1="521.792" x2="35.7637" y2="411.51" stroke="#C5D9EE" stroke-linecap="round"/>
<line x1="40.1758" y1="521.792" x2="40.1758" y2="411.51" stroke="#C5D9EE" stroke-linecap="round"/>
<line x1="44.5869" y1="521.792" x2="44.5869" y2="411.51" stroke="#C5D9EE" stroke-linecap="round"/>
<line x1="48.999" y1="521.792" x2="48.999" y2="411.51" stroke="#C5D9EE" stroke-linecap="round"/>
<line x1="53.4102" y1="521.792" x2="53.4102" y2="411.51" stroke="#C5D9EE" stroke-linecap="round"/>
<line x1="57.8223" y1="521.792" x2="57.8223" y2="411.51" stroke="#C5D9EE" stroke-linecap="round"/>
<line x1="62.2334" y1="521.792" x2="62.2334" y2="411.51" stroke="#C5D9EE" stroke-linecap="round"/>
<line x1="66.6455" y1="521.792" x2="66.6455" y2="411.51" stroke="#C5D9EE" stroke-linecap="round"/>
<rect x="121.407" y="288.678" width="88.2319" height="237.344" fill="#0C8DB6"/>
<path d="M151.406 309.151H165.523" stroke="#C5D9EE" stroke-width="8" stroke-linecap="round"/>
<path d="M176.993 309.151H194.639" stroke="#C5D9EE" stroke-width="8" stroke-linecap="round"/>
<path d="M151.406 336.449H165.523" stroke="#C5D9EE" stroke-width="8" stroke-linecap="round"/>
<path d="M176.993 336.449H194.639" stroke="#C5D9EE" stroke-width="8" stroke-linecap="round"/>
<path d="M151.406 362.896H165.523" stroke="#C5D9EE" stroke-width="8" stroke-linecap="round"/>
<path d="M176.993 362.896H194.639" stroke="#C5D9EE" stroke-width="8" stroke-linecap="round"/>
<path d="M151.406 389.34H165.523" stroke="#C5D9EE" stroke-width="8" stroke-linecap="round"/>
<path d="M176.993 389.34H194.639" stroke="#C5D9EE" stroke-width="8" stroke-linecap="round"/>
<path d="M151.406 416.639H165.523" stroke="#C5D9EE" stroke-width="8" stroke-linecap="round"/>
<path d="M176.993 416.639H194.639" stroke="#C5D9EE" stroke-width="8" stroke-linecap="round"/>
<path d="M151.406 444.79H165.523" stroke="#C5D9EE" stroke-width="8" stroke-linecap="round"/>
<path d="M176.993 444.79H194.639" stroke="#C5D9EE" stroke-width="8" stroke-linecap="round"/>
<path d="M151.406 474.647H165.523" stroke="#C5D9EE" stroke-width="8" stroke-linecap="round"/>
<path d="M176.993 474.647H194.639" stroke="#C5D9EE" stroke-width="8" stroke-linecap="round"/>
<path d="M151.406 502.799H165.523" stroke="#C5D9EE" stroke-width="8" stroke-linecap="round"/>
<path d="M176.993 502.799H194.639" stroke="#C5D9EE" stroke-width="8" stroke-linecap="round"/>
<line x1="113.701" y1="297.208" x2="113.701" y2="397.87" stroke="#0C8DB6" stroke-width="4"/>
<line x1="111.701" y1="297.767" x2="121.407" y2="297.767" stroke="#0C8DB6" stroke-width="4"/>
<line x1="113.466" y1="310.357" x2="121.407" y2="310.357" stroke="#0C8DB6"/>
<line x1="113.466" y1="323.153" x2="121.407" y2="323.153" stroke="#0C8DB6"/>
<line x1="113.466" y1="337.655" x2="121.407" y2="337.655" stroke="#0C8DB6"/>
<line x1="113.466" y1="351.305" x2="121.407" y2="351.305" stroke="#0C8DB6"/>
<line x1="113.466" y1="364.101" x2="121.407" y2="364.101" stroke="#0C8DB6"/>
<line x1="113.466" y1="378.603" x2="121.407" y2="378.603" stroke="#0C8DB6"/>
<line x1="113.466" y1="387.986" x2="121.407" y2="387.986" stroke="#0C8DB6"/>
<rect width="59.9977" height="142.936" transform="matrix(-1 0 0 1 330.094 301.913)" fill="#0C8DB6"/>
<rect width="58.2331" height="44.9983" transform="matrix(-1 0 0 1 270.096 399.85)" fill="#0C8DB6"/>
<rect width="2.64696" height="5.29391" transform="matrix(-1 0 0 1 259.508 394.556)" fill="#0C8DB6"/>
<rect width="9.70551" height="8.82319" transform="matrix(-1 0 0 1 232.157 391.027)" fill="#0C8DB6"/>
<rect width="2.64696" height="5.29391" transform="matrix(-1 0 0 1 225.098 386.615)" fill="#0C8DB6"/>
<line y1="-0.5" x2="7.05855" y2="-0.5" transform="matrix(0 -1 -1 0 231.274 391.909)" stroke="#0C8DB6"/>
<rect width="118.231" height="81.1734" transform="matrix(-1 0 0 1 330.094 444.849)" fill="#0C8DB6"/>
<line y1="-2" x2="59.998" y2="-2" transform="matrix(0.999988 0.00494866 0.00494866 -0.999988 270.097 292.152)" stroke="#0C8DB6" stroke-width="4"/>
<line y1="-2" x2="9.70551" y2="-2" transform="matrix(0 1 1 0 273.167 292.395)" stroke="#0C8DB6" stroke-width="4"/>
<line y1="-2" x2="9.70551" y2="-2" transform="matrix(0 1 1 0 330.518 292.395)" stroke="#0C8DB6" stroke-width="4"/>
<line y1="-0.5" x2="7.94087" y2="-0.5" transform="matrix(0 1 1 0 282.648 294.159)" stroke="#0C8DB6"/>
<line y1="-0.5" x2="7.94087" y2="-0.5" transform="matrix(0 1 1 0 293.589 294.159)" stroke="#0C8DB6"/>
<line y1="-0.5" x2="7.94087" y2="-0.5" transform="matrix(0 1 1 0 305.988 294.159)" stroke="#0C8DB6"/>
<line y1="-0.5" x2="7.94087" y2="-0.5" transform="matrix(0 1 1 0 317.658 294.159)" stroke="#0C8DB6"/>
<rect x="380.633" y="200.446" width="70.5855" height="325.576" fill="#0C8DB6"/>
<path d="M451 298L509 329.875V526H451V298Z" fill="#0C8DB6"/>
<rect x="390.338" y="191.623" width="46.7629" height="8.82319" fill="#0C8DB6"/>
<line x1="422.219" y1="164.361" x2="422.219" y2="188.184" stroke="#0C8DB6" stroke-width="2"/>
<line x1="405.179" y1="170.063" x2="436.943" y2="159.475" stroke="#0C8DB6"/>
<line x1="400.321" y1="166.592" x2="413.556" y2="175.415" stroke="#0C8DB6"/>
<line x1="402.968" y1="164.827" x2="416.203" y2="173.65" stroke="#0C8DB6"/>
<line x1="405.615" y1="163.062" x2="418.85" y2="171.886" stroke="#0C8DB6"/>
<line x1="408.262" y1="161.298" x2="421.497" y2="170.121" stroke="#0C8DB6"/>
<line x1="417.087" y1="158.652" x2="432.063" y2="168.751" stroke="#0C8DB6"/>
<line x1="419.729" y1="157.767" x2="433.314" y2="166.683" stroke="#0C8DB6"/>
<line x1="422.39" y1="156.012" x2="434.586" y2="164.627" stroke="#0C8DB6"/>
<line x1="425.032" y1="155.125" x2="435.838" y2="162.556" stroke="#0C8DB6"/>
<rect x="531.687" y="239.939" width="117.632" height="286.06" fill="#0C8DB6"/>
<rect x="543.908" y="204.818" width="105.411" height="35.1212" fill="#0C8DB6"/>
<rect x="557.149" y="157.99" width="81.4769" height="46.8283" fill="#0C8DB6"/>
<rect x="569.37" y="139.666" width="53.4692" height="18.3241" fill="#0C8DB6"/>
<path d="M610.618 115.743V139.666H580.573L610.618 115.743Z" fill="#0C8DB6"/>
<rect x="649.319" y="357.011" width="74.8569" height="168.989" fill="#0C8DB6"/>
<rect x="697.696" y="312.728" width="26.48" height="44.2833" fill="#0C8DB6"/>
<rect x="701" y="297.919" width="10" height="14.9933" fill="#0C8DB6"/>
<rect x="732.855" y="252.503" width="81.1734" height="273.519" fill="#0C8DB6"/>
<rect x="724" y="374" width="11" height="152" fill="#0C8DB6"/>
<rect x="814.029" y="369.852" width="10.5878" height="156.17" fill="#0C8DB6"/>
<rect x="790.205" y="269.267" width="16.7641" height="9.70551" rx="2" fill="#C5D9EE"/>
<rect x="790.205" y="288.678" width="16.7641" height="9.70551" rx="2" fill="#C5D9EE"/>
<rect x="790.205" y="309.854" width="16.7641" height="9.70551" rx="2" fill="#C5D9EE"/>
<rect x="790.205" y="329.265" width="16.7641" height="9.70551" rx="2" fill="#C5D9EE"/>
<rect x="790.205" y="350.44" width="16.7641" height="9.70551" rx="2" fill="#C5D9EE"/>
<line x1="743.942" y1="273.679" x2="743.942" y2="376.028" stroke="#C5D9EE"/>
<line x1="755.413" y1="273.679" x2="755.413" y2="376.028" stroke="#C5D9EE"/>
<line x1="747.472" y1="273.679" x2="747.472" y2="376.028" stroke="#C5D9EE"/>
<line x1="751.001" y1="273.679" x2="751.001" y2="376.028" stroke="#C5D9EE"/>
<rect x="854.205" y="298.383" width="86.4673" height="137.642" fill="#0C8DB6"/>
<rect x="848.911" y="398.968" width="5.29391" height="37.0574" fill="#0C8DB6"/>
<rect x="850.675" y="298.383" width="4.4116" height="45.8806" fill="#0C8DB6"/>
<rect x="854.205" y="278.09" width="86.4673" height="20.2933" fill="#0C8DB6"/>
<rect x="848" y="272" width="93" height="6" fill="#0C8DB6"/>
<rect x="850.675" y="231.327" width="89.9966" height="40.5867" fill="#0C8DB6"/>
<rect x="854.205" y="217.21" width="86.4673" height="14.1171" fill="#0C8DB6"/>
<rect x="863.028" y="211.033" width="77.6441" height="7.05855" fill="#0C8DB6"/>
<rect x="849" y="195" width="92" height="16" fill="#0C8DB6"/>
<rect x="847" y="191" width="94" height="4" fill="#0C8DB6"/>
<rect x="893.026" y="180.152" width="47.6452" height="11.4701" fill="#0C8DB6"/>
<rect x="910.673" y="164.271" width="7.94087" height="15.8817" fill="#0C8DB6"/>
<rect x="925.672" y="164.271" width="6.17623" height="16.7641" fill="#0C8DB6"/>
<path d="M918.614 153.683V164.27H910.673L918.614 153.683Z" fill="#0C8DB6"/>
<path d="M876.439 372.498L876.439 400.732H843.793L876.439 372.498Z" fill="#0C8DB6"/>
<rect x="823.323" y="436.024" width="117.348" height="89.9966" fill="#0C8DB6"/>
<rect width="79.4087" height="302.635" transform="matrix(-1 0 0 1 1032.84 223.386)" fill="#0C8DB6"/>
<rect width="68.8209" height="7.05855" transform="matrix(-1 0 0 1 1022.26 216.327)" fill="#0C8DB6"/>
<rect width="20.2933" height="5.29391" transform="matrix(-1 0 0 1 1010.79 211.033)" fill="#0C8DB6"/>
<rect width="25.5873" height="108.525" rx="12.7936" transform="matrix(-1 0 0 1 979.022 134.271)" fill="#0C8DB6"/>
<rect width="12.3525" height="6.17623" transform="matrix(-1 0 0 1 971.964 131.625)" fill="#0C8DB6"/>
<rect width="7.05855" height="4.4116" transform="matrix(-1 0 0 1 969.317 128.978)" fill="#0C8DB6"/>
<line y1="-0.5" x2="5.29391" y2="-0.5" transform="matrix(0 1 1 0 966.67 124.566)" stroke="#C5D9EE"/>
<path d="M979.905 146.624H951.671" stroke="#C5D9EE" stroke-width="6" stroke-linecap="round"/>
<path d="M979.905 160.741H951.671" stroke="#C5D9EE" stroke-width="6" stroke-linecap="round"/>
<path d="M979.905 174.858H951.671" stroke="#C5D9EE" stroke-width="6" stroke-linecap="round"/>
<path d="M979.905 188.976H951.671" stroke="#C5D9EE" stroke-width="6" stroke-linecap="round"/>
<path d="M979.905 203.093H951.671" stroke="#C5D9EE" stroke-width="6" stroke-linecap="round"/>
<rect width="16.7641" height="26.4696" rx="8.38203" transform="matrix(-1 0 0 1 1015.2 235.738)" fill="#C5D9EE"/>
<rect width="16.7641" height="26.4696" rx="8.38203" transform="matrix(-1 0 0 1 1015.2 275.443)" fill="#C5D9EE"/>
<rect width="16.7641" height="26.4696" rx="8.38203" transform="matrix(-1 0 0 1 1015.2 316.029)" fill="#C5D9EE"/>
<line y1="-0.5" x2="24.7049" y2="-0.5" transform="matrix(0 1 1 0 984.316 235.738)" stroke="#C5D9EE"/>
<line y1="-0.5" x2="12.3525" y2="-0.5" transform="matrix(-1 0 0 1 996.669 260.443)" stroke="#C5D9EE"/>
<line y1="-0.5" x2="12.3525" y2="-0.5" transform="matrix(-1 0 0 1 996.669 236.62)" stroke="#C5D9EE"/>
<line y1="-0.5" x2="24.7049" y2="-0.5" transform="matrix(0 1 1 0 984.316 275.443)" stroke="#C5D9EE"/>
<line y1="-0.5" x2="12.3525" y2="-0.5" transform="matrix(-1 0 0 1 996.669 300.148)" stroke="#C5D9EE"/>
<line y1="-0.5" x2="12.3525" y2="-0.5" transform="matrix(-1 0 0 1 996.669 276.326)" stroke="#C5D9EE"/>
<line y1="-0.5" x2="24.7049" y2="-0.5" transform="matrix(0 1 1 0 984.316 317.794)" stroke="#C5D9EE"/>
<line y1="-0.5" x2="12.3525" y2="-0.5" transform="matrix(-1 0 0 1 996.669 342.499)" stroke="#C5D9EE"/>
<line y1="-0.5" x2="12.3525" y2="-0.5" transform="matrix(-1 0 0 1 996.669 318.676)" stroke="#C5D9EE"/>
<path d="M1091.31 139.565C1091.31 138.461 1090.42 137.565 1089.31 137.565C1088.21 137.565 1087.31 138.461 1087.31 139.565H1091.31ZM1087.31 139.565V183.681H1091.31V139.565H1087.31Z" fill="#0C8DB6"/>
<rect x="1092.84" y="147.506" width="40.5867" height="98.8197" rx="10" fill="#0C8DB6"/>
<rect x="1039.9" y="170.446" width="93.5258" height="355.575" fill="#0C8DB6"/>
<rect x="1129.9" y="328.74" width="7.94087" height="30.8812" rx="3.97044" fill="#0C8DB6"/>
<rect x="936.671" y="436.024" width="368.809" height="89.9966" fill="#0C8DB6"/>
<line x1="1176.5" y1="277.314" x2="1176.5" y2="252.294" stroke="#0C8DB6" stroke-width="4"/>
<rect x="1155" y="277.305" width="43" height="10" fill="#0C8DB6"/>
<rect x="1162" y="270.305" width="32" height="7" fill="#0C8DB6"/>
<rect x="1147" y="283" width="60" height="243" fill="#0C8DB6"/>
<mask id="mask1_830_8188" style="mask-type:alpha" maskUnits="userSpaceOnUse" x="1152" y="226" width="44" height="46">
<rect x="1153" y="240.388" width="23" height="39.3394" transform="rotate(-38.7219 1153 240.388)" fill="#D9D9D9"/>
</mask>
<g mask="url(#mask1_830_8188)">
<ellipse cx="1182.5" cy="242.305" rx="15.5" ry="13" fill="#0C8DB6"/>
<path d="M1171.56 230.048L1192.56 256.048" stroke="#C5D9EE" stroke-width="4" stroke-linecap="round"/>
</g>
<rect x="1227.84" y="355.737" width="77.6441" height="170.288" fill="#0C8DB6"/>
<rect x="1280.78" y="365.442" width="19.411" height="9.70551" fill="#C5D9EE"/>
<rect x="1280.78" y="365.442" width="19.411" height="9.70551" fill="#C5D9EE"/>
<rect x="1280.78" y="385.736" width="19.411" height="9.70551" fill="#C5D9EE"/>
<rect x="1280.78" y="385.736" width="19.411" height="9.70551" fill="#C5D9EE"/>
<rect x="1280.78" y="405.147" width="19.411" height="9.70551" fill="#C5D9EE"/>
<rect x="1280.78" y="405.147" width="19.411" height="9.70551" fill="#C5D9EE"/>
<rect x="1280.78" y="426.323" width="19.411" height="9.70551" fill="#C5D9EE"/>
<rect x="1280.78" y="426.323" width="19.411" height="9.70551" fill="#C5D9EE"/>
<line x1="1232.75" y1="363.178" x2="1263.51" y2="363.178" stroke="#C5D9EE" stroke-linecap="round"/>
<line x1="1232.75" y1="370.236" x2="1263.51" y2="370.236" stroke="#C5D9EE" stroke-linecap="round"/>
<line x1="1232.75" y1="376.412" x2="1263.51" y2="376.412" stroke="#C5D9EE" stroke-linecap="round"/>
<line x1="1232.75" y1="382.589" x2="1263.51" y2="382.589" stroke="#C5D9EE" stroke-linecap="round"/>
<line x1="1232.75" y1="388.765" x2="1263.51" y2="388.765" stroke="#C5D9EE" stroke-linecap="round"/>
<line x1="1232.75" y1="394.941" x2="1263.51" y2="394.941" stroke="#C5D9EE" stroke-linecap="round"/>
<line x1="1232.75" y1="402" x2="1263.51" y2="402" stroke="#C5D9EE" stroke-linecap="round"/>
<line x1="1232.75" y1="408.176" x2="1263.51" y2="408.176" stroke="#C5D9EE" stroke-linecap="round"/>
<line x1="1232.19" y1="521.997" x2="1232.19" y2="417.115" stroke="#C5D9EE" stroke-linecap="round"/>
<line x1="1236.6" y1="521.997" x2="1236.6" y2="417.115" stroke="#C5D9EE" stroke-linecap="round"/>
<line x1="1241.01" y1="521.997" x2="1241.01" y2="417.115" stroke="#C5D9EE" stroke-linecap="round"/>
<line x1="1245.42" y1="521.997" x2="1245.42" y2="417.115" stroke="#C5D9EE" stroke-linecap="round"/>
<line x1="1249.84" y1="521.997" x2="1249.84" y2="417.115" stroke="#C5D9EE" stroke-linecap="round"/>
<line x1="1254.25" y1="521.997" x2="1254.25" y2="417.115" stroke="#C5D9EE" stroke-linecap="round"/>
<line x1="1258.66" y1="521.997" x2="1258.66" y2="417.115" stroke="#C5D9EE" stroke-linecap="round"/>
<line x1="1263.07" y1="521.997" x2="1263.07" y2="417.115" stroke="#C5D9EE" stroke-linecap="round"/>
<line x1="1267.48" y1="521.997" x2="1267.48" y2="417.115" stroke="#C5D9EE" stroke-linecap="round"/>
<rect x="1245" y="206.65" width="117.632" height="319.35" fill="#0C8DB6"/>
<rect x="1257.22" y="167.442" width="105.411" height="39.2084" fill="#0C8DB6"/>
<rect x="1270.46" y="115.164" width="81.4769" height="52.2779" fill="#0C8DB6"/>
<rect x="1282.68" y="94.707" width="53.4692" height="20.4566" fill="#0C8DB6"/>
<path d="M1323.93 68V94.7072H1293.89L1323.93 68Z" fill="#0C8DB6"/>
<rect x="1362.63" y="337.345" width="74.8569" height="188.655" fill="#0C8DB6"/>
<rect x="1411.01" y="287.908" width="26.48" height="49.4367" fill="#0C8DB6"/>
<rect x="1416.61" y="271.43" width="7.63846" height="16.4789" fill="#0C8DB6"/>
<rect x="947" y="143" width="37" height="62" fill="white" fill-opacity="0.51"/>
</g>
</g>
<defs>
<clipPath id="clip0_830_8188">
<rect width="1506" height="922" fill="white"/>
</clipPath>
</defs>
</svg>
