<svg width="1440" height="922" viewBox="0 0 1440 922" fill="none" xmlns="http://www.w3.org/2000/svg">
<g clip-path="url(#clip0_831_8561)">
<mask id="mask0_831_8561" style="mask-type:alpha" maskUnits="userSpaceOnUse" x="1183" y="333" width="177" height="130">
<rect width="175.428" height="129.367" transform="matrix(-1 0 0 1 1359.12 333.079)" fill="#D9D9D9"/>
</mask>
<g mask="url(#mask0_831_8561)">
<ellipse cx="1255.02" cy="424.204" rx="67.7324" ry="66.2498" fill="#508D99"/>
<ellipse cx="1304.87" cy="389.496" rx="52.8312" ry="57.8894" fill="#508D99"/>
<ellipse cx="1235.98" cy="376.899" rx="3.45435" ry="3.20499" fill="#A2C5CC"/>
<ellipse cx="1239.44" cy="394.254" rx="1.35446" ry="1.20943" fill="#A2C5CC"/>
<ellipse cx="1247.56" cy="397.882" rx="1.35446" ry="1.20943" fill="#3B697C"/>
<ellipse cx="1259.55" cy="367.345" rx="3.45435" ry="3.20499" fill="#A2C5CC"/>
<ellipse cx="1259.76" cy="380.467" rx="2.03197" ry="1.81414" fill="#A2C5CC"/>
<ellipse cx="1203.94" cy="438.64" rx="2.03197" ry="1.81414" fill="#A2C5CC"/>
<ellipse cx="1276.08" cy="380.165" rx="3.45435" ry="3.20499" fill="#A2C5CC"/>
<ellipse cx="1277.03" cy="391.533" rx="3.45435" ry="3.20499" fill="#A2C5CC"/>
<ellipse cx="1211.46" cy="391.05" rx="3.45435" ry="3.20499" fill="#A2C5CC"/>
<ellipse cx="1279.53" cy="364.14" rx="2.70929" ry="2.41886" fill="#A2C5CC"/>
<ellipse cx="1282.24" cy="346.482" rx="2.70929" ry="2.41886" fill="#A2C5CC"/>
<ellipse cx="1297.55" cy="356.763" rx="2.70929" ry="2.41886" fill="#A2C5CC"/>
<ellipse cx="1290.24" cy="363.656" rx="1.62535" ry="1.45131" fill="#A2C5CC"/>
<ellipse cx="1299.45" cy="375.508" rx="1.35446" ry="1.20943" fill="#A2C5CC"/>
<ellipse cx="1312.45" cy="375.508" rx="1.35446" ry="1.20943" fill="#A2C5CC"/>
<ellipse cx="1303.17" cy="370.247" rx="1.01544" ry="0.907071" fill="#3B697C"/>
<ellipse cx="1287.53" cy="380.588" rx="1.62535" ry="1.45131" fill="#3B697C"/>
<ellipse cx="1271" cy="373.21" rx="1.62535" ry="1.45131" fill="#3B697C"/>
<ellipse cx="1275.2" cy="358.213" rx="1.62535" ry="1.45131" fill="#3B697C"/>
<ellipse cx="1230.77" cy="369.945" rx="1.4899" ry="1.33037" fill="#3B697C"/>
<ellipse cx="1242.28" cy="365.47" rx="1.4899" ry="1.33037" fill="#A2C5CC"/>
<ellipse cx="1247.7" cy="379.984" rx="1.4899" ry="1.33037" fill="#3F7082"/>
<ellipse cx="1249.05" cy="373.936" rx="1.4899" ry="1.33037" fill="#A2C5CC"/>
<ellipse cx="1312.45" cy="351.682" rx="1.35446" ry="1.20943" fill="#A2C5CC"/>
<ellipse cx="1306.22" cy="361.72" rx="1.35446" ry="1.20943" fill="#3B697C"/>
<ellipse cx="1338.05" cy="360.996" rx="1.35446" ry="1.20943" fill="#3B697C"/>
<ellipse cx="1265.11" cy="390.686" rx="1.01544" ry="0.907071" fill="#3B697C"/>
<ellipse cx="1320.65" cy="358.274" rx="1.01544" ry="0.907071" fill="#3B697C"/>
<ellipse cx="1300.8" cy="345.999" rx="1.35446" ry="1.20943" fill="#3B697C"/>
<ellipse cx="1292.67" cy="339.952" rx="1.35446" ry="1.20943" fill="#A2C5CC"/>
<ellipse cx="1227.92" cy="405.865" rx="2.70929" ry="2.41886" fill="#A2C5CC"/>
<ellipse cx="1225.21" cy="421.708" rx="2.70929" ry="2.41886" fill="#A2C5CC"/>
<ellipse cx="1209.7" cy="380.406" rx="1.69307" ry="1.51179" fill="#A2C5CC"/>
<ellipse cx="1219.18" cy="373.149" rx="1.69307" ry="1.51179" fill="#A2C5CC"/>
<ellipse cx="1223.25" cy="381.616" rx="1.69307" ry="1.51179" fill="#3F7082"/>
<ellipse cx="1226.97" cy="389.78" rx="1.35446" ry="1.20943" fill="#A2C5CC"/>
<ellipse cx="1203.6" cy="426.849" rx="1.69307" ry="1.51179" fill="#3B697C"/>
<ellipse cx="1203.6" cy="426.849" rx="1.69307" ry="1.51179" fill="#3B697C"/>
<ellipse cx="1203.6" cy="426.849" rx="1.69307" ry="1.51179" fill="#3B697C"/>
<ellipse cx="1213.09" cy="429.025" rx="1.69307" ry="1.51179" fill="#3B697C"/>
<ellipse cx="1213.09" cy="429.025" rx="1.69307" ry="1.51179" fill="#3B697C"/>
<ellipse cx="1213.09" cy="429.025" rx="1.69307" ry="1.51179" fill="#3B697C"/>
<ellipse cx="1215.8" cy="441.241" rx="1.01544" ry="0.907071" fill="#3B697C"/>
<ellipse cx="1215.8" cy="441.241" rx="1.01544" ry="0.907071" fill="#3B697C"/>
<ellipse cx="1215.8" cy="441.241" rx="1.01544" ry="0.907071" fill="#A2C5CC"/>
<ellipse cx="1206.04" cy="404.958" rx="1.69307" ry="1.51179" fill="#3B697C"/>
<ellipse cx="1206.04" cy="404.958" rx="1.69307" ry="1.51179" fill="#3B697C"/>
<ellipse cx="1206.04" cy="404.958" rx="1.69307" ry="1.51179" fill="#3B697C"/>
<ellipse cx="1199.95" cy="414.634" rx="1.01544" ry="0.907071" fill="#3B697C"/>
<ellipse cx="1199.95" cy="414.634" rx="1.01544" ry="0.907071" fill="#3B697C"/>
<ellipse cx="1199.95" cy="414.634" rx="1.01544" ry="0.907071" fill="#A2C5CC"/>
<ellipse cx="1195.07" cy="410.159" rx="1.01544" ry="0.907071" fill="#3B697C"/>
<ellipse cx="1195.07" cy="410.159" rx="1.01544" ry="0.907071" fill="#3B697C"/>
<ellipse cx="1195.07" cy="410.159" rx="1.01544" ry="0.907071" fill="#A2C5CC"/>
<ellipse cx="1219.18" cy="400.121" rx="1.69307" ry="1.51179" fill="#3B697C"/>
<ellipse cx="1219.18" cy="400.121" rx="1.69307" ry="1.51179" fill="#3B697C"/>
<ellipse cx="1219.18" cy="400.121" rx="1.69307" ry="1.51179" fill="#3B697C"/>
<ellipse cx="1201.3" cy="396.249" rx="1.42218" ry="1.2699" fill="#3B697C"/>
<ellipse cx="1201.3" cy="396.249" rx="1.42218" ry="1.2699" fill="#3B697C"/>
<ellipse cx="1201.3" cy="396.249" rx="1.42218" ry="1.2699" fill="#3B697C"/>
<ellipse cx="1315.91" cy="366.135" rx="3.45435" ry="3.20499" fill="#A2C5CC"/>
<ellipse cx="1211.33" cy="418.745" rx="3.45435" ry="3.20499" fill="#A2C5CC"/>
</g>
<mask id="mask1_831_8561" style="mask-type:alpha" maskUnits="userSpaceOnUse" x="1264" y="305" width="161" height="158">
<rect x="1264.86" y="305.618" width="159.888" height="156.828" fill="#D9D9D9"/>
</mask>
<g mask="url(#mask1_831_8561)">
<ellipse cx="1364.76" cy="399.091" rx="55.5516" ry="88.1073" fill="#17435A"/>
<ellipse cx="1300.94" cy="436.799" rx="31.334" ry="41.8355" fill="#17435A"/>
<path d="M1351.24 362.804C1351.08 361.516 1352.1 361.877 1353.13 362.617C1353.89 364.367 1354.34 365.133 1354.65 370.293C1354.6 371.557 1354.24 372.818 1353.52 375.221L1352.93 370.464L1352.19 364.566C1352.11 363.873 1351.41 364.093 1351.24 362.804Z" fill="#F8E6C7" stroke="#F8E6C7" stroke-width="0.5" stroke-linecap="round"/>
<path d="M1409.88 362.236C1409.67 360.954 1408.8 361.532 1408 362.482C1407.77 364.345 1407.55 365.189 1408.71 370.25C1409.12 371.461 1409.82 372.601 1411.2 374.763L1410.42 370.027L1409.46 364.156C1409.35 363.465 1410.09 363.519 1409.88 362.236Z" fill="#F8E6C7" stroke="#F8E6C7" stroke-width="0.5" stroke-linecap="round"/>
<path d="M1409.48 409.219C1409.69 407.936 1410.57 408.514 1411.36 409.464C1411.59 411.328 1411.81 412.171 1410.65 417.233C1410.24 418.443 1409.54 419.584 1408.16 421.746L1408.94 417.009L1409.9 411.138C1410.01 410.447 1409.27 410.502 1409.48 409.219Z" fill="#F8E6C7" stroke="#F8E6C7" stroke-width="0.5" stroke-linecap="round"/>
<path d="M1340.08 393.07C1340.08 393.369 1340.14 394.367 1338.91 393.968C1337.68 393.569 1337.52 389.173 1337.68 386.638C1338.06 386.335 1338.91 385.74 1339.25 385.74C1339.58 385.74 1339.66 385.38 1340.08 385.74V388.882V393.07Z" fill="#F8E6C7" stroke="#F8E6C7" stroke-width="0.5" stroke-linecap="round"/>
<path d="M1368.48 395.874C1368.51 397.171 1369.46 396.694 1370.38 395.84C1370.87 394.016 1371.21 393.204 1370.76 388.052C1370.52 386.806 1369.99 385.597 1368.92 383.298L1369.03 388.084L1369.16 394.017C1369.18 394.714 1368.45 394.578 1368.48 395.874Z" fill="#F8E6C7" stroke="#F8E6C7" stroke-width="0.5" stroke-linecap="round"/>
<path d="M1397.84 388.664C1397.84 388.365 1397.78 387.368 1399.01 387.767C1400.24 388.166 1400.41 392.561 1400.24 395.097C1399.86 395.4 1399.01 395.994 1398.67 395.994C1398.34 395.994 1398.26 396.355 1397.84 395.994V392.853V388.664Z" fill="#F8E6C7" stroke="#F8E6C7" stroke-width="0.5" stroke-linecap="round"/>
<path d="M1350.81 416.564C1350.81 416.965 1350.75 418.302 1351.98 417.767C1353.21 417.232 1353.38 411.339 1353.21 407.941C1352.83 407.535 1351.98 406.737 1351.65 406.737C1351.31 406.737 1351.23 406.254 1350.81 406.737V410.949V416.564Z" fill="#F8E6C7" stroke="#F8E6C7" stroke-width="0.5" stroke-linecap="round"/>
<path d="M1350.81 453.725C1350.81 453.324 1350.75 451.987 1351.98 452.522C1353.21 453.057 1353.38 458.95 1353.21 462.348C1352.83 462.754 1351.98 463.552 1351.65 463.552C1351.31 463.552 1351.23 464.035 1350.81 463.552V459.34V453.725Z" fill="#F8E6C7" stroke="#F8E6C7" stroke-width="0.5" stroke-linecap="round"/>
<path d="M1396.16 440.498C1396.16 440.9 1396.22 442.236 1394.99 441.702C1393.76 441.167 1393.59 435.274 1393.76 431.875C1394.14 431.469 1394.99 430.672 1395.32 430.672C1395.66 430.672 1395.74 430.189 1396.16 430.672V434.883V440.498Z" fill="#F8E6C7" stroke="#F8E6C7" stroke-width="0.5" stroke-linecap="round"/>
<path d="M1381.75 409.746C1381.75 409.345 1381.81 408.008 1380.58 408.542C1379.35 409.077 1379.18 414.97 1379.35 418.369C1379.73 418.775 1380.58 419.572 1380.91 419.572C1381.25 419.572 1381.33 420.055 1381.75 419.572V415.361V409.746Z" fill="#F8E6C7" stroke="#F8E6C7" stroke-width="0.5" stroke-linecap="round"/>
<path d="M1341.08 443.744C1341.05 445.04 1340.1 444.564 1339.19 443.709C1338.69 441.885 1338.36 441.073 1338.81 435.921C1339.04 434.675 1339.58 433.466 1340.65 431.167L1340.54 435.953L1340.4 441.886C1340.38 442.584 1341.11 442.447 1341.08 443.744Z" fill="#F8E6C7" stroke="#F8E6C7" stroke-width="0.5" stroke-linecap="round"/>
<path d="M1365.89 434.539C1365.89 434.24 1365.83 433.243 1367.06 433.642C1368.29 434.041 1368.46 438.436 1368.29 440.972C1367.91 441.275 1367.06 441.869 1366.73 441.869C1366.39 441.869 1366.31 442.23 1365.89 441.869V438.728V434.539Z" fill="#F8E6C7" stroke="#F8E6C7" stroke-width="0.5" stroke-linecap="round"/>
<path d="M1382.92 454.466C1383.18 458.271 1381.58 463.452 1380.76 465.567C1380.16 463.734 1380.9 457.576 1381.34 454.726C1381.76 453.054 1382.67 450.66 1382.92 454.466Z" fill="#F2E5C9" stroke="#F7E6C7" stroke-width="0.5"/>
<path d="M1291.83 409.93C1291.83 409.413 1291.78 407.689 1293 408.378C1294.23 409.068 1294.4 416.667 1294.23 421.049C1293.85 421.573 1293 422.601 1292.67 422.601C1292.33 422.601 1292.26 423.224 1291.83 422.601V417.17V409.93Z" fill="#F8E6C7" stroke="#F8E6C7" stroke-width="0.5" stroke-linecap="round"/>
<path d="M1281.2 429.441C1280.86 434.053 1283.42 440.042 1284.74 442.46C1285.64 440.167 1284.4 432.876 1283.67 429.517C1282.99 427.57 1281.54 424.829 1281.2 429.441Z" fill="#F2E5C9" stroke="#F7E6C7" stroke-width="0.5"/>
<path d="M1307.25 435.853C1307.25 436.153 1307.19 437.15 1308.42 436.751C1309.65 436.352 1309.82 431.956 1309.65 429.421C1309.27 429.118 1308.42 428.523 1308.08 428.523C1307.75 428.523 1307.67 428.163 1307.25 428.523V431.665V435.853Z" fill="#F8E6C7" stroke="#F8E6C7" stroke-width="0.5" stroke-linecap="round"/>
<path d="M1296.74 454.315C1296.71 455.611 1295.76 455.135 1294.84 454.28C1294.35 452.457 1294.01 451.644 1294.46 446.493C1294.7 445.246 1295.23 444.037 1296.3 441.738L1296.19 446.524L1296.05 452.457C1296.04 453.155 1296.77 453.019 1296.74 454.315Z" fill="#F8E6C7" stroke="#F8E6C7" stroke-width="0.5" stroke-linecap="round"/>
<path d="M1308.47 465.572C1308.47 465.871 1308.53 466.869 1307.3 466.47C1306.07 466.071 1305.9 461.675 1306.07 459.14C1306.45 458.837 1307.3 458.242 1307.63 458.242C1307.97 458.242 1308.05 457.882 1308.47 458.242V461.384V465.572Z" fill="#F8E6C7" stroke="#F8E6C7" stroke-width="0.5" stroke-linecap="round"/>
<path d="M1366.43 339.833C1365.45 343.543 1366.02 348.892 1366.43 351.103C1367.37 349.387 1367.83 343.208 1367.94 340.332C1367.85 338.62 1367.42 336.124 1366.43 339.833Z" fill="#F2E5C9" stroke="#F7E6C7" stroke-width="0.5"/>
<path d="M1321.53 363.669C1320.55 367.379 1321.12 372.728 1321.53 374.939C1322.47 373.223 1322.92 367.044 1323.04 364.168C1322.94 362.456 1322.51 359.959 1321.53 363.669Z" fill="#F2E5C9" stroke="#F7E6C7" stroke-width="0.5"/>
<path d="M1322.02 408.711C1322.05 412.523 1324.02 417.6 1325 419.662C1325.46 417.798 1324.27 411.696 1323.62 408.878C1323.07 407.234 1322 404.899 1322.02 408.711Z" fill="#F2E5C9" stroke="#F7E6C7" stroke-width="0.5"/>
<path d="M1396.16 341.195C1396.16 340.895 1396.11 339.898 1397.33 340.297C1398.56 340.696 1398.73 345.092 1398.56 347.627C1398.18 347.93 1397.33 348.525 1397 348.525C1396.66 348.525 1396.59 348.885 1396.16 348.525V345.383V341.195Z" fill="#F8E6C7" stroke="#F8E6C7" stroke-width="0.5" stroke-linecap="round"/>
<path d="M1353.27 324.939C1353.27 324.639 1353.21 323.642 1354.44 324.041C1355.67 324.44 1355.84 328.836 1355.67 331.371C1355.29 331.674 1354.44 332.269 1354.1 332.269C1353.77 332.269 1353.69 332.629 1353.27 332.269V329.127V324.939Z" fill="#F8E6C7" stroke="#F8E6C7" stroke-width="0.5" stroke-linecap="round"/>
<path d="M1380.19 365.229C1380.19 364.93 1380.13 363.932 1381.36 364.331C1382.59 364.73 1382.76 369.126 1382.59 371.661C1382.21 371.964 1381.36 372.559 1381.03 372.559C1380.69 372.559 1380.61 372.919 1380.19 372.559V369.417V365.229Z" fill="#F8E6C7" stroke="#F8E6C7" stroke-width="0.5" stroke-linecap="round"/>
<path d="M1340.08 338.9C1340.08 338.6 1340.14 337.603 1338.91 338.002C1337.68 338.401 1337.52 342.797 1337.68 345.332C1338.06 345.635 1338.91 346.23 1339.25 346.23C1339.58 346.23 1339.66 346.59 1340.08 346.23V343.088V338.9Z" fill="#F8E6C7" stroke="#F8E6C7" stroke-width="0.5" stroke-linecap="round"/>
<path d="M1379.35 322.527C1379.19 321.239 1380.21 321.6 1381.24 322.34C1382 324.09 1382.45 324.856 1382.76 330.015C1382.71 331.279 1382.35 332.54 1381.63 334.944L1381.04 330.186L1380.3 324.289C1380.22 323.595 1379.52 323.816 1379.35 322.527Z" fill="#F8E6C7" stroke="#F8E6C7" stroke-width="0.5" stroke-linecap="round"/>
</g>
<mask id="mask2_831_8561" style="mask-type:alpha" maskUnits="userSpaceOnUse" x="1198" y="385" width="118" height="66">
<rect width="117.632" height="65.7828" transform="matrix(1 0 0 -1 1198.24 450.81)" fill="#D9D9D9"/>
</mask>
<g mask="url(#mask2_831_8561)">
<ellipse cx="1214.2" cy="443.983" rx="14.8116" ry="14.9191" fill="#34578D"/>
<ellipse cx="1241.61" cy="426.464" rx="27.4078" ry="23.3959" fill="#34578D"/>
<ellipse cx="1279.21" cy="414.71" rx="27.4078" ry="26.4476" fill="#34578D"/>
<ellipse cx="1283.64" cy="442.74" rx="27.4078" ry="23.3959" fill="#34578D"/>
<ellipse cx="1249.21" cy="444.887" rx="27.4078" ry="23.3959" fill="#34578D"/>
<ellipse cx="3.69656" cy="1.89767" rx="3.69656" ry="1.89767" transform="matrix(0.964004 0.265887 -0.327004 0.945023 1237.01 435.055)" fill="#BA6D74"/>
<ellipse cx="3.61377" cy="1.91868" rx="3.61377" ry="1.91868" transform="matrix(0.906795 -0.421571 0.503817 0.863811 1239.65 440.814)" fill="#BA6D74"/>
<ellipse cx="3.67834" cy="2.37475" rx="3.67834" ry="2.37475" transform="matrix(0.943184 -0.332271 0.404244 0.914651 1242.94 433.656)" fill="#BA6D74"/>
<ellipse cx="3.67834" cy="2.37475" rx="3.67834" ry="2.37475" transform="matrix(0.943184 -0.332271 0.404244 0.914651 1258.13 417.493)" fill="#BA6D74"/>
<ellipse cx="3.67834" cy="2.37475" rx="3.67834" ry="2.37475" transform="matrix(0.943184 -0.332271 0.404244 0.914651 1260.03 428.91)" fill="#BA6D74"/>
<ellipse cx="3.67834" cy="2.37475" rx="3.67834" ry="2.37475" transform="matrix(0.943184 -0.332271 0.404244 0.914651 1277.37 411.391)" fill="#BA6D74"/>
<ellipse cx="3.67834" cy="2.37475" rx="3.67834" ry="2.37475" transform="matrix(0.943184 -0.332271 0.404244 0.914651 1273.45 431.396)" fill="#BA6D74"/>
<ellipse cx="3.67834" cy="2.37475" rx="3.67834" ry="2.37475" transform="matrix(0.943184 -0.332271 0.404244 0.914651 1270.92 445.977)" fill="#BA6D74"/>
<ellipse cx="3.67834" cy="2.37475" rx="3.67834" ry="2.37475" transform="matrix(-0.943184 -0.332271 -0.404244 0.914651 1273.95 438.854)" fill="#BA6D74"/>
<ellipse cx="3.67834" cy="2.37475" rx="3.67834" ry="2.37475" transform="matrix(-0.943184 -0.332271 -0.404244 0.914651 1277.37 423.598)" fill="#BA6D74"/>
<ellipse cx="3.67834" cy="2.37475" rx="3.67834" ry="2.37475" transform="matrix(-0.943184 -0.332271 -0.404244 0.914651 1282.81 403.931)" fill="#BA6D74"/>
<ellipse cx="3.10045" cy="1.84651" rx="3.10045" ry="1.84651" transform="matrix(-0.943184 -0.332271 -0.404244 0.914651 1279.77 413.426)" fill="#BA6D74"/>
<ellipse cx="2.88745" cy="1.9855" rx="2.88745" ry="1.9855" transform="matrix(-0.52163 -0.853172 -0.898932 0.438087 1292.81 413.76)" fill="#BA6D74"/>
<ellipse cx="2.27112" cy="1.68599" rx="2.27112" ry="1.68599" transform="matrix(-0.52163 -0.853172 -0.898932 0.438087 1286.61 420.429)" fill="#BA6D74"/>
<ellipse cx="3.05751" cy="1.54183" rx="3.05751" ry="1.54183" transform="matrix(-0.999847 0.0174972 -0.0219494 -0.999759 1295.07 419.468)" fill="#BA6D74"/>
<ellipse cx="3.67834" cy="2.37475" rx="3.67834" ry="2.37475" transform="matrix(0.943184 -0.332271 0.404244 0.914651 1256.23 442.246)" fill="#BA6D74"/>
<ellipse cx="3.67834" cy="2.37475" rx="3.67834" ry="2.37475" transform="matrix(-0.943184 -0.332271 -0.404244 0.914651 1261.92 432.753)" fill="#BA6D74"/>
<ellipse cx="3.67834" cy="2.37475" rx="3.67834" ry="2.37475" transform="matrix(-0.943184 -0.332271 -0.404244 0.914651 1259.39 421.675)" fill="#BA6D74"/>
<ellipse cx="3.17145" cy="1.63212" rx="3.17145" ry="1.63212" transform="matrix(0.943184 -0.332271 0.404244 0.914651 1239.01 425.634)" fill="#BA6D74"/>
<ellipse cx="3.21242" cy="1.60688" rx="3.21242" ry="1.60688" transform="matrix(0.995974 0.0896396 -0.1122 0.993686 1232.92 424.204)" fill="#BA6D74"/>
<ellipse cx="3.67834" cy="2.37475" rx="3.67834" ry="2.37475" transform="matrix(0.943184 -0.332271 0.404244 0.914651 1232.68 417.493)" fill="#BA6D74"/>
<ellipse cx="3.67834" cy="2.37475" rx="3.67834" ry="2.37475" transform="matrix(0.943184 -0.332271 0.404244 0.914651 1240.28 447.672)" fill="#BA6D74"/>
<ellipse cx="3.65392" cy="2.39322" rx="3.65392" ry="2.39322" transform="matrix(0.914016 0.405678 -0.486491 0.873685 1228.18 412.111)" fill="#BA6D74"/>
<path d="M1214.2 435.959C1214.2 439.619 1212 447.505 1210.91 450.991" stroke="#BA6D74" stroke-width="2" stroke-linecap="round"/>
<path d="M1206.6 440.254C1207.92 442.605 1209.05 448.392 1209.45 450.991" stroke="#BA6D74" stroke-width="2" stroke-linecap="round"/>
<ellipse cx="2.64761" cy="1.66158" rx="2.64761" ry="1.66158" transform="matrix(0.983694 -0.179852 0.22357 0.974688 1213.31 439.852)" fill="#BA6D74"/>
<ellipse cx="2.59101" cy="1.70432" rx="2.59101" ry="1.70432" transform="matrix(0.890339 0.455298 -0.539981 0.841677 1204.4 442.562)" fill="#BA6D74"/>
<ellipse cx="1.26138" cy="1.13458" rx="1.26138" ry="1.13458" transform="matrix(0.987732 -0.156162 0.194558 0.980891 1208 442.118)" fill="#BA6D74"/>
<path d="M1288.3 439.138C1289.3 441.78 1289.85 447.953 1290.01 450.708" stroke="#BA6D74" stroke-width="2" stroke-linecap="round"/>
<path d="M1283.96 443.895C1285.56 445.305 1287.95 449.236 1288.95 451.026" stroke="#BA6D74" stroke-width="2" stroke-linecap="round"/>
<ellipse cx="2.00603" cy="1.28108" rx="2.00603" ry="1.28108" transform="matrix(0.876732 -0.454567 0.554717 0.849518 1288.72 442.14)" fill="#BA6D74"/>
<ellipse cx="1.96956" cy="1.30803" rx="1.96956" ry="1.30803" transform="matrix(1.01238 0.176971 -0.211343 0.945238 1282.99 446.043)" fill="#BA6D74"/>
<ellipse cx="0.955608" cy="0.87491" rx="0.955608" ry="0.87491" transform="matrix(0.889253 -0.433221 0.529504 0.863339 1285.48 444.937)" fill="#BA6D74"/>
<ellipse cx="2.64761" cy="1.66158" rx="2.64761" ry="1.66158" transform="matrix(0.983694 -0.179852 0.22357 0.974688 1222.18 436.008)" fill="#BA6D74"/>
<ellipse cx="2.59825" cy="1.69896" rx="2.59825" ry="1.69896" transform="matrix(0.90318 -0.429262 0.512136 0.858904 1225.22 442.57)" fill="#BA6D74"/>
<ellipse cx="2.61609" cy="1.68563" rx="2.61609" ry="1.68563" transform="matrix(0.933611 0.358287 -0.433798 0.90101 1222.67 445.347)" fill="#BA6D74"/>
<ellipse cx="2.61609" cy="1.68563" rx="2.61609" ry="1.68563" transform="matrix(0.933611 0.358287 -0.433798 0.90101 1220.72 426.805)" fill="#BA6D74"/>
<path d="M1222.93 424.77C1225.11 429.155 1226.41 434.697 1226.79 436.92V451.104" stroke="#BA6D74" stroke-width="2" stroke-linecap="round"/>
<ellipse cx="3.60783" cy="2.42736" rx="3.60783" ry="2.42736" transform="matrix(0.854508 -0.519438 0.606405 0.795156 1224.83 431.683)" fill="#BA6D74"/>
<ellipse cx="2.64088" cy="1.56812" rx="2.64088" ry="1.56812" transform="matrix(0.966983 -0.242164 0.326557 0.949752 1294.56 440.754)" fill="#BA6D74"/>
<ellipse cx="2.56907" cy="1.62496" rx="2.56907" ry="1.62496" transform="matrix(0.872235 -0.474506 0.612277 0.801345 1298.17 446.677)" fill="#BA6D74"/>
<ellipse cx="2.59509" cy="1.60478" rx="2.59509" ry="1.60478" transform="matrix(0.969545 0.268378 -0.371154 0.920307 1295.87 449.464)" fill="#BA6D74"/>
<ellipse cx="2.59509" cy="1.60478" rx="2.59509" ry="1.60478" transform="matrix(0.969534 0.26842 -0.371102 0.920329 1292.31 432.242)" fill="#BA6D74"/>
<path d="M1294.33 430.172C1296.89 434.118 1298.67 439.212 1299.25 441.265L1300.49 454.551" stroke="#BA6D74" stroke-width="2" stroke-linecap="round"/>
<ellipse cx="3.54953" cy="2.33679" rx="3.54953" ry="2.33679" transform="matrix(0.819272 -0.559057 0.700089 0.72685 1296.83 436.506)" fill="#BA6D74"/>
<path d="M1233.51 411.734C1231.91 418.418 1235.94 423.671 1238.15 425.463C1245.75 429.287 1244.09 436.01 1242.31 438.893C1241.48 439.384 1239.85 440.792 1240.04 442.502C1240.23 444.212 1241.58 449.483 1242.24 451.905" stroke="#BA6D74" stroke-width="2" stroke-linecap="round"/>
<path d="M1261.95 412.177C1258.37 416.443 1257.91 421.373 1258.12 423.305L1260.15 426.462L1261.15 427.859L1261.34 429.154C1261.67 433.854 1256.52 441.095 1256.04 444.549L1255.43 450.943" stroke="#BA6D74" stroke-width="2" stroke-linecap="round"/>
<path d="M1283.67 402.077C1279.75 404.182 1273.7 435.817 1271.17 451.372" stroke="#BA6D74" stroke-width="2" stroke-linecap="round"/>
<path d="M1277.5 422.508C1283.88 424.995 1291.51 414.879 1294.53 409.511" stroke="#BA6D74" stroke-width="2" stroke-linecap="round"/>
</g>
<path d="M1321.54 367.669H1297.12C1299.33 433.239 1298.7 460.243 1288.76 462.289H1321.54C1301.5 442.612 1308.93 408.096 1321.54 367.669Z" fill="#F7E6C6"/>
<path d="M1306.02 462.173C1302.99 454.536 1303.67 451.261 1312.09 448.466" stroke="#FBAEAC" stroke-linecap="round"/>
<path d="M1310.21 443.782C1301.79 446.577 1296.92 454.074 1299.96 461.711" stroke="#FBAEAC" stroke-linecap="round"/>
<path d="M1309.06 426.315C1300.64 429.11 1298.47 434.065 1297.86 439.965" stroke="#FBAEAC" stroke-linecap="round"/>
<path d="M1298.47 426.605C1299.62 424.465 1300.84 416.715 1298.47 413.938" stroke="#FBAEAC" stroke-linecap="round"/>
<path d="M1298.27 407.865C1309.94 411.798 1295.5 417.119 1309.2 422.845" stroke="#FBAEAC" stroke-linecap="round"/>
<path d="M1308.41 432.484C1296.74 436.417 1311.17 441.738 1297.48 447.464" stroke="#FBAEAC" stroke-linecap="round"/>
<path d="M1316.68 374.147C1305.49 381.03 1309.4 401.908 1298.27 404.974" stroke="#FBAEAC" stroke-linecap="round"/>
<path d="M1305.77 396.695C1311.6 400.554 1310.19 409.474 1310.68 409.484" stroke="#FBAEAC" stroke-linecap="round"/>
<path d="M1303.41 402.546C1306.91 404 1303.53 417.351 1309.8 416.773" stroke="#FBAEAC" stroke-linecap="round"/>
<path d="M1311.29 374.146C1300.09 381.029 1309.4 397.396 1298.27 400.462" stroke="#FBAEAC" stroke-linecap="round"/>
<path d="M1306.57 379.468C1305.82 376.923 1295.77 375.824 1298.64 372.397" stroke="#FBAEAC" stroke-linecap="round"/>
<path d="M1305.16 384.128C1304.42 381.583 1297.6 381.666 1297.6 377.559" stroke="#FBAEAC" stroke-linecap="round"/>
<ellipse cx="52.5373" cy="41.4947" rx="52.5373" ry="41.4947" transform="matrix(-1 0 0 1 1359.85 300.588)" fill="#3B697C"/>
<ellipse cx="41.6792" cy="47.1888" rx="41.6792" ry="47.1888" transform="matrix(-1 0 0 1 1346.9 264)" fill="#3B697C"/>
<path d="M1339.01 284.174C1341.44 292.17 1334.36 298.993 1331.25 299.34C1323.56 297.37 1323.83 293.906 1325.66 283.666" stroke="#A2C5CC" stroke-linecap="round"/>
<path d="M1325.32 282.74C1326.2 287.83 1323.09 299.975 1317.45 299.397C1313.5 298.992 1311.17 293.016 1312.71 282.74" stroke="#A2C5CC" stroke-linecap="round"/>
<path d="M1298.41 281.85C1297.8 292.167 1299.15 297.373 1304.01 299.86C1309.34 299.86 1312.77 294.429 1312.64 282.798" stroke="#A2C5CC" stroke-linecap="round"/>
<path d="M1285.46 281.584C1284.21 292.18 1288.89 295.862 1291.39 296.378C1297.88 295.251 1298.76 291.552 1298.3 282.704" stroke="#A2C5CC" stroke-linecap="round"/>
<path d="M1274.41 280.369C1272.91 293.066 1276.15 298.356 1279.53 297.924C1285.66 296.43 1286.09 292.119 1285.94 281.551" stroke="#A2C5CC" stroke-linecap="round"/>
<path d="M1334.63 278.176C1335.57 284.307 1334.36 284.88 1331.25 285.227C1323.56 283.258 1323.16 280.546 1324.98 270.306" stroke="#A2C5CC" stroke-linecap="round"/>
<path d="M1325.32 270.363C1325.32 281.551 1320.07 284.972 1317.45 285.284C1310.94 283.514 1310.69 275.115 1312.24 265.909" stroke="#A2C5CC" stroke-linecap="round"/>
<path d="M1299.89 265.158C1295.1 271.347 1299.89 286.615 1303.79 287.044C1310.39 285.025 1311.5 279.338 1311.6 265.854" stroke="#A2C5CC" stroke-linecap="round"/>
<path d="M1285.46 270.119C1284.2 280.715 1288.89 281.749 1291.39 282.266C1297.88 281.138 1298.76 277.439 1298.3 268.592" stroke="#A2C5CC" stroke-linecap="round"/>
<path d="M1275.55 278.357C1274.87 282.637 1276.15 284.243 1279.53 283.812C1282.9 283.381 1286.68 276.886 1285.19 270.119" stroke="#A2C5CC" stroke-linecap="round"/>
<path d="M1345.48 301.016C1345.48 313.462 1338.4 317.268 1335.3 317.615C1327.6 315.645 1329.5 304.768 1329.5 301.016" stroke="#A2C5CC" stroke-linecap="round"/>
<path d="M1329.36 301.016C1329.36 313.505 1324.12 317.324 1321.49 317.672C1314.99 315.696 1314.53 311.291 1316.08 301.016" stroke="#A2C5CC" stroke-linecap="round"/>
<path d="M1302.2 302.267C1300.86 313.499 1305.88 317.407 1308.56 317.957C1315.5 316.767 1316.43 312.846 1315.93 303.466" stroke="#A2C5CC" stroke-linecap="round"/>
<path d="M1265.5 299.166C1264.06 311.326 1268.68 315.486 1271.18 316.047C1277.7 314.672 1278.64 310.421 1278.34 300.286" stroke="#A2C5CC" stroke-linecap="round"/>
<path d="M1289.36 301.093C1288.22 310.764 1292.93 314.164 1295.44 314.654C1301.91 313.673 1302.75 310.3 1302.2 302.213" stroke="#A2C5CC" stroke-linecap="round"/>
<path d="M1278.46 298.646C1276.95 311.343 1280.2 316.632 1283.57 316.201C1289.7 314.706 1290.14 310.396 1289.98 299.827" stroke="#A2C5CC" stroke-linecap="round"/>
<path d="M1351.29 320.094C1351.29 332.54 1345.15 334.618 1342.05 334.965C1336.25 333.542 1334.9 324.698 1335.64 318.366" stroke="#A2C5CC" stroke-linecap="round"/>
<path d="M1336.11 318.366C1336.11 330.856 1330.87 334.675 1328.24 335.023C1321.73 333.047 1321.28 328.642 1322.82 318.366" stroke="#A2C5CC" stroke-linecap="round"/>
<path d="M1308.94 319.617C1307.61 330.85 1312.63 334.758 1315.3 335.308C1322.24 334.118 1323.18 330.197 1322.68 320.816" stroke="#A2C5CC" stroke-linecap="round"/>
<path d="M1261.39 322.274C1259.63 326.999 1261.37 331.287 1264.05 331.837C1270.99 330.647 1271.57 323.425 1272.18 316.52" stroke="#A2C5CC" stroke-linecap="round"/>
<path d="M1272.24 316.516C1270.8 328.675 1275.43 332.836 1277.92 333.396C1284.44 332.021 1285.39 327.771 1285.08 317.636" stroke="#A2C5CC" stroke-linecap="round"/>
<path d="M1296.11 318.443C1294.96 328.115 1299.68 331.514 1302.18 332.005C1308.65 331.024 1309.49 327.651 1308.95 319.564" stroke="#A2C5CC" stroke-linecap="round"/>
<path d="M1285.2 315.996C1283.7 328.693 1286.95 333.983 1290.32 333.551C1296.45 332.057 1296.88 327.746 1296.73 317.178" stroke="#A2C5CC" stroke-linecap="round"/>
<path d="M1358.64 336.527C1358.64 348.323 1351.83 351.93 1348.42 352.259C1339.97 350.393 1339.39 346.232 1341.39 336.527" stroke="#A2C5CC" stroke-linecap="round"/>
<path d="M1351.35 320.095C1349.19 332.009 1355.43 335.879 1358.84 336.208" stroke="#A2C5CC" stroke-linecap="round"/>
<path d="M1341.77 335.371C1341.77 347.254 1336.02 350.887 1333.15 351.218C1326.01 349.338 1325.52 345.147 1327.21 335.371" stroke="#A2C5CC" stroke-linecap="round"/>
<path d="M1311.78 334.006C1310.45 345.238 1315.86 349.181 1318.73 349.748C1326.16 348.601 1327.54 336.354 1327.14 335.255" stroke="#A2C5CC" stroke-linecap="round"/>
<path d="M1262.8 332.074C1261.47 343.307 1263.14 348.499 1268.35 348.254C1275.29 347.065 1276.59 342.438 1276.09 333.057" stroke="#A2C5CC" stroke-linecap="round"/>
<path d="M1256.26 346.707C1263.2 345.518 1263.1 342.439 1262.6 333.058" stroke="#A2C5CC" stroke-linecap="round"/>
<path d="M1276.49 332.905C1275.05 345.065 1277.18 348.105 1279.68 348.665C1286.2 347.291 1287.14 343.04 1286.84 332.905" stroke="#A2C5CC" stroke-linecap="round"/>
<path d="M1298.82 333.866C1297.67 343.537 1302.39 346.937 1304.89 347.428C1311.36 346.447 1312.2 343.074 1311.65 334.987" stroke="#A2C5CC" stroke-linecap="round"/>
<path d="M1287.35 332.271C1285.84 344.969 1289.29 347.937 1292.59 347.499C1298.59 345.993 1299.03 340.849 1298.9 330.283" stroke="#A2C5CC" stroke-linecap="round"/>
<path d="M1350.2 352.26C1350.2 364.056 1343.56 366.679 1340.16 367.008C1334.49 365.62 1331.7 362.774 1333.7 353.069" stroke="#A2C5CC" stroke-linecap="round"/>
<path d="M1333.28 352.606C1333.28 364.489 1327.53 368.122 1324.65 368.454C1317.52 366.574 1317.02 362.383 1318.71 352.606" stroke="#A2C5CC" stroke-linecap="round"/>
<path d="M1303.28 351.243C1301.95 362.475 1307.36 366.418 1310.24 366.985C1317.67 365.838 1319.05 353.591 1318.64 352.492" stroke="#A2C5CC" stroke-linecap="round"/>
<path d="M1262.19 362.62C1263.2 361.926 1267.45 357.774 1267.94 350.238" stroke="#A2C5CC" stroke-linecap="round"/>
<path d="M1267.99 350.141C1266.55 362.301 1268.69 365.341 1271.18 365.901C1277.7 364.526 1278.64 360.275 1278.34 350.141" stroke="#A2C5CC" stroke-linecap="round"/>
<path d="M1290.32 351.104C1289.17 360.775 1293.89 364.174 1296.39 364.665C1302.86 363.684 1303.7 360.311 1303.16 352.224" stroke="#A2C5CC" stroke-linecap="round"/>
<path d="M1278.85 349.508C1277.35 362.205 1280.79 365.173 1284.09 364.736C1290.09 363.23 1290.53 358.085 1290.4 347.519" stroke="#A2C5CC" stroke-linecap="round"/>
<path d="M1324.91 369.023C1324.91 374.233 1319.5 375.826 1316.8 375.972C1310.09 375.147 1309.83 371.236 1311.43 366.949" stroke="#A2C5CC" stroke-linecap="round"/>
<path d="M1339.01 366.949C1339.01 370.246 1332.4 372.791 1330.92 373.08C1327 373.08 1324.44 370.477 1325.18 368.511" stroke="#A2C5CC" stroke-linecap="round"/>
<path d="M1272.58 366.023C1272.58 368.279 1276.49 369.725 1277.97 370.014C1280.27 369.725 1283.37 366.544 1282.63 364.577" stroke="#A2C5CC" stroke-linecap="round"/>
<path d="M1297.33 364.809C1295.24 367.469 1298.65 376.571 1302.68 376.77C1309.49 375.83 1310.64 373.18 1310.74 366.896" stroke="#A2C5CC" stroke-linecap="round"/>
<path d="M1282.56 364.809C1281.26 369.746 1287.28 374.303 1289.86 374.544C1296.57 374.018 1296.72 368.932 1296.25 364.809" stroke="#A2C5CC" stroke-linecap="round"/>
<mask id="mask3_831_8561" style="mask-type:alpha" maskUnits="userSpaceOnUse" x="406" y="339" width="176" height="131">
<rect x="406" y="339.897" width="175.428" height="129.367" fill="#D9D9D9"/>
</mask>
<g mask="url(#mask3_831_8561)">
<ellipse cx="67.7324" cy="66.2498" rx="67.7324" ry="66.2498" transform="matrix(-1 0 0 1 577.84 364.772)" fill="#C5D9EE"/>
<ellipse cx="52.8312" cy="57.8894" rx="52.8312" ry="57.8894" transform="matrix(-1 0 0 1 513.089 338.425)" fill="#C5D9EE"/>
<ellipse cx="3.45435" cy="3.20499" rx="3.45435" ry="3.20499" transform="matrix(-1 0 0 1 532.595 380.513)" fill="#A2C5CC"/>
<ellipse cx="1.35446" cy="1.20943" rx="1.35446" ry="1.20943" transform="matrix(-1 0 0 1 527.043 399.863)" fill="#A2C5CC"/>
<ellipse cx="1.35446" cy="1.20943" rx="1.35446" ry="1.20943" transform="matrix(-1 0 0 1 518.915 403.491)" fill="#3B697C"/>
<ellipse cx="3.45435" cy="3.20499" rx="3.45435" ry="3.20499" transform="matrix(-1 0 0 1 509.025 370.958)" fill="#A2C5CC"/>
<ellipse cx="2.03197" cy="1.81414" rx="2.03197" ry="1.81414" transform="matrix(-1 0 0 1 507.399 385.472)" fill="#A2C5CC"/>
<ellipse cx="2.03197" cy="1.81414" rx="2.03197" ry="1.81414" transform="matrix(-1 0 0 1 563.211 443.645)" fill="#A2C5CC"/>
<ellipse cx="3.45435" cy="3.20499" rx="3.45435" ry="3.20499" transform="matrix(-1 0 0 1 492.5 383.778)" fill="#A2C5CC"/>
<ellipse cx="3.45435" cy="3.20499" rx="3.45435" ry="3.20499" transform="matrix(-1 0 0 1 491.551 395.146)" fill="#A2C5CC"/>
<ellipse cx="3.45435" cy="3.20499" rx="3.45435" ry="3.20499" transform="matrix(-1 0 0 1 557.116 394.663)" fill="#A2C5CC"/>
<ellipse cx="2.70929" cy="2.41886" rx="2.70929" ry="2.41886" transform="matrix(-1 0 0 1 488.3 368.54)" fill="#A2C5CC"/>
<ellipse cx="2.70929" cy="2.41886" rx="2.70929" ry="2.41886" transform="matrix(-1 0 0 1 485.59 350.882)" fill="#A2C5CC"/>
<ellipse cx="2.70929" cy="2.41886" rx="2.70929" ry="2.41886" transform="matrix(-1 0 0 1 470.282 361.162)" fill="#A2C5CC"/>
<ellipse cx="1.62535" cy="1.45131" rx="1.62535" ry="1.45131" transform="matrix(-1 0 0 1 476.514 369.023)" fill="#A2C5CC"/>
<ellipse cx="1.35446" cy="1.20943" rx="1.35446" ry="1.20943" transform="matrix(-1 0 0 1 467.031 381.117)" fill="#A2C5CC"/>
<ellipse cx="1.35446" cy="1.20943" rx="1.35446" ry="1.20943" transform="matrix(-1 0 0 1 454.026 381.117)" fill="#A2C5CC"/>
<ellipse cx="1.01544" cy="0.907071" rx="1.01544" ry="0.907071" transform="matrix(-1 0 0 1 462.967 376.159)" fill="#3B697C"/>
<ellipse cx="1.62535" cy="1.45131" rx="1.62535" ry="1.45131" transform="matrix(-1 0 0 1 479.223 385.955)" fill="#3B697C"/>
<ellipse cx="1.62535" cy="1.45131" rx="1.62535" ry="1.45131" transform="matrix(-1 0 0 1 495.75 378.577)" fill="#3B697C"/>
<ellipse cx="1.62535" cy="1.45131" rx="1.62535" ry="1.45131" transform="matrix(-1 0 0 1 491.551 363.58)" fill="#3B697C"/>
<ellipse cx="1.4899" cy="1.33037" rx="1.4899" ry="1.33037" transform="matrix(-1 0 0 1 535.848 375.433)" fill="#3B697C"/>
<ellipse cx="1.4899" cy="1.33037" rx="1.4899" ry="1.33037" transform="matrix(-1 0 0 1 524.333 370.958)" fill="#A2C5CC"/>
<ellipse cx="1.4899" cy="1.33037" rx="1.4899" ry="1.33037" transform="matrix(-1 0 0 1 518.915 385.472)" fill="#3F7082"/>
<ellipse cx="1.4899" cy="1.33037" rx="1.4899" ry="1.33037" transform="matrix(-1 0 0 1 517.56 379.424)" fill="#A2C5CC"/>
<ellipse cx="1.35446" cy="1.20943" rx="1.35446" ry="1.20943" transform="matrix(-1 0 0 1 454.026 357.291)" fill="#A2C5CC"/>
<ellipse cx="1.35446" cy="1.20943" rx="1.35446" ry="1.20943" transform="matrix(-1 0 0 1 460.259 367.329)" fill="#3B697C"/>
<ellipse cx="1.35446" cy="1.20943" rx="1.35446" ry="1.20943" transform="matrix(-1 0 0 1 428.424 366.604)" fill="#3B697C"/>
<ellipse cx="1.01544" cy="0.907071" rx="1.01544" ry="0.907071" transform="matrix(-1 0 0 1 501.034 396.598)" fill="#3B697C"/>
<ellipse cx="1.01544" cy="0.907071" rx="1.01544" ry="0.907071" transform="matrix(-1 0 0 1 445.493 364.187)" fill="#3B697C"/>
<ellipse cx="1.35446" cy="1.20943" rx="1.35446" ry="1.20943" transform="matrix(-1 0 0 1 465.677 351.607)" fill="#3B697C"/>
<ellipse cx="1.35446" cy="1.20943" rx="1.35446" ry="1.20943" transform="matrix(-1 0 0 1 473.806 345.561)" fill="#A2C5CC"/>
<ellipse cx="2.70929" cy="2.41886" rx="2.70929" ry="2.41886" transform="matrix(-1 0 0 1 539.911 410.265)" fill="#A2C5CC"/>
<ellipse cx="2.70929" cy="2.41886" rx="2.70929" ry="2.41886" transform="matrix(-1 0 0 1 542.622 426.107)" fill="#A2C5CC"/>
<ellipse cx="1.69307" cy="1.51179" rx="1.69307" ry="1.51179" transform="matrix(-1 0 0 1 557.116 385.713)" fill="#A2C5CC"/>
<ellipse cx="1.69307" cy="1.51179" rx="1.69307" ry="1.51179" transform="matrix(-1 0 0 1 547.632 378.456)" fill="#A2C5CC"/>
<ellipse cx="1.69307" cy="1.51179" rx="1.69307" ry="1.51179" transform="matrix(-1 0 0 1 543.569 386.923)" fill="#3F7082"/>
<ellipse cx="1.35446" cy="1.20943" rx="1.35446" ry="1.20943" transform="matrix(-1 0 0 1 539.505 395.389)" fill="#A2C5CC"/>
<ellipse cx="1.69307" cy="1.51179" rx="1.69307" ry="1.51179" transform="matrix(-1 0 0 1 563.211 432.154)" fill="#3B697C"/>
<ellipse cx="1.69307" cy="1.51179" rx="1.69307" ry="1.51179" transform="matrix(-1 0 0 1 563.211 432.154)" fill="#3B697C"/>
<ellipse cx="1.69307" cy="1.51179" rx="1.69307" ry="1.51179" transform="matrix(-1 0 0 1 563.211 432.154)" fill="#3B697C"/>
<ellipse cx="1.69307" cy="1.51179" rx="1.69307" ry="1.51179" transform="matrix(-1 0 0 1 553.729 434.332)" fill="#3B697C"/>
<ellipse cx="1.69307" cy="1.51179" rx="1.69307" ry="1.51179" transform="matrix(-1 0 0 1 553.729 434.332)" fill="#3B697C"/>
<ellipse cx="1.69307" cy="1.51179" rx="1.69307" ry="1.51179" transform="matrix(-1 0 0 1 553.729 434.332)" fill="#3B697C"/>
<ellipse cx="1.01544" cy="0.907071" rx="1.01544" ry="0.907071" transform="matrix(-1 0 0 1 550.343 447.152)" fill="#3B697C"/>
<ellipse cx="1.01544" cy="0.907071" rx="1.01544" ry="0.907071" transform="matrix(-1 0 0 1 550.343 447.152)" fill="#3B697C"/>
<ellipse cx="1.01544" cy="0.907071" rx="1.01544" ry="0.907071" transform="matrix(-1 0 0 1 550.343 447.152)" fill="#A2C5CC"/>
<ellipse cx="1.69307" cy="1.51179" rx="1.69307" ry="1.51179" transform="matrix(-1 0 0 1 560.772 410.265)" fill="#3B697C"/>
<ellipse cx="1.69307" cy="1.51179" rx="1.69307" ry="1.51179" transform="matrix(-1 0 0 1 560.772 410.265)" fill="#3B697C"/>
<ellipse cx="1.69307" cy="1.51179" rx="1.69307" ry="1.51179" transform="matrix(-1 0 0 1 560.772 410.265)" fill="#3B697C"/>
<ellipse cx="1.01544" cy="0.907071" rx="1.01544" ry="0.907071" transform="matrix(-1 0 0 1 566.192 420.545)" fill="#3B697C"/>
<ellipse cx="1.01544" cy="0.907071" rx="1.01544" ry="0.907071" transform="matrix(-1 0 0 1 566.192 420.545)" fill="#3B697C"/>
<ellipse cx="1.01544" cy="0.907071" rx="1.01544" ry="0.907071" transform="matrix(-1 0 0 1 566.192 420.545)" fill="#A2C5CC"/>
<ellipse cx="1.01544" cy="0.907071" rx="1.01544" ry="0.907071" transform="matrix(-1 0 0 1 571.068 416.07)" fill="#3B697C"/>
<ellipse cx="1.01544" cy="0.907071" rx="1.01544" ry="0.907071" transform="matrix(-1 0 0 1 571.068 416.07)" fill="#3B697C"/>
<ellipse cx="1.01544" cy="0.907071" rx="1.01544" ry="0.907071" transform="matrix(-1 0 0 1 571.068 416.07)" fill="#A2C5CC"/>
<ellipse cx="1.69307" cy="1.51179" rx="1.69307" ry="1.51179" transform="matrix(-1 0 0 1 547.632 405.427)" fill="#3B697C"/>
<ellipse cx="1.69307" cy="1.51179" rx="1.69307" ry="1.51179" transform="matrix(-1 0 0 1 547.632 405.427)" fill="#3B697C"/>
<ellipse cx="1.69307" cy="1.51179" rx="1.69307" ry="1.51179" transform="matrix(-1 0 0 1 547.632 405.427)" fill="#3B697C"/>
<ellipse cx="1.42218" cy="1.2699" rx="1.42218" ry="1.2699" transform="matrix(-1 0 0 1 565.243 401.798)" fill="#3B697C"/>
<ellipse cx="1.42218" cy="1.2699" rx="1.42218" ry="1.2699" transform="matrix(-1 0 0 1 565.243 401.798)" fill="#3B697C"/>
<ellipse cx="1.42218" cy="1.2699" rx="1.42218" ry="1.2699" transform="matrix(-1 0 0 1 565.243 401.798)" fill="#3B697C"/>
<ellipse cx="3.45435" cy="3.20499" rx="3.45435" ry="3.20499" transform="matrix(-1 0 0 1 452.672 369.749)" fill="#A2C5CC"/>
<ellipse cx="3.45435" cy="3.20499" rx="3.45435" ry="3.20499" transform="matrix(-1 0 0 1 557.252 422.358)" fill="#A2C5CC"/>
</g>
<mask id="mask4_831_8561" style="mask-type:alpha" maskUnits="userSpaceOnUse" x="340" y="312" width="161" height="158">
<rect width="159.888" height="156.828" transform="matrix(-1 0 0 1 500.268 312.437)" fill="#D9D9D9"/>
</mask>
<g mask="url(#mask4_831_8561)">
<ellipse cx="55.5516" cy="88.1073" rx="55.5516" ry="88.1073" transform="matrix(-1 0 0 1 455.913 317.802)" fill="#B6D3D9"/>
<ellipse cx="31.334" cy="41.8355" rx="31.334" ry="41.8355" transform="matrix(-1 0 0 1 495.521 401.782)" fill="#B6D3D9"/>
<path d="M413.879 369.623C414.04 368.334 413.029 368.695 411.993 369.435C411.238 371.185 410.787 371.952 410.474 377.111C410.528 378.375 410.881 379.636 411.6 382.039L412.194 377.282L412.929 371.385C413.016 370.691 413.718 370.911 413.879 369.623Z" fill="#F8E6C7" stroke="#F8E6C7" stroke-width="0.5" stroke-linecap="round"/>
<path d="M355.242 369.055C355.452 367.772 356.328 368.35 357.12 369.3C357.354 371.164 357.573 372.007 356.412 377.069C356.001 378.279 355.302 379.419 353.924 381.582L354.7 376.845L355.661 370.974C355.775 370.283 355.032 370.338 355.242 369.055Z" fill="#F8E6C7" stroke="#F8E6C7" stroke-width="0.5" stroke-linecap="round"/>
<path d="M355.644 416.037C355.434 414.754 354.559 415.332 353.766 416.282C353.533 418.146 353.313 418.99 354.475 424.051C354.886 425.262 355.585 426.402 356.963 428.564L356.187 423.828L355.225 417.956C355.112 417.266 355.854 417.32 355.644 416.037Z" fill="#F8E6C7" stroke="#F8E6C7" stroke-width="0.5" stroke-linecap="round"/>
<path d="M425.039 399.889C425.039 400.188 424.984 401.185 426.212 400.786C427.44 400.387 427.608 395.991 427.44 393.456C427.062 393.153 426.212 392.558 425.877 392.558C425.542 392.558 425.464 392.198 425.039 392.558V395.7V399.889Z" fill="#F8E6C7" stroke="#F8E6C7" stroke-width="0.5" stroke-linecap="round"/>
<path d="M396.643 402.692C396.613 403.988 395.663 403.512 394.744 402.657C394.253 400.834 393.917 400.021 394.364 394.87C394.604 393.623 395.139 392.414 396.205 390.115L396.095 394.901L395.959 400.834C395.943 401.532 396.672 401.396 396.643 402.692Z" fill="#F8E6C7" stroke="#F8E6C7" stroke-width="0.5" stroke-linecap="round"/>
<path d="M367.287 395.484C367.287 395.184 367.343 394.187 366.114 394.586C364.886 394.985 364.719 399.381 364.886 401.916C365.264 402.219 366.114 402.814 366.449 402.814C366.784 402.814 366.863 403.174 367.287 402.814V399.672V395.484Z" fill="#F8E6C7" stroke="#F8E6C7" stroke-width="0.5" stroke-linecap="round"/>
<path d="M414.315 423.382C414.315 423.783 414.37 425.12 413.142 424.585C411.913 424.051 411.746 418.158 411.913 414.759C412.292 414.353 413.142 413.556 413.477 413.556C413.812 413.556 413.89 413.073 414.315 413.556V417.767V423.382Z" fill="#F8E6C7" stroke="#F8E6C7" stroke-width="0.5" stroke-linecap="round"/>
<path d="M414.315 460.544C414.315 460.142 414.37 458.806 413.142 459.34C411.913 459.875 411.746 465.768 411.913 469.167C412.292 469.573 413.142 470.37 413.477 470.37C413.812 470.37 413.89 470.853 414.315 470.37V466.159V460.544Z" fill="#F8E6C7" stroke="#F8E6C7" stroke-width="0.5" stroke-linecap="round"/>
<path d="M368.963 447.317C368.963 447.718 368.907 449.055 370.136 448.52C371.364 447.985 371.532 442.092 371.364 438.694C370.986 438.288 370.136 437.49 369.801 437.49C369.466 437.49 369.388 437.007 368.963 437.49V441.702V447.317Z" fill="#F8E6C7" stroke="#F8E6C7" stroke-width="0.5" stroke-linecap="round"/>
<path d="M383.373 416.564C383.373 416.163 383.317 414.826 384.546 415.361C385.774 415.896 385.942 421.788 385.774 425.187C385.396 425.593 384.546 426.391 384.211 426.391C383.875 426.391 383.797 426.874 383.373 426.391V422.179V416.564Z" fill="#F8E6C7" stroke="#F8E6C7" stroke-width="0.5" stroke-linecap="round"/>
<path d="M424.041 450.562C424.071 451.858 425.021 451.382 425.939 450.527C426.431 448.704 426.766 447.891 426.319 442.74C426.08 441.493 425.545 440.284 424.478 437.986L424.588 442.771L424.724 448.704C424.74 449.402 424.011 449.266 424.041 450.562Z" fill="#F8E6C7" stroke="#F8E6C7" stroke-width="0.5" stroke-linecap="round"/>
<path d="M399.233 441.357C399.233 441.057 399.289 440.06 398.061 440.459C396.833 440.858 396.665 445.254 396.833 447.789C397.211 448.092 398.061 448.687 398.396 448.687C398.731 448.687 398.809 449.047 399.233 448.687V445.545V441.357Z" fill="#F8E6C7" stroke="#F8E6C7" stroke-width="0.5" stroke-linecap="round"/>
<path d="M382.201 461.284C381.946 465.089 383.54 470.271 384.369 472.386C384.962 470.552 384.225 464.394 383.781 461.544C383.36 459.872 382.455 457.479 382.201 461.284Z" fill="#F2E5C9" stroke="#F7E6C7" stroke-width="0.5"/>
<path d="M473.293 416.748C473.293 416.231 473.349 414.507 472.12 415.197C470.892 415.886 470.724 423.485 470.892 427.868C471.27 428.391 472.12 429.419 472.455 429.419C472.791 429.419 472.869 430.042 473.293 429.419V423.989V416.748Z" fill="#F8E6C7" stroke="#F8E6C7" stroke-width="0.5" stroke-linecap="round"/>
<path d="M483.921 436.26C484.263 440.872 481.705 446.861 480.384 449.278C479.485 446.985 480.723 439.694 481.454 436.335C482.134 434.388 483.58 431.647 483.921 436.26Z" fill="#F2E5C9" stroke="#F7E6C7" stroke-width="0.5"/>
<path d="M457.877 442.672C457.877 442.971 457.933 443.968 456.705 443.569C455.477 443.17 455.309 438.775 455.477 436.239C455.855 435.936 456.705 435.342 457.04 435.342C457.375 435.342 457.453 434.981 457.877 435.342V438.483V442.672Z" fill="#F8E6C7" stroke="#F8E6C7" stroke-width="0.5" stroke-linecap="round"/>
<path d="M468.386 461.133C468.415 462.429 469.365 461.953 470.284 461.098C470.776 459.275 471.111 458.462 470.664 453.311C470.425 452.064 469.89 450.855 468.823 448.557L468.933 453.343L469.069 459.275C469.085 459.973 468.356 459.837 468.386 461.133Z" fill="#F8E6C7" stroke="#F8E6C7" stroke-width="0.5" stroke-linecap="round"/>
<path d="M456.652 472.39C456.652 472.69 456.596 473.687 457.824 473.288C459.053 472.889 459.22 468.493 459.053 465.958C458.675 465.655 457.824 465.06 457.49 465.06C457.155 465.06 457.076 464.7 456.652 465.06V468.202V472.39Z" fill="#F8E6C7" stroke="#F8E6C7" stroke-width="0.5" stroke-linecap="round"/>
<path d="M398.691 346.652C399.674 350.362 399.101 355.71 398.691 357.921C397.754 356.206 397.296 350.026 397.184 347.15C397.277 345.438 397.709 342.942 398.691 346.652Z" fill="#F2E5C9" stroke="#F7E6C7" stroke-width="0.5"/>
<path d="M443.597 370.488C444.579 374.198 444.006 379.546 443.597 381.757C442.659 380.042 442.201 373.862 442.089 370.986C442.183 369.274 442.614 366.778 443.597 370.488Z" fill="#F2E5C9" stroke="#F7E6C7" stroke-width="0.5"/>
<path d="M443.104 415.528C443.079 419.34 441.109 424.417 440.128 426.479C439.669 424.615 440.857 418.513 441.507 415.695C442.05 414.051 443.129 411.716 443.104 415.528Z" fill="#F2E5C9" stroke="#F7E6C7" stroke-width="0.5"/>
<path d="M368.963 348.013C368.963 347.714 369.018 346.716 367.79 347.115C366.562 347.514 366.394 351.91 366.562 354.445C366.94 354.748 367.79 355.343 368.125 355.343C368.46 355.343 368.538 355.703 368.963 355.343V352.201V348.013Z" fill="#F8E6C7" stroke="#F8E6C7" stroke-width="0.5" stroke-linecap="round"/>
<path d="M411.856 331.757C411.856 331.458 411.911 330.461 410.683 330.859C409.455 331.258 409.287 335.654 409.455 338.189C409.833 338.492 410.683 339.087 411.018 339.087C411.353 339.087 411.431 339.447 411.856 339.087V335.946V331.757Z" fill="#F8E6C7" stroke="#F8E6C7" stroke-width="0.5" stroke-linecap="round"/>
<path d="M384.936 372.047C384.936 371.748 384.992 370.751 383.764 371.149C382.536 371.548 382.368 375.944 382.536 378.479C382.914 378.782 383.764 379.377 384.099 379.377C384.434 379.377 384.512 379.738 384.936 379.377V376.236V372.047Z" fill="#F8E6C7" stroke="#F8E6C7" stroke-width="0.5" stroke-linecap="round"/>
<path d="M425.039 345.718C425.039 345.419 424.984 344.421 426.212 344.82C427.44 345.219 427.608 349.615 427.44 352.15C427.062 352.453 426.212 353.048 425.877 353.048C425.542 353.048 425.464 353.408 425.039 353.048V349.907V345.718Z" fill="#F8E6C7" stroke="#F8E6C7" stroke-width="0.5" stroke-linecap="round"/>
<path d="M385.769 329.346C385.93 328.058 384.919 328.419 383.883 329.159C383.128 330.909 382.677 331.675 382.364 336.835C382.418 338.099 382.771 339.36 383.49 341.763L384.084 337.006L384.819 331.108C384.906 330.415 385.609 330.635 385.769 329.346Z" fill="#F8E6C7" stroke="#F8E6C7" stroke-width="0.5" stroke-linecap="round"/>
</g>
<mask id="mask5_831_8561" style="mask-type:alpha" maskUnits="userSpaceOnUse" x="391" y="384" width="119" height="66">
<rect x="509.599" y="449.871" width="117.632" height="65.7828" transform="rotate(180 509.599 449.871)" fill="#D9D9D9"/>
</mask>
<g mask="url(#mask5_831_8561)">
<ellipse cx="14.8116" cy="14.9191" rx="14.8116" ry="14.9191" transform="matrix(-1 0 0 1 508.445 428.126)" fill="#34578D"/>
<ellipse cx="27.4078" cy="23.3959" rx="27.4078" ry="23.3959" transform="matrix(-1 0 0 1 493.634 402.131)" fill="#34578D"/>
<ellipse cx="27.4078" cy="26.4476" rx="27.4078" ry="26.4476" transform="matrix(-1 0 0 1 456.036 387.324)" fill="#34578D"/>
<ellipse cx="27.4078" cy="23.3959" rx="27.4078" ry="23.3959" transform="matrix(-1 0 0 1 451.605 418.405)" fill="#34578D"/>
<ellipse cx="27.4078" cy="23.3959" rx="27.4078" ry="23.3959" transform="matrix(-1 0 0 1 486.039 420.553)" fill="#34578D"/>
<ellipse cx="3.69656" cy="1.89767" rx="3.69656" ry="1.89767" transform="matrix(-0.964004 0.265887 0.327004 0.945023 470.822 434.116)" fill="#BA6D74"/>
<ellipse cx="3.61377" cy="1.91868" rx="3.61377" ry="1.91868" transform="matrix(-0.906795 -0.421571 -0.503817 0.863811 468.189 439.876)" fill="#BA6D74"/>
<ellipse cx="3.67834" cy="2.37475" rx="3.67834" ry="2.37475" transform="matrix(-0.943184 -0.332271 -0.404244 0.914651 464.898 432.718)" fill="#BA6D74"/>
<ellipse cx="3.67834" cy="2.37475" rx="3.67834" ry="2.37475" transform="matrix(-0.943184 -0.332271 -0.404244 0.914651 449.707 416.555)" fill="#BA6D74"/>
<ellipse cx="3.67834" cy="2.37475" rx="3.67834" ry="2.37475" transform="matrix(-0.943184 -0.332271 -0.404244 0.914651 447.807 427.972)" fill="#BA6D74"/>
<ellipse cx="3.67834" cy="2.37475" rx="3.67834" ry="2.37475" transform="matrix(-0.943184 -0.332271 -0.404244 0.914651 430.463 410.452)" fill="#BA6D74"/>
<ellipse cx="3.67834" cy="2.37475" rx="3.67834" ry="2.37475" transform="matrix(-0.943184 -0.332271 -0.404244 0.914651 434.389 430.458)" fill="#BA6D74"/>
<ellipse cx="3.67834" cy="2.37475" rx="3.67834" ry="2.37475" transform="matrix(-0.943184 -0.332271 -0.404244 0.914651 436.921 445.038)" fill="#BA6D74"/>
<ellipse cx="3.67834" cy="2.37475" rx="3.67834" ry="2.37475" transform="matrix(0.943184 -0.332271 0.404244 0.914651 433.885 437.916)" fill="#BA6D74"/>
<ellipse cx="3.67834" cy="2.37475" rx="3.67834" ry="2.37475" transform="matrix(0.943184 -0.332271 0.404244 0.914651 430.468 422.659)" fill="#BA6D74"/>
<ellipse cx="3.67834" cy="2.37475" rx="3.67834" ry="2.37475" transform="matrix(0.943184 -0.332271 0.404244 0.914651 425.023 402.992)" fill="#BA6D74"/>
<ellipse cx="3.10045" cy="1.84651" rx="3.10045" ry="1.84651" transform="matrix(0.943184 -0.332271 0.404244 0.914651 428.062 412.487)" fill="#BA6D74"/>
<ellipse cx="2.88745" cy="1.9855" rx="2.88745" ry="1.9855" transform="matrix(0.52163 -0.853172 0.898932 0.438087 415.02 412.821)" fill="#BA6D74"/>
<ellipse cx="2.27112" cy="1.68599" rx="2.27112" ry="1.68599" transform="matrix(0.52163 -0.853172 0.898932 0.438087 421.224 419.49)" fill="#BA6D74"/>
<ellipse cx="3.05751" cy="1.54183" rx="3.05751" ry="1.54183" transform="matrix(0.999847 0.0174972 0.0219494 -0.999759 412.762 418.529)" fill="#BA6D74"/>
<ellipse cx="3.67834" cy="2.37475" rx="3.67834" ry="2.37475" transform="matrix(-0.943184 -0.332271 -0.404244 0.914651 451.606 441.308)" fill="#BA6D74"/>
<ellipse cx="3.67834" cy="2.37475" rx="3.67834" ry="2.37475" transform="matrix(0.943184 -0.332271 0.404244 0.914651 445.912 431.814)" fill="#BA6D74"/>
<ellipse cx="3.67834" cy="2.37475" rx="3.67834" ry="2.37475" transform="matrix(0.943184 -0.332271 0.404244 0.914651 448.444 420.736)" fill="#BA6D74"/>
<ellipse cx="3.17145" cy="1.63212" rx="3.17145" ry="1.63212" transform="matrix(-0.943184 -0.332271 -0.404244 0.914651 468.822 424.695)" fill="#BA6D74"/>
<ellipse cx="3.21242" cy="1.60688" rx="3.21242" ry="1.60688" transform="matrix(-0.995974 0.0896396 0.1122 0.993686 474.917 423.266)" fill="#BA6D74"/>
<ellipse cx="3.67834" cy="2.37475" rx="3.67834" ry="2.37475" transform="matrix(-0.943184 -0.332271 -0.404244 0.914651 475.154 416.555)" fill="#BA6D74"/>
<ellipse cx="3.67834" cy="2.37475" rx="3.67834" ry="2.37475" transform="matrix(-0.943184 -0.332271 -0.404244 0.914651 467.557 446.733)" fill="#BA6D74"/>
<ellipse cx="3.65392" cy="2.39322" rx="3.65392" ry="2.39322" transform="matrix(-0.914016 0.405678 0.486491 0.873685 479.66 411.173)" fill="#BA6D74"/>
<path d="M493.637 435.021C493.637 438.681 495.831 446.567 496.928 450.053" stroke="#BA6D74" stroke-width="2" stroke-linecap="round"/>
<path d="M501.23 439.315C499.914 441.666 498.783 447.453 498.382 450.053" stroke="#BA6D74" stroke-width="2" stroke-linecap="round"/>
<ellipse cx="2.64761" cy="1.66158" rx="2.64761" ry="1.66158" transform="matrix(-0.983694 -0.179852 -0.22357 0.974688 494.521 438.913)" fill="#BA6D74"/>
<ellipse cx="2.59101" cy="1.70432" rx="2.59101" ry="1.70432" transform="matrix(-0.890339 0.455298 0.539981 0.841677 503.44 441.623)" fill="#BA6D74"/>
<ellipse cx="1.26138" cy="1.13458" rx="1.26138" ry="1.13458" transform="matrix(-0.987732 -0.156162 -0.194558 0.980891 499.838 441.18)" fill="#BA6D74"/>
<path d="M419.537 438.197C418.54 440.84 417.982 447.012 417.827 449.768" stroke="#BA6D74" stroke-width="2" stroke-linecap="round"/>
<path d="M423.875 442.955C422.28 444.365 419.884 448.297 418.885 450.086" stroke="#BA6D74" stroke-width="2" stroke-linecap="round"/>
<ellipse cx="2.00603" cy="1.28108" rx="2.00603" ry="1.28108" transform="matrix(-0.876732 -0.454567 -0.554717 0.849518 419.118 441.2)" fill="#BA6D74"/>
<ellipse cx="1.96956" cy="1.30803" rx="1.96956" ry="1.30803" transform="matrix(-1.01238 0.176971 0.211343 0.945238 424.846 445.104)" fill="#BA6D74"/>
<ellipse cx="0.955608" cy="0.87491" rx="0.955608" ry="0.87491" transform="matrix(-0.889253 -0.433221 -0.529504 0.863339 422.355 443.997)" fill="#BA6D74"/>
<ellipse cx="2.64761" cy="1.66158" rx="2.64761" ry="1.66158" transform="matrix(-0.983694 -0.179852 -0.22357 0.974688 485.659 435.069)" fill="#BA6D74"/>
<ellipse cx="2.59825" cy="1.69896" rx="2.59825" ry="1.69896" transform="matrix(-0.90318 -0.429262 -0.512136 0.858904 482.611 441.632)" fill="#BA6D74"/>
<ellipse cx="2.61609" cy="1.68563" rx="2.61609" ry="1.68563" transform="matrix(-0.933611 0.358287 0.433798 0.90101 485.169 444.408)" fill="#BA6D74"/>
<ellipse cx="2.61609" cy="1.68563" rx="2.61609" ry="1.68563" transform="matrix(-0.933611 0.358287 0.433798 0.90101 487.11 425.866)" fill="#BA6D74"/>
<path d="M484.901 423.831C482.723 428.216 481.42 433.758 481.04 435.981V450.166" stroke="#BA6D74" stroke-width="2" stroke-linecap="round"/>
<ellipse cx="3.60783" cy="2.42736" rx="3.60783" ry="2.42736" transform="matrix(-0.854508 -0.519438 -0.606405 0.795156 483.002 430.744)" fill="#BA6D74"/>
<ellipse cx="2.64088" cy="1.56812" rx="2.64088" ry="1.56812" transform="matrix(-0.966983 -0.242164 -0.326557 0.949752 413.275 439.813)" fill="#BA6D74"/>
<ellipse cx="2.56907" cy="1.62496" rx="2.56907" ry="1.62496" transform="matrix(-0.872235 -0.474506 -0.612277 0.801345 409.659 445.736)" fill="#BA6D74"/>
<ellipse cx="2.59509" cy="1.60478" rx="2.59509" ry="1.60478" transform="matrix(-0.969545 0.268378 0.371154 0.920307 411.965 448.524)" fill="#BA6D74"/>
<ellipse cx="2.59509" cy="1.60478" rx="2.59509" ry="1.60478" transform="matrix(-0.969534 0.26842 0.371102 0.920329 415.525 431.303)" fill="#BA6D74"/>
<path d="M413.5 429.232C410.946 433.178 409.161 438.272 408.588 440.326L407.345 453.612" stroke="#BA6D74" stroke-width="2" stroke-linecap="round"/>
<ellipse cx="3.54953" cy="2.33679" rx="3.54953" ry="2.33679" transform="matrix(-0.819272 -0.559057 -0.700089 0.72685 411.003 435.566)" fill="#BA6D74"/>
<path d="M474.33 410.795C475.928 417.479 471.9 422.733 469.687 424.524C462.086 428.348 463.743 435.071 465.521 437.955C466.357 438.445 467.981 439.854 467.791 441.564C467.601 443.273 466.251 448.545 465.6 450.967" stroke="#BA6D74" stroke-width="2" stroke-linecap="round"/>
<path d="M445.88 411.239C449.468 415.504 449.929 420.434 449.711 422.366L447.686 425.523L446.688 426.921L446.494 428.215C446.17 432.916 451.311 440.156 451.794 443.611L452.406 450.005" stroke="#BA6D74" stroke-width="2" stroke-linecap="round"/>
<path d="M424.168 401.139C428.081 403.243 434.131 434.879 436.667 450.433" stroke="#BA6D74" stroke-width="2" stroke-linecap="round"/>
<path d="M430.337 421.57C423.957 424.057 416.327 413.941 413.31 408.572" stroke="#BA6D74" stroke-width="2" stroke-linecap="round"/>
</g>
<path d="M443.587 374.487H468.001C465.796 440.057 466.425 467.061 476.364 469.107H443.587C463.626 449.43 456.199 414.915 443.587 374.487Z" fill="#F7E6C6"/>
<path d="M459.098 468.991C462.129 461.354 461.449 458.079 453.028 455.284" stroke="#FBAEAC" stroke-linecap="round"/>
<path d="M454.916 450.601C463.336 453.395 468.198 460.893 465.167 468.53" stroke="#FBAEAC" stroke-linecap="round"/>
<path d="M456.063 433.134C464.484 435.928 466.652 440.884 467.259 446.783" stroke="#FBAEAC" stroke-linecap="round"/>
<path d="M466.651 433.423C465.505 431.283 464.291 423.533 466.651 420.757" stroke="#FBAEAC" stroke-linecap="round"/>
<path d="M466.856 414.684C455.188 418.617 469.621 423.937 455.93 429.663" stroke="#FBAEAC" stroke-linecap="round"/>
<path d="M456.718 439.303C468.385 443.236 453.953 448.557 467.643 454.282" stroke="#FBAEAC" stroke-linecap="round"/>
<path d="M448.444 380.965C459.64 387.848 455.728 408.727 466.856 411.792" stroke="#FBAEAC" stroke-linecap="round"/>
<path d="M459.355 403.513C453.527 407.372 454.937 416.292 454.446 416.302" stroke="#FBAEAC" stroke-linecap="round"/>
<path d="M461.713 409.365C458.22 410.818 461.594 424.169 455.322 423.591" stroke="#FBAEAC" stroke-linecap="round"/>
<path d="M453.838 380.965C465.033 387.847 455.726 404.215 466.854 407.28" stroke="#FBAEAC" stroke-linecap="round"/>
<path d="M458.56 386.286C459.302 383.741 469.351 382.642 466.485 379.215" stroke="#FBAEAC" stroke-linecap="round"/>
<path d="M459.967 390.946C460.708 388.401 467.53 388.484 467.53 384.378" stroke="#FBAEAC" stroke-linecap="round"/>
<ellipse cx="457.814" cy="348.901" rx="52.5373" ry="41.4947" fill="#184D62"/>
<ellipse cx="459.904" cy="318.007" rx="41.6792" ry="47.1888" fill="#184D62"/>
<path d="M426.115 290.991C423.687 298.987 430.768 305.81 433.871 306.157C441.569 304.188 441.293 300.724 439.468 290.483" stroke="#42B2FC" stroke-linecap="round"/>
<path d="M439.806 289.559C438.929 294.648 442.031 306.794 447.675 306.215C451.627 305.811 453.96 299.834 452.417 289.559" stroke="#42B2FC" stroke-linecap="round"/>
<path d="M466.72 288.668C467.322 298.986 465.973 304.191 461.117 306.678C455.789 306.678 452.359 301.247 452.485 289.616" stroke="#42B2FC" stroke-linecap="round"/>
<path d="M479.664 288.402C480.921 298.998 476.236 302.68 473.737 303.197C467.249 302.069 466.37 298.37 466.826 289.523" stroke="#42B2FC" stroke-linecap="round"/>
<path d="M490.712 287.188C492.219 299.885 488.972 305.174 485.6 304.743C479.47 303.248 479.032 298.938 479.189 288.369" stroke="#42B2FC" stroke-linecap="round"/>
<path d="M430.498 284.994C429.554 291.124 430.768 291.698 433.87 292.045C441.568 290.076 441.967 287.363 440.143 277.123" stroke="#42B2FC" stroke-linecap="round"/>
<path d="M439.806 277.18C439.806 288.369 445.052 291.79 447.676 292.102C454.185 290.331 454.432 281.932 452.889 272.727" stroke="#42B2FC" stroke-linecap="round"/>
<path d="M465.23 271.975C470.018 278.164 465.23 293.433 461.328 293.862C454.734 291.842 453.619 286.156 453.524 272.671" stroke="#42B2FC" stroke-linecap="round"/>
<path d="M479.663 276.937C480.921 287.532 476.234 288.566 473.734 289.083C467.246 287.956 466.367 284.257 466.823 275.409" stroke="#42B2FC" stroke-linecap="round"/>
<path d="M489.577 285.175C490.251 289.454 488.97 291.061 485.598 290.629C482.226 290.198 478.449 283.703 479.933 276.936" stroke="#42B2FC" stroke-linecap="round"/>
<path d="M419.64 307.834C419.64 320.28 426.722 324.086 429.824 324.433C437.522 322.464 435.624 311.587 435.624 307.834" stroke="#42B2FC" stroke-linecap="round"/>
<path d="M435.758 307.834C435.758 320.324 441.005 324.143 443.628 324.491C450.137 322.515 450.588 318.11 449.046 307.834" stroke="#42B2FC" stroke-linecap="round"/>
<path d="M462.927 309.085C464.26 320.318 459.243 324.225 456.568 324.775C449.628 323.586 448.691 319.665 449.189 310.284" stroke="#42B2FC" stroke-linecap="round"/>
<path d="M499.624 305.983C501.067 318.143 496.439 322.304 493.945 322.864C487.428 321.489 486.483 317.238 486.786 307.104" stroke="#42B2FC" stroke-linecap="round"/>
<path d="M475.762 307.91C476.909 317.581 472.191 320.981 469.689 321.472C463.218 320.491 462.378 317.118 462.924 309.031" stroke="#42B2FC" stroke-linecap="round"/>
<path d="M486.664 305.463C488.17 318.16 484.923 323.449 481.551 323.018C475.422 321.523 474.983 317.213 475.14 306.645" stroke="#42B2FC" stroke-linecap="round"/>
<path d="M413.838 326.911C413.838 339.358 419.976 341.436 423.078 341.783C428.878 340.359 430.227 331.515 429.485 325.184" stroke="#42B2FC" stroke-linecap="round"/>
<path d="M429.013 325.184C429.013 337.673 434.259 341.492 436.883 341.84C443.392 339.864 443.843 335.459 442.3 325.184" stroke="#42B2FC" stroke-linecap="round"/>
<path d="M456.182 326.435C457.515 337.667 452.498 341.575 449.823 342.125C442.883 340.935 441.946 337.014 442.444 327.634" stroke="#42B2FC" stroke-linecap="round"/>
<path d="M503.739 329.092C505.492 333.817 503.754 338.104 501.079 338.654C494.138 337.464 493.555 330.243 492.948 323.337" stroke="#42B2FC" stroke-linecap="round"/>
<path d="M492.88 323.333C494.323 335.493 489.695 339.653 487.201 340.214C480.683 338.839 479.739 334.588 480.042 324.453" stroke="#42B2FC" stroke-linecap="round"/>
<path d="M469.015 325.261C470.162 334.932 465.444 338.331 462.942 338.822C456.471 337.841 455.631 334.468 456.177 326.381" stroke="#42B2FC" stroke-linecap="round"/>
<path d="M479.919 322.813C481.426 335.511 478.179 340.8 474.807 340.369C468.677 338.874 468.239 334.564 468.396 323.995" stroke="#42B2FC" stroke-linecap="round"/>
<path d="M406.488 343.345C406.488 355.141 413.299 358.747 416.704 359.076C425.154 357.21 425.739 353.05 423.737 343.345" stroke="#42B2FC" stroke-linecap="round"/>
<path d="M413.772 326.912C415.93 338.826 409.691 342.696 406.286 343.025" stroke="#42B2FC" stroke-linecap="round"/>
<path d="M423.35 342.188C423.35 354.071 429.101 357.704 431.976 358.036C439.111 356.156 439.606 351.965 437.915 342.188" stroke="#42B2FC" stroke-linecap="round"/>
<path d="M453.344 340.823C454.677 352.055 449.265 355.998 446.392 356.565C438.96 355.418 437.58 343.171 437.985 342.072" stroke="#42B2FC" stroke-linecap="round"/>
<path d="M502.323 338.891C503.656 350.124 501.986 355.317 496.777 355.072C489.836 353.882 488.539 349.255 489.037 339.875" stroke="#42B2FC" stroke-linecap="round"/>
<path d="M508.866 353.525C501.926 352.335 502.029 349.256 502.527 339.875" stroke="#42B2FC" stroke-linecap="round"/>
<path d="M488.632 339.723C490.075 351.883 487.94 354.923 485.446 355.483C478.929 354.108 477.984 349.857 478.287 339.723" stroke="#42B2FC" stroke-linecap="round"/>
<path d="M466.308 340.684C467.456 350.355 462.738 353.754 460.235 354.245C453.765 353.264 452.924 349.891 453.47 341.804" stroke="#42B2FC" stroke-linecap="round"/>
<path d="M477.772 339.089C479.279 351.786 475.833 354.754 472.534 354.317C466.535 352.811 466.099 347.666 466.224 337.1" stroke="#42B2FC" stroke-linecap="round"/>
<path d="M414.919 359.077C414.919 370.873 421.563 373.496 424.968 373.825C430.633 372.437 433.428 369.592 431.426 359.887" stroke="#42B2FC" stroke-linecap="round"/>
<path d="M431.847 359.424C431.847 371.306 437.598 374.94 440.473 375.271C447.608 373.391 448.103 369.2 446.412 359.424" stroke="#42B2FC" stroke-linecap="round"/>
<path d="M461.841 358.059C463.174 369.292 457.762 373.234 454.889 373.801C447.457 372.655 446.077 360.407 446.482 359.308" stroke="#42B2FC" stroke-linecap="round"/>
<path d="M502.931 369.437C501.919 368.743 497.67 364.591 497.186 357.056" stroke="#42B2FC" stroke-linecap="round"/>
<path d="M497.131 356.958C498.574 369.118 496.439 372.158 493.945 372.718C487.427 371.343 486.483 367.093 486.786 356.958" stroke="#42B2FC" stroke-linecap="round"/>
<path d="M474.806 357.92C475.953 367.591 471.235 370.991 468.733 371.482C462.262 370.5 461.422 367.127 461.968 359.04" stroke="#42B2FC" stroke-linecap="round"/>
<path d="M486.27 356.325C487.777 369.022 484.331 371.991 481.031 371.553C475.033 370.047 474.596 364.902 474.722 354.337" stroke="#42B2FC" stroke-linecap="round"/>
<path d="M440.21 375.84C440.21 381.051 445.619 382.644 448.324 382.789C455.034 381.965 455.289 378.053 453.698 373.767" stroke="#42B2FC" stroke-linecap="round"/>
<path d="M426.114 373.767C426.114 377.063 432.724 379.608 434.207 379.897C438.119 379.897 440.682 377.295 439.94 375.328" stroke="#42B2FC" stroke-linecap="round"/>
<path d="M492.543 372.841C492.543 375.097 488.632 376.543 487.148 376.832C484.855 376.543 481.752 373.362 482.495 371.396" stroke="#42B2FC" stroke-linecap="round"/>
<path d="M467.793 371.626C469.884 374.287 466.475 383.388 462.444 383.588C455.632 382.647 454.48 379.997 454.382 373.714" stroke="#42B2FC" stroke-linecap="round"/>
<path d="M482.564 371.626C483.863 376.564 477.842 381.12 475.26 381.361C468.558 380.836 468.402 375.749 468.873 371.626" stroke="#42B2FC" stroke-linecap="round"/>
<rect width="1527" height="116" transform="matrix(-1 0 0 1 1527 516)" fill="#C4D9EE"/>
<rect width="1527" height="67" transform="matrix(-1 0 0 1 1527 450)" fill="#F7E6C7"/>
<path d="M310.939 547C365.692 580 353.006 585.5 398.411 583" stroke="#F7E6C7" stroke-width="6" stroke-linecap="round"/>
<path d="M395.533 583H1424.12" stroke="#F7E6C7" stroke-width="6" stroke-linecap="round"/>
<path d="M1391.23 542.501C1426.29 564.237 1477.13 582.267 1413.5 582.897" stroke="#F7E6C7" stroke-width="6" stroke-linecap="round"/>
<path d="M2.83691 593L124.85 593" stroke="#F7E6C7" stroke-width="6" stroke-linecap="round"/>
<path d="M98.7893 548.875C109.876 563.392 134.406 585.673 124.882 591.702" stroke="#F7E6C7" stroke-width="6" stroke-linecap="round"/>
<rect width="1527" height="31" transform="matrix(-1 0 0 1 1527 513)" fill="#92A9BF"/>
<line y1="-0.5" x2="14.8813" y2="-0.5" transform="matrix(0.0493633 -0.998781 -0.995141 -0.0984551 1355.95 527.838)" stroke="#230545"/>
<line y1="-0.5" x2="16.0003" y2="-0.5" transform="matrix(0.0123298 -0.999924 -0.999695 -0.0247014 1318.33 543.836)" stroke="#230545"/>
<line y1="-0.5" x2="14.8813" y2="-0.5" transform="matrix(-0.0493566 -0.998781 -0.99514 0.0984683 1431.87 527.84)" stroke="#230545"/>
<line y1="-0.5" x2="15.9952" y2="-0.5" transform="matrix(-0.0246615 -0.999696 -0.99878 0.0493726 1391.29 543.835)" stroke="#230545"/>
<line y1="-0.5" x2="14.8734" y2="-0.5" transform="matrix(0.0616867 -0.998096 -0.992418 -0.122908 1280.67 527.827)" stroke="#230545"/>
<line y1="-0.5" x2="15.9699" y2="-0.5" transform="matrix(-0.0616867 -0.998096 -0.992418 0.122908 1243.73 543.809)" stroke="#230545"/>
<line y1="-0.5" x2="14.845" y2="-0.5" transform="matrix(0.0864139 -0.996259 -0.985229 -0.171243 1205.3 527.801)" stroke="#230545"/>
<line y1="-0.5" x2="15.989" y2="-0.5" transform="matrix(-0.0369969 -0.999315 -0.997259 0.0739838 1170.87 543.829)" stroke="#230545"/>
<line y1="-0.5" x2="14.8813" y2="-0.5" transform="matrix(0.0493311 -0.998783 -0.995135 -0.0985189 977.607 527.84)" stroke="#230545"/>
<line y1="-0.5" x2="14.901" y2="-0.5" transform="matrix(0 1 1 0 922.682 512.957)" stroke="#230545"/>
<line y1="-0.5" x2="16.0003" y2="-0.5" transform="matrix(0.0123298 -0.999924 -0.999695 -0.0247014 950.091 543.84)" stroke="#230545"/>
<line y1="-0.5" x2="14.845" y2="-0.5" transform="matrix(0.0864139 -0.996259 -0.985229 -0.171243 1037.67 527.803)" stroke="#230545"/>
<line y1="-0.5" x2="15.9952" y2="-0.5" transform="matrix(-0.0246615 -0.999696 -0.99878 0.0493726 1007.88 543.837)" stroke="#230545"/>
<line y1="-0.5" x2="16.0008" y2="-0.5" transform="matrix(0 -1 -1 0 1063.24 543.842)" stroke="#230545"/>
<line y1="-0.5" x2="14.901" y2="-0.5" transform="matrix(0 1 1 0 1146.04 512.956)" stroke="#230545"/>
<line y1="-0.5" x2="14.901" y2="-0.5" transform="matrix(0 1 1 0 1095.81 512.956)" stroke="#230545"/>
<line y1="-0.5" x2="16.0008" y2="-0.5" transform="matrix(0 -1 -1 0 1120.74 543.841)" stroke="#230545"/>
<line y1="-0.5" x2="14.8734" y2="-0.5" transform="matrix(0.0616867 -0.998096 -0.992418 -0.122908 861.88 527.829)" stroke="#230545"/>
<line y1="-0.5" x2="15.9952" y2="-0.5" transform="matrix(-0.0246869 -0.999695 -0.998783 0.0493218 890.315 543.836)" stroke="#230545"/>
<line y1="-0.5" x2="14.845" y2="-0.5" transform="matrix(0.0864139 -0.996259 -0.985229 -0.171243 801.675 527.803)" stroke="#230545"/>
<line y1="-0.5" x2="14.901" y2="-0.5" transform="matrix(0 1 1 0 762.193 512.957)" stroke="#230545"/>
<line y1="-0.5" x2="15.989" y2="-0.5" transform="matrix(-0.0369969 -0.999315 -0.997259 0.0739838 782.417 543.83)" stroke="#230545"/>
<line y1="-0.5" x2="16.0008" y2="-0.5" transform="matrix(0 -1 -1 0 832.623 543.842)" stroke="#230545"/>
<line y1="-0.5" x2="14.8813" y2="-0.5" transform="matrix(0.0493381 -0.998782 -0.995136 -0.0985051 563.811 527.84)" stroke="#230545"/>
<line y1="-0.5" x2="16.0003" y2="-0.5" transform="matrix(0.0123298 -0.999924 -0.999695 -0.0247014 541.356 543.838)" stroke="#230545"/>
<line y1="-0.5" x2="15.989" y2="-0.5" transform="matrix(-0.0369626 -0.999317 -0.997254 0.0740523 594.781 543.829)" stroke="#230545"/>
<line y1="-0.5" x2="14.845" y2="-0.5" transform="matrix(0.0864139 -0.996259 -0.985229 -0.171243 626.404 527.802)" stroke="#230545"/>
<line y1="-0.5" x2="16.0008" y2="-0.5" transform="matrix(0 -1 -1 0 662.09 543.841)" stroke="#230545"/>
<line y1="-0.5" x2="14.901" y2="-0.5" transform="matrix(0 1 1 0 699.71 512.957)" stroke="#230545"/>
<line y1="-0.5" x2="15.9952" y2="-0.5" transform="matrix(0.0246644 -0.999696 -0.998781 -0.0493668 729.547 543.836)" stroke="#230545"/>
<line y1="-0.5" x2="14.8734" y2="-0.5" transform="matrix(0.0616538 -0.998098 -0.99241 -0.122973 506.223 527.83)" stroke="#230545"/>
<line y1="-0.5" x2="15.9699" y2="-0.5" transform="matrix(-0.0616867 -0.998096 -0.992418 0.122908 474.336 543.811)" stroke="#230545"/>
<line y1="-0.5" x2="14.845" y2="-0.5" transform="matrix(0.0864018 -0.99626 -0.985225 -0.171267 430.855 527.804)" stroke="#230545"/>
<line y1="-0.5" x2="15.989" y2="-0.5" transform="matrix(-0.0369969 -0.999315 -0.997259 0.0739838 396.426 543.831)" stroke="#230545"/>
<line y1="-0.5" x2="14.8813" y2="-0.5" transform="matrix(-0.0493381 0.998782 0.995136 0.0985051 168.416 528.957)" stroke="#230545"/>
<line y1="-0.5" x2="16.0003" y2="-0.5" transform="matrix(-0.0123298 0.999924 0.999695 0.0247014 206.034 512.958)" stroke="#230545"/>
<line y1="-0.5" x2="14.8813" y2="-0.5" transform="matrix(0.0494278 0.998778 0.995154 -0.0983276 92.4893 528.957)" stroke="#230545"/>
<line y1="-0.5" x2="15.9952" y2="-0.5" transform="matrix(0.0246615 0.999696 0.99878 -0.0493726 133.077 512.961)" stroke="#230545"/>
<line y1="-0.5" x2="14.901" y2="-0.5" transform="matrix(0 -1 -1 0 17.6689 543.84)" stroke="#230545"/>
<line y1="-0.5" x2="15.9952" y2="-0.5" transform="matrix(-0.0246615 0.999696 0.99878 0.0493726 55.7578 512.961)" stroke="#230545"/>
<line y1="-0.5" x2="14.8734" y2="-0.5" transform="matrix(-0.0616538 0.998098 0.99241 0.122973 243.695 528.968)" stroke="#230545"/>
<line y1="-0.5" x2="15.9699" y2="-0.5" transform="matrix(0.0616867 0.998096 0.992418 -0.122908 280.635 512.986)" stroke="#230545"/>
<line y1="-0.5" x2="14.845" y2="-0.5" transform="matrix(-0.0864018 0.99626 0.985225 0.171267 319.064 528.995)" stroke="#230545"/>
<line y1="-0.5" x2="15.989" y2="-0.5" transform="matrix(0.0369969 0.999315 0.997259 -0.0739838 353.493 512.966)" stroke="#230545"/>
<line y1="-1" x2="1527" y2="-1" transform="matrix(-0.999998 0.00175521 -0.00169147 -0.999999 1527 526)" stroke="#230545" stroke-width="2"/>
<path d="M328.881 408.149H324.922L323.932 472.339H328.881V408.149Z" fill="#AF3856"/>
<path d="M329.87 407.385L328.881 408.149V472.339L330.118 471.179L329.87 407.385Z" fill="#230545"/>
<path d="M329.87 407.385L328.881 408.149V472.339L330.118 471.179L329.87 407.385Z" fill="#923258"/>
<path d="M329.869 407.385H325.91L324.92 408.149H328.879L329.869 407.385Z" fill="#923258"/>
<path d="M375.896 408.148H371.937V472.338H376.639L375.896 408.148Z" fill="#AF3856"/>
<path d="M376.638 407.384L375.896 407.964L376.638 472.338L377.627 470.888L376.638 407.384Z" fill="#230545"/>
<path d="M376.638 407.384L375.896 407.964L376.638 472.338L377.627 470.888L376.638 407.384Z" fill="#923258"/>
<path d="M376.639 407.385L372.927 407.095L371.937 408.149H375.896L376.639 407.385Z" fill="#923258"/>
<path d="M318.985 459.963H315.026L314.531 483.938H318.985V459.963Z" fill="#AF3856"/>
<path d="M319.973 459.677L318.984 459.962V483.937L319.973 483.466V459.677Z" fill="#230545"/>
<path d="M319.973 459.677L318.984 459.962V483.937L319.973 483.466V459.677Z" fill="#923258"/>
<path d="M319.973 459.677H316.014L315.024 459.962H318.983L319.973 459.677Z" fill="#AF3856"/>
<path d="M384.311 459.963H380.352L379.362 483.938H384.311V459.963Z" fill="#AF3856"/>
<path d="M385.299 459.677L384.31 459.962V483.937L385.546 483.357L385.299 459.677Z" fill="#230545"/>
<path d="M385.299 459.677L384.31 459.962V483.937L385.546 483.357L385.299 459.677Z" fill="#923258"/>
<path d="M385.299 459.677H381.34L380.35 459.962H384.31L385.299 459.677Z" fill="#AF3856"/>
<path d="M389.752 410.284L311.559 409.414V418.113L389.752 418.983V410.284Z" fill="#742D5B"/>
<ellipse cx="1.23657" cy="1.43281" rx="1.23657" ry="1.43281" transform="matrix(-1 0 0 1 375.401 412.98)" fill="#230545"/>
<ellipse cx="1.23657" cy="1.43281" rx="1.23657" ry="1.43281" transform="matrix(-1 0 0 1 375.401 412.98)" fill="#230545"/>
<ellipse cx="1.23657" cy="1.43281" rx="1.23657" ry="1.43281" transform="matrix(-1 0 0 1 375.401 412.98)" fill="#230545"/>
<ellipse cx="1.23657" cy="1.43281" rx="1.23657" ry="1.43281" transform="matrix(-1 0 0 1 375.401 412.98)" fill="#230545"/>
<ellipse cx="1.23657" cy="1.43281" rx="1.23657" ry="1.43281" transform="matrix(-1 0 0 1 375.401 412.98)" fill="#230545"/>
<ellipse cx="1.23657" cy="1.43281" rx="1.23657" ry="1.43281" transform="matrix(-1 0 0 1 328.387 412.98)" fill="#230545"/>
<ellipse cx="1.23657" cy="1.43281" rx="1.23657" ry="1.43281" transform="matrix(-1 0 0 1 328.387 412.98)" fill="#230545"/>
<ellipse cx="1.23657" cy="1.43281" rx="1.23657" ry="1.43281" transform="matrix(-1 0 0 1 328.387 412.98)" fill="#230545"/>
<ellipse cx="1.23657" cy="1.43281" rx="1.23657" ry="1.43281" transform="matrix(-1 0 0 1 328.387 412.98)" fill="#230545"/>
<ellipse cx="1.23657" cy="1.43281" rx="1.23657" ry="1.43281" transform="matrix(-1 0 0 1 328.387 412.98)" fill="#230545"/>
<path d="M389.752 420.144L311.559 421.013V427.973L389.752 428.843V420.144Z" fill="#742D5B"/>
<ellipse cx="1.23657" cy="1.44987" rx="1.23657" ry="1.44987" transform="matrix(-1 0 0 1 375.401 423.044)" fill="#230545"/>
<ellipse cx="1.23657" cy="1.44987" rx="1.23657" ry="1.44987" transform="matrix(-1 0 0 1 375.401 423.044)" fill="#230545"/>
<ellipse cx="1.23657" cy="1.44987" rx="1.23657" ry="1.44987" transform="matrix(-1 0 0 1 375.401 423.044)" fill="#230545"/>
<ellipse cx="1.23657" cy="1.44987" rx="1.23657" ry="1.44987" transform="matrix(-1 0 0 1 375.401 423.044)" fill="#230545"/>
<ellipse cx="1.23657" cy="1.44987" rx="1.23657" ry="1.44987" transform="matrix(-1 0 0 1 375.401 423.044)" fill="#230545"/>
<ellipse cx="1.23657" cy="1.44987" rx="1.23657" ry="1.44987" transform="matrix(-1 0 0 1 328.387 423.044)" fill="#230545"/>
<ellipse cx="1.23657" cy="1.44987" rx="1.23657" ry="1.44987" transform="matrix(-1 0 0 1 328.387 423.044)" fill="#230545"/>
<ellipse cx="1.23657" cy="1.44987" rx="1.23657" ry="1.44987" transform="matrix(-1 0 0 1 328.387 423.044)" fill="#230545"/>
<ellipse cx="1.23657" cy="1.44987" rx="1.23657" ry="1.44987" transform="matrix(-1 0 0 1 328.387 423.044)" fill="#230545"/>
<ellipse cx="1.23657" cy="1.44987" rx="1.23657" ry="1.44987" transform="matrix(-1 0 0 1 328.387 423.044)" fill="#230545"/>
<path d="M389.752 430.872L311.559 430.002V438.701L389.752 438.121V430.872Z" fill="#742D5B"/>
<ellipse cx="1.23541" cy="1.44851" rx="1.23541" ry="1.44851" transform="matrix(-1 0 0 1 375.43 433.65)" fill="#230545"/>
<ellipse cx="1.23541" cy="1.44851" rx="1.23541" ry="1.44851" transform="matrix(-1 0 0 1 375.43 433.65)" fill="#230545"/>
<ellipse cx="1.23541" cy="1.44851" rx="1.23541" ry="1.44851" transform="matrix(-1 0 0 1 375.43 433.65)" fill="#230545"/>
<ellipse cx="1.23541" cy="1.44851" rx="1.23541" ry="1.44851" transform="matrix(-1 0 0 1 375.43 433.65)" fill="#230545"/>
<ellipse cx="1.23541" cy="1.44851" rx="1.23541" ry="1.44851" transform="matrix(-1 0 0 1 375.43 433.65)" fill="#230545"/>
<ellipse cx="1.23541" cy="1.44851" rx="1.23541" ry="1.44851" transform="matrix(-1 0 0 1 327.482 433.65)" fill="#230545"/>
<ellipse cx="1.23541" cy="1.44851" rx="1.23541" ry="1.44851" transform="matrix(-1 0 0 1 327.482 433.65)" fill="#230545"/>
<ellipse cx="1.23541" cy="1.44851" rx="1.23541" ry="1.44851" transform="matrix(-1 0 0 1 327.482 433.65)" fill="#230545"/>
<ellipse cx="1.23541" cy="1.44851" rx="1.23541" ry="1.44851" transform="matrix(-1 0 0 1 327.482 433.65)" fill="#230545"/>
<ellipse cx="1.23541" cy="1.44851" rx="1.23541" ry="1.44851" transform="matrix(-1 0 0 1 327.482 433.65)" fill="#230545"/>
<path d="M392.72 449.143L309.578 447.693L311.465 440.443H390.338L392.72 449.143Z" fill="#923258"/>
<path d="M392.72 450.882H309.578V447.692L392.72 449.142V450.882Z" fill="#742D5B"/>
<ellipse cx="374.569" cy="444.793" rx="1.32318" ry="1.44987" transform="rotate(180 374.569 444.793)" fill="#230545"/>
<ellipse cx="374.569" cy="444.793" rx="1.32318" ry="1.44987" transform="rotate(180 374.569 444.793)" fill="#230545"/>
<ellipse cx="374.569" cy="444.793" rx="1.32318" ry="1.44987" transform="rotate(180 374.569 444.793)" fill="#230545"/>
<ellipse cx="374.569" cy="444.793" rx="1.32318" ry="1.44987" transform="rotate(180 374.569 444.793)" fill="#230545"/>
<ellipse cx="374.569" cy="444.793" rx="1.32318" ry="1.44987" transform="rotate(180 374.569 444.793)" fill="#230545"/>
<ellipse cx="327.382" cy="444.793" rx="1.32318" ry="1.44987" transform="rotate(180 327.382 444.793)" fill="#230545"/>
<ellipse cx="327.382" cy="444.793" rx="1.32318" ry="1.44987" transform="rotate(180 327.382 444.793)" fill="#230545"/>
<ellipse cx="327.382" cy="444.793" rx="1.32318" ry="1.44987" transform="rotate(180 327.382 444.793)" fill="#230545"/>
<ellipse cx="327.382" cy="444.793" rx="1.32318" ry="1.44987" transform="rotate(180 327.382 444.793)" fill="#230545"/>
<ellipse cx="327.382" cy="444.793" rx="1.32318" ry="1.44987" transform="rotate(180 327.382 444.793)" fill="#230545"/>
<path d="M395.938 458.711L305.62 459.581L308.199 450.882H393.606L395.938 458.711Z" fill="#923258"/>
<path d="M396.186 461.32H305.62V459.58L395.938 458.421L396.186 461.32Z" fill="#742D5B"/>
<ellipse cx="376.934" cy="455.231" rx="1.43279" ry="1.44987" transform="rotate(180 376.934 455.231)" fill="#230545"/>
<ellipse cx="376.934" cy="455.231" rx="1.43279" ry="1.44987" transform="rotate(180 376.934 455.231)" fill="#230545"/>
<ellipse cx="376.934" cy="455.231" rx="1.43279" ry="1.44987" transform="rotate(180 376.934 455.231)" fill="#230545"/>
<ellipse cx="376.934" cy="455.231" rx="1.43279" ry="1.44987" transform="rotate(180 376.934 455.231)" fill="#230545"/>
<ellipse cx="376.934" cy="455.231" rx="1.43279" ry="1.44987" transform="rotate(180 376.934 455.231)" fill="#230545"/>
<ellipse cx="324.58" cy="455.231" rx="1.43279" ry="1.44987" transform="rotate(180 324.58 455.231)" fill="#230545"/>
<ellipse cx="324.58" cy="455.231" rx="1.43279" ry="1.44987" transform="rotate(180 324.58 455.231)" fill="#230545"/>
<ellipse cx="324.58" cy="455.231" rx="1.43279" ry="1.44987" transform="rotate(180 324.58 455.231)" fill="#230545"/>
<ellipse cx="324.58" cy="455.231" rx="1.43279" ry="1.44987" transform="rotate(180 324.58 455.231)" fill="#230545"/>
<ellipse cx="324.58" cy="455.231" rx="1.43279" ry="1.44987" transform="rotate(180 324.58 455.231)" fill="#230545"/>
<line y1="-2" x2="101.106" y2="-2" transform="matrix(-0.0301288 0.999546 0.999653 0.0263477 289.026 382.386)" stroke="#381263" stroke-width="4"/>
<path d="M289.385 352.881C287.813 351.254 285.205 351.254 283.633 352.881L254.878 382.636C252.424 385.174 254.223 389.415 257.754 389.415H315.264C318.795 389.415 320.594 385.174 318.141 382.636L289.385 352.881Z" fill="#FFE87B"/>
<path d="M289.385 418.634C287.813 420.261 285.205 420.261 283.633 418.634L254.878 388.879C252.424 386.34 254.223 382.099 257.754 382.099H315.264C318.795 382.099 320.594 386.34 318.141 388.879L289.385 418.634Z" fill="#FFE87B"/>
<ellipse cx="3.50719" cy="3.27957" rx="3.50719" ry="3.27957" transform="matrix(-1 0 0 1 292.52 363.449)" fill="#844C01"/>
<ellipse cx="5.0826" cy="7.7245" rx="5.0826" ry="7.7245" transform="matrix(-0.979313 -0.20235 -0.229969 0.973198 292.634 371.164)" fill="#844C01"/>
<path d="M287.711 381.068L284.012 382.51L288.512 392.028L291.518 390.154L287.711 381.068Z" fill="#844C01"/>
<path d="M288.249 388.793L291.517 390.155L291.563 398.936L288.01 398.936L288.249 388.793Z" fill="#844C01"/>
<rect width="3.9273" height="16.3552" transform="matrix(-0.973991 -0.226586 -0.257108 0.966383 285.496 382.94)" fill="#844C01"/>
<path d="M285.507 372.773L285.507 370.477L277.492 375.632L278.139 377.892L285.507 372.773Z" fill="#844C01"/>
<path d="M279.454 381.77L277.49 381.721L277.49 375.631L278.994 375.63L279.454 381.77Z" fill="#844C01"/>
<path d="M289.347 371.43L286.896 371.296L291.928 379.081L294.378 378.609L289.347 371.43Z" fill="#844C01"/>
<path d="M298.797 378.378L298.399 380.178L291.988 379.101L292.254 377.716L298.797 378.378Z" fill="#844C01"/>
<line y1="-0.5" x2="30.0617" y2="-0.5" transform="matrix(-1 0 0 1 300.537 401.867)" stroke="#844C01"/>
<line y1="-0.5" x2="8.01645" y2="-0.5" transform="matrix(-1 0 0 1 300.537 393.435)" stroke="#844C01"/>
<line y1="-0.5" x2="8.01645" y2="-0.5" transform="matrix(-1 0 0 1 277.489 393.435)" stroke="#844C01"/>
<line y1="-0.5" x2="4.00822" y2="-0.5" transform="matrix(-1 0 0 1 287.51 393.435)" stroke="#844C01"/>
<path d="M757.032 481.061L754.505 460.621H632.499V484.774L757.032 481.061Z" stroke="#381263" stroke-width="2"/>
<line y1="-1.5" x2="49.5102" y2="-1.5" transform="matrix(4.67453e-08 1 1 -4.08744e-08 724.062 459.668)" stroke="#381263" stroke-width="3"/>
<line y1="-1.5" x2="48.3611" y2="-1.5" transform="matrix(0.122888 0.992421 0.994189 -0.107645 755.453 459.668)" stroke="#381263" stroke-width="3"/>
<line y1="-1.5" x2="49.5102" y2="-1.5" transform="matrix(4.67453e-08 1 1 -4.08744e-08 693.034 459.621)" stroke="#381263" stroke-width="3"/>
<line y1="-1.5" x2="49.6905" y2="-1.5" transform="matrix(-0.0708657 0.997486 0.998076 0.0620021 664.317 459.621)" stroke="#381263" stroke-width="3"/>
<line y1="-1.5" x2="49.5102" y2="-1.5" transform="matrix(4.67453e-08 1 1 -4.08744e-08 632.967 459.668)" stroke="#381263" stroke-width="3"/>
<line y1="-1" x2="31.876" y2="-1" transform="matrix(-1 0 0 1 755.912 474.319)" stroke="#381263" stroke-width="2"/>
<path d="M735.076 472.628C735.076 474.739 736.927 476.562 739.353 476.562C741.78 476.562 743.63 474.739 743.63 472.628C743.63 470.517 741.78 468.693 739.353 468.693C736.927 468.693 735.076 470.517 735.076 472.628Z" fill="#ED4550" stroke="#381263" stroke-width="2"/>
<line y1="-1" x2="29.7141" y2="-1" transform="matrix(-0.999808 -0.0195699 -0.022285 0.999752 722.868 474.608)" stroke="#381263" stroke-width="2"/>
<path d="M702.876 472.627C702.876 474.738 704.727 476.561 707.153 476.561C709.58 476.561 711.43 474.738 711.43 472.627C711.43 470.516 709.58 468.692 707.153 468.692C704.727 468.692 702.876 470.516 702.876 472.627Z" fill="#ED4550" stroke="#381263" stroke-width="2"/>
<line y1="-1" x2="29.7149" y2="-1" transform="matrix(-1 0 0 1 692.521 474.305)" stroke="#381263" stroke-width="2"/>
<path d="M672.526 472.612C672.526 474.723 674.377 476.547 676.803 476.547C679.229 476.547 681.08 474.723 681.08 472.612C681.08 470.501 679.229 468.678 676.803 468.678C674.377 468.678 672.526 470.501 672.526 472.612Z" fill="#ED4550" stroke="#381263" stroke-width="2"/>
<line y1="-1" x2="29.7137" y2="-1" transform="matrix(-0.999706 0.0242606 0.0277131 0.999616 662.648 474.462)" stroke="#381263" stroke-width="2"/>
<path d="M643.978 473.131C643.978 475.242 645.829 477.065 648.255 477.065C650.682 477.065 652.532 475.242 652.532 473.131C652.532 471.02 650.682 469.196 648.255 469.196C645.829 469.196 643.978 471.02 643.978 473.131Z" fill="#ED4550" stroke="#381263" stroke-width="2"/>
<path d="M119.554 550H288.299L298.303 558.378L132.808 561.637L119.554 550Z" fill="#F7E6C7"/>
<path d="M135.354 563.455H306.634L319.042 573.152L145.333 572.476L135.354 563.455Z" fill="#F7E6C7"/>
<path d="M156.478 585.716C153.84 583.253 155.556 578.832 159.164 578.793L324.044 576.987C324.98 576.976 325.889 577.294 326.614 577.885L331.06 581.505C333.978 583.882 332.298 588.607 328.534 588.607L161.143 588.599C160.129 588.599 159.154 588.215 158.413 587.523L156.478 585.716Z" fill="#F7E6C7"/>
</g>
<defs>
<clipPath id="clip0_831_8561">
<rect width="1527" height="922" fill="white"/>
</clipPath>
</defs>
</svg>
