<svg width="412" height="109" viewBox="0 0 412 109" fill="none" xmlns="http://www.w3.org/2000/svg">
<path d="M55.376 108.28C52.4747 108.28 50 107.981 47.952 107.384C45.9893 106.787 44.2827 105.805 42.832 104.44C38.0533 100.088 32.6773 94.328 26.704 87.16C24.8267 84.856 23.8027 80.888 23.632 75.256C23.4613 73.2933 23.376 68.8133 23.376 61.816V50.168C22.2667 49.8267 21.2 49.1867 20.176 48.248C15.7387 44.152 12.5387 41.0373 10.576 38.904C8.61333 36.7707 6.43733 34.2107 4.048 31.224C2.85333 29.7733 2.04267 27.64 1.616 24.824C1.18933 22.008 0.976 19.32 0.976 16.76C0.976 13.5173 1.36 10.8293 2.128 8.696C2.98133 6.47733 4.432 4.77066 6.48 3.576C8.86933 2.12533 13.6907 1.39999 20.944 1.39999L38.224 1.52799L57.296 1.39999C64.6347 1.39999 69.4133 2.21066 71.632 3.83199C76.1547 7.24533 80.1653 10.8293 83.664 14.584C87.1627 18.3387 89.04 20.3867 89.296 20.728C92.0267 23.544 93.392 28.4507 93.392 35.448C93.392 37.4107 93.0933 39.672 92.496 42.232C91.8987 44.792 91.088 46.6693 90.064 47.864C88.016 50.168 85.1573 51.32 81.488 51.32L71.888 51.192C71.2907 51.192 70.992 51.8747 70.992 53.24L71.12 79.352V94.328C71.12 96.632 70.864 98.6373 70.352 100.344C69.84 102.051 68.8587 103.544 67.408 104.824C64.9333 107.128 60.9227 108.28 55.376 108.28ZM38.096 88.952C40.9973 88.952 43.216 88.824 44.752 88.568C46.288 88.312 47.568 87.8 48.592 87.032C49.872 86.0933 50.6827 85.0693 51.024 83.96C51.4507 82.7653 51.7067 81.272 51.792 79.48C52.048 76.7493 52.176 67.9173 52.176 52.984L52.048 35.064C52.048 33.1867 53.072 32.248 55.12 32.248L61.776 32.376C65.5307 32.376 68.304 31.9067 70.096 30.968C71.4613 30.2853 72.4 29.304 72.912 28.024C73.5093 26.9147 73.8933 25.4213 74.064 23.544C74.32 21.5813 74.448 19.832 74.448 18.296C74.448 16.248 74.192 14.2427 73.68 12.28C73.2533 10.232 72.656 8.65333 71.888 7.544C70.7787 5.92267 69.1147 4.856 66.896 4.34399C64.6773 3.832 61.9893 3.576 58.832 3.576H38.224L18.896 3.448C13.0933 3.448 9.08267 4.25866 6.864 5.88C4.304 7.75733 3.024 11.5973 3.024 17.4C3.024 19.5333 3.23733 21.8373 3.664 24.312C4.09067 26.7013 4.77333 28.536 5.712 29.816C6.48 30.84 7.54667 31.5227 8.912 31.864C10.2773 32.12 12.1547 32.248 14.544 32.248C15.2267 32.248 16.2933 32.248 17.744 32.248C19.28 32.1627 20.7307 32.1627 22.096 32.248C23.632 32.3333 24.5707 32.7173 24.912 33.4C25.3387 33.9973 25.552 35.192 25.552 36.984C25.552 39.3733 25.5093 41.2507 25.424 42.616L25.296 54.008C25.296 67.2347 25.5093 75.5973 25.936 79.096C26.2773 82.5947 27.472 85.1547 29.52 86.776C31.2267 88.2267 34.0853 88.952 38.096 88.952ZM82 20.6C82.3413 20.6 82.512 20.4293 82.512 20.088C82.512 19.6613 82.2987 19.448 81.872 19.448C81.5307 19.448 81.36 19.6613 81.36 20.088C81.36 20.4293 81.5733 20.6 82 20.6ZM87.888 26.872C88.144 26.872 88.3573 26.7867 88.528 26.616C88.6987 26.4453 88.784 26.2747 88.784 26.104C88.784 25.848 88.656 25.6347 88.4 25.464C88.2293 25.2933 88.0587 25.208 87.888 25.208C87.7173 25.208 87.5467 25.2933 87.376 25.464C87.2053 25.6347 87.12 25.848 87.12 26.104C87.12 26.616 87.376 26.872 87.888 26.872ZM82.128 31.864C82.2987 31.864 82.384 31.352 82.384 30.328C83.2373 30.1573 83.664 29.9867 83.664 29.816C83.664 29.56 83.2373 29.2613 82.384 28.92C82.384 27.9813 82.2987 27.512 82.128 27.512C81.872 27.512 81.5307 27.8533 81.104 28.536C81.0187 28.536 80.848 28.4933 80.592 28.408C80.336 28.2373 80.08 28.152 79.824 28.152C79.6533 28.152 79.568 28.28 79.568 28.536C79.568 28.792 79.824 29.176 80.336 29.688C79.7387 30.2853 79.44 30.6693 79.44 30.84C79.44 31.096 79.5253 31.224 79.696 31.224C79.952 31.224 80.208 31.1813 80.464 31.096C80.72 31.0107 80.9333 30.9253 81.104 30.84C81.616 31.5227 81.9573 31.864 82.128 31.864ZM18.768 40.312C19.3653 40.312 19.664 39.8853 19.664 39.032C19.664 38.776 19.536 38.5627 19.28 38.392C19.1093 38.2213 18.8533 38.136 18.512 38.136C17.8293 38.136 17.488 38.5627 17.488 39.416C17.488 40.0133 17.9147 40.312 18.768 40.312ZM62.032 45.432C62.3733 45.432 63.0133 44.9627 63.952 44.024C64.208 44.3653 64.5067 44.664 64.848 44.92C65.1893 45.0907 65.4453 45.2187 65.616 45.304C66.0427 45.304 66.256 45.1333 66.256 44.792C66.256 44.536 66.1707 44.1947 66 43.768C65.8293 43.3413 65.7013 43 65.616 42.744C66.7253 42.0613 67.28 41.5493 67.28 41.208C67.28 40.7813 66.4693 40.568 64.848 40.568C64.5067 39.1173 64.1227 38.392 63.696 38.392C63.3547 38.392 62.9707 39.16 62.544 40.696C60.9227 40.696 60.112 40.8667 60.112 41.208C60.112 41.464 60.24 41.72 60.496 41.976C60.752 42.1467 61.008 42.3173 61.264 42.488C61.6053 42.6587 61.8613 42.7867 62.032 42.872C61.6907 43.7253 61.52 44.3653 61.52 44.792C61.52 45.2187 61.6907 45.432 62.032 45.432ZM71.888 40.184C72.3147 40.184 72.528 39.9707 72.528 39.544C72.528 39.3733 72.4427 39.2453 72.272 39.16C72.1867 38.9893 72.0587 38.904 71.888 38.904C71.376 38.904 71.12 39.1173 71.12 39.544C71.12 39.9707 71.376 40.184 71.888 40.184ZM83.664 40.824C83.92 40.824 84.1333 40.7387 84.304 40.568C84.4747 40.312 84.56 40.0133 84.56 39.672C84.56 39.5013 84.432 39.3307 84.176 39.16C84.0053 38.9893 83.7493 38.904 83.408 38.904C83.2373 38.904 83.0667 39.032 82.896 39.288C82.7253 39.4587 82.64 39.672 82.64 39.928C82.64 40.184 82.7253 40.3973 82.896 40.568C83.152 40.7387 83.408 40.824 83.664 40.824ZM80.848 46.456C81.104 46.456 81.3173 46.328 81.488 46.072C81.744 45.816 81.872 45.56 81.872 45.304C81.872 45.048 81.744 44.8347 81.488 44.664C81.3173 44.408 81.0613 44.28 80.72 44.28C79.952 44.28 79.568 44.664 79.568 45.432C79.568 45.688 79.696 45.944 79.952 46.2C80.2933 46.3707 80.592 46.456 80.848 46.456ZM58.704 54.264C59.216 54.264 59.472 53.9653 59.472 53.368C59.472 52.9413 59.1733 52.728 58.576 52.728C58.1493 52.728 57.936 52.984 57.936 53.496C57.936 54.008 58.192 54.264 58.704 54.264ZM65.744 59.512C66 59.512 66.256 59.0427 66.512 58.104C67.4507 58.104 67.92 58.0187 67.92 57.848C67.92 57.6773 67.792 57.5067 67.536 57.336C67.28 57.1653 67.1093 57.0373 67.024 56.952L67.28 55.672C67.28 55.5013 67.1947 55.416 67.024 55.416C66.8533 55.416 66.4693 55.6293 65.872 56.056C65.2747 55.4587 64.8907 55.16 64.72 55.16C64.464 55.16 64.336 55.2453 64.336 55.416C64.336 55.672 64.5067 56.1413 64.848 56.824C64.08 57.2507 63.696 57.592 63.696 57.848C63.696 58.0187 64.1653 58.104 65.104 58.104C65.36 59.0427 65.5733 59.512 65.744 59.512ZM60.368 66.04C60.624 66.04 60.88 65.912 61.136 65.656C61.392 65.4 61.52 65.144 61.52 64.888C61.52 64.632 61.392 64.4187 61.136 64.248C60.88 63.992 60.5813 63.864 60.24 63.864C59.984 63.864 59.728 63.992 59.472 64.248C59.3013 64.504 59.216 64.76 59.216 65.016C59.216 65.3573 59.344 65.6133 59.6 65.784C59.856 65.9547 60.112 66.04 60.368 66.04ZM67.024 70.648C67.28 70.648 67.4507 70.6053 67.536 70.52C67.7067 70.3493 67.792 70.1787 67.792 70.008C67.792 69.496 67.536 69.24 67.024 69.24C66.8533 69.24 66.6827 69.3253 66.512 69.496C66.3413 69.5813 66.256 69.7093 66.256 69.88C66.256 70.392 66.512 70.648 67.024 70.648ZM57.04 75.64C57.2107 75.64 57.3387 75.5547 57.424 75.384C57.5947 75.2133 57.68 75.0427 57.68 74.872C57.68 74.4453 57.424 74.232 56.912 74.232C56.4853 74.232 56.272 74.488 56.272 75C56.272 75.1707 56.3147 75.3413 56.4 75.512C56.5707 75.5973 56.784 75.64 57.04 75.64ZM64.464 79.352C64.8053 79.352 65.0613 79.224 65.232 78.968C65.4027 78.712 65.488 78.456 65.488 78.2C65.488 77.944 65.36 77.7307 65.104 77.56C64.848 77.304 64.5493 77.176 64.208 77.176C63.952 77.176 63.696 77.304 63.44 77.56C63.2693 77.816 63.184 78.1147 63.184 78.456C63.184 78.712 63.312 78.9253 63.568 79.096C63.824 79.2667 64.1227 79.352 64.464 79.352ZM61.648 91.768C61.8187 91.768 61.904 91.512 61.904 91C61.9893 90.5733 62.032 89.976 62.032 89.208C63.4827 88.952 64.208 88.6533 64.208 88.312C64.208 88.056 64.0373 87.8427 63.696 87.672C63.44 87.5013 63.1413 87.3733 62.8 87.288C62.4587 87.1173 62.16 86.9893 61.904 86.904C61.904 86.7333 61.8613 86.392 61.776 85.88C61.776 85.368 61.7333 85.0267 61.648 84.856C61.5627 84.6 61.4347 84.472 61.264 84.472C61.008 84.472 60.7093 84.728 60.368 85.24C60.112 85.752 59.9413 86.0933 59.856 86.264C58.4907 85.9227 57.7653 85.752 57.68 85.752C57.3387 85.752 57.168 85.9653 57.168 86.392C57.168 86.5627 57.6373 87.2027 58.576 88.312C57.7227 89.336 57.296 89.976 57.296 90.232C57.296 90.6587 57.4667 90.872 57.808 90.872C58.1493 90.872 58.5333 90.7867 58.96 90.616C59.472 90.36 59.8133 90.1893 59.984 90.104C60.24 90.616 60.496 91 60.752 91.256C61.0933 91.5973 61.392 91.768 61.648 91.768ZM67.152 93.304C67.408 93.304 67.6213 93.2187 67.792 93.048C67.9627 92.8773 68.048 92.7067 68.048 92.536C68.048 92.28 67.9627 92.0667 67.792 91.896C67.6213 91.7253 67.4507 91.64 67.28 91.64C67.024 91.64 66.8107 91.7253 66.64 91.896C66.4693 92.0667 66.384 92.2373 66.384 92.408C66.384 92.664 66.4693 92.8773 66.64 93.048C66.8107 93.2187 66.9813 93.304 67.152 93.304ZM40.656 96.376C41.2533 96.376 41.552 96.0773 41.552 95.48C41.552 95.3093 41.4667 95.1387 41.296 94.968C41.1253 94.7973 40.912 94.712 40.656 94.712C40.4853 94.712 40.3147 94.7973 40.144 94.968C39.9733 95.1387 39.888 95.3093 39.888 95.48C39.888 95.736 39.9733 95.9493 40.144 96.12C40.3147 96.2907 40.4853 96.376 40.656 96.376ZM61.136 97.272C61.5627 97.272 61.776 97.1013 61.776 96.76C61.776 96.5893 61.6907 96.4187 61.52 96.248C61.4347 96.1627 61.3067 96.12 61.136 96.12C60.7093 96.12 60.496 96.2907 60.496 96.632C60.496 97.0587 60.7093 97.272 61.136 97.272ZM49.744 102.008C49.9147 102.008 50.1707 101.496 50.512 100.472C51.6213 100.472 52.176 100.344 52.176 100.088C52.176 99.832 51.7493 99.448 50.896 98.936C51.152 98.3387 51.28 97.8693 51.28 97.528C51.28 97.3573 51.152 97.272 50.896 97.272C50.64 97.272 50.256 97.528 49.744 98.04C49.0613 97.3573 48.6347 97.016 48.464 97.016C48.208 97.016 48.08 97.144 48.08 97.4L48.464 98.936C48.1227 99.1067 47.824 99.2773 47.568 99.448C47.3973 99.704 47.2693 99.8747 47.184 99.96C47.184 100.216 47.312 100.344 47.568 100.344C47.9093 100.429 48.336 100.472 48.848 100.472C48.9333 100.899 49.0187 101.24 49.104 101.496C49.2747 101.837 49.488 102.008 49.744 102.008ZM58.32 104.44C58.576 104.44 58.7893 104.312 58.96 104.056C59.1307 103.8 59.216 103.501 59.216 103.16C59.216 102.904 59.088 102.648 58.832 102.392C58.576 102.221 58.2773 102.136 57.936 102.136C57.5947 102.136 57.3387 102.264 57.168 102.52C56.9973 102.776 56.912 103.117 56.912 103.544C56.912 103.8 57.0827 104.013 57.424 104.184C57.7653 104.355 58.064 104.44 58.32 104.44ZM180.746 40.824C183.989 48.0773 185.61 55.7147 185.61 63.736C185.61 70.3067 184.885 75.9813 183.434 80.76C181.642 86.136 179.765 90.1893 177.802 92.92C174.901 97.016 171.487 100.301 167.562 102.776C164.746 104.568 161.759 105.976 158.602 107C155.445 108.109 151.69 108.664 147.338 108.664C143.583 108.664 140.17 108.195 137.098 107.256C134.111 106.317 131.039 104.867 127.882 102.904C125.663 101.453 122.079 98.4667 117.13 93.944C112.266 89.5067 107.445 84.5573 102.666 79.096C101.215 77.3893 99.722 75.256 98.186 72.696C96.7353 70.136 95.498 67.4907 94.474 64.76C93.7913 62.8827 93.1513 60.28 92.554 56.952C92.042 53.5387 91.786 50.04 91.786 46.456C91.786 42.2747 92.0847 38.5627 92.682 35.32C93.2793 31.992 94.2607 28.4933 95.626 24.824C97.5033 19.7893 100.149 15.5227 103.562 12.024C106.975 8.43999 110.815 5.752 115.082 3.96C117.045 3.192 119.391 2.50933 122.122 1.91199C124.853 1.31466 127.541 1.016 130.186 1.016C136.159 1.016 141.279 2.08266 145.546 4.216C148.191 5.49599 150.026 6.60533 151.05 7.544C154.805 10.4453 158.602 13.816 162.442 17.656C166.282 21.4107 169.183 24.3973 171.146 26.616C175.498 31.3947 178.698 36.1307 180.746 40.824ZM93.834 47.736C93.834 52.7707 94.602 57.848 96.138 62.968C97.674 68.0027 100.063 72.5253 103.306 76.536C104.586 78.2427 106.378 79.992 108.682 81.784C111.071 83.576 113.247 84.984 115.21 86.008C117.087 86.9467 119.477 87.7147 122.378 88.312C125.365 88.9093 127.839 89.208 129.802 89.208C132.533 89.208 135.306 88.8667 138.122 88.184C141.023 87.5013 143.541 86.6053 145.674 85.496C150.453 82.936 154.207 79.9493 156.938 76.536C159.669 73.1227 161.802 69.24 163.338 64.888C164.362 61.9013 165.087 58.872 165.514 55.8C166.026 52.728 166.282 50.0827 166.282 47.864C166.197 41.6347 165.386 36.0453 163.85 31.096C162.399 26.0613 160.607 21.9227 158.474 18.68C155.658 14.2427 152.245 10.744 148.234 8.184C142.943 4.77066 136.927 3.064 130.186 3.064C128.821 3.064 127.114 3.23466 125.066 3.576C123.018 3.832 121.397 4.13066 120.202 4.47199C116.191 5.752 112.949 7.20266 110.474 8.824C108.085 10.4453 105.567 12.8347 102.922 15.992C100.618 18.808 98.826 22.0933 97.546 25.848C96.266 29.176 95.3273 32.376 94.73 35.448C94.1327 38.4347 93.834 42.5307 93.834 47.736ZM122.762 36.472C123.53 35.0213 124.469 33.912 125.578 33.144C126.687 32.376 128.223 31.992 130.186 31.992C132.831 31.992 134.965 33.2293 136.586 35.704C138.207 38.0933 139.018 40.9093 139.018 44.152C139.018 46.5413 138.805 48.632 138.378 50.424C138.037 52.216 137.311 53.9227 136.202 55.544C134.495 58.104 132.319 59.384 129.674 59.384C128.138 59.384 126.858 59.0853 125.834 58.488C124.895 57.8053 123.957 56.696 123.018 55.16C121.397 52.6853 120.586 49.1867 120.586 44.664C120.586 42.0187 121.311 39.288 122.762 36.472ZM170.506 36.088C170.677 36.088 170.805 36.0453 170.89 35.96C171.061 35.7893 171.146 35.6187 171.146 35.448C171.146 35.2773 171.061 35.1493 170.89 35.064C170.805 34.8933 170.677 34.808 170.506 34.808C170.079 34.808 169.866 35.0213 169.866 35.448C169.866 35.8747 170.079 36.088 170.506 36.088ZM175.498 42.744C175.754 42.744 175.967 42.6587 176.138 42.488C176.394 42.3173 176.522 42.0613 176.522 41.72C176.522 41.0373 176.138 40.696 175.37 40.696C175.199 40.696 174.986 40.824 174.73 41.08C174.559 41.2507 174.474 41.464 174.474 41.72C174.474 42.4027 174.815 42.744 175.498 42.744ZM128.138 49.528C128.394 49.528 129.034 49.016 130.058 47.992C130.997 48.9307 131.594 49.4 131.85 49.4C132.277 49.4 132.49 49.2293 132.49 48.888C132.49 48.5467 132.405 48.1627 132.234 47.736C132.063 47.224 131.935 46.8827 131.85 46.712C132.959 46.1147 133.514 45.6027 133.514 45.176C133.514 44.7493 132.661 44.536 130.954 44.536C130.527 43.0853 130.186 42.36 129.93 42.36C129.503 42.36 129.162 42.744 128.906 43.512C128.735 44.1947 128.65 44.5787 128.65 44.664C126.943 44.664 126.09 44.8773 126.09 45.304C126.09 45.7307 126.73 46.2853 128.01 46.968C127.754 47.992 127.626 48.632 127.626 48.888C127.626 49.3147 127.797 49.528 128.138 49.528ZM179.082 50.04C179.082 49.6987 178.911 49.528 178.57 49.528C178.57 49.528 177.93 49.656 176.65 49.912C176.394 49.4 176.138 48.9733 175.882 48.632C175.626 48.2053 175.37 47.992 175.114 47.992C174.773 47.992 174.602 48.8453 174.602 50.552C174.431 50.6373 174.005 50.808 173.322 51.064C172.725 51.2347 172.426 51.4907 172.426 51.832C172.426 52.2587 173.109 52.5573 174.474 52.728C174.474 53.496 174.474 54.0933 174.474 54.52C174.559 54.9467 174.73 55.16 174.986 55.16C175.413 55.16 175.925 54.5627 176.522 53.368C177.375 53.9653 178.015 54.264 178.442 54.264C178.698 54.264 178.826 54.0507 178.826 53.624C178.826 53.4533 178.527 52.856 177.93 51.832C178.698 50.8933 179.082 50.296 179.082 50.04ZM173.45 62.584C173.45 62.4133 172.981 62.328 172.042 62.328C172.042 62.2427 171.957 61.9867 171.786 61.56C171.701 61.1333 171.53 60.92 171.274 60.92C171.103 60.92 170.89 61.3893 170.634 62.328C169.525 62.328 168.97 62.456 168.97 62.712C168.97 62.968 169.354 63.3093 170.122 63.736C169.866 64.504 169.738 64.9307 169.738 65.016C169.738 65.272 169.823 65.4 169.994 65.4C170.25 65.4 170.677 65.1013 171.274 64.504C171.786 65.016 172.127 65.272 172.298 65.272C172.554 65.272 172.682 65.144 172.682 64.888L172.426 63.736C173.109 63.224 173.45 62.84 173.45 62.584ZM179.466 72.312C179.722 72.312 179.935 72.2267 180.106 72.056C180.362 71.8 180.49 71.5013 180.49 71.16C180.49 70.4773 180.106 70.136 179.338 70.136C179.167 70.136 178.954 70.264 178.698 70.52C178.442 70.6907 178.314 70.904 178.314 71.16C178.314 71.928 178.698 72.312 179.466 72.312ZM168.458 76.792C168.629 76.792 168.757 76.7493 168.842 76.664C169.013 76.5787 169.098 76.4507 169.098 76.28C169.098 76.1093 169.013 75.9813 168.842 75.896C168.757 75.7253 168.629 75.64 168.458 75.64C168.031 75.64 167.818 75.8107 167.818 76.152C167.818 76.5787 168.031 76.792 168.458 76.792ZM173.194 81.656C173.365 81.656 173.535 81.528 173.706 81.272C173.962 81.016 174.09 80.8027 174.09 80.632C174.09 80.4613 173.962 80.2907 173.706 80.12C173.535 79.9493 173.322 79.864 173.066 79.864C172.554 79.864 172.298 80.2053 172.298 80.888C172.298 81.0587 172.383 81.2293 172.554 81.4C172.725 81.5707 172.938 81.656 173.194 81.656ZM161.418 84.472C161.674 84.472 161.887 84.3867 162.058 84.216C162.229 83.96 162.314 83.7467 162.314 83.576C162.314 83.064 161.93 82.808 161.162 82.808C160.735 82.808 160.522 83.1067 160.522 83.704C160.522 84.216 160.821 84.472 161.418 84.472ZM169.482 92.408C169.738 92.408 169.951 92.28 170.122 92.024C170.293 91.768 170.378 91.4693 170.378 91.128C170.378 90.5307 169.951 90.232 169.098 90.232C168.842 90.232 168.586 90.36 168.33 90.616C168.159 90.872 168.074 91.128 168.074 91.384C168.074 91.7253 168.202 91.9813 168.458 92.152C168.714 92.3227 169.055 92.408 169.482 92.408ZM143.882 94.328C144.138 94.328 144.351 94.2 144.522 93.944C144.778 93.7733 144.906 93.5173 144.906 93.176C144.906 92.4933 144.479 92.152 143.626 92.152C143.37 92.152 143.157 92.2373 142.986 92.408C142.815 92.664 142.73 92.92 142.73 93.176C142.73 93.944 143.114 94.328 143.882 94.328ZM151.818 94.072C151.989 94.072 152.117 93.9867 152.202 93.816C152.373 93.7307 152.458 93.6027 152.458 93.432C152.458 93.0053 152.202 92.792 151.69 92.792C151.349 92.792 151.178 93.0053 151.178 93.432C151.178 93.6027 151.221 93.7307 151.306 93.816C151.477 93.9867 151.647 94.072 151.818 94.072ZM163.21 96.888C163.21 96.632 162.741 96.248 161.802 95.736L162.058 93.944C162.058 93.688 161.93 93.56 161.674 93.56C161.418 93.56 160.949 93.9013 160.266 94.584C159.413 93.9867 158.858 93.688 158.602 93.688C158.346 93.688 158.218 93.816 158.218 94.072C158.303 94.328 158.389 94.6267 158.474 94.968C158.645 95.3093 158.773 95.5653 158.858 95.736C158.687 95.8213 158.431 95.992 158.09 96.248C157.749 96.5893 157.578 96.8453 157.578 97.016C157.578 97.1867 157.749 97.272 158.09 97.272C158.517 97.3573 159.029 97.4 159.626 97.4C160.053 98.5093 160.394 99.064 160.65 99.064C160.821 99.064 160.949 98.8933 161.034 98.552C161.205 98.2107 161.333 97.784 161.418 97.272C162.613 97.272 163.21 97.144 163.21 96.888ZM133.386 99.832C133.642 99.832 134.026 99.4053 134.538 98.552L135.946 98.936C136.117 98.936 136.202 98.8507 136.202 98.68C136.202 98.5093 135.903 98.0827 135.306 97.4C135.818 96.7173 136.074 96.2907 136.074 96.12C136.074 95.9493 135.989 95.864 135.818 95.864C135.647 95.864 135.178 95.992 134.41 96.248C134.069 95.48 133.727 95.096 133.386 95.096C133.215 95.096 133.13 95.6507 133.13 96.76C132.959 96.8453 132.661 96.9307 132.234 97.016C131.807 97.1867 131.594 97.3573 131.594 97.528C131.594 97.8693 132.106 98.0827 133.13 98.168C133.13 99.2773 133.215 99.832 133.386 99.832ZM149.77 102.136C150.197 102.136 150.41 101.965 150.41 101.624C150.41 101.197 150.154 100.984 149.642 100.984C149.301 100.984 149.13 101.155 149.13 101.496C149.13 101.667 149.173 101.795 149.258 101.88C149.429 102.051 149.599 102.136 149.77 102.136ZM141.834 102.776C142.175 102.776 142.346 102.605 142.346 102.264C142.346 102.093 142.261 101.923 142.09 101.752C142.005 101.667 141.877 101.624 141.706 101.624C141.365 101.624 141.194 101.795 141.194 102.136C141.194 102.563 141.407 102.776 141.834 102.776ZM258.434 108.28C255.447 108.28 253.101 108.024 251.394 107.512C247.981 106.488 244.738 104.568 241.666 101.752C239.277 99.6187 236.418 96.5467 233.09 92.536C232.749 95.352 232.322 97.6133 231.81 99.32C231.383 101.027 230.743 102.392 229.89 103.416C227.671 106.147 223.703 107.512 217.986 107.512C214.829 107.512 212.098 107.043 209.794 106.104C204.077 103.459 197.079 96.76 188.802 86.008C187.693 84.5573 186.882 82.7653 186.37 80.632C185.858 78.4987 185.474 75.64 185.218 72.056C184.706 66.2533 184.237 57.6347 183.81 46.2C183.725 43.7253 183.682 39.6293 183.682 33.912V22.008C183.682 17.7413 184.023 14.328 184.706 11.768C185.389 9.208 186.626 7.11733 188.418 5.49599C190.893 3.19199 194.989 2.03999 200.706 2.03999C202.669 2.03999 204.29 2.25333 205.57 2.67999C206.85 3.10666 208.215 3.83199 209.666 4.856C211.031 5.88 213.506 8.26933 217.09 12.024C220.674 15.6933 223.362 18.5947 225.154 20.728C225.154 19.3627 225.197 18.296 225.282 17.528C225.538 13.688 225.879 10.8293 226.306 8.952C226.733 7.07466 227.458 5.45333 228.482 4.088C229.506 2.72266 230.957 1.78399 232.834 1.272C234.797 0.759997 237.57 0.503998 241.154 0.503998C245.506 0.503998 249.047 1.528 251.778 3.576C256.727 7.50133 262.487 13.2613 269.058 20.856C271.789 24.0987 273.325 27.5973 273.666 31.352C274.093 36.6427 274.306 46.1147 274.306 59.768C274.306 63.5227 274.135 68.7707 273.794 75.512C273.538 82.2533 273.239 87.2453 272.898 90.488C272.471 94.2427 272.002 97.144 271.49 99.192C271.063 101.24 270.21 102.904 268.93 104.184C267.65 105.549 266.157 106.573 264.45 107.256C262.829 107.939 260.823 108.28 258.434 108.28ZM240.77 88.952C246.061 88.952 249.687 87.0747 251.65 83.32C252.503 81.6133 253.058 79.3093 253.314 76.408C253.655 73.4213 253.869 71.6293 253.954 71.032C254.807 61.7307 255.234 49.8693 255.234 35.448C255.234 25.3787 255.063 18.552 254.722 14.968C254.381 11.128 253.399 8.26933 251.778 6.392C250.669 5.11199 249.175 4.13066 247.298 3.448C245.421 2.76533 243.245 2.424 240.77 2.424C236.93 2.424 234.242 2.85066 232.706 3.70399C231.17 4.472 230.018 5.53866 229.25 6.904C228.226 8.43999 227.543 12.4933 227.202 19.064C227.031 22.5627 226.861 25.2933 226.69 27.256C226.519 28.792 225.922 29.56 224.898 29.56C224.301 29.56 223.746 29.2613 223.234 28.664C222.722 27.9813 222.125 27.0427 221.442 25.848C218.199 20.1307 215.383 15.4373 212.994 11.768C211.287 9.29333 209.794 7.58666 208.514 6.64799C206.295 4.94133 203.522 4.088 200.194 4.088C197.719 4.088 195.543 4.42933 193.666 5.112C191.789 5.70933 190.423 6.47733 189.57 7.41599C187.01 9.80533 185.73 14.6693 185.73 22.008V34.04C185.73 39.8427 185.773 43.896 185.858 46.2L185.986 50.04C186.327 59.9387 186.711 67.2773 187.138 72.056C187.65 76.7493 188.503 80.4187 189.698 83.064C191.319 86.4773 195.074 88.184 200.962 88.184C207.106 88.184 210.989 86.52 212.61 83.192C213.634 81.2293 214.274 74.7867 214.53 63.864C214.53 63.0107 214.615 62.4133 214.786 62.072C215.042 61.7307 215.469 61.56 216.066 61.56C216.578 61.56 217.133 62.072 217.73 63.096C218.413 64.0347 219.223 65.4427 220.162 67.32L221.57 70.136C223.021 73.0373 224.471 75.8533 225.922 78.584C227.373 81.3147 228.653 83.4053 229.762 84.856C230.957 86.4773 232.407 87.5867 234.114 88.184C235.906 88.696 238.125 88.952 240.77 88.952ZM222.85 22.392C223.277 22.392 223.49 22.0933 223.49 21.496C223.49 21.4107 223.405 21.3253 223.234 21.24C223.063 21.0693 222.85 20.984 222.594 20.984C222.423 20.984 222.253 21.0693 222.082 21.24C221.997 21.3253 221.954 21.496 221.954 21.752C221.954 21.9227 222.039 22.0933 222.21 22.264C222.466 22.3493 222.679 22.392 222.85 22.392ZM262.402 22.52C262.573 22.52 262.701 22.4347 262.786 22.264C262.957 22.008 263.042 21.7947 263.042 21.624C263.042 21.4533 262.914 21.3253 262.658 21.24C262.487 21.0693 262.317 20.984 262.146 20.984C261.719 20.984 261.506 21.2827 261.506 21.88C261.506 22.3067 261.805 22.52 262.402 22.52ZM265.346 32.504C265.602 32.504 265.986 32.12 266.498 31.352C267.266 31.9493 267.693 32.248 267.778 32.248C268.119 32.248 268.29 32.0773 268.29 31.736C268.29 31.48 268.119 31.0107 267.778 30.328C268.546 29.7307 268.93 29.3467 268.93 29.176C268.93 28.92 268.759 28.792 268.418 28.792H267.138C266.711 27.768 266.413 27.256 266.242 27.256C265.986 27.256 265.73 27.8107 265.474 28.92C264.962 28.92 264.535 28.9627 264.194 29.048C263.853 29.1333 263.682 29.304 263.682 29.56C263.682 29.6453 264.151 29.9867 265.09 30.584L264.834 32.12C264.834 32.376 265.005 32.504 265.346 32.504ZM263.298 43.384C263.554 43.384 263.725 43.256 263.81 43C263.895 42.6587 263.938 42.232 263.938 41.72C265.047 41.6347 265.602 41.4213 265.602 41.08C265.602 40.9093 265.133 40.5253 264.194 39.928L264.322 38.648C264.322 38.392 264.151 38.264 263.81 38.264C263.639 38.264 263.213 38.6053 262.53 39.288C262.445 39.2027 262.189 39.0747 261.762 38.904C261.421 38.648 261.207 38.52 261.122 38.52C260.866 38.52 260.738 38.6053 260.738 38.776C260.738 39.032 260.994 39.5867 261.506 40.44C261.335 40.6107 261.079 40.8667 260.738 41.208C260.482 41.464 260.354 41.6773 260.354 41.848C260.354 42.104 260.482 42.232 260.738 42.232L262.274 41.976C262.871 42.9147 263.213 43.384 263.298 43.384ZM268.674 49.016C268.845 49.016 268.973 48.9733 269.058 48.888C269.229 48.7173 269.314 48.504 269.314 48.248C269.314 47.736 269.015 47.48 268.418 47.48C267.991 47.48 267.778 47.736 267.778 48.248C267.778 48.76 268.077 49.016 268.674 49.016ZM263.298 52.088C263.639 52.088 263.81 51.832 263.81 51.32C263.81 50.808 263.511 50.552 262.914 50.552C262.487 50.552 262.274 50.808 262.274 51.32C262.274 51.832 262.615 52.088 263.298 52.088ZM268.418 58.744C268.759 58.744 269.015 58.616 269.186 58.36C269.442 58.104 269.57 57.848 269.57 57.592C269.57 57.336 269.442 57.08 269.186 56.824C268.93 56.4827 268.631 56.312 268.29 56.312C267.949 56.312 267.65 56.44 267.394 56.696C267.223 56.952 267.138 57.2933 267.138 57.72C267.138 58.0613 267.266 58.3173 267.522 58.488C267.778 58.6587 268.077 58.744 268.418 58.744ZM261.25 67.96C261.591 67.96 261.847 67.832 262.018 67.576C262.274 67.32 262.402 67.064 262.402 66.808C262.402 66.552 262.274 66.296 262.018 66.04C261.762 65.784 261.463 65.656 261.122 65.656C260.781 65.656 260.482 65.784 260.226 66.04C260.055 66.296 259.97 66.5947 259.97 66.936C259.97 67.2773 260.098 67.5333 260.354 67.704C260.61 67.8747 260.909 67.96 261.25 67.96ZM266.242 81.784C266.669 81.784 266.882 80.9307 266.882 79.224C268.418 78.8827 269.186 78.4987 269.186 78.072C269.186 77.7307 268.418 77.3467 266.882 76.92C266.882 76.152 266.839 75.5547 266.754 75.128C266.669 74.616 266.498 74.36 266.242 74.36C265.986 74.36 265.431 74.9147 264.578 76.024C263.127 75.5973 262.359 75.384 262.274 75.384C261.933 75.384 261.762 75.5547 261.762 75.896C261.762 76.2373 262.189 76.92 263.042 77.944C262.871 78.2 262.573 78.5413 262.146 78.968C261.805 79.3947 261.634 79.736 261.634 79.992C261.634 80.1627 261.677 80.3333 261.762 80.504C261.933 80.5893 262.103 80.632 262.274 80.632C262.445 80.632 262.786 80.5467 263.298 80.376C263.81 80.12 264.194 79.9493 264.45 79.864C265.303 81.144 265.901 81.784 266.242 81.784ZM219.266 79.864C219.607 79.864 219.863 79.736 220.034 79.48C220.205 79.224 220.29 78.968 220.29 78.712C220.29 78.456 220.162 78.2 219.906 77.944C219.735 77.688 219.437 77.56 219.01 77.56C218.754 77.56 218.498 77.688 218.242 77.944C218.071 78.2 217.986 78.4987 217.986 78.84C217.986 79.1813 218.114 79.4373 218.37 79.608C218.626 79.7787 218.925 79.864 219.266 79.864ZM222.338 86.392C222.509 86.392 222.637 86.3067 222.722 86.136C222.893 85.88 222.978 85.6667 222.978 85.496C222.978 85.0693 222.722 84.856 222.21 84.856C222.039 84.856 221.869 84.9413 221.698 85.112C221.527 85.2827 221.442 85.496 221.442 85.752C221.442 86.1787 221.741 86.392 222.338 86.392ZM259.074 91.768C259.245 91.768 259.373 91.6827 259.458 91.512C259.629 91.3413 259.714 91.128 259.714 90.872C259.714 90.4453 259.415 90.232 258.818 90.232C258.647 90.232 258.477 90.3173 258.306 90.488C258.135 90.6587 258.05 90.8293 258.05 91C258.05 91.512 258.391 91.768 259.074 91.768ZM268.162 93.176C268.333 93.176 268.461 93.0907 268.546 92.92C268.717 92.7493 268.802 92.536 268.802 92.28C268.802 91.8533 268.503 91.64 267.906 91.64C267.479 91.64 267.266 91.896 267.266 92.408C267.266 92.92 267.565 93.176 268.162 93.176ZM220.034 100.216C220.119 100.216 220.759 99.704 221.954 98.68C222.893 99.6187 223.49 100.088 223.746 100.088C224.173 100.088 224.386 99.8747 224.386 99.448C224.386 99.0213 224.173 98.2533 223.746 97.144C225.111 96.5467 225.794 95.992 225.794 95.48C225.794 95.1387 224.855 94.968 222.978 94.968C222.551 93.3467 222.167 92.536 221.826 92.536C221.399 92.536 220.973 93.3893 220.546 95.096C219.693 95.096 219.01 95.1387 218.498 95.224C218.071 95.3093 217.858 95.48 217.858 95.736C217.858 95.992 218.029 96.248 218.37 96.504C218.711 96.76 219.223 97.0587 219.906 97.4C219.821 97.7413 219.693 98.1253 219.522 98.552C219.437 98.9787 219.394 99.3627 219.394 99.704C219.394 100.045 219.607 100.216 220.034 100.216ZM204.418 95.736C204.589 95.736 204.717 95.6507 204.802 95.48C204.973 95.3093 205.058 95.096 205.058 94.84C205.058 94.4133 204.759 94.2 204.162 94.2C203.991 94.2 203.821 94.2853 203.65 94.456C203.479 94.6267 203.394 94.7973 203.394 94.968C203.394 95.48 203.735 95.736 204.418 95.736ZM248.578 100.728C248.663 100.728 248.877 100.515 249.218 100.088C249.559 99.6613 249.815 99.3627 249.986 99.192C251.01 99.7893 251.65 100.088 251.906 100.088C252.162 100.088 252.29 99.9173 252.29 99.576L251.394 97.912C252.247 97.0587 252.674 96.504 252.674 96.248C252.674 95.992 252.503 95.864 252.162 95.864L250.498 96.12C249.901 95.0107 249.474 94.456 249.218 94.456C249.047 94.456 248.877 94.6267 248.706 94.968C248.621 95.3947 248.535 95.9067 248.45 96.504C247.853 96.6747 247.341 96.8027 246.914 96.888C246.573 97.0587 246.402 97.272 246.402 97.528C246.402 97.784 246.999 98.1253 248.194 98.552L247.938 100.216C247.938 100.557 248.151 100.728 248.578 100.728ZM262.274 100.344C262.615 100.344 262.871 100.216 263.042 99.96C263.298 99.704 263.426 99.4053 263.426 99.064C263.426 98.808 263.298 98.552 263.042 98.296C262.786 98.1253 262.487 98.04 262.146 98.04C261.805 98.04 261.506 98.168 261.25 98.424C261.079 98.68 260.994 98.9787 260.994 99.32C260.994 99.576 261.122 99.7893 261.378 99.96C261.634 100.216 261.933 100.344 262.274 100.344ZM212.61 102.008C212.866 102.008 213.079 101.88 213.25 101.624C213.506 101.368 213.634 101.069 213.634 100.728C213.634 100.472 213.506 100.216 213.25 99.96C212.994 99.704 212.653 99.576 212.226 99.576C211.97 99.576 211.714 99.704 211.458 99.96C211.287 100.216 211.202 100.515 211.202 100.856C211.202 101.197 211.33 101.453 211.586 101.624C211.927 101.88 212.269 102.008 212.61 102.008ZM308.266 108.28C305.45 108.28 302.719 107.811 300.074 106.872C297.514 105.933 295.253 104.568 293.29 102.776C286.89 96.8027 281.685 91.0853 277.674 85.624C275.37 82.4667 273.962 76.8347 273.45 68.728C273.023 61.6453 272.81 55.416 272.81 50.04C272.81 36.5573 273.194 26.488 273.962 19.832C274.474 15.9067 274.943 13.1333 275.37 11.512C275.797 9.89066 276.607 8.14133 277.802 6.26399C278.826 4.64266 280.362 3.44799 282.41 2.67999C284.543 1.82666 286.847 1.39999 289.322 1.39999C295.295 1.39999 299.647 2.33866 302.378 4.216C305.535 6.17866 308.394 8.44 310.954 11C313.514 13.4747 315.562 15.608 317.098 17.4C318.634 19.1067 319.573 20.1733 319.914 20.6C322.218 23.2453 323.967 26.0613 325.162 29.048C326.357 31.9493 326.954 35.2347 326.954 38.904L327.082 59.64V64.248C326.741 80.9733 326.143 91.384 325.29 95.48C324.778 97.6133 324.095 99.4053 323.242 100.856C322.389 102.392 321.194 103.8 319.658 105.08C318.463 106.019 316.714 106.787 314.41 107.384C312.191 107.981 310.143 108.28 308.266 108.28ZM290.346 88.696C294.442 88.696 297.855 87.8853 300.586 86.264C303.402 84.5573 305.237 81.3573 306.09 76.664C306.773 72.824 307.199 67.1493 307.37 59.64C307.626 48.888 307.754 36.728 307.754 23.16C307.754 16.5893 306.559 11.768 304.17 8.696C302.634 6.81866 300.543 5.496 297.898 4.728C295.338 3.87466 292.735 3.448 290.09 3.448C287.53 3.448 285.311 3.87466 283.434 4.728C281.557 5.496 279.978 6.94666 278.698 9.07999C277.247 11.5547 276.223 16.4187 275.626 23.672C275.029 30.9253 274.73 39.032 274.73 47.992C274.73 51.832 274.858 56.44 275.114 61.816C275.37 67.192 275.711 71.416 276.138 74.488C276.821 79.608 278.271 83.2773 280.49 85.496C282.794 87.6293 286.079 88.696 290.346 88.696ZM314.026 24.056C314.282 24.056 314.495 23.9707 314.666 23.8C314.922 23.544 315.05 23.288 315.05 23.032C315.05 22.776 314.965 22.5627 314.794 22.392C314.623 22.2213 314.367 22.136 314.026 22.136C313.77 22.136 313.557 22.264 313.386 22.52C313.215 22.6907 313.13 22.904 313.13 23.16C313.13 23.7573 313.429 24.056 314.026 24.056ZM316.97 38.392C317.226 38.392 317.482 38.264 317.738 38.008C317.994 37.6667 318.25 37.24 318.506 36.728C318.677 36.8133 318.933 36.9413 319.274 37.112C319.701 37.2827 320.042 37.368 320.298 37.368C320.639 37.368 320.81 37.1973 320.81 36.856C320.81 36.6853 320.469 36.088 319.786 35.064C320.554 34.296 320.938 33.784 320.938 33.528C320.938 33.1013 320.767 32.888 320.426 32.888C319.999 32.888 319.615 32.9307 319.274 33.016C319.018 33.1013 318.762 33.1867 318.506 33.272C318.421 33.1867 318.207 32.9307 317.866 32.504C317.61 31.992 317.311 31.736 316.97 31.736C316.629 31.736 316.415 32.504 316.33 34.04C314.965 34.3813 314.282 34.7227 314.282 35.064C314.282 35.4053 314.495 35.6613 314.922 35.832C315.349 36.0027 315.861 36.1307 316.458 36.216C316.458 37.6667 316.629 38.392 316.97 38.392ZM315.434 49.272C315.861 49.272 316.074 48.9733 316.074 48.376C316.074 48.12 315.818 47.992 315.306 47.992C314.879 47.992 314.666 48.1627 314.666 48.504C314.666 49.016 314.922 49.272 315.434 49.272ZM322.218 52.728C322.474 52.728 322.73 52.6427 322.986 52.472C323.242 52.3013 323.37 52.0453 323.37 51.704C323.37 51.448 323.242 51.2347 322.986 51.064C322.815 50.808 322.559 50.68 322.218 50.68C321.962 50.68 321.749 50.808 321.578 51.064C321.407 51.2347 321.322 51.448 321.322 51.704C321.322 51.96 321.407 52.216 321.578 52.472C321.749 52.6427 321.962 52.728 322.218 52.728ZM312.746 57.336C313.087 57.336 313.343 57.2507 313.514 57.08C313.77 56.824 313.898 56.5253 313.898 56.184C313.898 55.5867 313.514 55.288 312.746 55.288C312.063 55.288 311.722 55.672 311.722 56.44C311.722 56.696 311.807 56.9093 311.978 57.08C312.234 57.2507 312.49 57.336 312.746 57.336ZM320.17 68.216C320.426 68.216 320.597 68.0027 320.682 67.576C320.767 67.064 320.81 66.7653 320.81 66.68C321.834 66.68 322.346 66.552 322.346 66.296C322.346 66.04 321.962 65.656 321.194 65.144L321.322 63.864C321.322 63.608 321.194 63.48 320.938 63.48C320.682 63.48 320.341 63.7787 319.914 64.376C319.743 64.2907 319.53 64.2053 319.274 64.12C319.103 63.9493 318.89 63.8213 318.634 63.736C318.378 63.736 318.25 63.8213 318.25 63.992C318.25 64.248 318.421 64.7173 318.762 65.4C318.079 65.912 317.738 66.296 317.738 66.552C317.738 66.808 317.866 66.936 318.122 66.936H319.402C319.658 67.7893 319.914 68.216 320.17 68.216ZM313.898 74.488C314.069 74.488 314.197 74.4453 314.282 74.36C314.453 74.1893 314.538 73.976 314.538 73.72C314.538 73.2933 314.325 73.08 313.898 73.08C313.386 73.08 313.13 73.2933 313.13 73.72C313.13 74.232 313.386 74.488 313.898 74.488ZM321.962 77.176C322.133 77.176 322.303 77.0907 322.474 76.92C322.645 76.7493 322.73 76.5787 322.73 76.408C322.73 75.9813 322.474 75.768 321.962 75.768C321.45 75.768 321.194 75.9813 321.194 76.408C321.194 76.92 321.45 77.176 321.962 77.176ZM316.33 84.6C317.098 84.6 317.482 84.216 317.482 83.448C317.482 82.7653 317.098 82.424 316.33 82.424C315.989 82.424 315.733 82.552 315.562 82.808C315.391 83.064 315.306 83.32 315.306 83.576C315.306 83.832 315.391 84.088 315.562 84.344C315.733 84.5147 315.989 84.6 316.33 84.6ZM309.162 95.352C309.418 95.352 309.589 95.1387 309.674 94.712C309.759 94.2853 309.802 93.7307 309.802 93.048C310.399 92.8773 310.911 92.7067 311.338 92.536C311.765 92.3653 311.978 92.152 311.978 91.896C311.978 91.7253 311.679 91.512 311.082 91.256C310.485 91 310.101 90.8293 309.93 90.744C309.93 89.208 309.802 88.44 309.546 88.44C309.205 88.44 308.863 88.696 308.522 89.208C308.266 89.6347 308.095 89.8907 308.01 89.976C306.986 89.6347 306.303 89.464 305.962 89.464C305.621 89.464 305.45 89.6347 305.45 89.976C305.45 90.4027 305.834 91 306.602 91.768C305.749 92.7067 305.322 93.3467 305.322 93.688C305.322 94.0293 305.493 94.2 305.834 94.2C306.261 94.2 306.901 93.9867 307.754 93.56C308.351 94.7547 308.821 95.352 309.162 95.352ZM319.146 93.432C319.317 93.432 319.487 93.304 319.658 93.048C319.829 92.8773 319.914 92.7067 319.914 92.536C319.914 92.3653 319.829 92.152 319.658 91.896C319.487 91.7253 319.274 91.64 319.018 91.64C318.335 91.64 317.994 91.9387 317.994 92.536C317.994 92.792 318.079 93.0053 318.25 93.176C318.506 93.3467 318.805 93.432 319.146 93.432ZM295.21 97.912C295.466 97.912 295.679 97.784 295.85 97.528C296.106 97.3573 296.234 97.144 296.234 96.888C296.234 96.632 296.149 96.376 295.978 96.12C295.807 95.9493 295.594 95.864 295.338 95.864C294.57 95.864 294.186 96.2053 294.186 96.888C294.186 97.144 294.271 97.3573 294.442 97.528C294.698 97.784 294.954 97.912 295.21 97.912ZM301.61 99.704C301.781 99.704 301.951 99.6187 302.122 99.448C302.293 99.2773 302.378 99.1067 302.378 98.936C302.378 98.5093 302.122 98.296 301.61 98.296C301.098 98.296 300.842 98.5093 300.842 98.936C300.842 99.448 301.098 99.704 301.61 99.704ZM314.154 101.624C314.325 101.624 314.495 101.539 314.666 101.368C314.837 101.283 314.922 101.112 314.922 100.856C314.922 100.685 314.837 100.515 314.666 100.344C314.495 100.259 314.325 100.216 314.154 100.216C313.642 100.216 313.386 100.429 313.386 100.856C313.386 101.368 313.642 101.624 314.154 101.624ZM380.207 108.28C368.943 108.28 360.495 107.64 354.863 106.36C352.047 105.677 349.828 104.952 348.207 104.184C346.586 103.501 344.751 102.179 342.703 100.216C337.924 95.6933 333.7 90.3173 330.031 84.088C329.434 83.1493 328.879 81.8267 328.367 80.12C327.428 77.1333 326.788 72.3547 326.447 65.784C326.106 59.128 325.935 52.8133 325.935 46.84C325.935 36.2587 326.319 27.896 327.087 21.752C327.94 15.608 329.519 11 331.823 7.92799C333.359 5.96533 334.98 4.64266 336.687 3.96C338.479 3.192 340.698 2.63733 343.343 2.296C348.804 1.61333 355.375 1.272 363.055 1.272C368.687 1.272 372.911 1.4 375.727 1.656C378.543 1.82666 381.274 2.21066 383.919 2.808C385.37 3.14933 386.479 3.57599 387.247 4.088C388.1 4.51466 389.039 5.112 390.063 5.88C393.391 8.78133 397.658 13.0053 402.863 18.552C405.508 21.368 407.386 23.8 408.495 25.848C409.604 27.8107 410.159 30.1573 410.159 32.888C410.159 37.496 408.879 41.0373 406.319 43.512C404.527 45.3893 401.754 46.4133 397.999 46.584C396.378 46.6693 394.159 46.712 391.343 46.712C394.586 49.784 396.719 52.0027 397.743 53.368C399.791 56.0133 400.815 58.9573 400.815 62.2C400.815 63.992 400.516 65.7413 399.919 67.448C399.407 69.0693 398.81 70.392 398.127 71.416C400.431 73.5493 402.778 76.0667 405.167 78.968C407.386 81.6133 408.922 83.832 409.775 85.624C410.714 87.416 411.183 89.592 411.183 92.152C411.183 96.8453 409.988 100.344 407.599 102.648C405.295 105.037 401.54 106.573 396.335 107.256C391.642 107.939 386.266 108.28 380.207 108.28ZM362.927 88.952C370.607 88.952 377.263 88.4827 382.895 87.544C386.564 86.8613 388.996 85.4107 390.191 83.192C391.471 80.888 392.111 77.7733 392.111 73.848C392.111 70.3493 391.13 67.7467 389.167 66.04C387.972 65.016 386.522 64.3333 384.815 63.992C383.194 63.5653 381.274 63.352 379.055 63.352C377.348 63.352 374.106 63.4373 369.327 63.608C364.207 63.7787 360.282 63.864 357.551 63.864C356.1 63.864 355.034 63.6507 354.351 63.224C353.668 62.7973 353.327 61.8587 353.327 60.408C353.327 58.36 354.82 57.2507 357.807 57.08C358.319 56.9947 359.727 56.952 362.031 56.952L372.015 57.08C373.039 57.08 374.106 56.952 375.215 56.696C376.41 56.44 377.348 56.0987 378.031 55.672C380.42 54.0507 381.615 50.6373 381.615 45.432C381.615 41.848 380.975 39.288 379.695 37.752C377.988 35.704 374.831 34.68 370.223 34.68C368.858 34.68 366.298 34.7653 362.543 34.936C359.13 35.1067 356.74 35.192 355.375 35.192C354.522 35.192 353.839 34.936 353.327 34.424C352.815 33.912 352.559 33.1867 352.559 32.248C352.559 31.0533 352.815 30.1573 353.327 29.56C353.668 28.9627 354.138 28.5787 354.735 28.408C355.418 28.152 356.399 27.9813 357.679 27.896L367.791 27.512C370.692 27.512 374.02 27.4267 377.775 27.256C380.25 27.1707 382.212 27 383.663 26.744C385.114 26.488 386.394 25.9333 387.503 25.08C389.892 23.288 391.087 20.1307 391.087 15.608C391.087 9.80533 388.954 6.30667 384.687 5.112C382.298 4.42933 379.738 3.96 377.007 3.70399C374.362 3.36266 371.076 3.19199 367.151 3.19199H362.287C355.034 3.19199 348.847 3.49066 343.727 4.088C339.034 4.68533 335.748 6.13599 333.871 8.43999C331.652 11.1707 330.074 15.4373 329.135 21.24C328.623 24.824 328.282 28.2373 328.111 31.48C327.94 34.6373 327.855 38.9467 327.855 44.408C327.855 50.9787 328.068 57.9333 328.495 65.272C328.922 72.6107 329.562 77.5173 330.415 79.992C331.183 82.2107 332.164 83.7893 333.359 84.728C334.554 85.6667 335.919 86.3493 337.455 86.776C343.002 88.2267 351.492 88.952 362.927 88.952ZM398.127 21.112C398.383 21.112 398.596 21.0267 398.767 20.856C399.023 20.6853 399.151 20.472 399.151 20.216C399.151 19.96 399.066 19.7467 398.895 19.576C398.724 19.32 398.511 19.192 398.255 19.192C397.999 19.192 397.743 19.32 397.487 19.576C397.316 19.7467 397.231 19.9173 397.231 20.088C397.231 20.344 397.316 20.6 397.487 20.856C397.743 21.0267 397.956 21.112 398.127 21.112ZM404.655 28.152C404.826 28.152 404.996 28.0667 405.167 27.896C405.338 27.7253 405.423 27.512 405.423 27.256C405.423 27.0853 405.338 26.9147 405.167 26.744C404.996 26.5733 404.783 26.488 404.527 26.488C404.356 26.488 404.186 26.5733 404.015 26.744C403.844 26.9147 403.759 27.128 403.759 27.384C403.759 27.5547 403.844 27.7253 404.015 27.896C404.186 28.0667 404.399 28.152 404.655 28.152ZM399.023 32.12C399.279 32.12 399.535 32.0347 399.791 31.864C400.132 31.608 400.303 31.3093 400.303 30.968C400.303 30.6267 400.175 30.3707 399.919 30.2C399.663 29.944 399.364 29.816 399.023 29.816C398.682 29.816 398.383 29.9013 398.127 30.072C397.871 30.2427 397.743 30.4987 397.743 30.84C397.743 31.1813 397.871 31.48 398.127 31.736C398.383 31.992 398.682 32.12 399.023 32.12ZM373.679 31.864C373.85 31.864 374.02 31.7787 374.191 31.608C374.447 31.352 374.575 31.0533 374.575 30.712C374.575 30.2 374.148 29.944 373.295 29.944C373.124 29.944 372.954 30.0293 372.783 30.2C372.612 30.3707 372.527 30.584 372.527 30.84C372.527 31.1813 372.655 31.4373 372.911 31.608C373.167 31.7787 373.423 31.864 373.679 31.864ZM362.671 32.248C362.842 32.248 362.97 32.2053 363.055 32.12C363.226 31.9493 363.311 31.736 363.311 31.48C363.311 31.3093 363.226 31.1387 363.055 30.968C362.884 30.7973 362.714 30.712 362.543 30.712C362.031 30.712 361.775 31.0107 361.775 31.608C361.775 32.0347 362.074 32.248 362.671 32.248ZM392.751 40.568C393.178 40.568 393.391 40.3973 393.391 40.056L393.263 38.008C394.714 37.6667 395.439 37.2827 395.439 36.856C395.439 36.6 395.268 36.3867 394.927 36.216C394.586 36.0453 394.244 35.96 393.903 35.96C393.562 35.8747 393.306 35.7893 393.135 35.704C393.135 35.5333 393.092 35.2347 393.007 34.808C393.007 34.296 392.964 33.9547 392.879 33.784C392.794 33.528 392.666 33.4 392.495 33.4C392.068 33.4 391.556 33.9547 390.959 35.064C389.679 34.808 388.996 34.68 388.911 34.68C388.484 34.68 388.271 34.936 388.271 35.448C388.271 35.6187 388.442 35.9173 388.783 36.344C389.21 36.6853 389.508 36.984 389.679 37.24C388.996 38.264 388.655 38.8613 388.655 39.032C388.655 39.4587 388.826 39.672 389.167 39.672C389.508 39.672 390.191 39.416 391.215 38.904C391.386 39.0747 391.599 39.416 391.855 39.928C392.196 40.3547 392.495 40.568 392.751 40.568ZM403.631 39.288C403.802 39.288 403.972 39.2027 404.143 39.032C404.314 38.8613 404.399 38.648 404.399 38.392C404.399 38.2213 404.314 38.0507 404.143 37.88C404.058 37.7093 403.887 37.624 403.631 37.624C403.034 37.624 402.735 37.88 402.735 38.392C402.735 38.648 402.82 38.8613 402.991 39.032C403.247 39.2027 403.46 39.288 403.631 39.288ZM387.247 47.224C387.759 47.224 388.015 46.8827 388.015 46.2C388.015 45.7733 387.716 45.56 387.119 45.56C386.607 45.56 386.351 45.8587 386.351 46.456C386.351 46.968 386.65 47.224 387.247 47.224ZM393.135 60.024C393.391 60.024 393.562 59.896 393.647 59.64C393.732 59.2987 393.775 58.872 393.775 58.36C394.799 58.1893 395.311 57.976 395.311 57.72C395.311 57.464 394.842 57.1227 393.903 56.696L394.031 55.544C394.031 55.2027 393.86 55.032 393.519 55.032C393.434 55.032 393.05 55.3733 392.367 56.056L391.215 55.544C390.874 55.544 390.703 55.672 390.703 55.928L391.343 57.336C391.258 57.5067 391.087 57.7627 390.831 58.104C390.575 58.36 390.447 58.5307 390.447 58.616C390.447 58.872 390.575 59 390.831 59L392.239 58.744C392.666 59.5973 392.964 60.024 393.135 60.024ZM384.431 59.384C384.687 59.384 384.9 59.256 385.071 59C385.327 58.744 385.455 58.488 385.455 58.232C385.455 58.0613 385.327 57.848 385.071 57.592C384.9 57.336 384.73 57.208 384.559 57.208C384.303 57.208 384.004 57.2933 383.663 57.464C383.407 57.6347 383.279 57.848 383.279 58.104C383.279 58.4453 383.364 58.744 383.535 59C383.791 59.256 384.09 59.384 384.431 59.384ZM364.335 60.92C364.506 60.92 364.634 60.8347 364.719 60.664C364.89 60.4933 364.975 60.28 364.975 60.024C364.975 59.5973 364.719 59.384 364.207 59.384C363.695 59.384 363.439 59.64 363.439 60.152C363.439 60.664 363.738 60.92 364.335 60.92ZM398.895 80.632C399.322 80.632 399.535 80.3333 399.535 79.736C399.535 79.3093 399.279 79.096 398.767 79.096C398.255 79.096 397.999 79.352 397.999 79.864C397.999 80.376 398.298 80.632 398.895 80.632ZM400.303 88.824C400.559 88.824 400.815 88.7387 401.071 88.568C401.327 88.312 401.455 88.0133 401.455 87.672C401.455 87.5013 401.327 87.288 401.071 87.032C400.9 86.776 400.687 86.648 400.431 86.648C400.175 86.648 399.919 86.7333 399.663 86.904C399.407 87.0747 399.279 87.3307 399.279 87.672C399.279 88.44 399.62 88.824 400.303 88.824ZM390.959 92.536C391.13 92.536 391.258 92.4507 391.343 92.28C391.514 92.1093 391.599 91.896 391.599 91.64C391.599 91.2133 391.343 91 390.831 91C390.66 91 390.49 91.0427 390.319 91.128C390.148 91.2987 390.063 91.512 390.063 91.768C390.063 91.9387 390.148 92.1093 390.319 92.28C390.49 92.4507 390.703 92.536 390.959 92.536ZM381.743 98.04C381.914 98.04 382.212 97.528 382.639 96.504L384.175 96.888C384.431 96.888 384.559 96.7173 384.559 96.376C384.559 96.2053 384.218 95.7787 383.535 95.096C383.962 94.4133 384.175 93.944 384.175 93.688C384.175 93.432 384.047 93.304 383.791 93.304C383.62 93.304 383.194 93.4747 382.511 93.816C381.743 93.048 381.316 92.664 381.231 92.664C380.89 92.664 380.719 92.8347 380.719 93.176L380.975 94.456C379.866 94.8827 379.311 95.1813 379.311 95.352C379.311 95.608 379.567 95.7787 380.079 95.864C380.591 96.0347 380.932 96.1627 381.103 96.248C381.274 97.4427 381.487 98.04 381.743 98.04ZM369.839 96.248C370.095 96.248 370.308 96.1627 370.479 95.992C370.65 95.8213 370.735 95.5653 370.735 95.224C370.735 94.968 370.607 94.712 370.351 94.456C370.18 94.2853 369.967 94.2 369.711 94.2C369.028 94.2 368.687 94.584 368.687 95.352C368.687 95.9493 369.071 96.248 369.839 96.248ZM355.119 101.752C355.46 101.752 356.015 101.155 356.783 99.96C356.954 100.045 357.252 100.173 357.679 100.344C358.191 100.6 358.575 100.728 358.831 100.728C359.172 100.728 359.343 100.515 359.343 100.088C359.343 99.832 359.002 99.2347 358.319 98.296C358.49 98.04 358.703 97.6987 358.959 97.272C359.3 96.8453 359.471 96.5893 359.471 96.504C359.471 95.992 359.3 95.736 358.959 95.736C358.959 95.736 358.319 95.864 357.039 96.12C356.954 96.0347 356.74 95.6933 356.399 95.096C356.058 94.584 355.716 94.328 355.375 94.328C355.119 94.328 354.948 94.6693 354.863 95.352C354.863 96.0347 354.863 96.504 354.863 96.76C354.18 96.9307 353.583 97.1013 353.071 97.272C352.644 97.528 352.431 97.784 352.431 98.04C352.431 98.296 352.644 98.5093 353.071 98.68C353.498 98.8507 354.01 99.0213 354.607 99.192L354.479 101.112C354.479 101.283 354.522 101.411 354.607 101.496C354.778 101.667 354.948 101.752 355.119 101.752ZM347.183 96.504C347.78 96.504 348.079 96.0773 348.079 95.224C348.079 95.0533 347.951 94.8827 347.695 94.712C347.524 94.5413 347.268 94.456 346.927 94.456C346.756 94.456 346.543 94.5413 346.287 94.712C346.116 94.968 346.031 95.224 346.031 95.48C346.031 95.8213 346.159 96.0773 346.415 96.248C346.671 96.4187 346.927 96.504 347.183 96.504ZM404.783 97.4C405.039 97.4 405.295 97.272 405.551 97.016C405.807 96.76 405.935 96.4613 405.935 96.12C405.935 95.864 405.807 95.608 405.551 95.352C405.38 95.1813 405.167 95.096 404.911 95.096C404.57 95.096 404.228 95.1813 403.887 95.352C403.631 95.5227 403.503 95.7787 403.503 96.12C403.503 96.4613 403.631 96.76 403.887 97.016C404.143 97.272 404.442 97.4 404.783 97.4ZM396.335 102.392C396.42 102.392 396.591 102.221 396.847 101.88C397.188 101.539 397.402 101.283 397.487 101.112C398.084 101.539 398.468 101.752 398.639 101.752C398.98 101.752 399.151 101.581 399.151 101.24L398.511 99.96C399.023 99.2773 399.279 98.8507 399.279 98.68C399.279 98.424 399.108 98.296 398.767 98.296L397.615 98.552C397.188 97.6133 396.847 97.144 396.591 97.144C396.25 97.144 396.079 97.6987 396.079 98.808C395.567 98.9787 395.14 99.1067 394.799 99.192C394.543 99.3627 394.415 99.5333 394.415 99.704C394.415 99.96 394.927 100.259 395.951 100.6L395.823 101.88C395.823 102.221 395.994 102.392 396.335 102.392ZM373.935 101.368C374.362 101.368 374.575 101.112 374.575 100.6C374.575 100.088 374.319 99.832 373.807 99.832C373.636 99.832 373.466 99.9173 373.295 100.088C373.124 100.259 373.039 100.429 373.039 100.6C373.039 100.856 373.124 101.027 373.295 101.112C373.551 101.283 373.764 101.368 373.935 101.368ZM364.591 103.032C364.762 103.032 364.89 102.947 364.975 102.776C365.146 102.605 365.231 102.392 365.231 102.136C365.231 101.965 365.103 101.795 364.847 101.624C364.676 101.539 364.506 101.496 364.335 101.496C363.908 101.496 363.695 101.795 363.695 102.392C363.695 102.563 363.78 102.691 363.951 102.776C364.207 102.947 364.42 103.032 364.591 103.032ZM386.863 103.544C387.204 103.544 387.375 103.245 387.375 102.648C387.375 102.221 387.119 102.008 386.607 102.008C386.436 102.008 386.266 102.051 386.095 102.136C386.01 102.307 385.967 102.52 385.967 102.776C385.967 103.288 386.266 103.544 386.863 103.544Z" fill="#19334E"/>
</svg>
